<svg width="75" height="73" viewBox="0 0 75 73" fill="none" xmlns="http://www.w3.org/2000/svg">
<path d="M71.1456 20.0161C69.7103 20.0161 68.4281 19.159 67.8547 17.7743C67.2954 16.438 67.5933 14.9167 68.6118 13.8983L70.7582 11.7518L62.4292 3.42158L60.2827 5.56802C59.2643 6.58648 57.7419 6.88437 56.3455 6.29919C55.0209 5.75169 54.1637 4.46948 54.1637 3.03421V0H42.3895V3.03421C42.3895 4.46948 41.5323 5.75169 40.1477 6.3251C38.8137 6.88555 37.2901 6.58766 36.2716 5.56802L34.124 3.42158L25.795 11.7506L27.9414 13.8971C28.1357 14.0925 28.2958 14.3127 28.4383 14.5435C26.9677 14.2774 25.4665 14.129 23.9488 14.129H23.1528C14.2716 14.129 5.91658 18.8599 1.34702 26.4743L0.984375 27.0806L1.3482 27.687C4.74623 33.3504 10.2401 37.4149 16.4863 39.1268V41.2097C16.4863 42.7427 17.4741 44.0378 18.8411 44.5253V69.4677C18.8411 71.4152 20.4259 73 22.3734 73H24.7282C26.6757 73 28.2605 71.4152 28.2605 69.4677V44.5253C28.7291 44.3581 29.1518 44.1026 29.5062 43.767L34.1252 48.3849L36.2716 46.2384C37.2901 45.22 38.8149 44.9233 40.2089 45.5073C41.5323 46.0548 42.3895 47.337 42.3895 48.7722V51.8064H54.1637V48.7722C54.1637 47.337 55.0209 46.0548 56.4055 45.4813C57.7419 44.9221 59.2631 45.22 60.2816 46.2384L62.428 48.3849L70.7571 40.0558L68.6106 37.9094C67.5933 36.8909 67.2954 35.3697 67.8794 33.9721C68.4281 32.6475 69.7103 31.7903 71.1456 31.7903H74.1798V20.0161H71.1456ZM45.7534 26.4743C44.3699 24.1677 42.6332 22.1308 40.6457 20.4047C42.4048 17.971 45.2412 16.4839 48.2766 16.4839C53.4702 16.4839 57.696 20.7096 57.696 25.9032C57.696 31.0968 53.4702 35.3226 48.2766 35.3226C45.8346 35.3226 43.5198 34.383 41.7761 32.7169C43.2949 31.2287 44.6384 29.545 45.7546 27.687L46.1172 27.0806L45.7534 26.4743ZM40.0135 34.2817C42.2082 36.4482 45.1576 37.6774 48.2766 37.6774C54.7689 37.6774 60.0508 32.3955 60.0508 25.9032C60.0508 19.4109 54.7689 14.129 48.2766 14.129C44.5171 14.129 40.9978 15.9529 38.7948 18.947C38.159 18.4902 37.5032 18.0616 36.8286 17.6648C39.4813 13.9665 43.6658 11.7742 48.2766 11.7742C56.0676 11.7742 62.4056 18.1122 62.4056 25.9032C62.4056 33.6942 56.0676 40.0323 48.2766 40.0323C44.4005 40.0323 40.767 38.4592 38.1084 35.6946C38.7654 35.2543 39.3989 34.781 40.0135 34.2817ZM43.3573 27.0806C40.8718 30.9426 37.2866 33.9226 33.1656 35.7276C35.232 33.4316 36.5024 30.4057 36.5024 27.0806C36.5024 23.7556 35.232 20.7296 33.1656 18.4337C37.2877 20.2387 40.8718 23.2187 43.3573 27.0806ZM12.954 27.0806C12.954 21.2371 17.7073 16.4839 23.5508 16.4839C29.3943 16.4839 34.1476 21.2371 34.1476 27.0806C34.1476 32.9242 29.3943 37.6774 23.5508 37.6774C17.7073 37.6774 12.954 32.9242 12.954 27.0806ZM3.74425 27.0806C6.22978 23.2187 9.81502 20.2387 13.936 18.4337C11.8696 20.7296 10.5992 23.7556 10.5992 27.0806C10.5992 30.4057 11.8696 33.4316 13.936 35.7276C9.81384 33.9226 6.22978 30.9426 3.74425 27.0806ZM24.7282 70.6452H22.3734C21.7234 70.6452 21.196 70.1177 21.196 69.4677V44.7419H25.9056V69.4677C25.9056 70.1177 25.3781 70.6452 24.7282 70.6452ZM27.0831 42.3871H20.0185C19.3686 42.3871 18.8411 41.8596 18.8411 41.2097V39.6461C20.2552 39.8933 21.6952 40.0323 23.1528 40.0323H23.9488C25.4064 40.0323 26.8464 39.8933 28.2605 39.6461V41.2097C28.2605 41.8596 27.733 42.3871 27.0831 42.3871ZM71.825 29.4355H71.1456C68.7555 29.4355 66.6184 30.8625 65.6812 33.1243C64.7534 35.3461 65.2503 37.8776 66.9458 39.5742L67.4273 40.0558L62.428 45.0551L61.9464 44.5736C60.2521 42.8793 57.723 42.38 55.4436 43.3314C53.2359 44.2451 51.8089 46.3821 51.8089 48.7722V49.4516H44.7443V48.7722C44.7443 46.3821 43.3173 44.2451 41.0555 43.3078C38.8349 42.3812 36.3022 42.8757 34.6056 44.5724L34.124 45.0539L30.5835 41.5146C30.5929 41.4134 30.6153 41.3145 30.6153 41.2097V39.1268C32.5133 38.6064 34.3383 37.8635 36.0585 36.9298C39.1857 40.3973 43.574 42.3871 48.2766 42.3871C57.3663 42.3871 64.7605 34.9929 64.7605 25.9032C64.7605 16.8135 57.3663 9.41935 48.2766 9.41935C42.8711 9.41935 37.7634 12.1251 34.7057 16.5463C33.5718 16.0153 32.3967 15.5702 31.1934 15.2087C30.9615 14.0878 30.4246 13.0505 29.6074 12.2334L29.1259 11.7518L34.1252 6.7525L34.6068 7.23406C36.3022 8.92837 38.8313 9.42877 41.1096 8.47624C43.3173 7.56139 44.7443 5.42437 44.7443 3.03421V2.35484H51.8089V3.03421C51.8089 5.42437 53.2359 7.56139 55.4977 8.49861C57.7219 9.4276 60.2521 8.9319 61.9476 7.23406L62.4292 6.7525L67.4285 11.7518L66.9469 12.2334C65.2514 13.9289 64.7546 16.4615 65.7048 18.7363C66.6184 20.9439 68.7555 22.371 71.1456 22.371H71.825V29.4355Z" fill="#FCFDFE"/>
</svg>
