<svg width="60" height="61" viewBox="0 0 60 61" fill="none" xmlns="http://www.w3.org/2000/svg">
<path d="M57.9078 36.9556L55.8037 35.7407C56.1571 33.9832 56.3359 32.2233 56.3359 30.5C56.3359 28.7517 56.1599 26.9901 55.8126 25.254L57.9078 24.0443C58.5567 23.6697 59.021 23.0647 59.2148 22.3409C59.4087 21.6172 59.3093 20.8612 58.9345 20.2122L53.2046 10.2876C52.8299 9.63872 52.225 9.17447 51.5013 8.98061C50.7774 8.78675 50.0215 8.88618 49.3725 9.2609L47.2755 10.4716C44.6268 8.14129 41.5094 6.33779 38.1911 5.21568V2.80528C38.1911 1.25844 36.9326 0 35.3858 0H23.9259C22.3791 0 21.1206 1.25844 21.1206 2.80528V5.2158C17.8199 6.33338 14.7069 8.13926 12.0483 10.4787L9.93913 9.2609C9.2901 8.88618 8.5341 8.78663 7.81034 8.98061C7.08658 9.17459 6.48171 9.63872 6.10699 10.2876L0.377053 20.2122C0.00233909 20.8612 -0.0970992 21.6172 0.0967638 22.3409C0.290627 23.0647 0.754871 23.6697 1.40379 24.0443L3.50787 25.2591C3.15476 27.0167 2.97582 28.7766 2.97582 30.5C2.97582 32.2481 3.15178 34.0097 3.49915 35.7459L1.40391 36.9556C0.0642943 37.729 -0.39625 39.448 0.377053 40.7878L6.10699 50.7124C6.88042 52.0519 8.5994 52.5125 9.93913 51.7391L12.0359 50.5284C14.6848 52.8587 17.802 54.6622 21.1206 55.7844V58.1947C21.1206 59.7416 22.3791 61 23.9259 61H35.3858C36.9326 61 38.1911 59.7416 38.1911 58.1947V55.7842C41.4919 54.6666 44.6049 52.8607 47.2635 50.5214L49.3726 51.7391C50.7121 52.5125 52.4313 52.0519 53.2047 50.7124L58.9347 40.7878C59.708 39.448 59.2474 37.729 57.9078 36.9556ZM57.3839 39.8924L51.6539 49.8169C51.3742 50.3016 50.7524 50.4681 50.2679 50.1883L47.5949 48.6451C47.2553 48.4489 46.8273 48.4968 46.5394 48.7631C43.8065 51.2906 40.5185 53.1976 37.0309 54.2781C36.6561 54.3942 36.4005 54.7409 36.4005 55.1333V58.1947C36.4005 58.7542 35.9453 59.2094 35.3858 59.2094H23.9259C23.3664 59.2094 22.9112 58.7542 22.9112 58.1947V55.1334C22.9112 54.741 22.6557 54.3943 22.2809 54.2782C18.7718 53.191 15.4797 51.2864 12.7603 48.7704C12.5907 48.6134 12.3723 48.5322 12.1521 48.5322C11.9986 48.5322 11.8442 48.5716 11.7047 48.6522L9.04383 50.1883C8.55917 50.468 7.93747 50.3015 7.65778 49.8169L1.92784 39.8924C1.64815 39.4079 1.81479 38.7861 2.29921 38.5063L4.9579 36.9713C5.2974 36.7752 5.4699 36.3813 5.38359 35.9988C4.97402 34.1835 4.76643 32.3333 4.76643 30.5C4.76643 28.6975 4.97712 26.8491 5.39278 25.0062C5.47897 24.6238 5.30647 24.2298 4.96709 24.0339L2.29921 22.4936C2.06452 22.3581 1.89668 22.1393 1.82649 21.8775C1.75642 21.6157 1.79235 21.3422 1.92784 21.1076L7.65778 11.1829C7.79327 10.9482 8.01208 10.7803 8.27399 10.7102C8.53565 10.64 8.80926 10.6761 9.04395 10.8116L11.717 12.3548C12.0567 12.5511 12.4845 12.5031 12.7725 12.2368C15.5054 9.70927 18.7933 7.80227 22.2809 6.72182C22.6558 6.60567 22.9114 6.25901 22.9114 5.86662V2.80528C22.9114 2.24578 23.3665 1.79061 23.926 1.79061H35.3859C35.9454 1.79061 36.4006 2.24578 36.4006 2.80528V5.86662C36.4006 6.25901 36.6562 6.60567 37.0309 6.72182C40.5399 7.80884 43.832 9.71344 46.5515 12.2296C46.8395 12.496 47.2674 12.5439 47.6072 12.3478L50.268 10.8116C50.5028 10.6761 50.7763 10.64 51.038 10.7102C51.2998 10.7804 51.5186 10.9482 51.6542 11.1829L57.3841 21.1076C57.5196 21.3422 57.5557 21.6157 57.4855 21.8775C57.4153 22.1393 57.2474 22.3581 57.0127 22.4936L54.3541 24.0286C54.0146 24.2246 53.8421 24.6187 53.9284 25.001C54.3379 26.8162 54.5455 28.6663 54.5455 30.5C54.5455 32.3025 54.3348 34.1509 53.9192 35.9937C53.833 36.3761 54.0055 36.77 54.3449 36.966L57.0127 38.5063C57.497 38.7861 57.6637 39.4079 57.3839 39.8924Z" fill="#FEFFFF"/>
<path d="M30.1135 41.9772L17.8815 36.3379C17.9238 36.3635 16.7992 35.8555 16 35.3985C16 36.0804 16.1711 37.3303 16.8071 37.6673L28.7825 43.0507C29.841 43.55 30.297 43.55 31.4438 43.0507L43.4191 37.6673C44.0109 37.392 44.2271 36.0962 44.2271 35.3985C43.457 35.784 42.3667 36.3335 42.3455 36.3379L30.1135 41.9772ZM30.1135 18.4808C30.2017 18.584 30.1788 18.5019 30.1135 18.4808V18.4808ZM16.8071 32.028L28.7825 37.4115C29.841 37.9107 30.297 37.9107 31.4438 37.4115L43.4191 32.028C44.0109 31.7528 44.2271 30.457 44.2271 29.7592C43.457 30.1447 42.3667 30.6943 42.3455 30.6987L30.1135 36.3379L17.8815 30.6987C17.9238 30.7243 16.7992 30.2162 16 29.7592C16 30.4411 16.1711 31.6911 16.8071 32.028ZM16.8071 26.3888L28.7825 31.7722C29.841 32.2715 30.297 32.2715 31.4438 31.7722L43.4191 26.3888C44.3012 25.9777 44.3303 24.2294 43.4191 23.7301L31.4438 17.4073C30.5034 16.8498 29.841 16.8789 28.7824 17.4073L16.8071 23.7301C15.8959 24.3176 15.8668 25.8895 16.8071 26.3888ZM30.1135 18.4808L42.3455 25.0594L30.1135 30.2144L17.8815 25.0594L30.1135 18.4808Z" fill="#FEFFFF"/>
</svg>
