<svg width="51" height="55" viewBox="0 0 51 55" fill="none" xmlns="http://www.w3.org/2000/svg">
<path d="M25.0321 0C12.8974 0 0 3.35265 0 9.56285C0 11.2774 1.01032 12.767 2.69112 14.036C2.73163 14.1103 2.76316 14.1891 2.82159 14.2566L20.532 33.83V52.8769C20.532 53.3314 20.8065 53.7432 21.2272 53.9165C21.3668 53.975 21.513 54.002 21.657 54.002C21.9495 54.002 22.2376 53.8873 22.449 53.6735L29.1993 46.9232C29.4085 46.7118 29.5278 46.4259 29.5278 46.1267V33.8299L47.2382 14.2565C47.2967 14.1912 47.3259 14.1147 47.3664 14.0427C49.0518 12.7714 50.0643 11.2818 50.0643 9.56275C50.0641 3.35265 37.1667 0 25.0321 0ZM27.5701 32.6419C27.3833 32.8466 27.2799 33.1166 27.2799 33.3957V45.6608L22.7797 50.161V33.3956C22.7797 33.1166 22.6762 32.8488 22.4894 32.6418L8.07095 16.7046C12.7983 18.2976 19.0085 19.1257 25.0321 19.1257C31.0533 19.1257 37.2589 18.2976 41.9864 16.7069L27.5701 32.6419ZM25.0321 16.8756C11.6059 16.8756 2.25004 13.0212 2.25004 9.56285C2.25004 6.10452 11.6059 2.25015 25.0321 2.25015C38.4583 2.25015 47.8141 6.10452 47.8141 9.56285C47.8141 13.0212 38.4583 16.8756 25.0321 16.8756Z" fill="#FEFFFF"/>
</svg>
