<svg width="58" height="58" viewBox="0 0 58 58" fill="none" xmlns="http://www.w3.org/2000/svg">
<path d="M57.1098 24.4959L52.2302 23.4246C51.652 20.9681 50.6903 18.6404 49.3638 16.4871L51.5987 12.7626C51.8661 12.3168 51.7958 11.7462 51.4284 11.3788L46.6219 6.57227C46.2543 6.20467 45.6837 6.13455 45.2379 6.40201L41.5134 8.63692C39.3601 7.3104 37.0323 6.34865 34.576 5.77058L33.5047 0.890909C33.3907 0.371291 32.9302 0.000976562 32.3982 0.000976562H25.6014C25.0694 0.000976562 24.609 0.371291 24.4949 0.890795L23.4236 5.77047C20.9671 6.34854 18.6394 7.31018 16.4862 8.63681L12.7616 6.40189C12.3155 6.13433 11.7452 6.20456 11.3777 6.57215L6.57118 11.3786C6.2037 11.7462 6.13346 12.3167 6.40081 12.7625L8.63572 16.487C7.3092 18.6403 6.34756 20.9681 5.76938 23.4244L0.889706 24.4957C0.370314 24.61 0 25.0703 0 25.6024V32.3992C0 32.9311 0.370088 33.3913 0.889592 33.5056L5.81843 34.5894C6.41021 37.0265 7.37128 39.3236 8.68307 41.4356L6.40092 45.2391C6.13358 45.6849 6.20381 46.2554 6.57129 46.6229L11.3778 51.4294C11.7454 51.7969 12.3159 51.8673 12.7616 51.5998L16.6256 49.2816C18.7328 50.5605 20.9988 51.4916 23.381 52.0575L24.4952 57.1117C24.6098 57.631 25.0698 58.0007 25.6015 58.0007H32.3984C32.93 58.0007 33.3901 57.631 33.5047 57.1117L34.6189 52.0575C37.0009 51.4915 39.2671 50.5604 41.3743 49.2816L45.2383 51.5998C45.6839 51.8672 46.2545 51.797 46.6221 51.4294L51.4286 46.6229C51.7961 46.2554 51.8663 45.6849 51.599 45.2391L49.3168 41.4355C50.6289 39.3218 51.5901 37.0247 52.1816 34.5894L57.1104 33.5056C57.6299 33.3914 58 32.9312 58 32.3992V25.6024C57.9997 25.0703 57.6293 24.61 57.1098 24.4959ZM55.734 31.4884L50.9925 32.5311C50.5576 32.6267 50.2191 32.9681 50.1272 33.4038C49.5669 36.0623 48.5282 38.5468 47.0396 40.7887C46.7979 41.1526 46.7871 41.6233 47.012 41.998L49.2009 45.6462L45.6452 49.2019L41.9437 46.9811C41.5731 46.7588 41.1079 46.7666 40.7449 47.0019C38.4984 48.4576 36.0411 49.4656 33.4409 49.9976C33.0026 50.0873 32.6581 50.4266 32.5617 50.8635L31.488 55.735H26.5116L25.4378 50.8636C25.3414 50.4267 24.9969 50.0873 24.5587 49.9977C21.9585 49.4656 19.5011 48.4578 17.2547 47.002C16.8918 46.7667 16.4266 46.7589 16.0558 46.9813L12.3544 49.202L8.79873 45.6462L10.9877 41.998C11.2125 41.6232 11.2018 41.1524 10.9598 40.7883C9.47196 38.5491 8.43317 36.0646 7.87243 33.4038C7.78056 32.9681 7.44208 32.6267 7.0072 32.5311L2.26561 31.4884V26.5135L6.96392 25.4821C7.40198 25.3859 7.74216 25.0402 7.8312 24.6005C8.37291 21.9268 9.41011 19.4126 10.9139 17.1276C11.1532 16.764 11.1629 16.2954 10.9391 15.922L8.79873 12.3554L12.3544 8.79982L15.921 10.94C16.2943 11.164 16.7628 11.1544 17.1268 10.9149C19.4116 9.41108 21.9258 8.37388 24.5996 7.83229C25.0392 7.74325 25.3849 7.40307 25.4811 6.96501L26.5125 2.26659H31.4871L32.5186 6.9649C32.6148 7.40307 32.9605 7.74314 33.4001 7.83218C36.0739 8.37377 38.588 9.41097 40.8729 10.9148C41.2367 11.1541 41.7053 11.1639 42.0786 10.9399L45.6453 8.7997L49.2009 12.3552L47.0606 15.9219C46.8367 16.2952 46.8464 16.7639 47.0858 17.1275C48.5896 19.4124 49.6268 21.9267 50.1685 24.6004C50.2575 25.0401 50.5977 25.3858 51.0357 25.482L55.734 26.5134V31.4884Z" fill="white"/>
<path d="M43.6048 20.6176C43.6046 20.617 43.6044 20.6165 43.604 20.616C43.6038 20.6157 43.6036 20.6154 43.6035 20.6151C42.1126 18.0374 39.9622 15.887 37.3848 14.3964C34.8126 12.9078 31.8739 12.1211 28.8866 12.1211C25.8993 12.1211 22.9607 12.9078 20.3886 14.3961C17.8109 15.8869 15.6605 18.0374 14.1698 20.615C14.1698 20.6151 14.1697 20.6151 14.1697 20.6152C14.1695 20.6154 14.1693 20.6157 14.1692 20.6159C14.169 20.6163 14.1688 20.6168 14.1685 20.6173C12.6809 23.1892 11.8945 26.1268 11.8945 29.1132C11.8945 29.1998 11.8957 29.2855 11.8969 29.3753C11.8983 29.488 11.9006 29.5995 11.9054 29.711C11.9078 29.7938 11.9111 29.8765 11.9153 29.9583C11.9156 29.968 11.9159 29.9779 11.9165 29.9876C11.9213 30.0805 11.9273 30.172 11.9335 30.2657C11.9406 30.3683 11.9477 30.4711 11.9566 30.5829C11.9639 30.6664 11.9724 30.7497 11.9806 30.8311C11.9901 30.9262 12.0008 31.0215 12.0115 31.1178C12.0191 31.1844 12.0277 31.2517 12.0369 31.3228C12.0379 31.3305 12.0387 31.3382 12.0398 31.3461C12.0399 31.3467 12.04 31.3474 12.0401 31.3482C12.0403 31.3499 12.0406 31.3514 12.0407 31.3531C12.0658 31.5385 12.0932 31.7228 12.1227 31.9037C12.134 31.9751 12.1465 32.0477 12.1601 32.1192C12.1665 32.157 12.1735 32.1949 12.1809 32.2327C12.1939 32.3058 12.208 32.379 12.2221 32.4519C12.223 32.4564 12.224 32.461 12.2249 32.4654C12.2449 32.5625 12.2653 32.6601 12.2883 32.7664C12.2884 32.7669 12.2884 32.7675 12.2885 32.7682C12.289 32.7703 12.2895 32.7725 12.29 32.7745C12.2907 32.7777 12.2912 32.7805 12.2919 32.7837L12.3071 32.8508C12.3193 32.9059 12.3318 32.9609 12.3452 33.0164C12.3456 33.0184 12.3462 33.0206 12.3467 33.0227C12.347 33.0239 12.3472 33.025 12.3475 33.0261C12.3477 33.0265 12.3478 33.0268 12.3479 33.0273C12.3929 33.2198 12.4427 33.4154 12.4988 33.6178C12.5213 33.7012 12.544 33.7845 12.5672 33.8605C12.5923 33.9472 12.6174 34.0336 12.6446 34.1192C12.6673 34.1938 12.6904 34.2681 12.7154 34.3457L12.7164 34.3491C12.7164 34.3492 12.7165 34.3494 12.7165 34.3495C12.7185 34.3559 12.7205 34.362 12.7225 34.3686C12.7444 34.4353 12.7663 34.5009 12.7893 34.5666C12.8005 34.6004 12.8126 34.6339 12.8242 34.6678C12.8329 34.6929 12.8413 34.718 12.8502 34.7431L12.8555 34.7583C12.8556 34.7588 12.8558 34.7592 12.8561 34.7595C12.8718 34.8059 12.8882 34.8515 12.906 34.8994C12.9347 34.9787 12.9636 35.0583 12.9957 35.144C12.9961 35.145 12.9964 35.1461 12.9969 35.147C12.9969 35.1471 12.9969 35.1471 12.997 35.1472C12.9979 35.1496 12.9987 35.1517 12.9996 35.1541C13.0637 35.3212 13.1321 35.4916 13.2078 35.6734C13.2554 35.7881 13.307 35.9072 13.3667 36.04C13.3866 36.0842 13.406 36.1274 13.4252 36.1688C13.4253 36.169 13.4254 36.1692 13.4256 36.1694C13.4555 36.2367 13.4867 36.3033 13.5184 36.3704L13.5348 36.4051C13.5365 36.4086 13.5382 36.412 13.5399 36.4156C13.5403 36.4162 13.5404 36.4168 13.5407 36.4174L13.5724 36.4831C13.5988 36.5379 13.6251 36.5923 13.6519 36.6467C13.6539 36.6508 13.6558 36.6548 13.658 36.6588C13.6596 36.6621 13.6611 36.6653 13.6627 36.6685C13.6628 36.6687 13.6628 36.6688 13.663 36.669C13.6633 36.6696 13.6635 36.6702 13.6639 36.6708C13.6642 36.6715 13.6645 36.6722 13.6649 36.6727C13.7035 36.7498 13.7421 36.8268 13.7792 36.8977C13.7794 36.8982 13.7796 36.8985 13.7799 36.899C13.7807 36.9004 13.7813 36.9019 13.7821 36.9034L13.8029 36.9429C13.8358 37.006 13.8687 37.0683 13.9024 37.1302C13.9038 37.1327 13.905 37.1353 13.9065 37.1378C13.9067 37.1382 13.907 37.1387 13.9073 37.1391C13.9081 37.1405 13.9088 37.1419 13.9096 37.1433C13.9329 37.187 13.9574 37.232 13.9826 37.2779C14.0163 37.3396 14.0521 37.4037 14.0892 37.4692C14.1144 37.5137 14.1405 37.5597 14.1683 37.6082C14.1684 37.6084 14.1686 37.6087 14.1688 37.6089C14.1692 37.6098 14.1697 37.6105 14.1701 37.6114C17.2001 42.8505 22.8392 46.1053 28.8866 46.1053C34.934 46.1053 40.5731 42.8505 43.6022 37.6134C43.6032 37.6117 43.6039 37.6104 43.6049 37.6087C43.6051 37.6084 43.6053 37.6081 43.6055 37.6079C43.6338 37.5585 43.6603 37.5118 43.6859 37.4665C43.7222 37.4026 43.757 37.3402 43.7897 37.2801C43.8154 37.2334 43.8403 37.1875 43.8642 37.143C43.865 37.1416 43.8657 37.1401 43.8665 37.1388C43.8667 37.1383 43.867 37.1379 43.8672 37.1374C43.9052 37.0676 43.9418 36.9984 43.9765 36.9318L43.9916 36.903C43.9938 36.8987 43.996 36.8943 43.9982 36.89L44.0372 36.8137C44.0618 36.7655 44.0865 36.717 44.1106 36.6687C44.1129 36.6644 44.1149 36.66 44.117 36.6559C44.1187 36.6527 44.1201 36.6495 44.1217 36.6465C44.1485 36.5921 44.1747 36.5377 44.2011 36.4829L44.2329 36.4172C44.2332 36.4165 44.2334 36.4157 44.2338 36.415C44.2351 36.4121 44.2367 36.4091 44.2381 36.4062L44.2551 36.3702C44.2867 36.3031 44.3179 36.2364 44.3478 36.1692C44.3479 36.169 44.3482 36.1688 44.3483 36.1685C44.3673 36.1272 44.3869 36.084 44.4067 36.0397C44.4649 35.9105 44.5151 35.7947 44.5611 35.684C44.5617 35.6827 44.5622 35.6815 44.5627 35.6803C44.5627 35.6802 44.5628 35.6801 44.5628 35.6799C44.5635 35.6784 44.5642 35.6767 44.5649 35.675C44.6413 35.4914 44.7096 35.321 44.7765 35.1467C44.8075 35.0642 44.8374 34.9817 44.8686 34.8962C44.8851 34.8508 44.9017 34.8054 44.9174 34.7592C44.9175 34.7589 44.9177 34.7584 44.9179 34.7581L44.9232 34.7429C44.932 34.7177 44.9404 34.6927 44.9491 34.6676C44.9609 34.6337 44.9728 34.6002 44.984 34.5664C45.007 34.5008 45.029 34.435 45.0526 34.3631C45.054 34.3585 45.0554 34.3539 45.0569 34.3494C45.0569 34.3492 45.057 34.3491 45.057 34.3489L45.0864 34.255C45.0939 34.2314 45.101 34.2078 45.1085 34.1842C45.1152 34.1624 45.1222 34.141 45.1288 34.1192C45.1552 34.0359 45.1798 33.9515 45.2067 33.8578C45.2306 33.7791 45.2524 33.6995 45.2719 33.6266C45.2727 33.6237 45.2736 33.6207 45.2744 33.6177C45.2746 33.6169 45.2747 33.6161 45.2749 33.6152C45.3322 33.4079 45.3819 33.2137 45.4264 33.0227C45.4264 33.0226 45.4265 33.0224 45.4265 33.0223C45.4266 33.0218 45.4267 33.0214 45.4268 33.021C45.4272 33.0194 45.4276 33.0179 45.428 33.0164C45.4413 32.9609 45.4538 32.9059 45.466 32.8508L45.4825 32.7784C45.4829 32.7761 45.4834 32.7738 45.4839 32.7716C45.4841 32.7704 45.4845 32.7693 45.4847 32.7682C45.4848 32.7677 45.4848 32.7673 45.4849 32.7669C45.5075 32.6654 45.5291 32.563 45.5488 32.4629C45.5642 32.3861 45.5785 32.3094 45.5927 32.2326C45.6012 32.1893 45.6089 32.1459 45.6162 32.1027C45.6245 32.0589 45.6319 32.0158 45.6391 31.9725L45.6495 31.9118C45.6779 31.7414 45.7045 31.5616 45.7311 31.3619C45.742 31.2796 45.7527 31.1962 45.7628 31.111C45.7736 31.018 45.7831 30.9261 45.793 30.8306C45.7931 30.8294 45.7932 30.828 45.7933 30.8267C45.7933 30.8261 45.7934 30.8255 45.7935 30.825C45.8018 30.7419 45.8101 30.6576 45.8172 30.5735C45.8172 30.5731 45.8172 30.5728 45.8172 30.5725C45.8173 30.5713 45.8174 30.5704 45.8175 30.5693L45.8186 30.5567C45.8268 30.4558 45.835 30.3549 45.8402 30.2628C45.8443 30.2024 45.8478 30.1421 45.8513 30.0817C45.853 30.0507 45.8554 30.0197 45.8571 29.9886C45.8571 29.9884 45.8571 29.988 45.8571 29.9878C45.8575 29.98 45.8579 29.9708 45.8581 29.9614C45.8624 29.8776 45.8657 29.7929 45.8682 29.7081C45.8729 29.5971 45.8753 29.4861 45.8767 29.3758C45.8776 29.2889 45.8787 29.201 45.8787 29.1132C45.8787 26.1269 45.0924 23.1892 43.6048 20.6176ZM43.5678 27.9804H39.0173C38.9032 26.962 38.6362 25.9665 38.226 25.0294L42.1696 22.7524C42.9532 24.3888 43.428 26.1636 43.5678 27.9804ZM41.0354 20.791L37.091 23.0685C36.483 22.2454 35.7544 21.5167 34.9312 20.9087L37.2087 16.9643C38.7077 17.993 40.0067 19.292 41.0354 20.791ZM30.0194 14.432C31.8363 14.5718 33.611 15.0465 35.2474 15.8302L32.9704 19.7738C32.0333 19.3635 31.0377 19.0966 30.0194 18.9825V14.432ZM27.7538 14.432V18.9825C26.7355 19.0966 25.7399 19.3636 24.8029 19.7738L22.5258 15.8302C24.1621 15.0465 25.9369 14.5718 27.7538 14.432ZM20.5645 16.9644L22.842 20.9088C22.0188 21.5168 21.2901 22.2454 20.6822 23.0686L16.7377 20.7911C17.7665 19.2921 19.0654 17.9931 20.5645 16.9644ZM15.6037 22.7524L19.5473 25.0294C19.137 25.9665 18.87 26.9621 18.7559 27.9804H14.2055C14.3452 26.1636 14.82 24.3888 15.6037 22.7524ZM15.5809 35.4325L15.567 35.4031C15.5408 35.3475 15.5146 35.2925 15.4901 35.2368C15.4878 35.2318 15.4856 35.2268 15.4833 35.2218C15.4829 35.2212 15.4827 35.2205 15.4824 35.2198C15.4822 35.2195 15.4821 35.2191 15.4819 35.2188C15.4768 35.2078 15.4715 35.1959 15.4664 35.1846C15.4561 35.162 15.4458 35.1394 15.4361 35.1178C15.3947 35.0254 15.3499 34.9223 15.2986 34.801C15.2352 34.6486 15.1738 34.4963 15.1171 34.3489C15.0894 34.275 15.0626 34.2012 15.0358 34.1273C15.0352 34.1256 15.0316 34.1158 15.031 34.1141C15.0202 34.0847 15.0093 34.0553 14.9992 34.0251C14.9975 34.02 14.9957 34.0149 14.9939 34.0098C14.9937 34.0092 14.9935 34.0086 14.9933 34.0079L14.9879 33.9925C14.9702 33.9423 14.9524 33.892 14.9358 33.8417C14.9336 33.8354 14.9315 33.8291 14.9292 33.8227C14.9105 33.7696 14.8928 33.7165 14.8768 33.6676L14.8476 33.5743C14.835 33.534 14.8222 33.4935 14.8095 33.4519C14.7874 33.3794 14.7653 33.3058 14.7438 33.2316C14.7427 33.228 14.7417 33.2248 14.7407 33.2211C14.7403 33.2194 14.7397 33.2178 14.7392 33.2161C14.7212 33.1539 14.7032 33.0907 14.6862 33.0276C14.6861 33.027 14.6859 33.0265 14.6857 33.0259C14.6851 33.0239 14.6846 33.0222 14.6841 33.0201C14.6331 32.8359 14.5895 32.6654 14.5508 32.499C14.5499 32.4953 14.549 32.4914 14.5482 32.4877C14.5468 32.4817 14.5455 32.4757 14.5441 32.4697C14.5317 32.4191 14.52 32.3677 14.509 32.3165L14.5033 32.2909C14.4833 32.1994 14.4642 32.1079 14.4454 32.0163C14.4333 31.9539 14.421 31.8913 14.41 31.8287C14.4089 31.8219 14.4077 31.8152 14.4063 31.8084C14.4019 31.7857 14.3974 31.763 14.3937 31.7404C14.3918 31.7285 14.3898 31.7166 14.3874 31.7047C14.3773 31.6525 14.3682 31.5992 14.3594 31.5437C14.3327 31.379 14.3081 31.2144 14.2866 31.0557C14.2782 30.9913 14.2699 30.9269 14.2625 30.8625V30.8622C14.253 30.7767 14.2433 30.6911 14.2345 30.6034C14.2272 30.5321 14.2201 30.4609 14.2138 30.3897C14.21 30.3415 14.2068 30.2939 14.2034 30.2459H18.7551C18.8694 31.2645 19.1358 32.2605 19.5462 33.1976L15.6015 35.4752L15.5809 35.4325ZM28.8866 43.8397C24.0259 43.8397 19.4704 41.4119 16.7382 37.4351L21.6062 34.6243C21.8667 34.4738 22.0567 34.2261 22.1342 33.9355C22.2119 33.645 22.1707 33.3355 22.0199 33.0753C21.3245 31.8753 20.957 30.5053 20.957 29.1132C20.957 27.7211 21.3245 26.3511 22.0199 25.1511C22.717 23.948 23.7215 22.9436 24.9245 22.2463C26.1245 21.5511 27.4946 21.1835 28.8866 21.1835C30.2786 21.1835 31.6487 21.5511 32.8487 22.2463C34.0519 22.9436 35.0562 23.948 35.7535 25.1511C36.2589 26.0232 36.5902 26.9854 36.7339 27.9805H32.0902C31.6226 26.662 30.3635 25.7149 28.8866 25.7149C27.0127 25.7149 25.4882 27.2394 25.4882 29.1133C25.4882 30.9872 27.0127 32.5117 28.8866 32.5117C30.3633 32.5117 31.6226 31.5646 32.0902 30.2461H36.7338C36.59 31.2412 36.2588 32.2033 35.7533 33.0755C35.6026 33.3357 35.5614 33.6452 35.639 33.9358C35.7166 34.2263 35.9065 34.4741 36.167 34.6245L41.0352 37.4355C38.3042 41.4113 33.7482 43.8397 28.8866 43.8397ZM30.0194 29.1132C30.0194 29.7378 29.5112 30.246 28.8866 30.246C28.262 30.246 27.7538 29.7378 27.7538 29.1132C27.7538 28.4886 28.262 27.9804 28.8866 27.9804C29.5112 27.9804 30.0194 28.4886 30.0194 29.1132ZM43.5601 30.3723L43.5594 30.3809C43.5529 30.4557 43.5457 30.5304 43.5382 30.6042C43.5381 30.606 43.5379 30.6078 43.5377 30.6096C43.5293 30.6905 43.521 30.7706 43.5119 30.8488C43.5036 30.9205 43.494 30.9933 43.4845 31.0651C43.4845 31.0653 43.4845 31.0656 43.4845 31.0658C43.4614 31.2393 43.4385 31.3943 43.4159 31.5307L43.4075 31.5799C43.4055 31.5927 43.4031 31.6052 43.4009 31.6179C43.3971 31.6406 43.3934 31.6632 43.3889 31.6861C43.3873 31.6945 43.3859 31.7028 43.3844 31.7113C43.3793 31.7408 43.3743 31.7705 43.3684 31.8002C43.3675 31.805 43.3665 31.8096 43.3658 31.8144C43.3532 31.8827 43.3405 31.9509 43.3264 32.0217C43.3089 32.1101 43.2904 32.1985 43.2721 32.2805L43.2644 32.3146C43.2518 32.3726 43.2388 32.43 43.2248 32.4882C43.2239 32.4919 43.223 32.4957 43.2222 32.4995C43.1835 32.6659 43.1399 32.8363 43.0869 33.0279C43.0696 33.0925 43.0511 33.1571 43.0324 33.2214C43.0102 33.2987 42.9869 33.376 42.9634 33.4531C42.951 33.4939 42.9382 33.5343 42.9255 33.5746L42.8969 33.666C42.8795 33.7189 42.8623 33.7711 42.8439 33.8229C42.8417 33.8293 42.8395 33.8356 42.8373 33.842C42.8207 33.8923 42.8029 33.9424 42.7852 33.9927L42.7798 34.0082C42.7796 34.0088 42.7795 34.0094 42.7792 34.0101C42.7774 34.0152 42.7756 34.0203 42.7739 34.0254C42.7638 34.0556 42.7528 34.085 42.7421 34.1143C42.7415 34.116 42.7379 34.1258 42.7373 34.1275C42.7113 34.1994 42.6852 34.2712 42.6583 34.343C42.5989 34.4977 42.5374 34.6505 42.473 34.8047C42.4224 34.9245 42.3781 35.0264 42.3371 35.118C42.3274 35.1396 42.3171 35.1624 42.3066 35.1851C42.3015 35.1964 42.2962 35.2081 42.2912 35.219C42.2911 35.2193 42.291 35.2197 42.2908 35.22C42.2904 35.2207 42.2902 35.2214 42.2899 35.2221C42.2875 35.2269 42.2853 35.2319 42.2831 35.237C42.2585 35.2928 42.2324 35.3478 42.2061 35.4033L42.1909 35.4356L42.1716 35.4755L38.2269 33.1979C38.6375 32.2605 38.9038 31.2645 39.0179 30.246H43.5695C43.5663 30.288 43.5636 30.3304 43.5601 30.3723Z" fill="white"/>
</svg>
