<svg width="62" height="62" viewBox="0 0 62 62" fill="none" xmlns="http://www.w3.org/2000/svg">
<path d="M52.3046 4.75208C52.0776 4.75207 51.857 4.67716 51.6769 4.53896C51.4968 4.40077 51.3673 4.20701 51.3086 3.98774C51.2498 3.76847 51.2651 3.53594 51.3519 3.32621C51.4388 3.11648 51.5924 2.94128 51.789 2.82777L54.4703 1.28089C54.5876 1.21211 54.7174 1.16721 54.8521 1.14879C54.9869 1.13036 55.1239 1.13878 55.2554 1.17354C55.3869 1.2083 55.5102 1.26873 55.6182 1.35134C55.7263 1.43395 55.8169 1.53712 55.8849 1.6549C55.9529 1.77268 55.9969 1.90274 56.0145 2.03761C56.032 2.17248 56.0227 2.30948 55.987 2.44073C55.9514 2.57198 55.8902 2.69489 55.8068 2.80237C55.7235 2.90985 55.6198 2.9998 55.5015 3.06702L52.8203 4.61389C52.6637 4.70478 52.4857 4.75246 52.3046 4.75208Z" fill="white"/>
<path d="M61.7719 29.2937L57.6469 21.0437C57.5608 20.8715 57.4283 20.7268 57.2643 20.626C57.1002 20.5253 56.9113 20.4724 56.7188 20.4735H41.3603L40.2662 16.3856L49.1226 18.6028L51.3717 17.9995C51.8999 17.8579 52.3503 17.5122 52.6237 17.0386C52.8972 16.565 52.9713 16.0022 52.8299 15.474L49.0937 1.52836C48.9521 1.00014 48.6064 0.549797 48.1328 0.27635C47.6592 0.00290227 47.0964 -0.0712596 46.5682 0.0701717L44.319 0.673453L36.6878 8.0572L29.9722 9.85158C29.448 9.99096 28.9564 10.2324 28.5256 10.562C28.0948 10.8916 27.7333 11.3029 27.4616 11.7725C27.19 12.242 27.0136 12.7605 26.9427 13.2983C26.8717 13.836 26.9075 14.3825 27.0479 14.9065C27.1884 15.4304 27.4309 15.9215 27.7614 16.3516C28.0919 16.7817 28.504 17.1424 28.9741 17.413C29.4442 17.6836 29.9631 17.8589 30.501 17.9287C31.039 17.9986 31.5854 17.9616 32.109 17.82L34.0952 17.2879L34.947 20.4735H21.6562C21.4646 20.4734 21.2767 20.5267 21.1137 20.6274C20.9507 20.7281 20.8189 20.8723 20.7333 21.0437L16.6083 29.2937C16.5297 29.451 16.4926 29.6257 16.5006 29.8014C16.5085 29.977 16.5612 30.1477 16.6537 30.2972C16.7462 30.4467 16.8754 30.5701 17.029 30.6556C17.1825 30.7412 17.3554 30.786 17.5312 30.786H20.625V43.3868L18.5625 43.9024V42.1297C18.5625 41.8562 18.4539 41.5939 18.2605 41.4005C18.0671 41.2071 17.8048 41.0985 17.5312 41.0985H9.28125C9.00775 41.0985 8.74544 41.2071 8.55205 41.4005C8.35865 41.5939 8.25 41.8562 8.25 42.1297V43.161H1.03125C0.757746 43.161 0.495443 43.2696 0.302046 43.463C0.108649 43.6564 0 43.9187 0 44.1922V58.6297C0 58.9032 0.108649 59.1655 0.302046 59.3589C0.495443 59.5523 0.757746 59.661 1.03125 59.661H8.25V60.6922C8.25 60.9657 8.35865 61.228 8.55205 61.4214C8.74544 61.6148 9.00775 61.7235 9.28125 61.7235H17.5312C17.8048 61.7235 18.0671 61.6148 18.2605 61.4214C18.4539 61.228 18.5625 60.9657 18.5625 60.6922V59.267L19.8887 59.9301C20.8916 60.4304 21.9968 60.6912 23.1175 60.6922H38.5615C39.8286 60.6916 41.0733 60.358 42.1709 59.7249L59.4959 49.7218C60.2538 49.2792 60.8508 48.6064 61.2001 47.8012C61.5493 46.996 61.6327 46.1003 61.4379 45.2445C61.2432 44.3887 60.7806 43.6173 60.1174 43.0425C59.4541 42.4677 58.6248 42.1194 57.75 42.0482V30.786H60.8438C61.02 30.7869 61.1935 30.7427 61.3478 30.6575C61.5021 30.5723 61.632 30.449 61.7251 30.2994C61.8182 30.1497 61.8713 29.9787 61.8795 29.8027C61.8877 29.6266 61.8507 29.4514 61.7719 29.2937ZM47.1023 2.06152L50.8406 16.0071L49.8444 16.2742L46.1062 2.32861L47.1023 2.06152ZM44.3004 3.56095L47.6633 16.1113L39.6557 14.1065L38.3625 9.30192L44.3004 3.56095ZM31.5748 15.8328C31.3132 15.903 31.0403 15.9209 30.7717 15.8856C30.5031 15.8503 30.2441 15.7624 30.0095 15.627C29.7749 15.4916 29.5693 15.3113 29.4043 15.0964C29.2394 14.8815 29.1184 14.6363 29.0482 14.3746C28.9781 14.113 28.9602 13.8401 28.9955 13.5715C29.0308 13.303 29.1187 13.044 29.2541 12.8094C29.3895 12.5747 29.5698 12.3691 29.7847 12.2042C29.9995 12.0392 30.2448 11.9182 30.5064 11.8481L36.4877 10.2465L37.555 14.2292L31.5748 15.8328ZM36.0876 16.761L36.2845 16.7084L38.0872 16.2257L39.2257 20.4735H37.0817L36.0876 16.761ZM22.2936 22.536H37.5189L34.4252 28.7235H19.1998L22.2936 22.536ZM22.6875 30.786H35.0625C35.255 30.787 35.444 30.7341 35.608 30.6334C35.772 30.5326 35.9046 30.3879 35.9906 30.2157L38.1562 25.8731V45.4091L27.5963 42.5804C26.4119 42.2628 25.1662 42.2521 23.9766 42.5494L22.6875 42.8712V30.786ZM2.0625 57.5985V45.2235H8.25V57.5985H2.0625ZM16.5 59.661H10.3125V43.161H16.5V59.661ZM59.2082 45.1203C59.4811 45.5938 59.5558 46.156 59.416 46.6844C59.2761 47.2127 58.933 47.6644 58.4616 47.9408L41.1366 57.9439C40.3527 58.3965 39.4636 58.6348 38.5584 58.6349H23.1175C22.3169 58.6336 21.5273 58.4473 20.8106 58.0904L18.5625 56.9611V46.0299L24.4767 44.5511C25.3264 44.3386 26.2161 44.3461 27.0621 44.5727L42.4483 48.6977C42.7145 48.7636 42.9649 48.8818 43.1849 49.0455C43.4048 49.2093 43.5899 49.4153 43.7293 49.6514C43.8687 49.8875 43.9596 50.1491 43.9968 50.4208C44.0339 50.6925 44.0164 50.9688 43.9455 51.2337C43.8745 51.4986 43.7514 51.7466 43.5835 51.9634C43.4155 52.1801 43.206 52.3612 42.9672 52.496C42.7284 52.6308 42.4651 52.7166 42.1927 52.7485C41.9204 52.7803 41.6444 52.7575 41.381 52.6815L29.0813 49.3835C28.8175 49.3143 28.5371 49.3523 28.3013 49.4892C28.0655 49.6262 27.8936 49.851 27.8231 50.1144C27.7526 50.3778 27.7893 50.6584 27.9252 50.8948C28.0611 51.1312 28.285 51.3042 28.5481 51.3759L40.8458 54.6759C41.1962 54.7699 41.5575 54.8177 41.9203 54.8182C42.4898 54.8225 43.054 54.7074 43.5763 54.4803C44.0986 54.2532 44.5675 53.9191 44.9527 53.4997C45.338 53.0802 45.6311 52.5846 45.813 52.0449C45.995 51.5052 46.0618 50.9334 46.0092 50.3663L56.396 44.3696C56.8708 44.1065 57.4291 44.0378 57.9535 44.1778C58.4779 44.3178 58.9277 44.6556 59.2082 45.1203ZM55.6875 42.4195C55.5844 42.47 55.472 42.5175 55.3678 42.5773L45.3121 48.3822C44.7643 47.5589 43.9367 46.962 42.9825 46.7023L40.2188 45.9618V25.8731L42.3844 30.2157C42.4704 30.3879 42.603 30.5326 42.767 30.6334C42.931 30.7341 43.12 30.787 43.3125 30.786H55.6875V42.4195ZM43.9498 28.7235L40.8561 22.536H56.0814L59.1752 28.7235H43.9498Z" fill="white"/>
<path d="M53.9506 8.73168C54.0411 8.73164 54.1313 8.71985 54.2187 8.69662L57.2094 7.89534C57.3434 7.86325 57.4695 7.80464 57.5805 7.72297C57.6914 7.6413 57.7849 7.53823 57.8554 7.41984C57.9258 7.30145 57.9718 7.17014 57.9907 7.03367C58.0096 6.8972 58.0009 6.75833 57.9652 6.62526C57.9295 6.4922 57.8675 6.36764 57.7829 6.25893C57.6982 6.15022 57.5927 6.05958 57.4724 5.99234C57.3522 5.92511 57.2197 5.88265 57.0828 5.86748C56.9458 5.85231 56.8072 5.86472 56.6752 5.904L53.6846 6.70425C53.443 6.7689 53.2331 6.91914 53.0941 7.12699C52.955 7.33484 52.8962 7.58614 52.9286 7.83411C52.961 8.08207 53.0825 8.30982 53.2703 8.47494C53.4581 8.64005 53.6995 8.7313 53.9496 8.73168H53.9506Z" fill="white"/>
<path d="M54.5117 10.9396C54.2382 10.9396 53.9759 11.0482 53.7825 11.2416C53.5891 11.435 53.4805 11.6973 53.4805 11.9708C53.4805 12.2443 53.5891 12.5066 53.7825 12.7C53.9759 12.8934 54.2382 13.0021 54.5117 13.0021H57.6055C57.879 13.0021 58.1413 12.8934 58.3347 12.7C58.5281 12.5066 58.6367 12.2443 58.6367 11.9708C58.6367 11.6973 58.5281 11.435 58.3347 11.2416C58.1413 11.0482 57.879 10.9396 57.6055 10.9396H54.5117Z" fill="white"/>
</svg>
