<svg width="66" height="57" viewBox="0 0 66 57" fill="none" xmlns="http://www.w3.org/2000/svg">
<path d="M62.1562 0H3.71875C2.73281 0.00108977 1.78757 0.393235 1.0904 1.0904C0.393236 1.78756 0.00108977 2.73281 0 3.71875V43.0312C0.00108977 44.0172 0.393236 44.9624 1.0904 45.6596C1.78757 46.3568 2.73281 46.7489 3.71875 46.75H24.2463L23.537 51H19.125C18.8432 51 18.573 51.1119 18.3737 51.3112C18.1744 51.5105 18.0625 51.7807 18.0625 52.0625V54.1875H13.8125C13.5307 54.1875 13.2605 54.2994 13.0612 54.4987C12.8619 54.698 12.75 54.9682 12.75 55.25C12.75 55.5318 12.8619 55.802 13.0612 56.0013C13.2605 56.2006 13.5307 56.3125 13.8125 56.3125H52.0625C52.3443 56.3125 52.6145 56.2006 52.8138 56.0013C53.0131 55.802 53.125 55.5318 53.125 55.25C53.125 54.9682 53.0131 54.698 52.8138 54.4987C52.6145 54.2994 52.3443 54.1875 52.0625 54.1875H47.8125V52.0625C47.8125 51.7807 47.7006 51.5105 47.5013 51.3112C47.302 51.1119 47.0318 51 46.75 51H42.338L41.6287 46.75H62.1562C63.1422 46.7489 64.0874 46.3568 64.7846 45.6596C65.4818 44.9624 65.8739 44.0172 65.875 43.0312V3.71875C65.8739 2.73281 65.4818 1.78756 64.7846 1.0904C64.0874 0.393235 63.1422 0.00108977 62.1562 0ZM45.6875 53.125V54.1875H20.1875V53.125H45.6875ZM25.6912 51L26.4005 46.75H39.4745L40.1838 51H25.6912ZM63.75 43.0312C63.7496 43.4538 63.5816 43.859 63.2828 44.1578C62.984 44.4566 62.5788 44.6246 62.1562 44.625H3.71875C3.29617 44.6246 2.891 44.4566 2.59219 44.1578C2.29338 43.859 2.12535 43.4538 2.125 43.0312V40.375H63.75V43.0312ZM63.75 38.25H2.125V3.71875C2.12535 3.29617 2.29338 2.891 2.59219 2.59219C2.891 2.29338 3.29617 2.12535 3.71875 2.125H62.1562C62.5788 2.12535 62.984 2.29338 63.2828 2.59219C63.5816 2.891 63.7496 3.29617 63.75 3.71875V38.25Z" fill="white"/>
<path d="M26.5633 36.125C30.6047 36.1201 34.4938 34.5818 37.4451 31.8209C40.3965 29.06 42.1904 25.2821 42.4645 21.25H45.0317L46.863 24.9127C46.9513 25.0892 47.0869 25.2376 47.2548 25.3413C47.4226 25.4451 47.616 25.5 47.8133 25.5H53.1258C53.3069 25.5 53.485 25.4537 53.6432 25.3655C53.8014 25.2773 53.9344 25.1501 54.0296 24.9961C54.1248 24.842 54.1791 24.6662 54.1872 24.4852C54.1953 24.3043 54.1571 24.1243 54.0761 23.9623L52.1887 20.1875L54.0761 16.4127C54.1571 16.2507 54.1953 16.0707 54.1872 15.8898C54.1791 15.7089 54.1248 15.533 54.0296 15.379C53.9344 15.2249 53.8014 15.0977 53.6432 15.0095C53.485 14.9213 53.3069 14.875 53.1258 14.875H47.8133C47.616 14.875 47.4226 14.93 47.2548 15.0337C47.0869 15.1374 46.9513 15.2858 46.863 15.4623L45.0317 19.125H42.4645C42.2574 16.025 41.1487 13.0531 39.2748 10.575C37.4009 8.09678 34.8435 6.22035 31.9172 5.17648C28.9909 4.13261 25.8233 3.96682 22.8041 4.69951C19.7848 5.43219 17.0455 7.03139 14.9231 9.30041C12.8008 11.5694 11.3879 14.4093 10.8583 17.4708C10.3287 20.5322 10.7054 23.6817 11.9422 26.5318C13.179 29.3819 15.2218 31.8084 17.8195 33.5128C20.4172 35.2172 23.4564 36.1252 26.5633 36.125ZM48.4699 23.375L47.4074 21.25H50.3442L51.4067 23.375H48.4699ZM48.4699 17H51.4067L50.3442 19.125H47.4074L48.4699 17ZM26.5633 6.375C30.0416 6.37903 33.3907 7.69348 35.9432 10.0564C38.4957 12.4194 40.0641 15.6573 40.336 19.125H38.2021C37.9286 16.1298 36.5111 13.3553 34.2442 11.3786C31.9773 9.40195 29.0357 8.37526 26.0312 8.51211C23.0266 8.64896 20.1905 9.93883 18.1127 12.1134C16.0349 14.288 14.8755 17.1799 14.8755 20.1875C14.8755 23.1952 16.0349 26.087 18.1127 28.2616C20.1905 30.4362 23.0266 31.7261 26.0312 31.8629C29.0357 31.9998 31.9773 30.9731 34.2442 28.9964C36.5111 27.0197 37.9286 24.2452 38.2021 21.25H40.336C40.1293 23.9286 39.146 26.4888 37.5065 28.617C35.8669 30.7452 33.6423 32.3491 31.1051 33.2323C28.5679 34.1155 25.8282 34.2396 23.2215 33.5894C20.6149 32.9392 18.2544 31.543 16.4292 29.5717C14.6039 27.6003 13.3932 25.1395 12.9453 22.4906C12.4973 19.8417 12.8316 17.1196 13.9071 14.6578C14.9826 12.1959 16.7527 10.1012 19.0007 8.63002C21.2486 7.15888 23.8768 6.37521 26.5633 6.375ZM30.6788 19.125C30.4202 18.1234 29.8052 17.2506 28.949 16.67C28.0929 16.0894 27.0544 15.841 26.0282 15.9714C25.002 16.1017 24.0586 16.6018 23.3748 17.378C22.691 18.1542 22.3137 19.1531 22.3137 20.1875C22.3137 21.2219 22.691 22.2208 23.3748 22.997C24.0586 23.7732 25.002 24.2733 26.0282 24.4036C27.0544 24.534 28.0929 24.2856 28.949 23.705C29.8052 23.1245 30.4202 22.2516 30.6788 21.25H36.0654C35.7938 23.6789 34.6026 25.9116 32.7362 27.4896C30.8699 29.0677 28.4703 29.8712 26.03 29.7352C23.5898 29.5992 21.2942 28.534 19.6148 26.7584C17.9354 24.9828 16.9996 22.6315 16.9996 20.1875C16.9996 17.7435 17.9354 15.3922 19.6148 13.6166C21.2942 11.841 23.5898 10.7758 26.03 10.6398C28.4703 10.5038 30.8699 11.3074 32.7362 12.8854C34.6026 14.4634 35.7938 16.6961 36.0654 19.125H30.6788ZM26.5633 21.25H28.4008C28.1669 21.6551 27.8058 21.9717 27.3737 22.1508C26.9415 22.3298 26.4623 22.3612 26.0105 22.2401C25.5586 22.119 25.1594 21.8522 24.8746 21.4811C24.5898 21.11 24.4355 20.6553 24.4355 20.1875C24.4355 19.7197 24.5898 19.265 24.8746 18.8939C25.1594 18.5228 25.5586 18.256 26.0105 18.1349C26.4623 18.0138 26.9415 18.0452 27.3737 18.2243C27.8058 18.4033 28.1669 18.7199 28.4008 19.125H26.5633C26.2815 19.125 26.0113 19.2369 25.812 19.4362C25.6128 19.6355 25.5008 19.9057 25.5008 20.1875C25.5008 20.4693 25.6128 20.7396 25.812 20.9388C26.0113 21.1381 26.2815 21.25 26.5633 21.25Z" fill="white"/>
</svg>
