<svg width="487" height="224" viewBox="0 0 487 224" fill="none" xmlns="http://www.w3.org/2000/svg">
<rect width="487" height="224" rx="10" fill="white"/>
<path d="M33.658 44C33.562 44 33.496 43.958 33.46 43.874L30.94 38.492C30.928 38.456 30.904 38.438 30.868 38.438H28.276C28.228 38.438 28.204 38.462 28.204 38.51V43.82C28.204 43.94 28.144 44 28.024 44H26.656C26.536 44 26.476 43.94 26.476 43.82V31.58C26.476 31.46 26.536 31.4 26.656 31.4H31.498C32.218 31.4 32.848 31.55 33.388 31.85C33.94 32.15 34.366 32.57 34.666 33.11C34.966 33.65 35.116 34.274 35.116 34.982C35.116 35.822 34.894 36.536 34.45 37.124C34.018 37.7 33.412 38.09 32.632 38.294C32.584 38.318 32.572 38.348 32.596 38.384L35.206 43.784C35.218 43.808 35.224 43.838 35.224 43.874C35.224 43.958 35.176 44 35.08 44H33.658ZM28.276 32.894C28.228 32.894 28.204 32.918 28.204 32.966V36.998C28.204 37.046 28.228 37.07 28.276 37.07H31.282C31.918 37.07 32.428 36.884 32.812 36.512C33.196 36.128 33.388 35.624 33.388 35C33.388 34.364 33.196 33.854 32.812 33.47C32.428 33.086 31.918 32.894 31.282 32.894H28.276ZM44.6448 38.276C44.6928 38.768 44.7108 39.32 44.6988 39.932C44.6988 40.052 44.6388 40.112 44.5188 40.112H38.7768C38.7288 40.112 38.7048 40.136 38.7048 40.184C38.7048 40.592 38.7408 40.904 38.8128 41.12C38.9448 41.6 39.2088 41.978 39.6048 42.254C40.0128 42.518 40.5228 42.65 41.1348 42.65C42.0228 42.65 42.7068 42.284 43.1868 41.552C43.2468 41.432 43.3248 41.414 43.4208 41.498L44.4468 42.182C44.5308 42.254 44.5488 42.332 44.5008 42.416C44.1648 42.956 43.6848 43.382 43.0608 43.694C42.4488 44.006 41.7528 44.162 40.9728 44.162C40.0968 44.162 39.3588 43.97 38.7588 43.586C38.1588 43.202 37.7088 42.656 37.4088 41.948C37.1208 41.24 36.9768 40.382 36.9768 39.374C36.9768 38.498 37.0428 37.832 37.1748 37.376C37.3908 36.548 37.8228 35.894 38.4708 35.414C39.1188 34.934 39.9048 34.694 40.8288 34.694C42.0408 34.694 42.9468 35 43.5468 35.612C44.1468 36.212 44.5128 37.1 44.6448 38.276ZM40.8288 36.188C40.3128 36.188 39.8868 36.32 39.5508 36.584C39.2148 36.836 38.9868 37.178 38.8668 37.61C38.7828 37.874 38.7288 38.21 38.7048 38.618C38.7048 38.666 38.7288 38.69 38.7768 38.69H42.8988C42.9468 38.69 42.9708 38.666 42.9708 38.618C42.9468 38.222 42.9108 37.928 42.8628 37.736C42.7428 37.268 42.5028 36.896 42.1428 36.62C41.7948 36.332 41.3568 36.188 40.8288 36.188ZM50.1393 34.694C50.8713 34.694 51.5073 34.826 52.0473 35.09C52.5993 35.342 53.0193 35.702 53.3073 36.17C53.6073 36.626 53.7573 37.148 53.7573 37.736V43.82C53.7573 43.94 53.6973 44 53.5773 44H52.2093C52.0893 44 52.0293 43.94 52.0293 43.82V43.172C52.0293 43.112 51.9993 43.1 51.9393 43.136C51.6273 43.46 51.2433 43.712 50.7873 43.892C50.3433 44.06 49.8453 44.144 49.2933 44.144C48.4053 44.144 47.6673 43.922 47.0793 43.478C46.5033 43.022 46.2153 42.338 46.2153 41.426C46.2153 40.49 46.5393 39.758 47.1873 39.23C47.8473 38.69 48.7653 38.42 49.9413 38.42H51.9573C52.0053 38.42 52.0293 38.396 52.0293 38.348V37.862C52.0293 37.334 51.8733 36.926 51.5613 36.638C51.2613 36.338 50.7993 36.188 50.1753 36.188C49.6713 36.188 49.2573 36.29 48.9333 36.494C48.6213 36.686 48.4293 36.95 48.3573 37.286C48.3213 37.406 48.2493 37.46 48.1413 37.448L46.6833 37.25C46.5633 37.226 46.5093 37.178 46.5213 37.106C46.6173 36.398 46.9953 35.822 47.6553 35.378C48.3153 34.922 49.1433 34.694 50.1393 34.694ZM49.6713 42.686C50.3073 42.686 50.8593 42.518 51.3273 42.182C51.7953 41.846 52.0293 41.42 52.0293 40.904V39.842C52.0293 39.794 52.0053 39.77 51.9573 39.77H50.2653C49.5573 39.77 48.9933 39.908 48.5733 40.184C48.1533 40.46 47.9433 40.844 47.9433 41.336C47.9433 41.78 48.0993 42.116 48.4113 42.344C48.7353 42.572 49.1553 42.686 49.6713 42.686ZM56.2701 44C56.1501 44 56.0901 43.94 56.0901 43.82V31.58C56.0901 31.46 56.1501 31.4 56.2701 31.4H57.6381C57.7581 31.4 57.8181 31.46 57.8181 31.58V43.82C57.8181 43.94 57.7581 44 57.6381 44H56.2701ZM68.4479 36.08C68.4479 36.2 68.3879 36.26 68.2679 36.26H66.3239C66.2759 36.26 66.2519 36.284 66.2519 36.332V41.102C66.2519 41.606 66.3659 41.972 66.5939 42.2C66.8219 42.416 67.1759 42.524 67.6559 42.524H68.1779C68.2979 42.524 68.3579 42.584 68.3579 42.704V43.82C68.3579 43.94 68.2979 44 68.1779 44C67.7939 44.024 67.5179 44.036 67.3499 44.036C66.4379 44.036 65.7479 43.874 65.2799 43.55C64.8239 43.214 64.5959 42.602 64.5959 41.714V36.332C64.5959 36.284 64.5719 36.26 64.5239 36.26H63.4259C63.3059 36.26 63.2459 36.2 63.2459 36.08V35.018C63.2459 34.898 63.3059 34.838 63.4259 34.838H64.5239C64.5719 34.838 64.5959 34.814 64.5959 34.766V32.642C64.5959 32.522 64.6559 32.462 64.7759 32.462H66.0719C66.1919 32.462 66.2519 32.522 66.2519 32.642V34.766C66.2519 34.814 66.2759 34.838 66.3239 34.838H68.2679C68.3879 34.838 68.4479 34.898 68.4479 35.018V36.08ZM71.6185 33.398C71.2825 33.398 71.0065 33.29 70.7905 33.074C70.5745 32.858 70.4665 32.582 70.4665 32.246C70.4665 31.91 70.5745 31.634 70.7905 31.418C71.0065 31.202 71.2825 31.094 71.6185 31.094C71.9545 31.094 72.2305 31.202 72.4465 31.418C72.6625 31.634 72.7705 31.91 72.7705 32.246C72.7705 32.582 72.6625 32.858 72.4465 33.074C72.2305 33.29 71.9545 33.398 71.6185 33.398ZM70.8985 43.982C70.7785 43.982 70.7185 43.922 70.7185 43.802V35.018C70.7185 34.898 70.7785 34.838 70.8985 34.838H72.2665C72.3865 34.838 72.4465 34.898 72.4465 35.018V43.802C72.4465 43.922 72.3865 43.982 72.2665 43.982H70.8985ZM84.6843 34.712C85.5963 34.712 86.3163 34.988 86.8443 35.54C87.3723 36.08 87.6363 36.836 87.6363 37.808V43.82C87.6363 43.94 87.5763 44 87.4563 44H86.1063C85.9863 44 85.9263 43.94 85.9263 43.82V38.168C85.9263 37.568 85.7583 37.094 85.4223 36.746C85.0983 36.386 84.6603 36.206 84.1083 36.206C83.5563 36.206 83.1063 36.38 82.7583 36.728C82.4103 37.076 82.2363 37.544 82.2363 38.132V43.82C82.2363 43.94 82.1763 44 82.0563 44H80.7063C80.5863 44 80.5263 43.94 80.5263 43.82V38.168C80.5263 37.568 80.3583 37.094 80.0223 36.746C79.6983 36.386 79.2603 36.206 78.7083 36.206C78.1563 36.206 77.7123 36.38 77.3763 36.728C77.0523 37.076 76.8903 37.544 76.8903 38.132V43.82C76.8903 43.94 76.8303 44 76.7103 44H75.3423C75.2223 44 75.1623 43.94 75.1623 43.82V35.018C75.1623 34.898 75.2223 34.838 75.3423 34.838H76.7103C76.8303 34.838 76.8903 34.898 76.8903 35.018V35.63C76.8903 35.654 76.8963 35.672 76.9083 35.684C76.9323 35.696 76.9563 35.69 76.9803 35.666C77.5083 35.03 78.2763 34.712 79.2843 34.712C79.8963 34.712 80.4183 34.832 80.8503 35.072C81.2823 35.3 81.6183 35.642 81.8583 36.098C81.8943 36.146 81.9303 36.146 81.9663 36.098C82.2543 35.63 82.6323 35.282 83.1003 35.054C83.5803 34.826 84.1083 34.712 84.6843 34.712ZM97.344 38.276C97.392 38.768 97.41 39.32 97.398 39.932C97.398 40.052 97.338 40.112 97.218 40.112H91.476C91.428 40.112 91.404 40.136 91.404 40.184C91.404 40.592 91.44 40.904 91.512 41.12C91.644 41.6 91.908 41.978 92.304 42.254C92.712 42.518 93.222 42.65 93.834 42.65C94.722 42.65 95.406 42.284 95.886 41.552C95.946 41.432 96.024 41.414 96.12 41.498L97.146 42.182C97.23 42.254 97.248 42.332 97.2 42.416C96.864 42.956 96.384 43.382 95.76 43.694C95.148 44.006 94.452 44.162 93.672 44.162C92.796 44.162 92.058 43.97 91.458 43.586C90.858 43.202 90.408 42.656 90.108 41.948C89.82 41.24 89.676 40.382 89.676 39.374C89.676 38.498 89.742 37.832 89.874 37.376C90.09 36.548 90.522 35.894 91.17 35.414C91.818 34.934 92.604 34.694 93.528 34.694C94.74 34.694 95.646 35 96.246 35.612C96.846 36.212 97.212 37.1 97.344 38.276ZM93.528 36.188C93.012 36.188 92.586 36.32 92.25 36.584C91.914 36.836 91.686 37.178 91.566 37.61C91.482 37.874 91.428 38.21 91.404 38.618C91.404 38.666 91.428 38.69 91.476 38.69H95.598C95.646 38.69 95.67 38.666 95.67 38.618C95.646 38.222 95.61 37.928 95.562 37.736C95.442 37.268 95.202 36.896 94.842 36.62C94.494 36.332 94.056 36.188 93.528 36.188ZM104.226 33.398C103.89 33.398 103.614 33.29 103.398 33.074C103.182 32.858 103.074 32.582 103.074 32.246C103.074 31.91 103.182 31.634 103.398 31.418C103.614 31.202 103.89 31.094 104.226 31.094C104.562 31.094 104.838 31.202 105.054 31.418C105.27 31.634 105.378 31.91 105.378 32.246C105.378 32.582 105.27 32.858 105.054 33.074C104.838 33.29 104.562 33.398 104.226 33.398ZM103.506 43.982C103.386 43.982 103.326 43.922 103.326 43.802V35.018C103.326 34.898 103.386 34.838 103.506 34.838H104.874C104.994 34.838 105.054 34.898 105.054 35.018V43.802C105.054 43.922 104.994 43.982 104.874 43.982H103.506ZM111.856 34.712C112.84 34.712 113.62 35 114.196 35.576C114.772 36.14 115.06 36.908 115.06 37.88V43.82C115.06 43.94 115 44 114.88 44H113.512C113.392 44 113.332 43.94 113.332 43.82V38.222C113.332 37.622 113.158 37.136 112.81 36.764C112.462 36.392 112 36.206 111.424 36.206C110.86 36.206 110.398 36.392 110.038 36.764C109.678 37.136 109.498 37.616 109.498 38.204V43.82C109.498 43.94 109.438 44 109.318 44H107.95C107.83 44 107.77 43.94 107.77 43.82V35.018C107.77 34.898 107.83 34.838 107.95 34.838H109.318C109.438 34.838 109.498 34.898 109.498 35.018V35.666C109.498 35.69 109.504 35.708 109.516 35.72C109.54 35.732 109.558 35.726 109.57 35.702C110.086 35.042 110.848 34.712 111.856 34.712ZM122.044 36.08C122.044 36.2 121.984 36.26 121.864 36.26H119.92C119.872 36.26 119.848 36.284 119.848 36.332V41.102C119.848 41.606 119.962 41.972 120.19 42.2C120.418 42.416 120.772 42.524 121.252 42.524H121.774C121.894 42.524 121.954 42.584 121.954 42.704V43.82C121.954 43.94 121.894 44 121.774 44C121.39 44.024 121.114 44.036 120.946 44.036C120.034 44.036 119.344 43.874 118.876 43.55C118.42 43.214 118.192 42.602 118.192 41.714V36.332C118.192 36.284 118.168 36.26 118.12 36.26H117.022C116.902 36.26 116.842 36.2 116.842 36.08V35.018C116.842 34.898 116.902 34.838 117.022 34.838H118.12C118.168 34.838 118.192 34.814 118.192 34.766V32.642C118.192 32.522 118.252 32.462 118.372 32.462H119.668C119.788 32.462 119.848 32.522 119.848 32.642V34.766C119.848 34.814 119.872 34.838 119.92 34.838H121.864C121.984 34.838 122.044 34.898 122.044 35.018V36.08ZM131.375 38.276C131.423 38.768 131.441 39.32 131.429 39.932C131.429 40.052 131.369 40.112 131.249 40.112H125.507C125.459 40.112 125.435 40.136 125.435 40.184C125.435 40.592 125.471 40.904 125.543 41.12C125.675 41.6 125.939 41.978 126.335 42.254C126.743 42.518 127.253 42.65 127.865 42.65C128.753 42.65 129.437 42.284 129.917 41.552C129.977 41.432 130.055 41.414 130.151 41.498L131.177 42.182C131.261 42.254 131.279 42.332 131.231 42.416C130.895 42.956 130.415 43.382 129.791 43.694C129.179 44.006 128.483 44.162 127.703 44.162C126.827 44.162 126.089 43.97 125.489 43.586C124.889 43.202 124.439 42.656 124.139 41.948C123.851 41.24 123.707 40.382 123.707 39.374C123.707 38.498 123.773 37.832 123.905 37.376C124.121 36.548 124.553 35.894 125.201 35.414C125.849 34.934 126.635 34.694 127.559 34.694C128.771 34.694 129.677 35 130.277 35.612C130.877 36.212 131.243 37.1 131.375 38.276ZM127.559 36.188C127.043 36.188 126.617 36.32 126.281 36.584C125.945 36.836 125.717 37.178 125.597 37.61C125.513 37.874 125.459 38.21 125.435 38.618C125.435 38.666 125.459 38.69 125.507 38.69H129.629C129.677 38.69 129.701 38.666 129.701 38.618C129.677 38.222 129.641 37.928 129.593 37.736C129.473 37.268 129.233 36.896 128.873 36.62C128.525 36.332 128.087 36.188 127.559 36.188ZM137.624 34.748C138.008 34.748 138.356 34.826 138.668 34.982C138.752 35.018 138.782 35.09 138.758 35.198L138.47 36.548C138.458 36.656 138.386 36.692 138.254 36.656C138.05 36.572 137.81 36.53 137.534 36.53L137.282 36.548C136.718 36.572 136.25 36.77 135.878 37.142C135.518 37.502 135.338 37.976 135.338 38.564V43.82C135.338 43.94 135.278 44 135.158 44H133.79C133.67 44 133.61 43.94 133.61 43.82V35.018C133.61 34.898 133.67 34.838 133.79 34.838H135.158C135.278 34.838 135.338 34.898 135.338 35.018V35.972C135.338 36.008 135.344 36.032 135.356 36.044C135.38 36.044 135.398 36.032 135.41 36.008C135.95 35.168 136.688 34.748 137.624 34.748ZM143.567 34.694C144.299 34.694 144.935 34.826 145.475 35.09C146.027 35.342 146.447 35.702 146.735 36.17C147.035 36.626 147.185 37.148 147.185 37.736V43.82C147.185 43.94 147.125 44 147.005 44H145.637C145.517 44 145.457 43.94 145.457 43.82V43.172C145.457 43.112 145.427 43.1 145.367 43.136C145.055 43.46 144.671 43.712 144.215 43.892C143.771 44.06 143.273 44.144 142.721 44.144C141.833 44.144 141.095 43.922 140.507 43.478C139.931 43.022 139.643 42.338 139.643 41.426C139.643 40.49 139.967 39.758 140.615 39.23C141.275 38.69 142.193 38.42 143.369 38.42H145.385C145.433 38.42 145.457 38.396 145.457 38.348V37.862C145.457 37.334 145.301 36.926 144.989 36.638C144.689 36.338 144.227 36.188 143.603 36.188C143.099 36.188 142.685 36.29 142.361 36.494C142.049 36.686 141.857 36.95 141.785 37.286C141.749 37.406 141.677 37.46 141.569 37.448L140.111 37.25C139.991 37.226 139.937 37.178 139.949 37.106C140.045 36.398 140.423 35.822 141.083 35.378C141.743 34.922 142.571 34.694 143.567 34.694ZM143.099 42.686C143.735 42.686 144.287 42.518 144.755 42.182C145.223 41.846 145.457 41.42 145.457 40.904V39.842C145.457 39.794 145.433 39.77 145.385 39.77H143.693C142.985 39.77 142.421 39.908 142.001 40.184C141.581 40.46 141.371 40.844 141.371 41.336C141.371 41.78 141.527 42.116 141.839 42.344C142.163 42.572 142.583 42.686 143.099 42.686ZM153.19 44.144C152.278 44.144 151.498 43.916 150.85 43.46C150.202 42.992 149.758 42.362 149.518 41.57C149.338 41.018 149.248 40.292 149.248 39.392C149.248 38.564 149.338 37.838 149.518 37.214C149.758 36.446 150.202 35.834 150.85 35.378C151.51 34.922 152.29 34.694 153.19 34.694C154.09 34.694 154.876 34.922 155.548 35.378C156.22 35.834 156.658 36.41 156.862 37.106C156.934 37.298 156.982 37.496 157.006 37.7C157.006 37.796 156.952 37.856 156.844 37.88L155.494 38.078H155.458C155.374 38.078 155.314 38.024 155.278 37.916L155.224 37.628C155.128 37.22 154.894 36.878 154.522 36.602C154.15 36.326 153.7 36.188 153.172 36.188C152.656 36.188 152.218 36.326 151.858 36.602C151.498 36.878 151.264 37.244 151.156 37.7C151.048 38.132 150.994 38.702 150.994 39.41C150.994 40.106 151.048 40.67 151.156 41.102C151.276 41.582 151.51 41.96 151.858 42.236C152.218 42.512 152.656 42.65 153.172 42.65C153.7 42.65 154.15 42.512 154.522 42.236C154.906 41.96 155.146 41.6 155.242 41.156C155.254 41.144 155.254 41.132 155.242 41.12C155.242 41.096 155.248 41.078 155.26 41.066V40.994C155.296 40.898 155.362 40.862 155.458 40.886L156.808 41.102C156.904 41.126 156.952 41.174 156.952 41.246V41.318C156.952 41.426 156.922 41.558 156.862 41.714C156.658 42.446 156.22 43.034 155.548 43.478C154.876 43.922 154.09 44.144 153.19 44.144ZM163.51 36.08C163.51 36.2 163.45 36.26 163.33 36.26H161.386C161.338 36.26 161.314 36.284 161.314 36.332V41.102C161.314 41.606 161.428 41.972 161.656 42.2C161.884 42.416 162.238 42.524 162.718 42.524H163.24C163.36 42.524 163.42 42.584 163.42 42.704V43.82C163.42 43.94 163.36 44 163.24 44C162.856 44.024 162.58 44.036 162.412 44.036C161.5 44.036 160.81 43.874 160.342 43.55C159.886 43.214 159.658 42.602 159.658 41.714V36.332C159.658 36.284 159.634 36.26 159.586 36.26H158.488C158.368 36.26 158.308 36.2 158.308 36.08V35.018C158.308 34.898 158.368 34.838 158.488 34.838H159.586C159.634 34.838 159.658 34.814 159.658 34.766V32.642C159.658 32.522 159.718 32.462 159.838 32.462H161.134C161.254 32.462 161.314 32.522 161.314 32.642V34.766C161.314 34.814 161.338 34.838 161.386 34.838H163.33C163.45 34.838 163.51 34.898 163.51 35.018V36.08ZM166.681 33.398C166.345 33.398 166.069 33.29 165.853 33.074C165.637 32.858 165.529 32.582 165.529 32.246C165.529 31.91 165.637 31.634 165.853 31.418C166.069 31.202 166.345 31.094 166.681 31.094C167.017 31.094 167.293 31.202 167.509 31.418C167.725 31.634 167.833 31.91 167.833 32.246C167.833 32.582 167.725 32.858 167.509 33.074C167.293 33.29 167.017 33.398 166.681 33.398ZM165.961 43.982C165.841 43.982 165.781 43.922 165.781 43.802V35.018C165.781 34.898 165.841 34.838 165.961 34.838H167.329C167.449 34.838 167.509 34.898 167.509 35.018V43.802C167.509 43.922 167.449 43.982 167.329 43.982H165.961ZM172.637 44C172.529 44 172.457 43.952 172.421 43.856L169.487 35.036L169.469 34.964C169.469 34.88 169.523 34.838 169.631 34.838H171.143C171.251 34.838 171.323 34.886 171.359 34.982L173.339 41.498C173.351 41.522 173.369 41.534 173.393 41.534C173.417 41.534 173.435 41.522 173.447 41.498L175.409 34.982C175.445 34.886 175.517 34.838 175.625 34.838L177.137 34.856C177.269 34.856 177.317 34.922 177.281 35.054L174.365 43.856C174.329 43.952 174.257 44 174.149 44H172.637ZM186.078 38.276C186.126 38.768 186.144 39.32 186.132 39.932C186.132 40.052 186.072 40.112 185.952 40.112H180.21C180.162 40.112 180.138 40.136 180.138 40.184C180.138 40.592 180.174 40.904 180.246 41.12C180.378 41.6 180.642 41.978 181.038 42.254C181.446 42.518 181.956 42.65 182.568 42.65C183.456 42.65 184.14 42.284 184.62 41.552C184.68 41.432 184.758 41.414 184.854 41.498L185.88 42.182C185.964 42.254 185.982 42.332 185.934 42.416C185.598 42.956 185.118 43.382 184.494 43.694C183.882 44.006 183.186 44.162 182.406 44.162C181.53 44.162 180.792 43.97 180.192 43.586C179.592 43.202 179.142 42.656 178.842 41.948C178.554 41.24 178.41 40.382 178.41 39.374C178.41 38.498 178.476 37.832 178.608 37.376C178.824 36.548 179.256 35.894 179.904 35.414C180.552 34.934 181.338 34.694 182.262 34.694C183.474 34.694 184.38 35 184.98 35.612C185.58 36.212 185.946 37.1 186.078 38.276ZM182.262 36.188C181.746 36.188 181.32 36.32 180.984 36.584C180.648 36.836 180.42 37.178 180.3 37.61C180.216 37.874 180.162 38.21 180.138 38.618C180.138 38.666 180.162 38.69 180.21 38.69H184.332C184.38 38.69 184.404 38.666 184.404 38.618C184.38 38.222 184.344 37.928 184.296 37.736C184.176 37.268 183.936 36.896 183.576 36.62C183.228 36.332 182.79 36.188 182.262 36.188ZM195.93 34.748C196.314 34.748 196.662 34.826 196.974 34.982C197.058 35.018 197.088 35.09 197.064 35.198L196.776 36.548C196.764 36.656 196.692 36.692 196.56 36.656C196.356 36.572 196.116 36.53 195.84 36.53L195.588 36.548C195.024 36.572 194.556 36.77 194.184 37.142C193.824 37.502 193.644 37.976 193.644 38.564V43.82C193.644 43.94 193.584 44 193.464 44H192.096C191.976 44 191.916 43.94 191.916 43.82V35.018C191.916 34.898 191.976 34.838 192.096 34.838H193.464C193.584 34.838 193.644 34.898 193.644 35.018V35.972C193.644 36.008 193.65 36.032 193.662 36.044C193.686 36.044 193.704 36.032 193.716 36.008C194.256 35.168 194.994 34.748 195.93 34.748ZM205.871 38.276C205.919 38.768 205.937 39.32 205.925 39.932C205.925 40.052 205.865 40.112 205.745 40.112H200.003C199.955 40.112 199.931 40.136 199.931 40.184C199.931 40.592 199.967 40.904 200.039 41.12C200.171 41.6 200.435 41.978 200.831 42.254C201.239 42.518 201.749 42.65 202.361 42.65C203.249 42.65 203.933 42.284 204.413 41.552C204.473 41.432 204.551 41.414 204.647 41.498L205.673 42.182C205.757 42.254 205.775 42.332 205.727 42.416C205.391 42.956 204.911 43.382 204.287 43.694C203.675 44.006 202.979 44.162 202.199 44.162C201.323 44.162 200.585 43.97 199.985 43.586C199.385 43.202 198.935 42.656 198.635 41.948C198.347 41.24 198.203 40.382 198.203 39.374C198.203 38.498 198.269 37.832 198.401 37.376C198.617 36.548 199.049 35.894 199.697 35.414C200.345 34.934 201.131 34.694 202.055 34.694C203.267 34.694 204.173 35 204.773 35.612C205.373 36.212 205.739 37.1 205.871 38.276ZM202.055 36.188C201.539 36.188 201.113 36.32 200.777 36.584C200.441 36.836 200.213 37.178 200.093 37.61C200.009 37.874 199.955 38.21 199.931 38.618C199.931 38.666 199.955 38.69 200.003 38.69H204.125C204.173 38.69 204.197 38.666 204.197 38.618C204.173 38.222 204.137 37.928 204.089 37.736C203.969 37.268 203.729 36.896 203.369 36.62C203.021 36.332 202.583 36.188 202.055 36.188ZM215.54 37.142C215.768 37.79 215.882 38.558 215.882 39.446C215.882 40.286 215.786 41.012 215.594 41.624C215.342 42.428 214.928 43.052 214.352 43.496C213.776 43.928 213.038 44.144 212.138 44.144C211.73 44.144 211.34 44.066 210.968 43.91C210.608 43.742 210.296 43.508 210.032 43.208C210.008 43.184 209.984 43.178 209.96 43.19C209.948 43.202 209.942 43.22 209.942 43.244V47.258C209.942 47.378 209.882 47.438 209.762 47.438H208.394C208.274 47.438 208.214 47.378 208.214 47.258V35.018C208.214 34.898 208.274 34.838 208.394 34.838H209.762C209.882 34.838 209.942 34.898 209.942 35.018V35.612C209.942 35.636 209.948 35.654 209.96 35.666C209.984 35.678 210.008 35.672 210.032 35.648C210.296 35.348 210.608 35.114 210.968 34.946C211.328 34.778 211.718 34.694 212.138 34.694C213.002 34.694 213.716 34.91 214.28 35.342C214.856 35.762 215.276 36.362 215.54 37.142ZM213.56 41.786C213.944 41.21 214.136 40.418 214.136 39.41C214.136 38.486 213.986 37.742 213.686 37.178C213.338 36.518 212.768 36.188 211.976 36.188C211.28 36.188 210.752 36.512 210.392 37.16C210.104 37.676 209.96 38.432 209.96 39.428C209.96 40.436 210.116 41.204 210.428 41.732C210.776 42.344 211.286 42.65 211.958 42.65C212.678 42.65 213.212 42.362 213.56 41.786ZM221.781 44.144C220.893 44.144 220.119 43.922 219.459 43.478C218.799 43.022 218.337 42.392 218.073 41.588C217.857 40.94 217.749 40.208 217.749 39.392C217.749 38.54 217.851 37.82 218.055 37.232C218.319 36.44 218.781 35.822 219.441 35.378C220.101 34.922 220.887 34.694 221.799 34.694C222.663 34.694 223.413 34.922 224.049 35.378C224.697 35.822 225.159 36.434 225.435 37.214C225.651 37.826 225.759 38.546 225.759 39.374C225.759 40.214 225.651 40.952 225.435 41.588C225.171 42.392 224.715 43.022 224.067 43.478C223.419 43.922 222.657 44.144 221.781 44.144ZM221.781 42.65C222.261 42.65 222.681 42.518 223.041 42.254C223.401 41.978 223.659 41.594 223.815 41.102C223.947 40.646 224.013 40.082 224.013 39.41C224.013 38.738 223.953 38.18 223.833 37.736C223.677 37.244 223.419 36.866 223.059 36.602C222.699 36.326 222.261 36.188 221.745 36.188C221.253 36.188 220.827 36.326 220.467 36.602C220.107 36.866 219.849 37.244 219.693 37.736C219.561 38.156 219.495 38.714 219.495 39.41C219.495 40.106 219.561 40.67 219.693 41.102C219.837 41.594 220.089 41.978 220.449 42.254C220.821 42.518 221.265 42.65 221.781 42.65ZM232.036 34.748C232.42 34.748 232.768 34.826 233.08 34.982C233.164 35.018 233.194 35.09 233.17 35.198L232.882 36.548C232.87 36.656 232.798 36.692 232.666 36.656C232.462 36.572 232.222 36.53 231.946 36.53L231.694 36.548C231.13 36.572 230.662 36.77 230.29 37.142C229.93 37.502 229.75 37.976 229.75 38.564V43.82C229.75 43.94 229.69 44 229.57 44H228.202C228.082 44 228.022 43.94 228.022 43.82V35.018C228.022 34.898 228.082 34.838 228.202 34.838H229.57C229.69 34.838 229.75 34.898 229.75 35.018V35.972C229.75 36.008 229.756 36.032 229.768 36.044C229.792 36.044 229.81 36.032 229.822 36.008C230.362 35.168 231.1 34.748 232.036 34.748ZM239.413 36.08C239.413 36.2 239.353 36.26 239.233 36.26H237.289C237.241 36.26 237.217 36.284 237.217 36.332V41.102C237.217 41.606 237.331 41.972 237.559 42.2C237.787 42.416 238.141 42.524 238.621 42.524H239.143C239.263 42.524 239.323 42.584 239.323 42.704V43.82C239.323 43.94 239.263 44 239.143 44C238.759 44.024 238.483 44.036 238.315 44.036C237.403 44.036 236.713 43.874 236.245 43.55C235.789 43.214 235.561 42.602 235.561 41.714V36.332C235.561 36.284 235.537 36.26 235.489 36.26H234.391C234.271 36.26 234.211 36.2 234.211 36.08V35.018C234.211 34.898 234.271 34.838 234.391 34.838H235.489C235.537 34.838 235.561 34.814 235.561 34.766V32.642C235.561 32.522 235.621 32.462 235.741 32.462H237.037C237.157 32.462 237.217 32.522 237.217 32.642V34.766C237.217 34.814 237.241 34.838 237.289 34.838H239.233C239.353 34.838 239.413 34.898 239.413 35.018V36.08ZM242.583 33.398C242.247 33.398 241.971 33.29 241.755 33.074C241.539 32.858 241.431 32.582 241.431 32.246C241.431 31.91 241.539 31.634 241.755 31.418C241.971 31.202 242.247 31.094 242.583 31.094C242.919 31.094 243.195 31.202 243.411 31.418C243.627 31.634 243.735 31.91 243.735 32.246C243.735 32.582 243.627 32.858 243.411 33.074C243.195 33.29 242.919 33.398 242.583 33.398ZM241.863 43.982C241.743 43.982 241.683 43.922 241.683 43.802V35.018C241.683 34.898 241.743 34.838 241.863 34.838H243.231C243.351 34.838 243.411 34.898 243.411 35.018V43.802C243.411 43.922 243.351 43.982 243.231 43.982H241.863ZM250.213 34.712C251.197 34.712 251.977 35 252.553 35.576C253.129 36.14 253.417 36.908 253.417 37.88V43.82C253.417 43.94 253.357 44 253.237 44H251.869C251.749 44 251.689 43.94 251.689 43.82V38.222C251.689 37.622 251.515 37.136 251.167 36.764C250.819 36.392 250.357 36.206 249.781 36.206C249.217 36.206 248.755 36.392 248.395 36.764C248.035 37.136 247.855 37.616 247.855 38.204V43.82C247.855 43.94 247.795 44 247.675 44H246.307C246.187 44 246.127 43.94 246.127 43.82V35.018C246.127 34.898 246.187 34.838 246.307 34.838H247.675C247.795 34.838 247.855 34.898 247.855 35.018V35.666C247.855 35.69 247.861 35.708 247.873 35.72C247.897 35.732 247.915 35.726 247.927 35.702C248.443 35.042 249.205 34.712 250.213 34.712ZM261.517 35.018C261.517 34.898 261.577 34.838 261.697 34.838H263.065C263.185 34.838 263.245 34.898 263.245 35.018V43.532C263.245 44.984 262.831 46.022 262.003 46.646C261.187 47.27 260.089 47.582 258.709 47.582C258.517 47.582 258.217 47.57 257.809 47.546C257.689 47.534 257.629 47.468 257.629 47.348L257.683 46.106C257.683 46.058 257.701 46.016 257.737 45.98C257.773 45.944 257.821 45.932 257.881 45.944C258.049 45.956 258.295 45.962 258.619 45.962C259.639 45.962 260.377 45.77 260.833 45.386C261.289 45.014 261.517 44.378 261.517 43.478V43.154C261.517 43.13 261.505 43.112 261.481 43.1C261.469 43.088 261.451 43.094 261.427 43.118C260.923 43.706 260.185 44 259.213 44C258.433 44 257.725 43.796 257.089 43.388C256.465 42.98 256.033 42.38 255.793 41.588C255.637 41.06 255.559 40.328 255.559 39.392C255.559 38.396 255.649 37.628 255.829 37.088C256.057 36.368 256.459 35.792 257.035 35.36C257.623 34.916 258.313 34.694 259.105 34.694C260.089 34.694 260.863 34.994 261.427 35.594C261.451 35.618 261.469 35.63 261.481 35.63C261.505 35.618 261.517 35.6 261.517 35.576V35.018ZM261.409 41.066C261.445 40.874 261.469 40.67 261.481 40.454C261.505 40.238 261.517 39.878 261.517 39.374C261.517 38.87 261.505 38.516 261.481 38.312C261.469 38.096 261.439 37.892 261.391 37.7C261.295 37.256 261.079 36.896 260.743 36.62C260.407 36.332 259.987 36.188 259.483 36.188C258.979 36.188 258.559 36.332 258.223 36.62C257.887 36.896 257.647 37.256 257.503 37.7C257.371 38.06 257.305 38.618 257.305 39.374C257.305 40.202 257.365 40.766 257.485 41.066C257.605 41.51 257.839 41.876 258.187 42.164C258.547 42.44 258.979 42.578 259.483 42.578C260.011 42.578 260.437 42.44 260.761 42.164C261.097 41.876 261.313 41.51 261.409 41.066Z" fill="#2B2350"/>
<path d="M137 123.135C137 123.135 198.329 169.144 242.646 169C286.633 168.856 300.26 114.12 343.283 103.983C377.994 95.8038 438 115.575 438 115.575" stroke="url(#paint0_linear)" stroke-dasharray="3 3"/>
<path d="M25 169.431V172.772C25 174.003 25.9925 175 27.2178 175H134.782C136.008 175 137 174.003 137 172.772V169.431H25Z" fill="#F9F9F9"/>
<path d="M135.337 171.659H26.6636C26.0537 171.659 25.5547 171.157 25.5547 170.545V83.6707C25.5547 83.0581 26.0537 82.5569 26.6636 82.5569H135.337C135.947 82.5569 136.446 83.0581 136.446 83.6707V170.545C136.446 171.157 135.947 171.659 135.337 171.659Z" fill="white"/>
<path d="M135.337 172.216H26.6634C25.7485 172.216 25 171.464 25 170.545V83.6707C25 82.7518 25.7485 82 26.6634 82H135.337C136.251 82 137 82.7518 137 83.6707V170.545C137 171.464 136.251 172.216 135.337 172.216ZM26.6634 83.1138C26.3584 83.1138 26.1089 83.3644 26.1089 83.6707V170.545C26.1089 170.851 26.3584 171.102 26.6634 171.102H135.337C135.642 171.102 135.891 170.851 135.891 170.545V83.6707C135.891 83.3644 135.642 83.1138 135.337 83.1138H26.6634Z" fill="#CFD8DC"/>
<path d="M26.125 90.3532V83.6594C26.125 83.3531 26.3745 83.1025 26.6795 83.1025H135.353C135.658 83.1025 135.907 83.3531 135.907 83.6594V90.3532H26.125Z" fill="#ECEFF1"/>
<path d="M32.4779 88.2092C33.2435 88.2092 33.8641 87.5859 33.8641 86.817C33.8641 86.0481 33.2435 85.4248 32.4779 85.4248C31.7124 85.4248 31.0918 86.0481 31.0918 86.817C31.0918 87.5859 31.7124 88.2092 32.4779 88.2092Z" fill="#CFD8DC"/>
<path d="M38.5775 88.2092C39.3431 88.2092 39.9637 87.5859 39.9637 86.817C39.9637 86.0481 39.3431 85.4248 38.5775 85.4248C37.812 85.4248 37.1914 86.0481 37.1914 86.817C37.1914 87.5859 37.812 88.2092 38.5775 88.2092Z" fill="#CFD8DC"/>
<path d="M44.6752 88.2092C45.4407 88.2092 46.0613 87.5859 46.0613 86.817C46.0613 86.0481 45.4407 85.4248 44.6752 85.4248C43.9097 85.4248 43.2891 86.0481 43.2891 86.817C43.2891 87.5859 43.9097 88.2092 44.6752 88.2092Z" fill="#CFD8DC"/>
<path d="M52.7232 171.102H26.6638C26.3589 171.102 26.1094 170.851 26.1094 170.545V90.3533H52.7232V171.102Z" fill="#546E7A"/>
<path d="M44.9603 98.8457H29.4355V101.073H44.9603V98.8457Z" fill="#ECEFF1"/>
<path d="M40.5247 104.415H29.4355V106.642H40.5247V104.415Z" fill="#ECEFF1"/>
<path d="M42.7425 109.983H29.4355V112.211H42.7425V109.983Z" fill="#ECEFF1"/>
<path d="M47.1781 115.552H29.4355V117.78H47.1781V115.552Z" fill="#ECEFF1"/>
<path d="M43.8514 121.121H29.4355V123.349H43.8514V121.121Z" fill="#ECEFF1"/>
<path d="M41.6336 126.69H29.4355V128.918H41.6336V126.69Z" fill="#ECEFF1"/>
<path d="M46.0692 132.259H29.4355V134.487H46.0692V132.259Z" fill="#ECEFF1"/>
<path d="M46.0692 137.828H29.4355V140.055H46.0692V137.828Z" fill="#ECEFF1"/>
<path d="M42.7425 143.397H29.4355V145.624H42.7425V143.397Z" fill="#ECEFF1"/>
<path d="M74.3466 97.5928H57.7129V100.934H74.3466V97.5928Z" fill="#546E7A"/>
<path d="M127.02 113.186H59.3765C58.7666 113.186 58.2676 112.684 58.2676 112.072V108.174C58.2676 107.561 58.7666 107.06 59.3765 107.06H127.02C127.63 107.06 128.129 107.561 128.129 108.174V112.072C128.129 112.684 127.63 113.186 127.02 113.186Z" fill="white"/>
<path d="M127.02 113.742H59.3763C58.4614 113.742 57.7129 112.991 57.7129 112.072V108.174C57.7129 107.255 58.4614 106.503 59.3763 106.503H127.02C127.935 106.503 128.683 107.255 128.683 108.174V112.072C128.683 112.991 127.935 113.742 127.02 113.742ZM59.3763 107.617C59.0713 107.617 58.8218 107.867 58.8218 108.174V112.072C58.8218 112.378 59.0713 112.629 59.3763 112.629H127.02C127.325 112.629 127.574 112.378 127.574 112.072V108.174C127.574 107.867 127.325 107.617 127.02 107.617H59.3763Z" fill="#CFD8DC"/>
<path d="M98.7435 117.641H59.9316V118.754H98.7435V117.641Z" fill="#CFD8DC"/>
<path d="M114.568 121.138H103.573C102.936 121.138 102.42 120.637 102.42 120.024V117.797H115.727V120.024C115.721 120.642 115.206 121.138 114.568 121.138Z" fill="#ECEFF1"/>
<path d="M114.058 119.868H104.078C103.468 119.868 102.969 119.367 102.969 118.754V117.641C102.969 117.028 103.468 116.527 104.078 116.527H114.058C114.668 116.527 115.167 117.028 115.167 117.641V118.754C115.167 119.367 114.673 119.868 114.058 119.868Z" fill="#9C93D1"/>
<path d="M114.058 120.425H104.077C103.163 120.425 102.414 119.673 102.414 118.754V117.641C102.414 116.722 103.163 115.97 104.077 115.97H114.058C114.972 115.97 115.721 116.722 115.721 117.641V118.754C115.721 119.673 114.978 120.425 114.058 120.425ZM104.077 117.084C103.772 117.084 103.523 117.334 103.523 117.641V118.754C103.523 119.061 103.772 119.311 104.077 119.311H114.058C114.363 119.311 114.612 119.061 114.612 118.754V117.641C114.612 117.334 114.363 117.084 114.058 117.084H104.077Z" fill="#7770A0"/>
<path d="M127.02 162.191H59.3765C58.7666 162.191 58.2676 161.69 58.2676 161.078V126.551C58.2676 125.938 58.7666 125.437 59.3765 125.437H127.02C127.63 125.437 128.129 125.938 128.129 126.551V161.078C128.129 161.69 127.63 162.191 127.02 162.191Z" fill="white"/>
<path d="M127.02 125.437H59.3765C58.7666 125.437 58.2676 125.938 58.2676 126.551V133.233H128.129V126.551C128.129 125.938 127.63 125.437 127.02 125.437Z" fill="#CFD8DC"/>
<path d="M127.02 162.748H59.3763C58.4614 162.748 57.7129 161.997 57.7129 161.078V126.551C57.7129 125.632 58.4614 124.88 59.3763 124.88H127.02C127.935 124.88 128.683 125.632 128.683 126.551V161.078C128.683 161.997 127.935 162.748 127.02 162.748ZM59.3763 125.994C59.0713 125.994 58.8218 126.244 58.8218 126.551V161.078C58.8218 161.384 59.0713 161.635 59.3763 161.635H127.02C127.325 161.635 127.574 161.384 127.574 161.078V126.551C127.574 126.244 127.325 125.994 127.02 125.994H59.3763Z" fill="#CFD8DC"/>
<path d="M81.0001 127.108H76.5645V131.563H81.0001V127.108Z" fill="#ECEFF1"/>
<path d="M86.545 127.108H82.1094V131.563H86.545V127.108Z" fill="#ECEFF1"/>
<path d="M92.0899 127.108H87.6543V131.563H92.0899V127.108Z" fill="#ECEFF1"/>
<path d="M97.6329 127.108H93.1973V131.563H97.6329V127.108Z" fill="#ECEFF1"/>
<path d="M103.178 127.108H98.7422V131.563H103.178V127.108Z" fill="#ECEFF1"/>
<path d="M108.723 127.108H104.287V131.563H108.723V127.108Z" fill="#ECEFF1"/>
<path d="M114.268 127.108H109.832V131.563H114.268V127.108Z" fill="#ECEFF1"/>
<path d="M64.3673 127.108H59.9316V131.563H64.3673V127.108Z" fill="#ECEFF1"/>
<path d="M61.2559 130.482V128.049H62.1485C62.3149 128.049 62.459 128.066 62.5755 128.093C62.6919 128.127 62.7917 128.166 62.8638 128.227C62.9359 128.283 62.9913 128.355 63.0246 128.433C63.0578 128.517 63.0745 128.606 63.0745 128.706C63.0745 128.762 63.0689 128.812 63.0523 128.862C63.0357 128.912 63.0135 128.962 62.9802 129.007C62.9469 129.051 62.9026 129.09 62.8527 129.129C62.8028 129.163 62.7363 129.196 62.6642 129.224C62.825 129.263 62.9414 129.324 63.019 129.413C63.0967 129.502 63.1355 129.614 63.1355 129.747C63.1355 129.853 63.1133 129.948 63.0745 130.037C63.0357 130.126 62.9747 130.204 62.897 130.271C62.8194 130.338 62.7252 130.388 62.6143 130.427C62.5034 130.466 62.3703 130.482 62.2262 130.482H61.2559ZM61.8214 129.073H62.1153C62.1763 129.073 62.2317 129.068 62.2816 129.062C62.3315 129.051 62.3759 129.04 62.4091 129.018C62.4424 128.996 62.4701 128.968 62.4868 128.923C62.5034 128.884 62.5145 128.834 62.5145 128.778C62.5145 128.723 62.5089 128.673 62.4923 128.634C62.4757 128.595 62.4535 128.567 62.4258 128.539C62.398 128.517 62.3592 128.5 62.3093 128.489C62.265 128.478 62.2095 128.472 62.143 128.472H61.8159V129.073H61.8214ZM61.8214 129.447V130.054H62.2151C62.2871 130.054 62.3481 130.042 62.398 130.026C62.4424 130.009 62.4812 129.981 62.5089 129.953C62.5367 129.926 62.5533 129.887 62.5644 129.853C62.5755 129.814 62.581 129.775 62.581 129.736C62.581 129.692 62.5755 129.653 62.5644 129.614C62.5533 129.58 62.5311 129.547 62.5034 129.525C62.4757 129.502 62.4369 129.48 62.3925 129.469C62.3481 129.458 62.2871 129.447 62.2151 129.447H61.8214Z" fill="black"/>
<path d="M69.9103 127.108H65.4746V131.563H69.9103V127.108Z" fill="#ECEFF1"/>
<path d="M67.8637 130.555H67.3203L67.6142 128.121H68.1575L67.8637 130.555Z" fill="black"/>
<path d="M75.4552 127.108H71.0195V131.563H75.4552V127.108Z" fill="#ECEFF1"/>
<path d="M72.7541 129.847H72.5434C72.5213 129.847 72.4991 129.842 72.488 129.831C72.4714 129.82 72.4658 129.803 72.4603 129.786L72.4215 129.569H72.0167L71.928 129.786C71.9225 129.803 71.9114 129.814 71.8947 129.825C71.8781 129.836 71.8559 129.842 71.8337 129.842H71.623L72.1997 128.622H72.4769L72.7541 129.847ZM72.0888 129.385H72.3937L72.3328 129.04C72.3272 129.012 72.3217 128.984 72.3161 128.951C72.3106 128.923 72.305 128.895 72.2995 128.867C72.2939 128.878 72.2884 128.895 72.2829 128.912C72.2773 128.929 72.2662 128.945 72.2607 128.962C72.2551 128.979 72.2496 128.995 72.2385 129.007C72.2329 129.018 72.2274 129.029 72.2274 129.04L72.0888 129.385Z" fill="black"/>
<path d="M72.8262 129.848L72.9759 128.628H73.3917C73.4638 128.628 73.5248 128.633 73.5747 128.65C73.6246 128.661 73.6634 128.684 73.6967 128.706C73.7299 128.728 73.7521 128.762 73.7687 128.795C73.7854 128.828 73.7909 128.867 73.7909 128.912C73.7909 128.945 73.7854 128.979 73.7798 129.007C73.7687 129.04 73.7577 129.068 73.741 129.09C73.7244 129.118 73.6967 129.14 73.6689 129.163C73.6412 129.185 73.6024 129.202 73.5636 129.218C73.6301 129.235 73.68 129.263 73.7078 129.302C73.741 129.341 73.7521 129.385 73.7521 129.447C73.7521 129.502 73.741 129.558 73.7188 129.602C73.6967 129.653 73.6689 129.692 73.6246 129.731C73.5858 129.764 73.5359 129.797 73.4749 129.814C73.4194 129.836 73.3529 129.848 73.2808 129.848H72.8262ZM73.1588 129.33L73.12 129.647H73.2975C73.3307 129.647 73.3584 129.641 73.3806 129.63C73.4028 129.619 73.4194 129.608 73.4361 129.591C73.4527 129.575 73.4582 129.552 73.4693 129.53C73.4749 129.508 73.4804 129.48 73.4804 129.452C73.4804 129.435 73.4804 129.419 73.4749 129.402C73.4693 129.385 73.4638 129.374 73.4527 129.363C73.4416 129.352 73.425 129.346 73.4083 129.341C73.3917 129.335 73.3695 129.33 73.3418 129.33H73.1588ZM73.181 129.146H73.3085C73.3418 129.146 73.364 129.14 73.3917 129.135C73.4139 129.129 73.4361 129.118 73.4527 129.101C73.4693 129.085 73.486 129.068 73.4915 129.04C73.5026 129.018 73.5082 128.984 73.5082 128.951C73.5082 128.906 73.4971 128.873 73.4749 128.856C73.4527 128.84 73.4139 128.828 73.364 128.828H73.2198L73.181 129.146Z" fill="black"/>
<path d="M74.3562 129.636C74.3839 129.636 74.4116 129.636 74.4338 129.63C74.456 129.625 74.4782 129.619 74.4892 129.614C74.5059 129.608 74.517 129.597 74.5281 129.591C74.5391 129.58 74.5502 129.575 74.5558 129.569C74.5669 129.564 74.5724 129.558 74.5835 129.552C74.589 129.547 74.6001 129.547 74.6057 129.547C74.6168 129.547 74.6223 129.547 74.6279 129.552C74.6334 129.558 74.6389 129.558 74.6389 129.564L74.7332 129.68C74.6833 129.742 74.6168 129.792 74.5447 129.825C74.4726 129.859 74.3894 129.875 74.3007 129.875C74.2231 129.875 74.1566 129.864 74.0956 129.836C74.0346 129.809 73.9847 129.77 73.9459 129.725C73.9071 129.68 73.8738 129.619 73.8516 129.558C73.8294 129.491 73.8184 129.424 73.8184 129.346C73.8184 129.28 73.8239 129.213 73.8405 129.146C73.8572 129.085 73.8793 129.023 73.9071 128.973C73.9348 128.923 73.9681 128.873 74.0069 128.828C74.0457 128.784 74.09 128.75 74.1399 128.723C74.1898 128.695 74.2397 128.673 74.2952 128.656C74.3506 128.639 74.4061 128.634 74.4671 128.634C74.5114 128.634 74.5558 128.639 74.5891 128.645C74.6279 128.656 74.6611 128.667 74.6889 128.678C74.7166 128.695 74.7443 128.712 74.772 128.734C74.7942 128.756 74.8164 128.778 74.833 128.806L74.7388 128.918C74.7332 128.923 74.7221 128.934 74.7166 128.94C74.7055 128.945 74.6944 128.951 74.6833 128.951C74.6722 128.951 74.6667 128.951 74.6556 128.945C74.65 128.94 74.6389 128.934 74.6334 128.929C74.6279 128.923 74.6168 128.918 74.6057 128.906C74.5946 128.901 74.5835 128.89 74.5724 128.884C74.5613 128.879 74.5447 128.873 74.5225 128.867C74.5059 128.862 74.4782 128.862 74.456 128.862C74.4061 128.862 74.3562 128.873 74.3118 128.895C74.2675 128.918 74.2287 128.945 74.1954 128.99C74.1621 129.029 74.1399 129.079 74.1178 129.135C74.1011 129.19 74.09 129.257 74.09 129.33C74.09 129.38 74.0956 129.43 74.1067 129.469C74.1178 129.508 74.1344 129.541 74.1566 129.575C74.1788 129.608 74.2065 129.625 74.2342 129.642C74.2896 129.63 74.3229 129.636 74.3562 129.636Z" fill="black"/>
<path d="M71.6836 129.491V129.335H74.7719V129.491H71.6836Z" fill="black"/>
<path d="M173 200.754V204.222C173 205.5 174.035 206.534 175.312 206.534H287.454C288.732 206.534 289.766 205.5 289.766 204.222V200.754H173Z" fill="#F9F9F9"/>
<path d="M288.032 203.066H174.734C174.098 203.066 173.578 202.546 173.578 201.91V111.734C173.578 111.098 174.098 110.578 174.734 110.578H288.032C288.668 110.578 289.188 111.098 289.188 111.734V201.91C289.188 202.546 288.668 203.066 288.032 203.066Z" fill="white"/>
<path d="M288.032 203.644H174.734C173.78 203.644 173 202.864 173 201.91V111.734C173 110.78 173.78 110 174.734 110H288.032C288.986 110 289.766 110.78 289.766 111.734V201.91C289.766 202.864 288.986 203.644 288.032 203.644ZM174.734 111.156C174.416 111.156 174.156 111.416 174.156 111.734V201.91C174.156 202.228 174.416 202.488 174.734 202.488H288.032C288.35 202.488 288.61 202.228 288.61 201.91V111.734C288.61 111.416 288.35 111.156 288.032 111.156H174.734Z" fill="#CFD8DC"/>
<path d="M174.174 118.671V111.722C174.174 111.404 174.434 111.144 174.752 111.144H288.05C288.368 111.144 288.628 111.404 288.628 111.722V118.671H174.174Z" fill="#ECEFF1"/>
<path d="M180.801 116.445C181.599 116.445 182.246 115.798 182.246 115C182.246 114.202 181.599 113.555 180.801 113.555C180.002 113.555 179.355 114.202 179.355 115C179.355 115.798 180.002 116.445 180.801 116.445Z" fill="#CFD8DC"/>
<path d="M187.16 116.445C187.958 116.445 188.605 115.798 188.605 115C188.605 114.202 187.958 113.555 187.16 113.555C186.362 113.555 185.715 114.202 185.715 115C185.715 115.798 186.362 116.445 187.16 116.445Z" fill="#CFD8DC"/>
<path d="M193.517 116.445C194.316 116.445 194.963 115.798 194.963 115C194.963 114.202 194.316 113.555 193.517 113.555C192.719 113.555 192.072 114.202 192.072 115C192.072 115.798 192.719 116.445 193.517 116.445Z" fill="#CFD8DC"/>
<path d="M201.905 202.488H174.736C174.418 202.488 174.158 202.228 174.158 201.91V118.671H201.905V202.488Z" fill="#546E7A"/>
<path d="M193.808 127.486H177.623V129.798H193.808V127.486Z" fill="#ECEFF1"/>
<path d="M189.184 133.267H177.623V135.579H189.184V133.267Z" fill="#ECEFF1"/>
<path d="M191.496 139.047H177.623V141.36H191.496V139.047Z" fill="#ECEFF1"/>
<path d="M196.121 144.828H177.623V147.14H196.121V144.828Z" fill="#ECEFF1"/>
<path d="M192.652 150.608H177.623V152.92H192.652V150.608Z" fill="#ECEFF1"/>
<path d="M190.34 156.388H177.623V158.701H190.34V156.388Z" fill="#ECEFF1"/>
<path d="M194.965 162.169H177.623V164.481H194.965V162.169Z" fill="#ECEFF1"/>
<path d="M194.965 167.95H177.623V170.262H194.965V167.95Z" fill="#ECEFF1"/>
<path d="M191.496 173.73H177.623V176.042H191.496V173.73Z" fill="#ECEFF1"/>
<path d="M235.432 123.873H206.529V127.342H235.432V123.873Z" fill="#546E7A"/>
<path d="M228.495 145.261H206.529V147.573H228.495V145.261Z" fill="#546E7A"/>
<path d="M225.027 178.21H206.529V180.522H225.027V178.21Z" fill="#546E7A"/>
<path d="M282.832 182.545H235.431C234.796 182.545 234.275 182.025 234.275 181.389V177.343C234.275 176.707 234.796 176.187 235.431 176.187H282.832C283.468 176.187 283.988 176.707 283.988 177.343V181.389C283.988 182.025 283.468 182.545 282.832 182.545Z" fill="white"/>
<path d="M282.832 183.124H235.431C234.478 183.124 233.697 182.343 233.697 181.389V177.343C233.697 176.389 234.478 175.609 235.431 175.609H282.832C283.785 175.609 284.566 176.389 284.566 177.343V181.389C284.566 182.343 283.785 183.124 282.832 183.124ZM235.431 176.765C235.113 176.765 234.853 177.025 234.853 177.343V181.389C234.853 181.707 235.113 181.967 235.431 181.967H282.832C283.15 181.967 283.41 181.707 283.41 181.389V177.343C283.41 177.025 283.15 176.765 282.832 176.765H235.431Z" fill="#CFD8DC"/>
<path d="M259.71 144.105H234.275V148.729H259.71V144.105Z" fill="#CFD8DC"/>
<path d="M218.668 136.013H206.529V138.325H218.668V136.013Z" fill="#546E7A"/>
<path d="M260.865 136.013H243.523V138.325H260.865V136.013Z" fill="#CFD8DC"/>
<path d="M238.322 140.059H236.01C235.056 140.059 234.275 139.278 234.275 138.325V136.012C234.275 135.059 235.056 134.278 236.01 134.278H238.322C239.276 134.278 240.056 135.059 240.056 136.012V138.325C240.056 139.278 239.276 140.059 238.322 140.059ZM236.01 135.434C235.692 135.434 235.431 135.695 235.431 136.012V138.325C235.431 138.643 235.692 138.903 236.01 138.903H238.322C238.64 138.903 238.9 138.643 238.9 138.325V136.012C238.9 135.695 238.64 135.434 238.322 135.434H236.01Z" fill="#CFD8DC"/>
<path d="M224.449 158.556H206.529V160.869H224.449V158.556Z" fill="#546E7A"/>
<path d="M278.206 158.556H243.523V160.869H278.206V158.556Z" fill="#CFD8DC"/>
<path d="M238.322 162.603H236.01C235.056 162.603 234.275 161.822 234.275 160.868V158.556C234.275 157.602 235.056 156.822 236.01 156.822H238.322C239.276 156.822 240.056 157.602 240.056 158.556V160.868C240.056 161.822 239.276 162.603 238.322 162.603ZM236.01 157.978C235.692 157.978 235.431 158.238 235.431 158.556V160.868C235.431 161.186 235.692 161.446 236.01 161.446H238.322C238.64 161.446 238.9 161.186 238.9 160.868V158.556C238.9 158.238 238.64 157.978 238.322 157.978H236.01Z" fill="#CFD8DC"/>
<path d="M241.208 145.261H235.428V147.573H241.208V145.261Z" fill="#2A373D"/>
<path d="M246.989 145.261H241.209V147.573H246.989V145.261Z" fill="#546E7A"/>
<path d="M252.771 145.261H246.99V147.573H252.771V145.261Z" fill="#00897B"/>
<path d="M258.552 145.261H252.771V147.573H258.552V145.261Z" fill="#4DB6AC"/>
<path d="M266.644 145.261H260.863V147.573H266.644V145.261Z" fill="#2A373D"/>
<path d="M272.425 145.261H266.645V147.573H272.425V145.261Z" fill="#546E7A"/>
<path d="M278.204 145.261H272.424V147.573H278.204V145.261Z" fill="#C15953"/>
<path d="M283.986 145.261H278.205V147.573H283.986V145.261Z" fill="#E96F5F"/>
<path d="M241.208 149.886H235.428V152.198H241.208V149.886Z" fill="#676C6E"/>
<path d="M246.989 149.886H241.209V152.198H246.989V149.886Z" fill="#767778"/>
<path d="M252.771 149.886H246.99V152.198H252.771V149.886Z" fill="#7770A0"/>
<path d="M258.552 149.886H252.771V152.198H258.552V149.886Z" fill="#9C93D1"/>
<path d="M266.644 149.886H260.863V152.198H266.644V149.886Z" fill="#676C6E"/>
<path d="M272.425 149.886H266.645V152.198H272.425V149.886Z" fill="#767778"/>
<path d="M278.204 149.886H272.424V152.198H278.204V149.886Z" fill="#FBC02D"/>
<path d="M283.986 149.886H278.205V152.198H283.986V149.886Z" fill="#FDD835"/>
<path d="M221.559 167.805H206.529V170.117H221.559V167.805Z" fill="#546E7A"/>
<path d="M278.206 167.805H243.523V170.117H278.206V167.805Z" fill="#CFD8DC"/>
<path d="M238.32 171.949H236.008C235.054 171.949 234.273 171.168 234.273 170.215V167.902C234.273 166.949 235.054 166.168 236.008 166.168H238.32C239.274 166.168 240.054 166.949 240.054 167.902V170.215C240.054 171.168 239.274 171.949 238.32 171.949ZM236.008 167.324C235.69 167.324 235.43 167.584 235.43 167.902V170.215C235.43 170.532 235.69 170.793 236.008 170.793H238.32C238.638 170.793 238.898 170.532 238.898 170.215V167.902C238.898 167.584 238.638 167.324 238.32 167.324H236.008Z" fill="#CFD8DC"/>
<path d="M237.884 170.429L235.844 168.388L236.659 167.568L237.884 168.793L240.746 165.932L241.566 166.752L237.884 170.429Z" fill="#4DB6AC"/>
<path d="M224.979 197.673H207.73C207.065 197.673 206.527 197.153 206.527 196.517V193.627H226.181V196.517C226.181 197.153 225.643 197.673 224.979 197.673Z" fill="#ECEFF1"/>
<path d="M224.447 195.673H208.262C207.626 195.673 207.105 195.153 207.105 194.517V192.205C207.105 191.569 207.626 191.049 208.262 191.049H224.447C225.083 191.049 225.603 191.569 225.603 192.205V194.517C225.603 195.153 225.083 195.673 224.447 195.673Z" fill="#4DB6AC"/>
<path d="M224.447 196.251H208.261C207.308 196.251 206.527 195.471 206.527 194.517V192.205C206.527 191.251 207.308 190.471 208.261 190.471H224.447C225.401 190.471 226.181 191.251 226.181 192.205V194.517C226.181 195.471 225.401 196.251 224.447 196.251ZM208.261 191.627C207.944 191.627 207.683 191.887 207.683 192.205V194.517C207.683 194.835 207.944 195.095 208.261 195.095H224.447C224.765 195.095 225.025 194.835 225.025 194.517V192.205C225.025 191.887 224.765 191.627 224.447 191.627H208.261Z" fill="#00897B"/>
<path d="M326 169.115V172.461C326 173.694 326.998 174.692 328.231 174.692H436.423C437.655 174.692 438.653 173.694 438.653 172.461V169.115H326Z" fill="#F9F9F9"/>
<path d="M436.983 170.788H327.676C327.062 170.788 326.561 170.286 326.561 169.673V82.673C326.561 82.0595 327.062 81.5576 327.676 81.5576H436.983C437.597 81.5576 438.099 82.0595 438.099 82.673V169.673C438.099 170.286 437.597 170.788 436.983 170.788Z" fill="white"/>
<path d="M436.98 171.346H327.673C326.753 171.346 326 170.593 326 169.673V82.6731C326 81.7529 326.753 81 327.673 81H436.98C437.9 81 438.653 81.7529 438.653 82.6731V169.673C438.653 170.593 437.9 171.346 436.98 171.346ZM327.673 82.1154C327.366 82.1154 327.115 82.3663 327.115 82.6731V169.673C327.115 169.979 327.366 170.23 327.673 170.23H436.98C437.287 170.23 437.538 169.979 437.538 169.673V82.6731C437.538 82.3663 437.287 82.1154 436.98 82.1154H327.673Z" fill="#CFD8DC"/>
<path d="M327.133 89.3651V82.6617C327.133 82.355 327.384 82.104 327.691 82.104H436.998C437.304 82.104 437.555 82.355 437.555 82.6617V89.3651H327.133Z" fill="#ECEFF1"/>
<path d="M333.523 87.2189C334.293 87.2189 334.917 86.5947 334.917 85.8246C334.917 85.0546 334.293 84.4304 333.523 84.4304C332.753 84.4304 332.129 85.0546 332.129 85.8246C332.129 86.5947 332.753 87.2189 333.523 87.2189Z" fill="#CFD8DC"/>
<path d="M339.658 87.2184C340.428 87.2184 341.052 86.5942 341.052 85.8242C341.052 85.0541 340.428 84.4299 339.658 84.4299C338.888 84.4299 338.264 85.0541 338.264 85.8242C338.264 86.5942 338.888 87.2184 339.658 87.2184Z" fill="#CFD8DC"/>
<path d="M345.793 87.2184C346.563 87.2184 347.187 86.5942 347.187 85.8242C347.187 85.0541 346.563 84.4299 345.793 84.4299C345.023 84.4299 344.398 85.0541 344.398 85.8242C344.398 86.5942 345.023 87.2184 345.793 87.2184Z" fill="#CFD8DC"/>
<path d="M429.733 164.654H427.502V163.538H428.617V162.423H429.733V164.654Z" fill="#ECEFF1"/>
<path d="M424.066 164.654H420.631V163.538H424.066V164.654ZM417.201 164.654H413.766V163.538H417.201V164.654ZM410.331 164.654H406.895V163.538H410.331V164.654ZM403.465 164.654H400.03V163.538H403.465V164.654ZM396.595 164.654H393.159V163.538H396.595V164.654ZM389.724 164.654H386.289V163.538H389.724V164.654ZM382.859 164.654H379.423V163.538H382.859V164.654ZM375.988 164.654H372.553V163.538H375.988V164.654ZM369.123 164.654H365.688V163.538H369.123V164.654Z" fill="#ECEFF1"/>
<path d="M362.25 164.654H360.02V162.423H361.135V163.538H362.25V164.654Z" fill="#ECEFF1"/>
<path d="M361.135 157.22H360.02V159.824H361.135V157.22Z" fill="#ECEFF1"/>
<path d="M361.135 154.615H360.02V152.385H362.25V153.5H361.135V154.615Z" fill="#ECEFF1"/>
<path d="M424.066 153.5H420.631V152.385H424.066V153.5ZM417.201 153.5H413.766V152.385H417.201V153.5ZM410.331 153.5H406.895V152.385H410.331V153.5ZM403.46 153.5H400.024V152.385H403.46V153.5ZM396.595 153.5H393.159V152.385H396.595V153.5ZM389.724 153.5H386.289V152.385H389.724V153.5ZM382.859 153.5H379.423V152.385H382.859V153.5ZM375.988 153.5H372.553V152.385H375.988V153.5ZM369.123 153.5H365.688V152.385H369.123V153.5Z" fill="#ECEFF1"/>
<path d="M429.733 154.615H428.617V153.5H427.502V152.385H429.733V154.615Z" fill="#ECEFF1"/>
<path d="M429.731 157.22H428.615V159.824H429.731V157.22Z" fill="#ECEFF1"/>
<path d="M397.667 157.962H392.09V159.077H397.667V157.962Z" fill="#CFD8DC"/>
<path d="M395.436 155.731H394.32V161.308H395.436V155.731Z" fill="#CFD8DC"/>
<path d="M353.884 170.23H327.673C327.366 170.23 327.115 169.979 327.115 169.673V89.3652H353.884V170.23Z" fill="#546E7A"/>
<path d="M351.097 92.1538H329.904V101.077H351.097V92.1538Z" fill="#ECEFF1"/>
<path d="M349.7 96.0579H345.238V97.1732H349.7V96.0579Z" fill="#546E7A"/>
<path d="M348.026 94.3848H346.91V98.8463H348.026V94.3848Z" fill="#546E7A"/>
<path d="M342.73 94.6633H332.691V95.221H342.73V94.6633Z" fill="#CFD8DC"/>
<path d="M340.07 98.0095H332.691V98.5672H340.07V98.0095Z" fill="#CFD8DC"/>
<path d="M351.097 103.308H329.904V112.231H351.097V103.308Z" fill="#ECEFF1"/>
<path d="M349.7 107.211H345.238V108.327H349.7V107.211Z" fill="#546E7A"/>
<path d="M348.026 105.538H346.91V110H348.026V105.538Z" fill="#546E7A"/>
<path d="M342.73 105.817H332.691V106.375H342.73V105.817Z" fill="#CFD8DC"/>
<path d="M340.07 109.163H332.691V109.721H340.07V109.163Z" fill="#CFD8DC"/>
<path d="M351.097 114.461H329.904V123.384H351.097V114.461Z" fill="#ECEFF1"/>
<path d="M349.7 118.365H345.238V119.481H349.7V118.365Z" fill="#546E7A"/>
<path d="M348.026 116.692H346.91V121.154H348.026V116.692Z" fill="#546E7A"/>
<path d="M342.73 116.971H332.691V117.529H342.73V116.971Z" fill="#CFD8DC"/>
<path d="M340.07 120.317H332.691V120.875H340.07V120.317Z" fill="#CFD8DC"/>
<path d="M351.097 125.615H329.904V134.538H351.097V125.615Z" fill="#ECEFF1"/>
<path d="M349.7 129.519H345.238V130.634H349.7V129.519Z" fill="#546E7A"/>
<path d="M348.026 127.846H346.91V132.307H348.026V127.846Z" fill="#546E7A"/>
<path d="M342.73 128.125H332.691V128.682H342.73V128.125Z" fill="#CFD8DC"/>
<path d="M340.07 131.471H332.691V132.028H340.07V131.471Z" fill="#CFD8DC"/>
<path d="M351.097 136.769H329.904V145.692H351.097V136.769Z" fill="#ECEFF1"/>
<path d="M349.7 140.673H345.238V141.788H349.7V140.673Z" fill="#546E7A"/>
<path d="M348.026 139H346.91V143.461H348.026V139Z" fill="#546E7A"/>
<path d="M342.73 139.279H332.691V139.836H342.73V139.279Z" fill="#CFD8DC"/>
<path d="M340.07 142.625H332.691V143.182H340.07V142.625Z" fill="#CFD8DC"/>
<path d="M351.097 147.923H329.904V156.846H351.097V147.923Z" fill="#ECEFF1"/>
<path d="M349.7 151.827H345.238V152.942H349.7V151.827Z" fill="#546E7A"/>
<path d="M348.026 150.154H346.91V154.615H348.026V150.154Z" fill="#546E7A"/>
<path d="M342.73 150.432H332.691V150.99H342.73V150.432Z" fill="#CFD8DC"/>
<path d="M340.07 153.778H332.691V154.336H340.07V153.778Z" fill="#CFD8DC"/>
<path d="M428.336 112.509H361.971C361.357 112.509 360.855 112.007 360.855 111.394V107.49C360.855 106.877 361.357 106.375 361.971 106.375H428.336C428.949 106.375 429.451 106.877 429.451 107.49V111.394C429.451 112.007 428.949 112.509 428.336 112.509Z" fill="white"/>
<path d="M428.335 113.067H361.97C361.05 113.067 360.297 112.314 360.297 111.394V107.49C360.297 106.57 361.05 105.817 361.97 105.817H428.335C429.255 105.817 430.008 106.57 430.008 107.49V111.394C430.008 112.314 429.255 113.067 428.335 113.067ZM361.97 106.933C361.663 106.933 361.412 107.184 361.412 107.49V111.394C361.412 111.701 361.663 111.952 361.97 111.952H428.335C428.642 111.952 428.893 111.701 428.893 111.394V107.49C428.893 107.184 428.642 106.933 428.335 106.933H361.97Z" fill="#CFD8DC"/>
<path d="M428.336 101.913H361.971C361.357 101.913 360.855 101.411 360.855 100.798V96.8942C360.855 96.2807 361.357 95.7788 361.971 95.7788H428.336C428.949 95.7788 429.451 96.2807 429.451 96.8942V100.798C429.451 101.411 428.949 101.913 428.336 101.913Z" fill="white"/>
<path d="M428.335 102.471H361.97C361.05 102.471 360.297 101.718 360.297 100.798V96.894C360.297 95.9738 361.05 95.2209 361.97 95.2209H428.335C429.255 95.2209 430.008 95.9738 430.008 96.894V100.798C430.008 101.718 429.255 102.471 428.335 102.471ZM361.97 96.3363C361.663 96.3363 361.412 96.5873 361.412 96.894V100.798C361.412 101.105 361.663 101.356 361.97 101.356H428.335C428.642 101.356 428.893 101.105 428.893 100.798V96.894C428.893 96.5873 428.642 96.3363 428.335 96.3363H361.97Z" fill="#CFD8DC"/>
<path d="M402.959 125.571H368.939V127.802H402.959V125.571Z" fill="#CFD8DC"/>
<path d="M363.921 129.474H361.691C360.77 129.474 360.018 128.721 360.018 127.801V125.571C360.018 124.65 360.77 123.897 361.691 123.897H363.921C364.842 123.897 365.594 124.65 365.594 125.571V127.801C365.594 128.721 364.842 129.474 363.921 129.474ZM361.691 125.013C361.384 125.013 361.133 125.264 361.133 125.571V127.801C361.133 128.108 361.384 128.359 361.691 128.359H363.921C364.228 128.359 364.479 128.108 364.479 127.801V125.571C364.479 125.264 364.228 125.013 363.921 125.013H361.691Z" fill="#CFD8DC"/>
<path d="M414.112 118.321H368.939V120.551H414.112V118.321Z" fill="#CFD8DC"/>
<path d="M363.921 122.224H361.691C360.77 122.224 360.018 121.471 360.018 120.551V118.321C360.018 117.4 360.77 116.647 361.691 116.647H363.921C364.842 116.647 365.594 117.4 365.594 118.321V120.551C365.594 121.471 364.842 122.224 363.921 122.224ZM361.691 117.763C361.384 117.763 361.133 118.014 361.133 118.321V120.551C361.133 120.858 361.384 121.109 361.691 121.109H363.921C364.228 121.109 364.479 120.858 364.479 120.551V118.321C364.479 118.014 364.228 117.763 363.921 117.763H361.691Z" fill="#CFD8DC"/>
<path d="M408.535 132.82H368.939V135.051H408.535V132.82Z" fill="#CFD8DC"/>
<path d="M363.921 136.813H361.691C360.77 136.813 360.018 136.061 360.018 135.14V132.91C360.018 131.989 360.77 131.237 361.691 131.237H363.921C364.842 131.237 365.594 131.989 365.594 132.91V135.14C365.594 136.066 364.842 136.813 363.921 136.813ZM361.691 132.352C361.384 132.352 361.133 132.603 361.133 132.91V135.14C361.133 135.447 361.384 135.698 361.691 135.698H363.921C364.228 135.698 364.479 135.447 364.479 135.14V132.91C364.479 132.603 364.228 132.352 363.921 132.352H361.691Z" fill="#CFD8DC"/>
<path d="M363.504 135.352L361.535 133.378L362.321 132.592L363.504 133.774L366.264 131.014L367.056 131.806L363.504 135.352Z" fill="#4DB6AC"/>
<path d="M426.94 146.266H419.132C417.593 146.266 416.344 145.017 416.344 143.478C416.344 141.938 417.593 140.689 419.132 140.689H426.94C428.479 140.689 429.728 141.938 429.728 143.478C429.728 145.017 428.479 146.266 426.94 146.266Z" fill="#4DB6AC"/>
<path d="M426.943 146.824H419.135C417.289 146.824 415.789 145.324 415.789 143.478C415.789 141.632 417.289 140.132 419.135 140.132H426.943C428.789 140.132 430.289 141.632 430.289 143.478C430.289 145.324 428.789 146.824 426.943 146.824ZM419.135 141.247C417.903 141.247 416.904 142.245 416.904 143.478C416.904 144.71 417.903 145.708 419.135 145.708H426.943C428.175 145.708 429.174 144.71 429.174 143.478C429.174 142.245 428.175 141.247 426.943 141.247H419.135Z" fill="#546E7A"/>
<path d="M426.385 146.824C428.233 146.824 429.731 145.326 429.731 143.478C429.731 141.63 428.233 140.132 426.385 140.132C424.537 140.132 423.039 141.63 423.039 143.478C423.039 145.326 424.537 146.824 426.385 146.824Z" fill="white"/>
<path d="M426.384 147.382C424.232 147.382 422.48 145.63 422.48 143.478C422.48 141.325 424.232 139.574 426.384 139.574C428.537 139.574 430.288 141.325 430.288 143.478C430.288 145.63 428.537 147.382 426.384 147.382ZM426.384 140.689C424.845 140.689 423.596 141.939 423.596 143.478C423.596 145.017 424.845 146.266 426.384 146.266C427.924 146.266 429.173 145.017 429.173 143.478C429.173 141.944 427.924 140.689 426.384 140.689Z" fill="#546E7A"/>
<path d="M407.145 142.363H360.299V144.594H407.145V142.363Z" fill="#CFD8DC"/>
<defs>
<linearGradient id="paint0_linear" x1="287.5" y1="161.549" x2="287.5" y2="102" gradientUnits="userSpaceOnUse">
<stop stop-color="#0083FE"/>
<stop offset="1" stop-color="#091CD0"/>
</linearGradient>
</defs>
</svg>
