<svg width="55" height="55" viewBox="0 0 55 55" fill="none" xmlns="http://www.w3.org/2000/svg">
<path d="M26.0094 28.0232L26.0094 28.0232C25.9625 26.9755 26.9662 26.0149 28.0407 26.0149C29.1581 26.0149 30.0208 26.9289 30.0719 28.068L30.0719 28.068C30.1188 29.1157 29.1151 30.0763 28.0407 30.0763C26.9232 30.0763 26.0605 29.1623 26.0094 28.0232ZM25.51 28.0456L25.51 28.0456L25.51 28.0456Z" fill="#0738DD" stroke="url(#paint0_linear)"/>
<circle cx="27.5" cy="27.5" r="26.5" stroke="url(#paint1_linear)" stroke-width="2"/>
<path d="M40.1875 28.2015C40.1875 21.593 34.8087 16.2142 28.2002 16.2142C21.5903 16.2142 16.2129 21.593 16.2129 28.2015C16.2129 34.8101 21.5903 40.1889 28.2002 40.1889C34.8087 40.1889 40.1875 34.8101 40.1875 28.2015ZM38.4125 28.2015C38.4125 33.8334 33.832 38.4139 28.2002 38.4139C22.5698 38.4139 17.9878 33.8334 17.9878 28.2015C17.9878 22.5697 22.5698 17.9892 28.2002 17.9892C33.832 17.9892 38.4125 22.5697 38.4125 28.2015Z" fill="#0738DD" stroke="url(#paint2_linear)"/>
<rect x="28.678" y="9.82151" width="0.785714" height="7.07143" rx="0.392857" fill="#0738DD" stroke="url(#paint3_linear)" stroke-width="0.785714"/>
<rect x="28.678" y="38.1072" width="0.785714" height="7.07143" rx="0.392857" fill="#0738DD" stroke="url(#paint4_linear)" stroke-width="0.785714"/>
<rect x="39.678" y="27.8928" width="0.785714" height="7.07143" rx="0.392857" transform="rotate(-90 39.678 27.8928)" fill="#0738DD" stroke="url(#paint5_linear)" stroke-width="0.785714"/>
<rect x="9.82059" y="27.8928" width="0.785714" height="7.07143" rx="0.392857" transform="rotate(-90 9.82059 27.8928)" fill="#0738DD" stroke="url(#paint6_linear)" stroke-width="0.785714"/>
<defs>
<linearGradient id="paint0_linear" x1="28.0407" y1="30.0134" x2="28.0407" y2="25.5149" gradientUnits="userSpaceOnUse">
<stop stop-color="#0083FE"/>
<stop offset="1" stop-color="#091CD0"/>
</linearGradient>
<linearGradient id="paint1_linear" x1="27.5" y1="48.8836" x2="27.5" y2="-2.29371e-06" gradientUnits="userSpaceOnUse">
<stop stop-color="#0083FE"/>
<stop offset="1" stop-color="#091CD0"/>
</linearGradient>
<linearGradient id="paint2_linear" x1="28.2002" y1="37.9115" x2="28.2002" y2="15.7142" gradientUnits="userSpaceOnUse">
<stop stop-color="#0083FE"/>
<stop offset="1" stop-color="#091CD0"/>
</linearGradient>
<linearGradient id="paint3_linear" x1="29.0709" y1="16.412" x2="29.0709" y2="9.42865" gradientUnits="userSpaceOnUse">
<stop stop-color="#0083FE"/>
<stop offset="1" stop-color="#091CD0"/>
</linearGradient>
<linearGradient id="paint4_linear" x1="29.0709" y1="44.6977" x2="29.0709" y2="37.7144" gradientUnits="userSpaceOnUse">
<stop stop-color="#0083FE"/>
<stop offset="1" stop-color="#091CD0"/>
</linearGradient>
<linearGradient id="paint5_linear" x1="40.0709" y1="35.2691" x2="40.0709" y2="28.2857" gradientUnits="userSpaceOnUse">
<stop stop-color="#0083FE"/>
<stop offset="1" stop-color="#091CD0"/>
</linearGradient>
<linearGradient id="paint6_linear" x1="10.2134" y1="35.2691" x2="10.2134" y2="28.2857" gradientUnits="userSpaceOnUse">
<stop stop-color="#0083FE"/>
<stop offset="1" stop-color="#091CD0"/>
</linearGradient>
</defs>
</svg>
