<svg width="60" height="60" viewBox="0 0 60 60" fill="none" xmlns="http://www.w3.org/2000/svg">
<path d="M58.0007 29.0001C57.6082 29.0129 57.207 29.2423 57.0518 29.6283L56.1604 31.8575L53.9463 23.7387C53.837 23.3389 53.4923 23.048 53.0804 23.007C52.6606 22.9622 52.273 23.1847 52.0876 23.5547L49.3649 29.0001H47.8343C49.2319 26.239 49.9828 23.1723 49.9828 20.0032C49.9828 8.97907 41.0142 0.0100098 29.9896 0.0100098C18.965 0.0100098 9.99646 8.97907 9.99646 20.0032C9.99646 23.1735 10.7481 26.241 12.1465 29.0027L12.0163 29.0001C11.614 29.0129 11.2225 29.2423 11.0673 29.6283L10.176 31.8575L7.9619 23.7387C7.85257 23.3389 7.50793 23.048 7.09595 23.007C6.67222 22.9622 6.2886 23.1847 6.10316 23.5547L3.38047 29.0001H0V30.9994H3.99863C4.37738 30.9994 4.72301 30.7856 4.89283 30.4469L6.72133 26.789L9.03204 35.2612C9.14525 35.6756 9.51038 35.9715 9.93998 35.9963C9.95847 35.9973 9.97809 35.9978 9.99658 35.9978C10.4037 35.9978 10.7727 35.7504 10.925 35.3697L12.6675 31.0133L13.3382 31.0268C13.8513 31.7975 14.4028 32.5463 15.0261 33.2469C15.0535 33.3542 15.0993 33.4582 15.1628 33.5534C18.4439 38.4746 18.6353 39.4943 19.2044 42.5216C19.3099 43.0775 19.426 43.6951 19.5734 44.4057C19.8279 45.6457 20.5537 46.6552 21.5314 47.2867C21.1938 47.7719 20.9928 48.3589 20.9928 48.9935C20.9928 50.0585 21.5548 50.9897 22.3937 51.5218C22.1457 51.9581 21.9925 52.4553 21.9925 52.9922C21.9925 54.0572 22.5544 54.9883 23.3934 55.5204C23.1453 55.9568 22.9921 56.454 22.9921 56.9908C22.9921 58.6445 24.3374 59.9898 25.9911 59.9898H33.9884C35.6421 59.9898 36.9874 58.6445 36.9874 56.9908C36.9874 56.454 36.8342 55.9569 36.5861 55.5204C37.4251 54.9882 37.987 54.0572 37.987 52.9922C37.987 52.4553 37.8338 51.9583 37.5858 51.5218C38.4247 50.9896 38.9867 50.0585 38.9867 48.9935C38.9867 48.3589 38.7859 47.7721 38.4482 47.2869C39.4259 46.6556 40.1517 45.6468 40.4061 44.4082C40.5535 43.6951 40.6696 43.0777 40.7751 42.5216C41.3442 39.4943 41.5356 38.4746 44.8167 33.5534C44.8802 33.4582 44.926 33.3542 44.9534 33.2469C45.5841 32.538 46.1417 31.7803 46.6596 30.9997H49.9829C50.3617 30.9997 50.7073 30.7859 50.8771 30.4471L52.7056 26.7892L55.0163 35.2615C55.1295 35.6758 55.4947 35.9717 55.9243 35.9966C55.9428 35.9976 55.9624 35.9981 55.9809 35.9981C56.388 35.9981 56.757 35.7507 56.9093 35.3699L58.6518 31.0135L59.959 31.0399L60 29.0406L58.0007 29.0001ZM33.9884 57.9902H25.9911C25.4396 57.9902 24.9915 57.5416 24.9915 56.9905C24.9915 56.4395 25.4396 55.9909 25.9911 55.9909H33.9884C34.5399 55.9909 34.988 56.4395 34.988 56.9905C34.988 57.5416 34.5399 57.9902 33.9884 57.9902ZM34.988 53.9916H33.9884H25.9911H24.9915C24.4399 53.9916 23.9918 53.543 23.9918 52.9919C23.9918 52.4408 24.4399 51.9922 24.9915 51.9922H34.988C35.5396 51.9922 35.9877 52.4408 35.9877 52.9919C35.9877 53.543 35.5396 53.9916 34.988 53.9916ZM35.9877 49.9929H34.988H24.9915H23.9918C23.4402 49.9929 22.9921 49.5443 22.9921 48.9933C22.9921 48.4422 23.4402 47.9936 23.9918 47.9936H35.9877C36.5393 47.9936 36.9874 48.4422 36.9874 48.9933C36.9874 49.5443 36.5393 49.9929 35.9877 49.9929ZM43.0975 32.3125C42.9345 32.4858 42.8417 32.7078 42.8271 32.9363C39.63 37.7896 39.3829 39.1065 38.81 42.1519C38.7075 42.6966 38.5933 43.3023 38.4479 44.0042C38.2077 45.1757 37.2324 45.9943 36.0775 45.9943H35.9877H34.1798L36.8259 30.9994H37.987C39.6407 30.9994 40.986 29.6541 40.986 28.0004V24.0018H43.985C44.5375 24.0018 44.9846 23.5542 44.9846 23.0022V18.0039C44.9846 16.3502 43.6393 15.0049 41.9857 15.0049V12.0059C41.9857 10.3522 40.6404 9.00694 38.9867 9.00694H37.987C37.987 7.35325 36.6417 6.00796 34.988 6.00796H31.9891C31.4365 6.00796 30.9894 6.45556 30.9894 7.00762V29.9998C30.9894 30.5518 31.4365 30.9994 31.9891 30.9994H34.7966L32.1505 45.9943H27.8291L25.183 30.9994H27.9904C28.543 30.9994 28.9901 30.5518 28.9901 29.9998V7.00762C28.9901 6.45556 28.543 6.00796 27.9904 6.00796H24.9915C23.3378 6.00796 21.9925 7.35325 21.9925 9.00694H20.9928C19.3391 9.00694 17.9939 10.3522 17.9939 12.0059V15.0049C16.3402 15.0049 14.9949 16.3502 14.9949 18.0039V25.0015C14.9949 25.5535 15.442 26.0011 15.9945 26.0011H18.9935V28.0004C18.9935 29.6541 20.3388 30.9994 21.9925 30.9994H23.1536L25.7997 45.9943H23.9918H23.902C22.7471 45.9943 21.7718 45.1757 21.5316 44.0019C21.3862 43.3023 21.272 42.6967 21.1695 42.1519C20.5965 39.1065 20.3494 37.7896 17.1524 32.9363C17.1378 32.7078 17.0451 32.4858 16.882 32.3125C13.7307 28.9747 11.9959 24.6036 11.9959 20.0032C11.9959 10.0813 20.0684 2.00933 29.9898 2.00933C39.9111 2.00933 47.9836 10.0813 47.9836 20.0032C47.9836 24.6036 46.2488 28.9747 43.0975 32.3125ZM36.9874 17.0042V14.0052C36.9874 13.4532 36.5403 13.0056 35.9877 13.0056H32.9887V8.00728H34.988C35.5396 8.00728 35.9877 8.45587 35.9877 9.00694V10.0066C35.9877 10.5587 36.4348 11.0063 36.9874 11.0063H38.9867C39.5382 11.0063 39.9863 11.4548 39.9863 12.0059V16.0045C39.9863 16.5566 40.4334 17.0042 40.986 17.0042H41.9857C42.5372 17.0042 42.9853 17.4528 42.9853 18.0039V22.0025H39.9863H35.9877C35.4351 22.0025 34.988 22.4501 34.988 23.0022V25.0015H36.9874V24.0018H38.9867V28.0004C38.9867 28.5515 38.5386 29.0001 37.987 29.0001H32.9887V15.0049H34.988V17.0042H36.9874ZM19.9932 20.0032C19.4406 20.0032 18.9935 20.4508 18.9935 21.0028V24.0018H16.9942V18.0039C16.9942 17.4528 17.4423 17.0042 17.9939 17.0042H18.9935C19.5461 17.0042 19.9932 16.5566 19.9932 16.0045V12.0059C19.9932 11.4548 20.4413 11.0063 20.9928 11.0063H21.9925V13.0056H23.9918V10.0066V9.00694C23.9918 8.45587 24.4399 8.00728 24.9915 8.00728H26.9908V29.0001H21.9925C21.4409 29.0001 20.9928 28.5515 20.9928 28.0004V25.0015V22.0025H22.9921V20.0032H19.9932Z" fill="url(#paint0_linear)"/>
<defs>
<linearGradient id="paint0_linear" x1="30" y1="53.3196" x2="30" y2="0.0100073" gradientUnits="userSpaceOnUse">
<stop stop-color="#0083FE"/>
<stop offset="1" stop-color="#091CD0"/>
</linearGradient>
</defs>
</svg>
