<svg width="68" height="60" viewBox="0 0 68 60" fill="none" xmlns="http://www.w3.org/2000/svg">
<path d="M12.0648 9.87097V12.0645C12.0648 14.3875 13.2768 16.4275 15.0996 17.5988C14.5622 18.2492 13.7736 18.6452 12.9028 18.6452H12.7426C9.95025 18.6452 7.67773 20.9166 7.67773 23.7101V29.6129C7.67773 30.2194 8.16909 30.7097 8.77451 30.7097H28.5164C29.1219 30.7097 29.6132 30.2194 29.6132 29.6129V26.3226H38.3874V29.6129C38.3874 30.2194 38.8788 30.7097 39.4842 30.7097H59.2261C59.8315 30.7097 60.3229 30.2194 60.3229 29.6129V23.7101C60.3229 20.9166 58.0504 18.6452 55.258 18.6452H55.0979C54.227 18.6452 53.4395 18.2492 52.9021 17.5988C54.7239 16.4275 55.9358 14.3875 55.9358 12.0645V9.87097C55.9358 6.24174 52.9844 3.29032 49.3552 3.29032C45.7259 3.29032 42.7745 6.24174 42.7745 9.87097V12.0645C42.7745 14.3875 43.9864 16.4275 45.8093 17.5988C45.4803 17.997 45.0558 18.2898 44.5732 18.4609C43.8055 16.6381 42.0013 15.3548 39.9032 15.3548H39.743C38.8722 15.3548 38.0847 14.9589 37.5473 14.3085C39.369 13.1372 40.581 11.0972 40.581 8.77419V6.58065C40.581 2.95142 37.6295 0 34.0003 0C30.3711 0 27.4197 2.95142 27.4197 6.58065V8.77419C27.4197 11.0972 28.6316 13.1372 30.4544 14.3085C29.917 14.9589 29.1284 15.3548 28.2576 15.3548H28.0975C25.9983 15.3548 24.1952 16.6381 23.4274 18.462C22.9448 18.2909 22.5204 17.9981 22.1913 17.5999C24.0142 16.4275 25.2261 14.3875 25.2261 12.0645V9.87097C25.2261 6.24174 22.2747 3.29032 18.6455 3.29032C15.0163 3.29032 12.0648 6.24174 12.0648 9.87097ZM27.4197 28.5161H9.87128V23.7101C9.87128 22.1274 11.1589 20.8387 12.7426 20.8387H12.9028C13.1846 20.8387 13.4599 20.8091 13.7308 20.7652L14.1257 21.1601C15.3321 22.3676 16.9378 23.0323 18.6455 23.0323C20.2928 23.0323 21.8415 22.4082 23.0326 21.2807V25.2258C23.0326 25.8323 23.5239 26.3226 24.1293 26.3226H27.4197V28.5161ZM55.258 20.8387C56.8417 20.8387 58.1293 22.1274 58.1293 23.7101V28.5161H40.581V26.3226H43.8713C44.4767 26.3226 44.9681 25.8323 44.9681 25.2258V21.2807C46.1592 22.4082 47.7078 23.0323 49.3552 23.0323C51.0628 23.0323 52.6685 22.3676 53.875 21.1601L54.2698 20.7652C54.5407 20.8091 54.816 20.8387 55.0979 20.8387H55.258ZM44.9681 9.87097C44.9681 7.45148 46.9357 5.48387 49.3552 5.48387C51.7746 5.48387 53.7423 7.45148 53.7423 9.87097V12.0645C53.7423 14.484 51.7746 16.4516 49.3552 16.4516C46.9357 16.4516 44.9681 14.484 44.9681 12.0645V9.87097ZM49.3552 18.6452C49.8608 18.6452 50.351 18.5826 50.8248 18.4741C51.1583 19.0038 51.5772 19.4557 52.062 19.8209C50.5342 21.1008 48.175 21.1008 46.6483 19.8209C47.1331 19.4557 47.5532 19.0038 47.8855 18.4741C48.3593 18.5826 48.8495 18.6452 49.3552 18.6452ZM29.6132 6.58065C29.6132 4.16116 31.5808 2.19355 34.0003 2.19355C36.4198 2.19355 38.3874 4.16116 38.3874 6.58065V8.77419C38.3874 11.1937 36.4198 13.1613 34.0003 13.1613C31.5808 13.1613 29.6132 11.1937 29.6132 8.77419V6.58065ZM34.0003 15.3548C34.5059 15.3548 34.9962 15.2923 35.47 15.1837C35.8034 15.7135 36.2224 16.1654 36.7072 16.5306C35.1793 17.8105 32.8202 17.8105 31.2935 16.5306C31.7782 16.1654 32.1983 15.7135 32.5306 15.1837C33.0044 15.2923 33.4947 15.3548 34.0003 15.3548ZM25.2261 20.4197C25.2261 18.8371 26.5137 17.5484 28.0975 17.5484H28.2576C28.5395 17.5484 28.8148 17.5188 29.0857 17.4749L29.4805 17.8697C30.687 19.0773 32.2926 19.7419 34.0003 19.7419C35.708 19.7419 37.3137 19.0773 38.5201 17.8697L38.915 17.4749C39.1859 17.5188 39.4612 17.5484 39.743 17.5484H39.9032C41.4869 17.5484 42.7745 18.8371 42.7745 20.4197V24.129H25.2261V20.4197ZM21.3523 19.8198C19.8245 21.0997 17.4653 21.0997 15.9386 19.8198C16.4234 19.4546 16.8435 19.0027 17.1758 18.473C17.6496 18.5826 18.1399 18.6452 18.6455 18.6452C19.1511 18.6452 19.6413 18.5826 20.1152 18.4741C20.4475 19.0038 20.8675 19.4557 21.3523 19.8198ZM23.0326 9.87097V12.0645C23.0326 14.484 21.065 16.4516 18.6455 16.4516C16.226 16.4516 14.2584 14.484 14.2584 12.0645V9.87097C14.2584 7.45148 16.226 5.48387 18.6455 5.48387C21.065 5.48387 23.0326 7.45148 23.0326 9.87097Z" fill="url(#paint0_linear)"/>
<path d="M61.0837 37.6403L38.6119 43.7691C38.4562 43.5311 38.2752 43.304 38.0657 43.0945L30.3883 35.4171C30.1832 35.212 29.9035 35.0969 29.6129 35.0969H17.5484V34.0001C17.5484 33.3936 17.057 32.9033 16.4516 32.9033H9.87097H1.09677C0.491355 32.9033 0 33.3936 0 34.0001V58.1291C0 58.7356 0.491355 59.2259 1.09677 59.2259H9.87097C10.4764 59.2259 10.9677 58.7356 10.9677 58.1291V57.0324H16.4516C17.057 57.0324 17.5484 56.5421 17.5484 55.9356V54.8388H25.0481L31.4599 56.9753C31.5728 57.0126 31.6891 57.0324 31.8065 57.0324C31.9271 57.0324 32.0477 57.0115 32.1629 56.972L67.2597 44.9075C67.7028 44.7562 68 44.3394 68 43.8711V42.7743C68 41.7302 67.705 40.7134 67.1456 39.8327C65.9183 37.9046 63.4243 37.0031 61.0837 37.6403ZM8.77419 57.0324H2.19355V35.0969H8.77419V57.0324ZM15.3548 54.8388H10.9677V35.0969H15.3548V54.8388ZM65.8064 43.088L31.801 54.7774L25.5724 52.7012C25.4605 52.665 25.3432 52.6453 25.2258 52.6453H17.5484V37.2904H29.1588L36.5149 44.6465C37.2969 45.4285 37.2969 46.7007 36.5149 47.4827C35.7329 48.2647 34.4606 48.2647 33.6786 47.4827L28.1948 41.9989L26.6439 43.5497L32.1278 49.0336C32.946 49.8518 34.0219 50.2609 35.0968 50.2609C36.1716 50.2609 37.2476 49.8518 38.0657 49.0336C38.9355 48.1638 39.3292 47.0045 39.2744 45.8628L61.6606 39.7571C63.0843 39.3677 64.5792 39.8832 65.2943 41.0107C65.6299 41.5371 65.8064 42.148 65.8064 42.7743V43.088Z" fill="url(#paint1_linear)"/>
<defs>
<linearGradient id="paint0_linear" x1="34.0003" y1="27.2945" x2="34.0003" y2="-1.28071e-06" gradientUnits="userSpaceOnUse">
<stop stop-color="#0083FE"/>
<stop offset="1" stop-color="#091CD0"/>
</linearGradient>
<linearGradient id="paint1_linear" x1="34" y1="56.2986" x2="34" y2="32.9033" gradientUnits="userSpaceOnUse">
<stop stop-color="#0083FE"/>
<stop offset="1" stop-color="#091CD0"/>
</linearGradient>
</defs>
</svg>
