<svg width="60" height="54" viewBox="0 0 60 54" fill="none" xmlns="http://www.w3.org/2000/svg">
<path d="M31.7826 1.79505C39.1887 2.72814 44.9483 8.81209 45.4778 16.2611C45.5106 16.7223 45.8944 17.0796 46.3565 17.0796H50.3595C53.9986 17.0796 57.3635 19.7454 58.1748 23.3013C58.4347 23.8403 58.7864 24.0614 59.2297 23.9642C59.704 23.8559 60.0007 23.3838 59.8926 22.9093C58.9008 18.5632 54.8356 15.3178 50.3595 15.3178H47.1576C46.2197 7.40941 39.9671 1.05061 32.0029 0.0470477C31.521 -0.0137953 31.0795 0.328241 31.0187 0.810992C30.958 1.29363 31.3 1.73421 31.7826 1.79505Z" fill="url(#paint0_linear)"/>
<path d="M59.2464 26.0817C58.7705 25.9818 58.303 26.286 58.2027 26.7621C57.4268 30.4432 54.1279 33.115 50.3588 33.115H36.0994V29.3035H37.0567C38.5139 29.3035 39.6995 28.1179 39.6995 26.6607V24.6053H41.6489C42.1356 24.6053 42.5299 24.211 42.5299 23.7244C42.5299 23.2377 42.1356 22.8434 41.6489 22.8434H39.6995V20.554H43.0497C43.5364 20.554 43.9307 20.1596 43.9307 19.673C43.9307 19.1864 43.5364 18.7921 43.0497 18.7921H39.6995V16.5026H41.6489C42.1356 16.5026 42.5299 16.1083 42.5299 15.6217C42.5299 15.135 42.1356 14.7407 41.6489 14.7407H39.6995V12.6856C39.6995 11.2284 38.5139 10.0428 37.0567 10.0428H35.0014V8.33731C35.0014 7.85068 34.6071 7.45638 34.1205 7.45638C33.6339 7.45638 33.2396 7.85068 33.2396 8.33731V10.0428H30.9501V6.69231C30.9501 6.20569 30.5558 5.81138 30.0691 5.81138C29.5825 5.81138 29.1882 6.20569 29.1882 6.69231V10.0427H26.8987V8.33719C26.8987 7.85056 26.5044 7.45626 26.0178 7.45626C25.5312 7.45626 25.1369 7.85056 25.1369 8.33719V10.0427H23.0816C21.6244 10.0427 20.4388 11.2283 20.4388 12.6855V14.7406H18.3234C17.8368 14.7406 17.4425 15.1349 17.4425 15.6216C17.4425 16.1082 17.8368 16.5025 18.3234 16.5025H20.4388V18.792H17.0886C16.6019 18.792 16.2076 19.1863 16.2076 19.6729C16.2076 20.1595 16.6019 20.5538 17.0886 20.5538H20.4388V22.8433H18.3234C17.8368 22.8433 17.4425 23.2376 17.4425 23.7243C17.4425 24.2109 17.8368 24.6052 18.3234 24.6052H20.4388V26.6606C20.4388 28.1178 21.6244 29.3034 23.0816 29.3034H24.0389V33.1149H12.5315C6.59301 33.1149 1.76186 28.2836 1.76186 22.3452C1.76186 16.4068 6.59313 11.5756 12.5315 11.5756C13.1482 11.5756 13.769 11.6286 14.3766 11.7331C14.7782 11.802 15.1754 11.5865 15.3357 11.2117C17.5803 5.96866 22.4884 2.34603 28.1447 1.75733C28.6286 1.70694 28.9801 1.27388 28.9298 0.789952C28.8795 0.306027 28.4469 -0.0458758 27.9624 0.00486584C21.8963 0.6362 16.6043 4.40412 13.9957 9.8989C13.5096 9.84241 13.0195 9.81375 12.5317 9.81375C5.62164 9.81375 0 15.4353 0 22.3452C0 29.2551 5.62164 34.8767 12.5315 34.8767H17.2639V44.0156H14.2043C13.8196 42.6617 12.5729 41.6668 11.0974 41.6668C9.31638 41.6668 7.86731 43.1159 7.86731 44.8969C7.86731 46.6779 9.31638 48.127 11.0974 48.127C12.5731 48.127 13.8201 47.1318 14.2045 45.7775H18.1448C18.6315 45.7775 19.0258 45.3832 19.0258 44.8966V34.8767H24.0389V47.6629C22.6848 48.0475 21.6897 49.2943 21.6897 50.7699C21.6897 52.5509 23.1388 54 24.9198 54C26.7008 54 28.1499 52.5509 28.1499 50.7699C28.1499 49.2943 27.1548 48.0475 25.8007 47.6629V34.8768H34.3376V47.6629C32.9835 48.0475 31.9884 49.2943 31.9884 50.7699C31.9884 52.5509 33.4375 54 35.2185 54C36.9995 54 38.4486 52.5509 38.4486 50.7699C38.4486 49.2943 37.4535 48.0475 36.0994 47.6629V34.8768H41.1125V44.8967C41.1125 45.3833 41.5068 45.7776 41.9934 45.7776H45.9338C46.3182 47.1319 47.5652 48.1271 49.0409 48.1271C50.8219 48.1271 52.271 46.678 52.271 44.897C52.271 43.116 50.8219 41.667 49.0409 41.667C47.5654 41.667 46.3187 42.6618 45.934 44.0158H42.8744V34.8768H50.3589C54.9562 34.8768 58.98 31.6169 59.9269 27.1255C60.0272 26.6494 59.7225 26.1821 59.2464 26.0817ZM11.0974 46.3651C10.2878 46.3651 9.62917 45.7066 9.62917 44.8969C9.62917 44.0873 10.2878 43.4287 11.0974 43.4287C11.907 43.4287 12.5656 44.0873 12.5656 44.8969C12.5656 45.7066 11.907 46.3651 11.0974 46.3651ZM26.388 50.7698C26.388 51.5794 25.7294 52.238 24.9198 52.238C24.1102 52.238 23.4516 51.5794 23.4516 50.7698C23.4516 49.9602 24.1102 49.3016 24.9198 49.3016C25.7294 49.3016 26.388 49.9603 26.388 50.7698ZM36.6867 50.7698C36.6867 51.5794 36.0281 52.238 35.2185 52.238C34.4088 52.238 33.7503 51.5794 33.7503 50.7698C33.7503 49.9602 34.4088 49.3016 35.2185 49.3016C36.0281 49.3016 36.6867 49.9603 36.6867 50.7698ZM25.8007 33.115V29.3035H28.0536C28.5402 29.3035 28.9345 28.9092 28.9345 28.4226C28.9345 27.9359 28.5402 27.5416 28.0536 27.5416H23.0816C22.5958 27.5416 22.2007 27.1465 22.2007 26.6607V12.6856C22.2007 12.1998 22.5958 11.8047 23.0816 11.8047H37.0567C37.5425 11.8047 37.9376 12.1998 37.9376 12.6856V26.6607C37.9376 27.1465 37.5425 27.5416 37.0567 27.5416H31.8921C31.4055 27.5416 31.0112 27.9359 31.0112 28.4226C31.0112 28.9092 31.4055 29.3035 31.8921 29.3035H34.3376V33.115H25.8007ZM49.0409 43.4287C49.8505 43.4287 50.5091 44.0873 50.5091 44.8969C50.5091 45.7066 49.8505 46.3651 49.0409 46.3651C48.2313 46.3651 47.5727 45.7066 47.5727 44.8969C47.5727 44.0873 48.2313 43.4287 49.0409 43.4287Z" fill="url(#paint1_linear)"/>
<path d="M35.0013 23.7245V15.6219C35.0013 15.1353 34.607 14.741 34.1203 14.741H26.0177C25.531 14.741 25.1367 15.1353 25.1367 15.6219V23.7245C25.1367 24.2111 25.531 24.6054 26.0177 24.6054H34.1203C34.607 24.6054 35.0013 24.211 35.0013 23.7245ZM33.2394 22.8435H26.8986V16.5028H33.2394V22.8435Z" fill="url(#paint2_linear)"/>
<defs>
<linearGradient id="paint0_linear" x1="45.4633" y1="21.3234" x2="45.4633" y2="0.0400381" gradientUnits="userSpaceOnUse">
<stop stop-color="#0083FE"/>
<stop offset="1" stop-color="#091CD0"/>
</linearGradient>
<linearGradient id="paint1_linear" x1="29.973" y1="47.9948" x2="29.973" y2="-2.25201e-06" gradientUnits="userSpaceOnUse">
<stop stop-color="#0083FE"/>
<stop offset="1" stop-color="#091CD0"/>
</linearGradient>
<linearGradient id="paint2_linear" x1="30.069" y1="23.5084" x2="30.069" y2="14.741" gradientUnits="userSpaceOnUse">
<stop stop-color="#0083FE"/>
<stop offset="1" stop-color="#091CD0"/>
</linearGradient>
</defs>
</svg>
