<svg width="62" height="53" viewBox="0 0 62 53" fill="none" xmlns="http://www.w3.org/2000/svg">
<path d="M45.7373 48.1986C49.4017 45.82 52.4136 42.5633 54.4993 38.7247C56.585 34.886 57.6784 30.5869 57.6801 26.2182C57.6801 25.9401 57.5696 25.6733 57.3729 25.4767C57.1762 25.28 56.9095 25.1695 56.6314 25.1695H46.1441C45.8659 25.1695 45.5992 25.28 45.4025 25.4767C45.2058 25.6733 45.0953 25.9401 45.0953 26.2182C45.0953 28.9147 44.2957 31.5506 42.7977 33.7926C41.2996 36.0346 39.1704 37.782 36.6792 38.8139C34.188 39.8458 31.4467 40.1158 28.8021 39.5897C26.1575 39.0637 23.7282 37.7652 21.8215 35.8586C19.9149 33.9519 18.6164 31.5226 18.0904 28.878C17.5643 26.2334 17.8343 23.4921 18.8662 21.0009C19.8981 18.5097 21.6455 16.3805 23.8875 14.8824C26.1295 13.3843 28.7654 12.5848 31.4619 12.5848C31.74 12.5848 32.0068 12.4743 32.2034 12.2776C32.4001 12.0809 32.5106 11.8142 32.5106 11.536V1.04874C32.5106 0.770601 32.4001 0.503854 32.2034 0.30718C32.0068 0.110506 31.74 1.39911e-05 31.4619 1.12097e-05C25.3434 -0.00565708 19.4175 2.1385 14.7192 6.05792L11.1165 3.35589C10.935 3.21979 10.7142 3.14621 10.4873 3.1462H0V5.24366H10.1377L13.1335 7.49054C10.3574 10.2017 8.21861 13.4959 6.87172 17.135C5.52482 20.7741 5.00354 24.667 5.34556 28.5322C5.68759 32.3974 6.88438 36.1383 8.84937 39.4843C10.8144 42.8303 13.4984 45.6978 16.7075 47.8793L14.2478 50.339H0V52.4365H14.6822C14.9603 52.4365 15.2271 52.326 15.4238 52.1293L18.533 49.02C22.3719 51.2011 26.7002 52.3756 31.115 52.4342C35.5299 52.4927 39.8878 51.4334 43.7832 49.3549L47.6123 52.2268C47.7939 52.3629 48.0146 52.4364 48.2415 52.4365H61.875V50.339H48.5911L45.7373 48.1986ZM47.1582 27.267H55.5601C55.0239 39.7346 44.9782 49.7789 32.5106 50.3151V41.9136C36.3099 41.6548 39.8869 40.0285 42.5798 37.3359C45.2726 34.6432 46.8991 31.0663 47.1582 27.267ZM30.4131 2.12V10.5219C26.6138 10.781 23.0369 12.4074 20.3442 15.1003C17.6516 17.7932 16.0253 21.3702 15.7665 25.1695H7.36505C7.90122 12.7019 17.9456 2.65614 30.4131 2.12ZM7.36528 27.267H15.7667C16.0255 31.0662 17.6517 34.643 20.3444 37.3357C23.0371 40.0284 26.6139 41.6546 30.4131 41.9134V50.3148C17.9456 49.7787 7.90146 39.7346 7.36528 27.267Z" fill="url(#paint0_linear)"/>
<path d="M40.9006 30.4131V13.6334C40.9006 13.3553 40.7901 13.0886 40.5934 12.8919C40.3967 12.6952 40.13 12.5847 39.8518 12.5847H35.6569C35.3788 12.5847 35.112 12.6952 34.9154 12.8919C34.7187 13.0886 34.6082 13.3553 34.6082 13.6334V15.7309H31.462C31.1839 15.7309 30.9171 15.8414 30.7204 16.0381C30.5238 16.2347 30.4133 16.5015 30.4133 16.7796V19.9258H27.2671C26.9889 19.9258 26.7222 20.0363 26.5255 20.233C26.3288 20.4297 26.2184 20.6964 26.2184 20.9745V23.072H23.0722C22.794 23.072 22.5273 23.1825 22.3306 23.3792C22.1339 23.5758 22.0234 23.8426 22.0234 24.1207V30.4131C22.0234 30.6912 22.1339 30.958 22.3306 31.1547C22.5273 31.3513 22.794 31.4618 23.0722 31.4618H39.8518C40.13 31.4618 40.3967 31.3513 40.5934 31.1547C40.7901 30.958 40.9006 30.6912 40.9006 30.4131ZM24.1209 25.1695H26.2184V29.3644H24.1209V25.1695ZM28.3158 22.0233H30.4133V29.3644H28.3158V22.0233ZM32.5107 17.8284H34.6082V29.3644H32.5107V17.8284ZM38.8031 29.3644H36.7056V14.6822H38.8031V29.3644Z" fill="url(#paint1_linear)"/>
<defs>
<linearGradient id="paint0_linear" x1="30.9375" y1="46.6051" x2="30.9375" y2="-2.1868e-06" gradientUnits="userSpaceOnUse">
<stop stop-color="#0083FE"/>
<stop offset="1" stop-color="#091CD0"/>
</linearGradient>
<linearGradient id="paint1_linear" x1="31.462" y1="29.3626" x2="31.462" y2="12.5847" gradientUnits="userSpaceOnUse">
<stop stop-color="#0083FE"/>
<stop offset="1" stop-color="#091CD0"/>
</linearGradient>
</defs>
</svg>
