<svg width="54" height="54" viewBox="0 0 54 54" fill="none" xmlns="http://www.w3.org/2000/svg">
<path d="M19.125 33.75H5.625C2.52225 33.75 0 31.2255 0 28.125V5.625C0 2.5245 2.52225 0 5.625 0H19.125C22.2278 0 24.75 2.5245 24.75 5.625V28.125C24.75 31.2255 22.2278 33.75 19.125 33.75ZM5.625 2.25C3.76425 2.25 2.25 3.76425 2.25 5.625V28.125C2.25 29.9858 3.76425 31.5 5.625 31.5H19.125C20.9858 31.5 22.5 29.9858 22.5 28.125V5.625C22.5 3.76425 20.9858 2.25 19.125 2.25H5.625Z" fill="url(#paint0_linear)"/>
<path d="M16.875 9H7.875C7.254 9 6.75 8.496 6.75 7.875C6.75 7.254 7.254 6.75 7.875 6.75H16.875C17.496 6.75 18 7.254 18 7.875C18 8.496 17.496 9 16.875 9Z" fill="url(#paint1_linear)"/>
<path d="M16.875 18H7.875C7.254 18 6.75 17.496 6.75 16.875C6.75 16.254 7.254 15.75 7.875 15.75H16.875C17.496 15.75 18 16.254 18 16.875C18 17.496 17.496 18 16.875 18Z" fill="url(#paint2_linear)"/>
<path d="M16.875 27H7.875C7.254 27 6.75 26.496 6.75 25.875C6.75 25.254 7.254 24.75 7.875 24.75H16.875C17.496 24.75 18 25.254 18 25.875C18 26.496 17.496 27 16.875 27Z" fill="url(#paint3_linear)"/>
<path d="M48.375 33.75H34.875C31.7722 33.75 29.25 31.2255 29.25 28.125V5.625C29.25 2.5245 31.7722 0 34.875 0H48.375C51.4777 0 54 2.5245 54 5.625V28.125C54 31.2255 51.4777 33.75 48.375 33.75ZM34.875 2.25C33.0142 2.25 31.5 3.76425 31.5 5.625V28.125C31.5 29.9858 33.0142 31.5 34.875 31.5H48.375C50.2357 31.5 51.75 29.9858 51.75 28.125V5.625C51.75 3.76425 50.2357 2.25 48.375 2.25H34.875Z" fill="url(#paint4_linear)"/>
<path d="M46.125 9H37.125C36.504 9 36 8.496 36 7.875C36 7.254 36.504 6.75 37.125 6.75H46.125C46.746 6.75 47.25 7.254 47.25 7.875C47.25 8.496 46.746 9 46.125 9Z" fill="url(#paint5_linear)"/>
<path d="M46.125 18H37.125C36.504 18 36 17.496 36 16.875C36 16.254 36.504 15.75 37.125 15.75H46.125C46.746 15.75 47.25 16.254 47.25 16.875C47.25 17.496 46.746 18 46.125 18Z" fill="url(#paint6_linear)"/>
<path d="M46.125 27H37.125C36.504 27 36 26.496 36 25.875C36 25.254 36.504 24.75 37.125 24.75H46.125C46.746 24.75 47.25 25.254 47.25 25.875C47.25 26.496 46.746 27 46.125 27Z" fill="url(#paint7_linear)"/>
<path d="M21.375 48.375H16.875C13.7723 48.375 11.25 45.8505 11.25 42.75V32.625H13.5V42.75C13.5 44.6108 15.0143 46.125 16.875 46.125H21.375V48.375Z" fill="url(#paint8_linear)"/>
<path d="M37.125 48.375H32.625V46.125H37.125C38.9858 46.125 40.5 44.6108 40.5 42.75V32.625H42.75V42.75C42.75 45.8505 40.2277 48.375 37.125 48.375Z" fill="url(#paint9_linear)"/>
<path d="M30.375 54H23.625C21.7642 54 20.25 52.4858 20.25 50.625V43.875C20.25 42.0142 21.7642 40.5 23.625 40.5H30.375C32.2358 40.5 33.75 42.0142 33.75 43.875V50.625C33.75 52.4858 32.2358 54 30.375 54ZM23.625 42.75C23.0062 42.75 22.5 43.254 22.5 43.875V50.625C22.5 51.246 23.0062 51.75 23.625 51.75H30.375C30.9937 51.75 31.5 51.246 31.5 50.625V43.875C31.5 43.254 30.9937 42.75 30.375 42.75H23.625Z" fill="url(#paint10_linear)"/>
<defs>
<linearGradient id="paint0_linear" x1="12.375" y1="29.9967" x2="12.375" y2="-1.40751e-06" gradientUnits="userSpaceOnUse">
<stop stop-color="#0083FE"/>
<stop offset="1" stop-color="#091CD0"/>
</linearGradient>
<linearGradient id="paint1_linear" x1="12.375" y1="8.74978" x2="12.375" y2="6.75" gradientUnits="userSpaceOnUse">
<stop stop-color="#0083FE"/>
<stop offset="1" stop-color="#091CD0"/>
</linearGradient>
<linearGradient id="paint2_linear" x1="12.375" y1="17.7498" x2="12.375" y2="15.75" gradientUnits="userSpaceOnUse">
<stop stop-color="#0083FE"/>
<stop offset="1" stop-color="#091CD0"/>
</linearGradient>
<linearGradient id="paint3_linear" x1="12.375" y1="26.7498" x2="12.375" y2="24.75" gradientUnits="userSpaceOnUse">
<stop stop-color="#0083FE"/>
<stop offset="1" stop-color="#091CD0"/>
</linearGradient>
<linearGradient id="paint4_linear" x1="41.625" y1="29.9967" x2="41.625" y2="-1.40751e-06" gradientUnits="userSpaceOnUse">
<stop stop-color="#0083FE"/>
<stop offset="1" stop-color="#091CD0"/>
</linearGradient>
<linearGradient id="paint5_linear" x1="41.625" y1="8.74978" x2="41.625" y2="6.75" gradientUnits="userSpaceOnUse">
<stop stop-color="#0083FE"/>
<stop offset="1" stop-color="#091CD0"/>
</linearGradient>
<linearGradient id="paint6_linear" x1="41.625" y1="17.7498" x2="41.625" y2="15.75" gradientUnits="userSpaceOnUse">
<stop stop-color="#0083FE"/>
<stop offset="1" stop-color="#091CD0"/>
</linearGradient>
<linearGradient id="paint7_linear" x1="41.625" y1="26.7498" x2="41.625" y2="24.75" gradientUnits="userSpaceOnUse">
<stop stop-color="#0083FE"/>
<stop offset="1" stop-color="#091CD0"/>
</linearGradient>
<linearGradient id="paint8_linear" x1="16.3125" y1="46.6235" x2="16.3125" y2="32.625" gradientUnits="userSpaceOnUse">
<stop stop-color="#0083FE"/>
<stop offset="1" stop-color="#091CD0"/>
</linearGradient>
<linearGradient id="paint9_linear" x1="37.6875" y1="46.6235" x2="37.6875" y2="32.625" gradientUnits="userSpaceOnUse">
<stop stop-color="#0083FE"/>
<stop offset="1" stop-color="#091CD0"/>
</linearGradient>
<linearGradient id="paint10_linear" x1="27" y1="52.4987" x2="27" y2="40.5" gradientUnits="userSpaceOnUse">
<stop stop-color="#0083FE"/>
<stop offset="1" stop-color="#091CD0"/>
</linearGradient>
</defs>
</svg>
