<svg width="58" height="58" viewBox="0 0 58 58" fill="none" xmlns="http://www.w3.org/2000/svg">
<path d="M57.9983 28.0256V24.16C57.9981 23.9441 57.9257 23.7346 57.7926 23.5647C57.6595 23.3948 57.4734 23.2744 57.2638 23.2226L56.0172 22.9133L56.684 21.802C56.7923 21.6167 56.8367 21.401 56.8105 21.188C56.7843 20.975 56.689 20.7765 56.539 20.6229L53.8041 17.888C53.6506 17.7381 53.4521 17.6427 53.2391 17.6166C53.0261 17.5904 52.8104 17.6348 52.6251 17.7431L51.5138 18.4099L51.2045 17.1632C51.1527 16.9537 51.0323 16.7676 50.8624 16.6345C50.6925 16.5014 50.4829 16.4289 50.2671 16.4288H46.4015C46.1857 16.4289 45.9761 16.5014 45.8062 16.6345C45.6363 16.7676 45.5159 16.9537 45.4641 17.1632L45.1549 18.4099L44.0435 17.7431C43.8582 17.6348 43.6425 17.5904 43.4295 17.6166C43.2165 17.6427 43.018 17.7381 42.8645 17.888L40.1296 20.6229C39.9797 20.7765 39.8843 20.975 39.8581 21.188C39.8319 21.401 39.8764 21.6167 39.9846 21.802L40.4098 22.5074C39.5199 22.3214 38.6131 22.2275 37.7039 22.2272C37.3753 22.2272 37.0564 22.2465 36.7375 22.2658V4.83199H36.5056C35.0753 1.66221 26.687 0 18.3759 0C9.25314 0 0.0143688 1.99078 0.0143688 5.79839V34.7904C0.0143688 37.216 3.53206 38.6173 6.78882 39.3904C6.78882 39.4677 6.77916 39.545 6.77916 39.6223C6.77777 40.6094 6.91439 41.5917 7.18505 42.5409C5.18569 42.6825 3.31946 43.595 1.97996 45.0861C0.640457 46.5771 -0.0676091 48.5301 0.0050924 50.5332C0.0777939 52.5362 0.92558 54.4328 2.36965 55.8228C3.81372 57.2128 5.74119 57.9877 7.74556 57.9839H50.2671C52.3175 57.9839 54.284 57.1694 55.7339 55.7195C57.1838 54.2696 57.9983 52.3032 57.9983 50.2527C57.9983 48.2023 57.1838 46.2358 55.7339 44.786C54.284 43.3361 52.3175 42.5215 50.2671 42.5215H49.4167C50.6107 40.4673 51.2377 38.1328 51.2335 35.7568C51.2335 35.5055 51.2142 35.2639 51.2045 35.0223L51.5138 33.7756L52.6251 34.4425C52.8104 34.5507 53.0261 34.5952 53.2391 34.569C53.4521 34.5428 53.6506 34.4474 53.8041 34.2975L56.539 31.5626C56.689 31.409 56.7843 31.2105 56.8105 30.9976C56.8367 30.7846 56.7923 30.5689 56.684 30.3836L56.0172 29.2722L57.2638 28.963C57.4734 28.9112 57.6595 28.7907 57.7926 28.6208C57.9257 28.4509 57.9981 28.2414 57.9983 28.0256ZM18.3759 1.9328C29.0063 1.9328 34.8047 4.48409 34.8047 5.79839C34.8047 7.1127 29.0063 9.66399 18.3759 9.66399C7.74556 9.66399 1.94717 7.1127 1.94717 5.79839C1.94717 4.48409 7.74556 1.9328 18.3759 1.9328ZM1.94717 8.52364C5.12662 10.5434 11.7658 11.5968 18.3759 11.5968C24.9861 11.5968 31.6253 10.5434 34.8047 8.52364V15.4624C34.8047 16.7767 29.0063 19.328 18.3759 19.328C7.74556 19.328 1.94717 16.7767 1.94717 15.4624V8.52364ZM1.94717 18.1876C5.12662 20.2074 11.7658 21.2608 18.3759 21.2608C24.9861 21.2608 31.6253 20.2074 34.8047 18.1876V22.5557C31.3305 23.3314 28.3003 25.4417 26.3681 28.4315C23.7215 28.8148 21.0501 29.0021 18.3759 28.992C7.74556 28.992 1.94717 26.4407 1.94717 25.1264V18.1876ZM25.247 30.5382C25.0552 30.9929 24.8874 31.4574 24.7445 31.9298C24.2705 31.4878 23.7597 31.0869 23.2176 30.7315C23.9134 30.6735 24.5899 30.6155 25.247 30.5382ZM7.00143 37.448C3.31945 36.5395 1.94717 35.3895 1.94717 34.7904V27.8516C4.06358 29.1949 7.69724 30.113 11.8624 30.5769C10.628 31.3319 9.56029 32.3306 8.72454 33.512C7.8888 34.6933 7.3025 36.0325 7.00143 37.448ZM50.2671 44.4543C51.8049 44.4543 53.2798 45.0652 54.3672 46.1527C55.4546 47.2401 56.0655 48.7149 56.0655 50.2527C56.0655 51.7906 55.4546 53.2654 54.3672 54.3528C53.2798 55.4402 51.8049 56.0511 50.2671 56.0511H7.74556C6.20773 56.0511 4.73289 55.4402 3.64548 54.3528C2.55807 53.2654 1.94717 51.7906 1.94717 50.2527C1.94717 48.7149 2.55807 47.2401 3.64548 46.1527C4.73289 45.0652 6.20773 44.4543 7.74556 44.4543H8.55733C8.71793 44.454 8.87599 44.4142 9.01755 44.3383C9.15912 44.2625 9.27985 44.153 9.36911 44.0195C9.45472 43.8839 9.50643 43.7297 9.51989 43.5699C9.53334 43.4101 9.50815 43.2494 9.44642 43.1014C8.95771 42.0069 8.70735 40.821 8.71196 39.6223C8.7124 37.7789 9.29858 35.9832 10.3859 34.4945C11.4732 33.0058 13.0054 31.9011 14.7613 31.3398C16.5173 30.7785 18.4061 30.7897 20.1553 31.3717C21.9045 31.9536 23.4236 33.0763 24.4932 34.5777C24.6046 34.7356 24.7612 34.856 24.9423 34.9233C25.1233 34.9906 25.3206 35.0015 25.508 34.9546C25.695 34.9084 25.8639 34.8073 25.993 34.6644C26.1222 34.5215 26.2057 34.3432 26.2328 34.1525C26.6254 31.3867 28.0008 28.8547 30.1072 27.0197C32.2137 25.1848 34.9104 24.1696 37.7039 24.16C38.0325 24.16 38.3514 24.1793 38.6703 24.1986V28.0256C38.6705 28.2414 38.7429 28.4509 38.876 28.6208C39.0091 28.7907 39.1953 28.9112 39.4048 28.963L40.6514 29.2722L39.9846 30.3836C39.8764 30.5689 39.8319 30.7846 39.8581 30.9976C39.8843 31.2105 39.9797 31.409 40.1296 31.5626L42.8645 34.2975C43.018 34.4474 43.2165 34.5428 43.4295 34.569C43.6425 34.5952 43.8582 34.5507 44.0435 34.4425L45.1549 33.7756L45.4641 35.0223C45.5159 35.2318 45.6363 35.418 45.8062 35.5511C45.9761 35.6842 46.1857 35.7566 46.4015 35.7568H49.3007C49.3083 38.3458 48.4359 40.8606 46.8267 42.8888C46.7139 43.0316 46.6437 43.2033 46.6241 43.3843C46.6046 43.5652 46.6366 43.748 46.7163 43.9115C46.7961 44.0751 46.9204 44.2128 47.075 44.3089C47.2296 44.4049 47.4082 44.4553 47.5902 44.4543H50.2671ZM56.0655 27.2718L54.2873 27.7163C54.1405 27.7551 54.0042 27.8265 53.8888 27.9252C53.7733 28.0239 53.6816 28.1474 53.6205 28.2865C53.5645 28.427 53.5415 28.5784 53.5532 28.7292C53.5649 28.88 53.6111 29.0261 53.6882 29.1562L54.6352 30.7218L52.9634 32.3937L51.3978 31.4466C51.2677 31.3696 51.1216 31.3234 50.9708 31.3117C50.82 31.2999 50.6685 31.323 50.528 31.379C50.389 31.4401 50.2655 31.5318 50.1668 31.6472C50.068 31.7627 49.9966 31.8989 49.9579 32.0458L49.5133 33.824H47.1553L46.7108 32.0458C46.672 31.8989 46.6006 31.7627 46.5019 31.6472C46.4031 31.5318 46.2797 31.4401 46.1406 31.379C46.0001 31.323 45.8486 31.2999 45.6978 31.3117C45.5471 31.3234 45.401 31.3696 45.2708 31.4466L43.7053 32.3937L42.0334 30.7218L42.9805 29.1562C43.0575 29.0261 43.1037 28.88 43.1154 28.7292C43.1271 28.5784 43.1041 28.427 43.0481 28.2865C42.987 28.1474 42.8953 28.0239 42.7799 27.9252C42.6644 27.8265 42.5282 27.7551 42.3813 27.7163L40.6031 27.2718V24.9138L42.3813 24.4692C42.5282 24.4304 42.6644 24.359 42.7799 24.2603C42.8953 24.1616 42.987 24.0381 43.0481 23.899C43.1041 23.7586 43.1271 23.6071 43.1154 23.4563C43.1037 23.3055 43.0575 23.1594 42.9805 23.0293L42.0334 21.4637L43.7053 19.7918L45.2708 20.7389C45.401 20.816 45.5471 20.8621 45.6978 20.8739C45.8486 20.8856 46.0001 20.8626 46.1406 20.8066C46.2797 20.7455 46.4031 20.6538 46.5019 20.5383C46.6006 20.4229 46.672 20.2866 46.7108 20.1398L47.1553 18.3616H49.5133L49.9579 20.1398C49.9966 20.2866 50.068 20.4229 50.1668 20.5383C50.2655 20.6538 50.389 20.7455 50.528 20.8066C50.6685 20.8626 50.82 20.8856 50.9708 20.8739C51.1216 20.8621 51.2677 20.816 51.3978 20.7389L52.9634 19.7918L54.6352 21.4637L53.6882 23.0293C53.6111 23.1594 53.5649 23.3055 53.5532 23.4563C53.5415 23.6071 53.5645 23.7586 53.6205 23.899C53.6816 24.0381 53.7733 24.1616 53.8888 24.2603C54.0042 24.359 54.1405 24.4304 54.2873 24.4692L56.0655 24.9138V27.2718Z" fill="#FEFFFF"/>
<path d="M48.3363 22.2272C47.5718 22.2272 46.8244 22.4539 46.1887 22.8786C45.553 23.3034 45.0575 23.9071 44.765 24.6135C44.4724 25.3198 44.3958 26.0971 44.545 26.8469C44.6941 27.5968 45.0623 28.2855 45.6029 28.8262C46.1435 29.3668 46.8323 29.7349 47.5822 29.8841C48.332 30.0332 49.1093 29.9567 49.8156 29.6641C50.522 29.3715 51.1257 28.8761 51.5504 28.2404C51.9752 27.6047 52.2019 26.8573 52.2019 26.0928C52.2019 25.0675 51.7946 24.0843 51.0697 23.3594C50.3448 22.6344 49.3615 22.2272 48.3363 22.2272ZM48.3363 28.0256C47.954 28.0256 47.5803 27.9122 47.2625 27.6998C46.9446 27.4875 46.6969 27.1856 46.5506 26.8324C46.4043 26.4792 46.3661 26.0906 46.4406 25.7157C46.5152 25.3408 46.6993 24.9964 46.9696 24.7261C47.2399 24.4558 47.5843 24.2717 47.9592 24.1971C48.3342 24.1225 48.7228 24.1608 49.076 24.3071C49.4291 24.4534 49.731 24.7011 49.9434 25.019C50.1557 25.3368 50.2691 25.7105 50.2691 26.0928C50.2691 26.6054 50.0655 27.097 49.703 27.4595C49.3405 27.8219 48.8489 28.0256 48.3363 28.0256Z" fill="#FEFFFF"/>
</svg>
