<svg width="61" height="57" viewBox="0 0 61 57" fill="none" xmlns="http://www.w3.org/2000/svg">
<path d="M23.2254 9.6875H24.5332C25.0176 12.0125 26.8582 13.8531 29.1832 14.3375V15.6211C29.1832 16.2992 29.7402 16.8562 30.4184 16.8562C31.0965 16.8562 31.6535 16.2992 31.6535 15.6211V14.3133C33.9785 13.8289 35.8191 11.9883 36.3035 9.66328H37.6113C38.2895 9.66328 38.8465 9.10625 38.8465 8.42812C38.8465 7.75 38.2895 7.19297 37.6113 7.19297H36.3035C35.8191 4.86797 33.9785 3.02734 31.6535 2.54297V1.23516C31.6535 0.557031 31.0965 0 30.4184 0C29.7402 0 29.1832 0.557031 29.1832 1.23516V2.54297C26.8582 3.02734 25.0176 4.86797 24.5332 7.19297H23.2254C22.5473 7.19297 21.9902 7.75 21.9902 8.42812C21.9902 9.10625 22.5473 9.6875 23.2254 9.6875ZM30.4184 4.89219C32.3801 4.89219 33.9543 6.49062 33.9543 8.42812C33.9543 10.3898 32.3559 11.9641 30.4184 11.9641C28.4566 11.9641 26.8824 10.3898 26.8824 8.42812C26.8824 8.42812 26.8824 8.42812 26.8824 8.40391C26.8824 8.40391 26.8824 8.4039 26.8824 8.37969C26.8824 6.49062 28.4566 4.89219 30.4184 4.89219Z" fill="url(#paint0_linear)"/>
<path d="M17.3406 37.8055C16.832 37.9265 16.4445 38.3867 16.4203 38.9195L15.5 52.9664C15.4758 53.4992 15.0156 53.9351 14.4586 53.9351H7.48359C6.95078 53.9351 6.49062 53.5234 6.44219 52.9664L5.52187 38.9195C5.49766 38.4109 5.13438 37.975 4.65 37.8297C4.38359 37.757 3.60859 37.5148 3.4875 37.3695C3.39062 37.2242 3.34219 36.4492 3.31797 36.0133L2.47031 21.1187C3.68125 20.7555 5.64297 20.1258 6.68437 19.8109L10.1234 23.032C10.6078 23.468 11.3344 23.468 11.7945 23.032L15.2336 19.8109C15.5484 19.9078 15.9844 20.0531 16.4445 20.1984C17.0984 20.4164 17.7766 20.0531 17.9945 19.3992C18.1883 18.7453 17.8492 18.0672 17.1953 17.8492C16.1539 17.5101 15.3062 17.2437 15.3062 17.2437C14.8703 17.0984 14.4102 17.2195 14.0953 17.5101L10.9711 20.4406L7.84687 17.5344C7.53203 17.2195 7.04766 17.1226 6.63594 17.268C6.63594 17.268 3.34219 18.3336 1.67109 18.818C0.629687 19.1328 0 19.9562 0 21.0219C0 21.0945 0 21.2883 0 21.2883L0.847656 35.9648C0.847656 35.9648 0.847656 36.1828 0.871875 36.2312C1.01719 38.3867 1.33203 39.1859 3.12422 39.8883L3.99609 53.1117C4.11719 54.9523 5.64297 56.3812 7.48359 56.3812H14.4586C16.2992 56.3812 17.825 54.9523 17.9461 53.1117L18.8422 39.4039C18.9391 39.1617 18.9391 38.8953 18.8664 38.6047C18.6727 37.9992 17.9703 37.6359 17.3406 37.8055Z" fill="url(#paint1_linear)"/>
<path d="M10.9711 15.3063C14.2891 15.3063 16.9773 12.618 16.9773 9.30001C16.9773 5.98204 14.2891 3.29376 10.9711 3.29376C7.65313 3.29376 4.96484 5.98204 4.96484 9.30001C4.96484 12.618 7.65313 15.3063 10.9711 15.3063ZM10.9711 5.73986C12.9328 5.73986 14.507 7.33829 14.507 9.27579C14.507 11.2133 12.9086 12.8117 10.9711 12.8117C9.00938 12.8117 7.43516 11.2133 7.43516 9.27579C7.43516 7.33829 9.00938 5.73986 10.9711 5.73986Z" fill="url(#paint2_linear)"/>
<path d="M39.7195 18.818C38.0484 18.3094 34.7547 17.268 34.7547 17.268C34.3187 17.1227 33.8586 17.2437 33.5437 17.5344L30.4195 20.4648L27.2953 17.5344C26.9805 17.2195 26.4961 17.1227 26.0844 17.268C26.0844 17.268 22.7906 18.3336 21.1195 18.818C20.0539 19.1328 19.4727 19.932 19.4727 21.0219L20.2961 35.9891L20.3203 36.2312C20.4656 38.3867 20.7805 39.2102 22.5727 39.8883L23.4445 53.1117C23.5656 54.9523 25.0914 56.3812 26.932 56.3812H33.907C35.7477 56.3812 37.2734 54.9523 37.3945 53.1117L38.2664 39.8883C40.0586 39.1859 40.3734 38.3867 40.5187 36.2312L41.3664 21.2398V21.0219C41.3906 19.932 40.7852 19.1328 39.7195 18.818ZM38.0969 35.8195L38.0727 36.0617C38.0484 36.425 38 37.2242 37.9031 37.3695C37.782 37.5148 36.9828 37.7328 36.7406 37.8297C36.2563 37.975 35.9172 38.4109 35.8687 38.9195L34.9484 52.9664C34.9242 53.4992 34.4641 53.9352 33.907 53.9352H26.932C26.3992 53.9352 25.9391 53.4992 25.8906 52.9664L24.9703 38.9195C24.9461 38.4109 24.5828 37.975 24.0984 37.8297C23.832 37.757 23.057 37.5148 22.9359 37.3695C22.8391 37.2242 22.7906 36.4492 22.7664 36.0617L21.9187 21.1914V21.1187C23.1297 20.7555 25.0914 20.1258 26.1328 19.7867L29.5719 23.0078C30.0562 23.4437 30.7828 23.4437 31.243 23.0078L34.682 19.7867C35.7234 20.1258 37.6852 20.7312 38.8961 21.1187L38.0969 35.8195Z" fill="url(#paint3_linear)"/>
<path d="M59.165 18.818C57.4939 18.3094 54.2002 17.268 54.2002 17.268C53.7885 17.1227 53.3041 17.2437 52.9893 17.5344L49.865 20.4648L46.7408 17.5344C46.426 17.2195 45.9416 17.1227 45.5299 17.268C45.5299 17.268 44.6822 17.5344 43.6408 17.8734C42.9869 18.0672 42.6236 18.7695 42.8416 19.4234C43.0354 20.0773 43.7377 20.4406 44.3916 20.2227C44.8518 20.0773 45.2635 19.9562 45.6025 19.8352L49.0416 23.0562C49.526 23.4922 50.2525 23.4922 50.7127 23.0562L54.1518 19.8109C55.1689 20.15 57.1307 20.7555 58.3658 21.143L57.5424 35.8437L57.5182 36.0859C57.4939 36.4734 57.4455 37.2484 57.3486 37.3937C57.2275 37.5391 56.4283 37.7812 56.1861 37.8539C55.7018 37.9992 55.3627 38.4352 55.3143 38.9437L54.3939 52.9906C54.3455 53.5477 53.9096 53.9594 53.3525 53.9594H46.3533C45.8205 53.9594 45.3604 53.5234 45.3361 52.9906L44.4158 38.9437C44.3916 38.4594 43.9799 37.9992 43.5197 37.8297C42.89 37.6117 42.2119 37.975 41.9939 38.6047C41.9213 38.8469 41.9213 39.0891 41.9939 39.3312L42.9143 53.1359C43.0354 54.9766 44.5611 56.4055 46.4018 56.4055H53.401C55.2174 56.4055 56.7674 54.9766 56.8885 53.1359L57.7603 39.9125C59.5525 39.2102 59.8674 38.4109 60.0127 36.3039C60.0127 36.207 60.0369 35.9891 60.0369 35.9891L60.8603 21.2398V21.0461C60.8119 19.9562 60.2064 19.1328 59.165 18.818Z" fill="url(#paint4_linear)"/>
<path d="M49.8656 15.3063C53.1836 15.3063 55.8719 12.618 55.8719 9.30001C55.8719 5.98204 53.1836 3.29376 49.8656 3.29376C46.5477 3.29376 43.8594 5.98204 43.8594 9.30001C43.8594 12.618 46.5477 15.3063 49.8656 15.3063ZM49.8656 5.73986C51.8273 5.73986 53.4016 7.33829 53.4016 9.27579C53.4016 11.2133 51.8031 12.8117 49.8656 12.8117C47.9039 12.8117 46.3297 11.2133 46.3297 9.27579C46.3297 7.33829 47.9039 5.73986 49.8656 5.73986Z" fill="url(#paint5_linear)"/>
<defs>
<linearGradient id="paint0_linear" x1="30.4184" y1="14.9817" x2="30.4184" y2="-7.02971e-07" gradientUnits="userSpaceOnUse">
<stop stop-color="#0083FE"/>
<stop offset="1" stop-color="#091CD0"/>
</linearGradient>
<linearGradient id="paint1_linear" x1="9.4591" y1="52.022" x2="9.45909" y2="17.1822" gradientUnits="userSpaceOnUse">
<stop stop-color="#0083FE"/>
<stop offset="1" stop-color="#091CD0"/>
</linearGradient>
<linearGradient id="paint2_linear" x1="10.9711" y1="13.9704" x2="10.9711" y2="3.29376" gradientUnits="userSpaceOnUse">
<stop stop-color="#0083FE"/>
<stop offset="1" stop-color="#091CD0"/>
</linearGradient>
<linearGradient id="paint3_linear" x1="30.4199" y1="52.0242" x2="30.4199" y2="17.2019" gradientUnits="userSpaceOnUse">
<stop stop-color="#0083FE"/>
<stop offset="1" stop-color="#091CD0"/>
</linearGradient>
<linearGradient id="paint4_linear" x1="51.3999" y1="52.0457" x2="51.3999" y2="17.2019" gradientUnits="userSpaceOnUse">
<stop stop-color="#0083FE"/>
<stop offset="1" stop-color="#091CD0"/>
</linearGradient>
<linearGradient id="paint5_linear" x1="49.8656" y1="13.9704" x2="49.8656" y2="3.29376" gradientUnits="userSpaceOnUse">
<stop stop-color="#0083FE"/>
<stop offset="1" stop-color="#091CD0"/>
</linearGradient>
</defs>
</svg>
