<svg width="61" height="61" viewBox="0 0 61 61" fill="none" xmlns="http://www.w3.org/2000/svg">
<path d="M1.47329 37.3923C1.80234 37.6203 2.1495 37.8209 2.51128 37.9923C2.94428 38.2133 3.66828 38.5833 3.71928 38.8433C3.78292 39.1847 3.74215 39.5374 3.60228 39.8553C3.45328 40.1753 3.29628 40.4503 3.16228 40.6883C2.79528 41.3343 2.18329 42.4173 3.10728 43.1733C3.32328 43.3733 3.69628 43.6623 4.03728 43.9233C3.78669 44.3608 3.67313 44.8635 3.71128 45.3663C3.76381 45.7598 3.97613 46.1142 4.29827 46.3462C4.52327 46.5062 4.76427 46.6462 4.99827 46.7812C5.58627 47.1162 5.81627 47.2722 5.89827 47.5812C5.95205 47.9881 5.91447 48.4018 5.78827 48.7922C5.72927 49.0522 5.67227 49.3112 5.63527 49.5772C5.53615 50.4893 5.65191 51.4119 5.97327 52.2712C6.42207 53.8636 7.86207 54.9732 9.51625 55.0012C9.79079 55.0002 10.0645 54.9714 10.3332 54.9152C13.19 54.2382 16.0051 53.3957 18.7642 52.3922C21.0162 53.7142 22.4402 57.7342 22.8112 59.2432C22.9223 59.6889 23.3228 60.0015 23.7822 60.0012L48.8821 59.9312C49.2002 59.9306 49.499 59.7786 49.6869 59.522C49.8749 59.2654 49.9295 58.9346 49.8341 58.6312C49.5867 57.9537 49.2458 57.3141 48.8211 56.7312C48.5809 56.3863 48.3644 56.0255 48.1731 55.6512C47.7209 54.7341 47.3433 53.782 47.0441 52.8042C46.4737 50.8716 46.0777 48.8916 45.8611 46.8882C45.51 43.8965 45.9636 40.8652 47.1751 38.1073C47.9143 36.5777 48.8255 35.1374 49.8911 33.8143C50.4911 33.0043 51.114 32.1653 51.673 31.2843C52.6342 29.7913 53.331 28.1439 53.733 26.4143C53.8481 25.8805 53.5135 25.353 52.9815 25.2296C52.4495 25.1061 51.9169 25.4323 51.785 25.9623C51.4335 27.4718 50.8246 28.9095 49.9851 30.2123C49.4661 31.0333 48.8661 31.8413 48.2851 32.6233C47.1279 34.0672 46.1405 35.6391 45.3421 37.3083C43.9878 40.3927 43.4817 43.7828 43.8761 47.1282C44.1067 49.2529 44.5287 51.3525 45.1371 53.4012C45.4656 54.477 45.8806 55.5244 46.3781 56.5332C46.6061 56.9839 46.865 57.4183 47.1531 57.8332L47.2201 57.9332L24.5382 58.0012C23.8735 55.6292 22.6683 53.4434 21.0172 51.6152L21.9172 51.3022C22.5892 51.0672 23.0962 50.8902 23.3582 50.8022C27.6402 49.4372 29.7822 47.4872 29.7232 45.0023C29.7204 44.7368 29.6103 44.4838 29.4179 44.3009C29.2256 44.118 28.9674 44.0207 28.7022 44.0313C28.1502 44.0444 27.7133 44.5023 27.7262 45.0543C27.7502 46.0772 26.9072 47.5752 22.7502 48.8992C22.4782 48.9862 21.9502 49.1692 21.2592 49.4122C20.5162 49.6712 19.5742 50.0012 18.5342 50.3542H18.5272C15.7149 51.3854 12.8455 52.2535 9.93325 52.9542C9.00182 53.1293 8.0964 52.5443 7.87326 51.6232C7.65819 51.0588 7.57374 50.453 7.62626 49.8512C7.65526 49.6512 7.70226 49.4412 7.74826 49.2372C7.96108 48.5392 7.99546 47.799 7.84826 47.0842C7.55784 46.1685 6.88434 45.4239 6.00227 45.0433L5.78727 44.9202C5.89506 44.7013 6.02436 44.4936 6.17327 44.3003C6.34081 44.0874 6.41487 43.8158 6.37849 43.5474C6.34211 43.279 6.19842 43.0368 5.98027 42.8763C5.74127 42.7003 5.18027 42.2763 4.76027 41.9423C4.80827 41.8553 4.86027 41.7593 4.91127 41.6733C5.06827 41.3973 5.24827 41.0733 5.42227 40.7063C5.73918 40.0058 5.83208 39.2245 5.68827 38.4693C5.44927 37.2493 4.28028 36.6513 3.42728 36.2153C3.1399 36.0786 2.8643 35.9184 2.60328 35.7363C2.38898 35.5928 2.18816 35.4301 2.00329 35.2503C2.00329 35.0983 2.16629 34.7313 2.92728 33.8043C4.7167 31.4988 6.25067 29.0058 7.50226 26.3693C7.73721 25.956 7.86958 25.4924 7.88826 25.0174C7.78353 24.0112 7.24857 23.0995 6.42126 22.5174C6.01627 22.1454 5.63327 21.7954 5.59027 21.5004C5.59943 21.2553 5.65438 21.0142 5.75227 20.7894C5.91527 20.3614 6.10427 19.9414 6.29227 19.5204C6.71395 18.6518 7.04891 17.7437 7.29226 16.8094C7.52141 15.6887 7.82202 14.5837 8.19226 13.5014C8.98045 11.3256 10.201 9.33193 11.7802 7.64043C13.6922 5.61544 16.7022 4.18345 20.7422 3.38146C23.8324 2.703 26.9681 2.25113 30.1241 2.02946C31.1861 1.97474 32.2505 1.99747 33.3091 2.09746C33.6657 2.13069 34.0129 1.97117 34.2199 1.679C34.427 1.38684 34.4624 1.0064 34.3129 0.681009C34.1634 0.355616 33.8517 0.134697 33.4951 0.101472C32.3396 -0.00440646 31.178 -0.0274652 30.0191 0.0324719C26.7656 0.258226 23.5329 0.722133 20.3472 1.42047C15.8382 2.32046 12.5612 3.90145 10.3252 6.26544C8.55958 8.15296 7.19478 10.3788 6.31326 12.8084C5.90801 13.9908 5.57901 15.1979 5.32827 16.4224C5.11454 17.2077 4.82727 17.971 4.47027 18.7024C4.27028 19.1574 4.06428 19.6124 3.88428 20.0854C3.65669 20.6141 3.56326 21.1908 3.61228 21.7644C3.81914 22.657 4.33796 23.4464 5.07527 23.9904C5.56527 24.4394 5.88827 24.7554 5.89227 25.0314C5.85587 25.1832 5.79866 25.3292 5.72227 25.4653C4.52502 27.9869 3.05778 30.3712 1.34629 32.5763C0.622293 33.4593 -0.137703 34.4883 0.0212959 35.5183C0.23424 36.3125 0.757449 36.9878 1.47329 37.3923Z" fill="url(#paint0_linear)"/>
<path d="M32.8628 5.60218L32.2628 8.59416C31.6844 8.7841 31.1215 9.01812 30.5789 9.29416L28.0399 7.59417C27.2466 7.07464 26.1974 7.18364 25.5279 7.85517L23.8679 9.51416C23.1832 10.1864 23.0724 11.2502 23.6039 12.0491L25.2959 14.5761C25.0198 15.1187 24.7858 15.6817 24.5959 16.2601L21.6079 16.8601C20.6742 17.0487 20.0031 17.8696 20.0039 18.8221V21.1821C20.0032 22.133 20.6722 22.9529 21.6039 23.1431L24.5959 23.7431C24.7858 24.3215 25.0198 24.8845 25.2959 25.4271L23.5959 27.9661C23.0764 28.7594 23.1854 29.8085 23.8569 30.4781L25.5169 32.138C26.1903 32.8197 27.2518 32.9298 28.0509 32.401L30.5779 30.7091C31.1205 30.9851 31.6834 31.2191 32.2618 31.409L32.8618 34.397C33.05 35.3311 33.871 36.0027 34.8238 36.002H37.1838C38.1347 36.0027 38.9546 35.3337 39.1448 34.402L39.7448 31.41C40.3232 31.2201 40.8862 30.9861 41.4288 30.7101L43.9678 32.41C44.7611 32.9296 45.8102 32.8206 46.4798 32.149L48.1388 30.4901C48.8235 29.8178 48.9343 28.754 48.4028 27.9551L46.7108 25.4281C46.9868 24.8855 47.2208 24.3225 47.4108 23.7441L50.3988 23.1441C50.9923 23.0241 51.499 22.6407 51.7758 22.1021L53.2827 23.1121C53.5735 23.2953 53.9101 23.3927 54.2537 23.3931C54.7331 23.3932 55.1928 23.2021 55.5307 22.8621L56.8607 21.5321C57.4656 20.9242 57.5627 19.976 57.0937 19.2581L55.8037 17.3281C55.9908 16.952 56.1525 16.5638 56.2877 16.1661L58.5507 15.7151C59.3974 15.5488 60.007 14.805 60.0037 13.9421V12.0621C60.0067 11.2025 59.4015 10.4607 58.5587 10.2912L56.2857 9.83816C56.1516 9.44034 55.9906 9.05212 55.8037 8.67616L57.1137 6.72317C57.5677 6.00789 57.4637 5.07327 56.8637 4.47519L55.5337 3.14519C54.926 2.54 53.9776 2.44282 53.2598 2.91219L51.3298 4.20219C50.9537 4.01507 50.5655 3.85338 50.1678 3.71819L49.7158 1.4552C49.5495 0.608882 48.8063 -0.000552231 47.9438 0.00220862H46.0638C45.2041 -0.000824941 44.4623 0.604434 44.2928 1.4472L43.8398 3.72019C43.4419 3.85529 43.0537 4.01733 42.6778 4.20519L40.7248 2.89519C40.0093 2.44204 39.0752 2.54592 38.4768 3.14519L37.5768 4.04519C37.4475 4.01822 37.3159 4.00382 37.1838 4.00219H34.8238C33.8729 4.00152 33.053 4.67048 32.8628 5.60218ZM48.1508 9.52216L47.6838 9.05516C49.4171 9.28719 50.7957 10.6237 51.0814 12.349C51.367 14.0742 50.4928 15.7838 48.9268 16.5621L47.4088 16.2621C47.2188 15.6837 46.9848 15.1207 46.7088 14.5781L48.4088 12.0391C48.9302 11.2461 48.8224 10.1958 48.1508 9.52516V9.52216ZM39.7808 4.66618L42.0668 6.20218C42.3874 6.41714 42.803 6.42843 43.1348 6.23118C43.7072 5.89428 44.3229 5.63691 44.9648 5.46618C45.3316 5.36713 45.6105 5.06878 45.6848 4.69618L46.2218 2.0022H47.7858L48.3228 4.70218C48.397 5.07478 48.676 5.37313 49.0428 5.47218C49.6847 5.64291 50.3003 5.90028 50.8728 6.23718C51.2057 6.43264 51.6214 6.41902 51.9408 6.20218L54.2267 4.66818L55.3367 5.77818L53.8037 8.06517C53.5888 8.38574 53.5775 8.8014 53.7747 9.13316C54.1116 9.7056 54.369 10.3213 54.5397 10.9632C54.6388 11.3299 54.9371 11.6089 55.3097 11.6831L58.0097 12.2201V13.7841L55.3147 14.3211C54.9421 14.3954 54.6438 14.6743 54.5447 15.0411C54.374 15.683 54.1166 16.2987 53.7797 16.8711C53.5825 17.2029 53.5938 17.6185 53.8087 17.9391L55.3427 20.2251L54.2327 21.3351L52.0038 19.8441V18.8221C52.0039 18.2366 51.7482 17.6803 51.3038 17.2991C53.0643 15.6031 53.6167 13.007 52.6991 10.7412C51.7815 8.47542 49.5783 6.99522 47.1338 7.00217C46.5292 7.00597 45.9289 7.1045 45.3548 7.29417C44.8662 7.22299 44.3684 7.3325 43.9548 7.60217L41.4298 9.29416C40.8872 9.01812 40.3242 8.7841 39.7458 8.59416L39.1458 5.60618C39.1281 5.52606 39.1051 5.44722 39.0768 5.37018L39.7808 4.66618ZM34.1038 9.57916L34.8238 6.00218H37.1838L37.9028 9.58216C37.9776 9.95373 38.256 10.2511 38.6218 10.3502C39.448 10.5729 40.2417 10.9023 40.9828 11.3302C41.313 11.5217 41.7235 11.5085 42.0408 11.2962L45.0668 9.27216L46.7428 10.9392L44.7128 13.9681C44.5004 14.2854 44.4872 14.6959 44.6788 15.0261C45.1066 15.7672 45.4361 16.5609 45.6588 17.3871C45.7578 17.753 46.0552 18.0314 46.4268 18.1061L50.0038 18.8211V21.1821L46.4238 21.9011C46.0522 21.9759 45.7548 22.2543 45.6558 22.6201C45.4331 23.4463 45.1036 24.24 44.6758 24.9811C44.4842 25.3113 44.4974 25.7218 44.7098 26.0391L46.7338 29.0651L45.0668 30.7411L42.0378 28.7111C41.7205 28.4987 41.31 28.4855 40.9798 28.6771C40.2387 29.1049 39.445 29.4343 38.6188 29.6571C38.253 29.7561 37.9746 30.0535 37.8998 30.4251L37.1838 34.002H34.8238L34.1048 30.4221C34.0301 30.0505 33.7517 29.7531 33.3858 29.6541C32.5596 29.4313 31.7659 29.1019 31.0249 28.6741C30.6946 28.4825 30.2841 28.4957 29.9669 28.7081L26.9409 30.732L25.2649 29.0651L27.2949 26.0361C27.5072 25.7188 27.5204 25.3083 27.3289 24.9781C26.901 24.237 26.5716 23.4433 26.3489 22.6171C26.2498 22.2513 25.9524 21.9729 25.5809 21.8981L22.0039 21.1821V18.8221L25.5839 18.1031C25.9554 18.0284 26.2528 17.75 26.3519 17.3841C26.5746 16.5579 26.904 15.7642 27.3319 15.0231C27.5234 14.6929 27.5102 14.2824 27.2979 13.9651L25.2739 10.9392L26.9409 9.26316L29.9699 11.2932C30.2871 11.5055 30.6976 11.5187 31.0279 11.3272C31.7689 10.8993 32.5626 10.5699 33.3888 10.3472C33.7531 10.2468 34.0297 9.94968 34.1038 9.57916Z" fill="url(#paint1_linear)"/>
<path d="M36.0039 27.0021C39.8698 27.0021 43.0038 23.8681 43.0038 20.0022C43.0038 16.1362 39.8698 13.0022 36.0039 13.0022C32.1379 13.0022 29.0039 16.1362 29.0039 20.0022C29.0083 23.8663 32.1397 26.9977 36.0039 27.0021ZM36.0039 15.0022C38.7653 15.0022 41.0038 17.2408 41.0038 20.0022C41.0038 22.7636 38.7653 25.0021 36.0039 25.0021C33.2425 25.0021 31.0039 22.7636 31.0039 20.0022C31.0072 17.2421 33.2438 15.0055 36.0039 15.0022Z" fill="url(#paint2_linear)"/>
<defs>
<linearGradient id="paint0_linear" x1="26.8778" y1="53.3286" x2="26.8778" y2="-2.50228e-06" gradientUnits="userSpaceOnUse">
<stop stop-color="#0083FE"/>
<stop offset="1" stop-color="#091CD0"/>
</linearGradient>
<linearGradient id="paint1_linear" x1="40.0038" y1="31.9986" x2="40.0038" y2="0.00219576" gradientUnits="userSpaceOnUse">
<stop stop-color="#0083FE"/>
<stop offset="1" stop-color="#091CD0"/>
</linearGradient>
<linearGradient id="paint2_linear" x1="36.0039" y1="25.4452" x2="36.0039" y2="13.0022" gradientUnits="userSpaceOnUse">
<stop stop-color="#0083FE"/>
<stop offset="1" stop-color="#091CD0"/>
</linearGradient>
</defs>
</svg>
