<svg width="66" height="59" viewBox="0 0 66 59" fill="none" xmlns="http://www.w3.org/2000/svg">
<path d="M32.654 25.2422C33.1845 25.2422 33.6146 24.8121 33.6146 24.2816V23.5439C33.6146 23.0133 33.1845 22.5833 32.654 22.5833C32.1235 22.5833 31.6934 23.0133 31.6934 23.5439V24.2816C31.6934 24.8121 32.1233 25.2422 32.654 25.2422Z" fill="url(#paint0_linear)"/>
<path d="M32.654 30.7507C33.1845 30.7507 33.6146 30.3207 33.6146 29.7901V29.0524C33.6146 28.5219 33.1845 28.0918 32.654 28.0918C32.1235 28.0918 31.6934 28.5219 31.6934 29.0524V29.7901C31.6934 30.3207 32.1233 30.7507 32.654 30.7507Z" fill="url(#paint1_linear)"/>
<path d="M61.2842 50.3417C60.2579 50.3417 59.3207 50.7287 58.6096 51.3639L55.5893 49.6381V46.8506C55.5893 46.3201 55.1592 45.89 54.6287 45.89C54.0981 45.89 53.6681 46.3201 53.6681 46.8506V48.5404L50.2077 46.5632C50.2085 46.5413 50.2099 46.5194 50.2099 46.4975V27.3674C50.2099 26.7069 49.8593 26.0834 49.2949 25.7399L33.6401 16.2173C33.6311 16.2118 33.6217 16.2071 33.6126 16.2018V12.153L34.8992 12.9356C35.0552 13.0305 35.2273 13.0756 35.3974 13.0756C35.7217 13.0756 36.0382 12.9114 36.219 12.614C36.4947 12.1607 36.3508 11.5699 35.8976 11.2941L33.6126 9.90419V7.92304C35.3668 7.49116 36.6719 5.90552 36.6719 4.01993C36.6719 1.80324 34.8686 0 32.652 0C30.4355 0 28.6321 1.80337 28.6321 4.01993C28.6321 5.90552 29.9372 7.49116 31.6914 7.92304V9.91508L29.425 11.2831C28.9709 11.5573 28.8248 12.1476 29.0991 12.6019C29.3733 13.0562 29.9636 13.2023 30.4179 12.9279L31.6914 12.1592V16.1997C31.683 16.2047 31.6741 16.2089 31.6657 16.2141L15.8866 25.7389C15.3188 26.0816 14.966 26.7065 14.966 27.3697V33.2825C14.966 33.8131 15.3961 34.2431 15.9266 34.2431C16.4572 34.2431 16.8873 33.8131 16.8873 33.2825V28.5386L31.6913 37.4749V55.4225L17.0776 46.6012C17.0694 46.5848 17.062 46.5682 17.0526 46.552C17.0066 46.4717 16.9504 46.4012 16.8871 46.3397V37.3764C16.8871 36.8459 16.457 36.4158 15.9265 36.4158C15.396 36.4158 14.9659 36.8459 14.9659 37.3764V46.4956C14.9659 46.5422 14.9681 46.5885 14.9716 46.6347L11.508 48.6136V46.8626C11.508 46.3321 11.0779 45.902 10.5474 45.902C10.0169 45.902 9.58681 46.3321 9.58681 46.8626V49.7113L6.6945 51.3638C5.9834 50.7286 5.0461 50.3416 4.01993 50.3416C1.80337 50.3417 0 52.1451 0 54.3617C0 56.5784 1.80337 58.3817 4.01993 58.3817C6.23648 58.3817 8.03985 56.5783 8.03985 54.3617C8.03985 53.8666 7.9493 53.3922 7.78484 52.9538L10.7078 51.2837L12.7921 52.542C12.9474 52.6357 13.1186 52.6803 13.2877 52.6803C13.6131 52.6803 13.9306 52.5148 14.111 52.216C14.3852 51.7618 14.2392 51.1714 13.785 50.8972L12.6176 50.1925L16.0552 48.2282L31.6655 57.651C31.7627 57.7096 31.8638 57.7578 31.9673 57.7977C32.1416 57.9749 32.3838 58.085 32.6519 58.085C32.9211 58.085 33.1641 57.974 33.3385 57.7956C33.4419 57.7553 33.5429 57.7068 33.6399 57.6478L39.8232 53.8866C40.2765 53.6108 40.4205 53.0198 40.1447 52.5667C39.8689 52.1135 39.278 51.9693 38.8248 52.2452L33.6125 55.4158V37.4726L48.2884 28.5452V46.4884L42.3601 50.0945C41.9068 50.3702 41.763 50.9612 42.0386 51.4145C42.2195 51.7118 42.536 51.876 42.8603 51.876C43.0303 51.876 43.2026 51.8307 43.3586 51.736L49.185 48.1919L52.6161 50.1524L51.3936 50.896C50.9403 51.1718 50.7964 51.7627 51.0721 52.2159C51.253 52.5132 51.5695 52.6775 51.8938 52.6775C52.0638 52.6775 52.2361 52.6323 52.392 52.5375L54.5225 51.2416L57.5192 52.9538C57.3547 53.3922 57.2642 53.8664 57.2642 54.3617C57.2642 56.5784 59.0675 58.3817 61.2841 58.3817C63.5006 58.3817 65.304 56.5783 65.304 54.3617C65.304 52.1452 63.5009 50.3417 61.2842 50.3417ZM4.01993 56.4605C2.86272 56.4605 1.9212 55.5189 1.9212 54.3617C1.9212 53.2045 2.86272 52.263 4.01993 52.263C5.17713 52.263 6.11865 53.2045 6.11865 54.3617C6.11865 55.5189 5.17713 56.4605 4.01993 56.4605ZM30.5533 4.01993C30.5533 2.86272 31.4948 1.9212 32.652 1.9212C33.8092 1.9212 34.7507 2.86272 34.7507 4.01993C34.7507 5.17713 33.8093 6.11865 32.6521 6.11865C31.4949 6.11865 30.5533 5.17713 30.5533 4.01993ZM31.6915 18.4427V19.4535C31.6915 19.984 32.1216 20.4141 32.6521 20.4141C33.1826 20.4141 33.6127 19.984 33.6127 19.4535V18.4494L47.401 26.8367L33.6127 35.2239V34.0988C33.6127 33.5683 33.1826 33.1382 32.6521 33.1382C32.1216 33.1382 31.6915 33.5683 31.6915 34.0988V35.2306L17.7857 26.8365L31.6915 18.4427ZM61.2842 56.4605C60.127 56.4605 59.1855 55.5189 59.1855 54.3617C59.1855 53.2045 60.127 52.263 61.2842 52.263C62.4414 52.263 63.3829 53.2045 63.3829 54.3617C63.3829 55.5189 62.4414 56.4605 61.2842 56.4605Z" fill="url(#paint2_linear)"/>
<defs>
<linearGradient id="paint0_linear" x1="32.654" y1="24.9465" x2="32.654" y2="22.5833" gradientUnits="userSpaceOnUse">
<stop stop-color="#0083FE"/>
<stop offset="1" stop-color="#091CD0"/>
</linearGradient>
<linearGradient id="paint1_linear" x1="32.654" y1="30.4551" x2="32.654" y2="28.0918" gradientUnits="userSpaceOnUse">
<stop stop-color="#0083FE"/>
<stop offset="1" stop-color="#091CD0"/>
</linearGradient>
<linearGradient id="paint2_linear" x1="32.652" y1="51.8892" x2="32.652" y2="-2.43474e-06" gradientUnits="userSpaceOnUse">
<stop stop-color="#0083FE"/>
<stop offset="1" stop-color="#091CD0"/>
</linearGradient>
</defs>
</svg>
