<svg width="62" height="62" viewBox="0 0 62 62" fill="none" xmlns="http://www.w3.org/2000/svg">
<path d="M42.6244 49.0833H19.3743C15.8119 49.0833 12.916 46.1848 12.916 42.625V19.375C12.916 15.8151 15.8119 12.9166 19.3743 12.9166H42.6244C46.1868 12.9166 49.0827 15.8151 49.0827 19.375V42.625C49.0827 46.1848 46.1868 49.0833 42.6244 49.0833ZM19.3743 15.5C17.2379 15.5 15.4993 17.2385 15.4993 19.375V42.625C15.4993 44.7614 17.2379 46.5 19.3743 46.5H42.6244C44.7608 46.5 46.4994 44.7614 46.4994 42.625V19.375C46.4994 17.2385 44.7608 15.5 42.6244 15.5H19.3743Z" fill="white"/>
<path d="M52.9583 25.8334H47.7917C47.0787 25.8334 46.5 25.2547 46.5 24.5417C46.5 23.8287 47.0787 23.25 47.7917 23.25H52.9583C53.6687 23.25 54.25 22.6714 54.25 21.9584V11.625C54.25 10.912 54.8287 10.3334 55.5417 10.3334C56.2547 10.3334 56.8333 10.912 56.8333 11.625V21.9584C56.8333 24.0948 55.0947 25.8334 52.9583 25.8334Z" fill="white"/>
<path d="M55.5423 12.9167C51.9799 12.9167 49.084 10.0182 49.084 6.45833C49.084 2.8985 51.9799 0 55.5423 0C59.1047 0 62.0006 2.8985 62.0006 6.45833C62.0006 10.0182 59.1047 12.9167 55.5423 12.9167ZM55.5423 2.58333C53.4059 2.58333 51.6673 4.32192 51.6673 6.45833C51.6673 8.59475 53.4059 10.3333 55.5423 10.3333C57.6787 10.3333 59.4173 8.59475 59.4173 6.45833C59.4173 4.32192 57.6787 2.58333 55.5423 2.58333Z" fill="white"/>
<path d="M55.5417 51.6666C54.8287 51.6666 54.25 51.088 54.25 50.375V40.0416C54.25 39.3286 53.6687 38.75 52.9583 38.75H47.7917C47.0787 38.75 46.5 38.1713 46.5 37.4583C46.5 36.7453 47.0787 36.1666 47.7917 36.1666H52.9583C55.0947 36.1666 56.8333 37.9052 56.8333 40.0416V50.375C56.8333 51.088 56.2547 51.6666 55.5417 51.6666Z" fill="white"/>
<path d="M55.5423 62C51.9799 62 49.084 59.1015 49.084 55.5417C49.084 51.9819 51.9799 49.0834 55.5423 49.0834C59.1047 49.0834 62.0006 51.9819 62.0006 55.5417C62.0006 59.1015 59.1047 62 55.5423 62ZM55.5423 51.6667C53.4059 51.6667 51.6673 53.4053 51.6673 55.5417C51.6673 57.6781 53.4059 59.4167 55.5423 59.4167C57.6787 59.4167 59.4173 57.6781 59.4173 55.5417C59.4173 53.4053 57.6787 51.6667 55.5423 51.6667Z" fill="white"/>
<path d="M14.2077 25.8334H9.04102C6.9046 25.8334 5.16602 24.0948 5.16602 21.9584V11.625C5.16602 10.912 5.74468 10.3334 6.45768 10.3334C7.17068 10.3334 7.74935 10.912 7.74935 11.625V21.9584C7.74935 22.6714 8.3306 23.25 9.04102 23.25H14.2077C14.9207 23.25 15.4994 23.8287 15.4994 24.5417C15.4994 25.2547 14.9207 25.8334 14.2077 25.8334Z" fill="white"/>
<path d="M6.45833 12.9167C2.89592 12.9167 0 10.0182 0 6.45833C0 2.8985 2.89592 0 6.45833 0C10.0208 0 12.9167 2.8985 12.9167 6.45833C12.9167 10.0182 10.0208 12.9167 6.45833 12.9167ZM6.45833 2.58333C4.32192 2.58333 2.58333 4.32192 2.58333 6.45833C2.58333 8.59475 4.32192 10.3333 6.45833 10.3333C8.59475 10.3333 10.3333 8.59475 10.3333 6.45833C10.3333 4.32192 8.59475 2.58333 6.45833 2.58333Z" fill="white"/>
<path d="M6.45768 51.6666C5.74468 51.6666 5.16602 51.088 5.16602 50.375V40.0416C5.16602 37.9052 6.9046 36.1666 9.04102 36.1666H14.2077C14.9207 36.1666 15.4994 36.7453 15.4994 37.4583C15.4994 38.1713 14.9207 38.75 14.2077 38.75H9.04102C8.3306 38.75 7.74935 39.3286 7.74935 40.0416V50.375C7.74935 51.088 7.17068 51.6666 6.45768 51.6666Z" fill="white"/>
<path d="M6.45833 62C2.89592 62 0 59.1015 0 55.5417C0 51.9819 2.89592 49.0834 6.45833 49.0834C10.0208 49.0834 12.9167 51.9819 12.9167 55.5417C12.9167 59.1015 10.0208 62 6.45833 62ZM6.45833 51.6667C4.32192 51.6667 2.58333 53.4053 2.58333 55.5417C2.58333 57.6781 4.32192 59.4167 6.45833 59.4167C8.59475 59.4167 10.3333 57.6781 10.3333 55.5417C10.3333 53.4053 8.59475 51.6667 6.45833 51.6667Z" fill="white"/>
<path d="M32.2914 43.9167H29.7081C28.2821 43.9167 27.1247 42.7568 27.1247 41.3334V39.1556C26.683 38.9515 26.2671 38.7139 25.8796 38.4426L23.9808 39.5354C23.3841 39.8815 22.6866 39.972 22.0201 39.7911C21.3536 39.6103 20.7981 39.184 20.4546 38.5847L19.1577 36.3243C18.4499 35.0946 18.8736 33.5162 20.1006 32.8032L21.9891 31.7079C21.9684 31.4728 21.9581 31.2351 21.9581 31C21.9581 30.765 21.9684 30.5273 21.9891 30.2922L20.0981 29.1969C18.8684 28.4839 18.4447 26.9029 19.1551 25.6732L20.452 23.4154C20.7981 22.816 21.3536 22.3898 22.0175 22.209C22.6891 22.0255 23.3815 22.1185 23.9782 22.4647L25.877 23.5575C26.2645 23.2888 26.683 23.0485 27.1221 22.8445V20.6667C27.1221 19.2433 28.2795 18.0834 29.7055 18.0834H32.2888C33.7148 18.0834 34.8721 19.2433 34.8721 20.6667V22.8445C35.3139 23.0485 35.7298 23.2862 36.1173 23.5575L38.0161 22.4647C38.6154 22.1211 39.3155 22.0333 39.9768 22.209C40.6433 22.3898 41.1987 22.816 41.5423 23.4154L42.8391 25.6758C43.547 26.9055 43.1233 28.4839 41.8962 29.1969L40.0078 30.2922C40.0311 30.5273 40.0414 30.765 40.0414 31C40.0414 31.2351 40.0311 31.4728 40.0104 31.7079L41.8988 32.8032C43.1285 33.5162 43.5521 35.0972 42.8417 36.3269L41.5449 38.5847C41.1987 39.184 40.6433 39.6103 39.9794 39.7911C39.3051 39.9694 38.6128 39.879 38.0186 39.5354L36.1199 38.4426C35.7324 38.7113 35.3139 38.9515 34.8747 39.1556V41.3334C34.8747 42.7568 33.7174 43.9167 32.2914 43.9167ZM25.9881 35.5984C26.2955 35.5984 26.6029 35.7095 26.8457 35.9239C27.4037 36.4173 28.0728 36.7996 28.8375 37.0605C29.3593 37.2388 29.7106 37.7296 29.7106 38.2825V41.3334H32.294V38.285C32.294 37.7322 32.6453 37.2414 33.1671 37.0631C33.9318 36.8022 34.6009 36.4173 35.1589 35.9265C35.5748 35.5545 36.1819 35.495 36.6598 35.7715L39.3103 37.2956L40.6071 35.0378L37.9747 33.5136C37.5097 33.245 37.2617 32.7128 37.3496 32.1806C37.4116 31.788 37.4581 31.3927 37.4581 31C37.4581 30.6074 37.4116 30.2121 37.347 29.8195C37.2591 29.2873 37.5097 28.7577 37.9721 28.4865L40.6046 26.9623L39.3077 24.7019L36.6572 26.2286C36.1793 26.5025 35.5722 26.443 35.1563 26.0736C34.5983 25.5802 33.9292 25.1979 33.1646 24.937C32.6427 24.7587 32.2914 24.2679 32.2914 23.715V20.6667H29.7081V23.715C29.7081 24.2679 29.3567 24.7587 28.8349 24.937C28.0702 25.1979 27.4011 25.5828 26.8431 26.0736C26.4246 26.443 25.8176 26.5025 25.3422 26.2286L22.6917 24.7045L21.3949 26.9623L24.0273 28.4865C24.4923 28.7551 24.7403 29.2873 24.6525 29.8195C24.5879 30.2121 24.5414 30.6074 24.5414 31C24.5414 31.3927 24.5879 31.788 24.6525 32.1806C24.7403 32.7128 24.4897 33.2424 24.0273 33.5136L21.3949 35.0378L22.6917 37.2982L25.3422 35.7715C25.5437 35.6552 25.7659 35.5984 25.9881 35.5984Z" fill="white"/>
</svg>
