<svg width="60" height="59" viewBox="0 0 60 59" fill="none" xmlns="http://www.w3.org/2000/svg">
<path d="M30.0002 43C30.7308 43.0001 31.4362 43.2668 31.9842 43.75L33.3072 42.25C32.5855 41.6135 31.6955 41.1988 30.744 41.0557C29.7925 40.9125 28.8198 41.0469 27.9428 41.4428C27.0658 41.8387 26.3216 42.4793 25.7996 43.2876C25.2777 44.096 25 45.0378 25 46C25 46.9622 25.2777 47.904 25.7996 48.7124C26.3216 49.5207 27.0658 50.1613 27.9428 50.5572C28.8198 50.9531 29.7925 51.0875 30.744 50.9443C31.6955 50.8012 32.5855 50.3865 33.3072 49.75L31.9842 48.25C31.6201 48.5711 31.1836 48.799 30.712 48.9142C30.2405 49.0295 29.748 49.0286 29.2769 48.9116C28.8058 48.7946 28.3701 48.5651 28.0073 48.2427C27.6444 47.9202 27.3652 47.5146 27.1936 47.0605C27.022 46.6064 26.9631 46.1175 27.0221 45.6357C27.081 45.1539 27.256 44.6935 27.532 44.2942C27.808 43.8949 28.1768 43.5685 28.6067 43.3431C29.0366 43.1177 29.5148 43 30.0002 43Z" fill="url(#paint0_linear)"/>
<path d="M36.4912 43.375L38.3452 42.625C37.5619 40.6888 36.1297 39.0853 34.2939 38.0893C32.458 37.0933 30.333 36.7668 28.2828 37.1657C26.2326 37.5647 24.3851 38.6643 23.0567 40.276C21.7284 41.8878 21.002 43.9114 21.002 46C21.002 48.0886 21.7284 50.1122 23.0567 51.724C24.3851 53.3358 26.2326 54.4353 28.2828 54.8343C30.333 55.2333 32.458 54.9068 34.2939 53.9107C36.1297 52.9147 37.5619 51.3112 38.3452 49.375L36.4912 48.625C35.882 50.131 34.768 51.3781 33.3402 52.1528C31.9123 52.9275 30.2594 53.1814 28.6649 52.8711C27.0703 52.5608 25.6333 51.7056 24.6002 50.452C23.567 49.1984 23.002 47.6245 23.002 46C23.002 44.3755 23.567 42.8016 24.6002 41.548C25.6333 40.2944 27.0703 39.4392 28.6649 39.1289C30.2594 38.8186 31.9123 39.0726 33.3402 39.8472C34.768 40.6219 35.882 41.8691 36.4912 43.375Z" fill="url(#paint1_linear)"/>
<path d="M59 42H51C50.7348 42.0001 50.4805 42.1054 50.293 42.293L47.586 45H30V47H47.586L50.293 49.707C50.4805 49.8946 50.7348 49.9999 51 50H59C59.2652 50 59.5196 49.8946 59.7071 49.7071C59.8946 49.5196 60 49.2652 60 49V43C60 42.7348 59.8946 42.4804 59.7071 42.2929C59.5196 42.1054 59.2652 42 59 42ZM58 48H51.414L49.414 46L51.414 44H58V48Z" fill="url(#paint2_linear)"/>
<path d="M8 34H10V40H8V34Z" fill="url(#paint3_linear)"/>
<path d="M56 40V32.12C55.9998 31.005 55.6269 29.922 54.9405 29.0432C54.2542 28.1644 53.2938 27.5403 52.212 27.27L48 26.219V25.571C48.6197 25.1478 49.126 24.5791 49.4747 23.9146C49.8234 23.2502 50.0038 22.5104 50 21.76V16C50 14.4087 49.3679 12.8826 48.2426 11.7574C47.1174 10.6321 45.5913 10 44 10C42.4087 10 40.8826 10.6321 39.7574 11.7574C38.6321 12.8826 38 14.4087 38 16V17.219L34 16.219V15.569C34.6179 15.1467 35.1232 14.5796 35.4718 13.9173C35.8204 13.255 36.0017 12.5175 36 11.769V6C36 4.4087 35.3679 2.88258 34.2426 1.75736C33.1174 0.632141 31.5913 0 30 0C28.4087 0 26.8826 0.632141 25.7574 1.75736C24.6321 2.88258 24 4.4087 24 6V11.764C23.9975 12.5133 24.1784 13.2518 24.527 13.9151C24.8757 14.5784 25.3814 15.1462 26 15.569V16.219L22 17.219V16C22 14.4087 21.3679 12.8826 20.2426 11.7574C19.1174 10.6321 17.5913 10 16 10C14.4087 10 12.8826 10.6321 11.7574 11.7574C10.6321 12.8826 10 14.4087 10 16V21.76C9.99622 22.5104 10.1766 23.2502 10.5253 23.9146C10.874 24.5791 11.3803 25.1478 12 25.571V26.219L7.785 27.271C6.70393 27.5418 5.74433 28.166 5.05858 29.0446C4.37284 29.9231 4.00025 31.0055 4 32.12V40H6V32.12C6.0003 31.4513 6.22403 30.8018 6.63567 30.2747C7.0473 29.7477 7.62324 29.3733 8.272 29.211L13.242 27.971C13.4586 27.917 13.6509 27.792 13.7883 27.6161C13.9256 27.4401 14.0002 27.2232 14 27V25C14.0007 24.813 13.949 24.6295 13.8508 24.4705C13.7525 24.3114 13.6116 24.183 13.444 24.1C13.0087 23.8839 12.6426 23.5501 12.3874 23.1365C12.1321 22.7229 11.9979 22.246 12 21.76V16C12 14.9391 12.4214 13.9217 13.1716 13.1716C13.9217 12.4214 14.9391 12 16 12C17.0609 12 18.0783 12.4214 18.8284 13.1716C19.5786 13.9217 20 14.9391 20 16V21.76C20.0021 22.246 19.8679 22.7229 19.6126 23.1365C19.3574 23.5501 18.9913 23.8839 18.556 24.1C18.3884 24.183 18.2475 24.3114 18.1492 24.4705C18.051 24.6295 17.9993 24.813 18 25V27C17.9998 27.2232 18.0744 27.4401 18.2117 27.6161C18.3491 27.792 18.5414 27.917 18.758 27.971L23.725 29.21C24.3584 29.37 24.9228 29.7313 25.3331 30.2397C25.7434 30.7482 25.9774 31.3761 26 32.029L28 31.971C27.9629 30.8833 27.5737 29.837 26.891 28.9895C26.2083 28.1419 25.2689 27.5389 24.214 27.271L20 26.219V25.571C20.6197 25.1478 21.126 24.5791 21.4747 23.9146C21.8234 23.2502 22.0038 22.5104 22 21.76V19.321C22.093 19.288 22.176 19.236 22.272 19.212L27.242 17.97C27.4584 17.916 27.6506 17.7912 27.788 17.6155C27.9253 17.4397 27.9999 17.2231 28 17V15C28.0001 14.8142 27.9484 14.632 27.8507 14.4739C27.753 14.3158 27.6132 14.1881 27.447 14.105C27.0109 13.8893 26.6442 13.5555 26.3884 13.1417C26.1326 12.7278 25.998 12.2505 26 11.764V6C26 4.93913 26.4214 3.92172 27.1716 3.17157C27.9217 2.42143 28.9391 2 30 2C31.0609 2 32.0783 2.42143 32.8284 3.17157C33.5786 3.92172 34 4.93913 34 6V11.764C34.002 12.2505 33.8674 12.7278 33.6116 13.1417C33.3558 13.5555 32.9891 13.8893 32.553 14.105C32.3868 14.1881 32.247 14.3158 32.1493 14.4739C32.0516 14.632 31.9999 14.8142 32 15V17C32.0001 17.2231 32.0747 17.4397 32.2121 17.6155C32.3494 17.7912 32.5416 17.916 32.758 17.97L37.727 19.212C37.82 19.235 37.91 19.269 38 19.301V21.76C37.9962 22.5104 38.1766 23.2502 38.5253 23.9146C38.874 24.5791 39.3803 25.1478 40 25.571V26.219L35.785 27.271C34.7303 27.5389 33.791 28.142 33.1084 28.9896C32.4259 29.8371 32.0369 30.8834 32 31.971L34 32.029C34.0223 31.3769 34.2557 30.7496 34.665 30.2414C35.0744 29.7333 35.6376 29.3717 36.27 29.211L41.24 27.971C41.457 27.9174 41.6497 27.7926 41.7875 27.6166C41.9252 27.4406 42 27.2235 42 27V25C42.0007 24.813 41.949 24.6295 41.8508 24.4705C41.7525 24.3114 41.6116 24.183 41.444 24.1C41.0087 23.8839 40.6426 23.5501 40.3874 23.1365C40.1321 22.7229 39.9979 22.246 40 21.76V16C40 14.9391 40.4214 13.9217 41.1716 13.1716C41.9217 12.4214 42.9391 12 44 12C45.0609 12 46.0783 12.4214 46.8284 13.1716C47.5786 13.9217 48 14.9391 48 16V21.76C48.0021 22.246 47.8679 22.7229 47.6126 23.1365C47.3574 23.5501 46.9913 23.8839 46.556 24.1C46.3884 24.183 46.2475 24.3114 46.1492 24.4705C46.051 24.6295 45.9993 24.813 46 25V27C45.9998 27.2232 46.0744 27.4401 46.2117 27.6161C46.3491 27.792 46.5414 27.917 46.758 27.971L51.725 29.21C52.3745 29.3718 52.9512 29.7461 53.3635 30.2734C53.7757 30.8007 53.9998 31.4507 54 32.12V40H56Z" fill="url(#paint4_linear)"/>
<path d="M50 34H52V40H50V34Z" fill="url(#paint5_linear)"/>
<path d="M0.423901 46.8158L4.4239 49.6448C4.59268 49.764 4.79425 49.828 5.0009 49.828C5.20755 49.828 5.40912 49.764 5.5779 49.6448L9.3189 46.9998H17.0519C17.2878 50.0681 18.605 52.9532 20.769 55.1413C22.9329 57.3293 25.8032 58.6785 28.8688 58.9484C31.9343 59.2183 34.9962 58.3916 37.5092 56.6154C40.0222 54.8391 41.8234 52.2287 42.5919 49.2488L40.6539 48.7488C39.9846 51.3411 38.3928 53.6003 36.1769 55.1029C33.961 56.6056 31.2731 57.2485 28.6171 56.9111C25.9612 56.5737 23.5194 55.2793 21.7495 53.2704C19.9796 51.2615 19.0032 48.6761 19.0032 45.9988C19.0032 43.3215 19.9796 40.736 21.7495 38.7271C23.5194 36.7182 25.9612 35.4238 28.6171 35.0865C31.2731 34.7491 33.961 35.392 36.1769 36.8946C38.3928 38.3973 39.9846 40.6565 40.6539 43.2488L42.5919 42.7488C41.8232 39.7688 40.0219 37.1584 37.5087 35.3822C34.9955 33.6061 31.9335 32.7795 28.8679 33.0497C25.8022 33.3199 22.932 34.6693 20.7682 36.8577C18.6044 39.046 17.2875 41.9313 17.0519 44.9998H9.3189L5.5779 42.3548C5.40912 42.2355 5.20755 42.1715 5.0009 42.1715C4.79425 42.1715 4.59268 42.2355 4.4239 42.3548L0.423901 45.1838C0.293476 45.2762 0.187097 45.3985 0.113682 45.5405C0.0402664 45.6824 0.00195313 45.8399 0.00195312 45.9998C0.00195312 46.1596 0.0402664 46.3171 0.113682 46.4591C0.187097 46.6011 0.293476 46.7234 0.423901 46.8158ZM5.0009 44.3998L7.2689 45.9998L5.0009 47.5998L2.7329 45.9998L5.0009 44.3998Z" fill="url(#paint6_linear)"/>
<defs>
<linearGradient id="paint0_linear" x1="29.1536" y1="49.8879" x2="29.1536" y2="41" gradientUnits="userSpaceOnUse">
<stop stop-color="#0083FE"/>
<stop offset="1" stop-color="#091CD0"/>
</linearGradient>
<linearGradient id="paint1_linear" x1="29.6736" y1="52.9983" x2="29.6736" y2="37" gradientUnits="userSpaceOnUse">
<stop stop-color="#0083FE"/>
<stop offset="1" stop-color="#091CD0"/>
</linearGradient>
<linearGradient id="paint2_linear" x1="45" y1="49.1103" x2="45" y2="42" gradientUnits="userSpaceOnUse">
<stop stop-color="#0083FE"/>
<stop offset="1" stop-color="#091CD0"/>
</linearGradient>
<linearGradient id="paint3_linear" x1="9" y1="39.3328" x2="9" y2="34" gradientUnits="userSpaceOnUse">
<stop stop-color="#0083FE"/>
<stop offset="1" stop-color="#091CD0"/>
</linearGradient>
<linearGradient id="paint4_linear" x1="30" y1="35.5517" x2="30" y2="-1.66816e-06" gradientUnits="userSpaceOnUse">
<stop stop-color="#0083FE"/>
<stop offset="1" stop-color="#091CD0"/>
</linearGradient>
<linearGradient id="paint5_linear" x1="51" y1="39.3328" x2="51" y2="34" gradientUnits="userSpaceOnUse">
<stop stop-color="#0083FE"/>
<stop offset="1" stop-color="#091CD0"/>
</linearGradient>
<linearGradient id="paint6_linear" x1="21.2969" y1="56.1072" x2="21.2969" y2="32.9995" gradientUnits="userSpaceOnUse">
<stop stop-color="#0083FE"/>
<stop offset="1" stop-color="#091CD0"/>
</linearGradient>
</defs>
</svg>
