<svg width="25" height="19" viewBox="0 0 25 19" fill="none" xmlns="http://www.w3.org/2000/svg">
<path d="M24.5717 10.085C24.5713 10.0855 24.5709 10.086 24.5704 10.0864L16.9421 17.6779C16.3706 18.2466 15.4463 18.2445 14.8774 17.6729C14.3086 17.1015 14.3108 16.1771 14.8823 15.6083L20.004 10.5115H1.45991C0.6536 10.5115 0 9.85793 0 9.05162C0 8.24531 0.6536 7.59172 1.45991 7.59172H20.0039L14.8824 2.49489C14.3109 1.92612 14.3087 1.00178 14.8775 0.430296C15.4463 -0.141329 16.3708 -0.143299 16.9422 0.425333L24.5705 8.01684C24.5709 8.01728 24.5713 8.01779 24.5718 8.01823C25.1436 8.5889 25.1417 9.51623 24.5717 10.085Z" fill="url(#paint0_linear)"/>
<defs>
<linearGradient id="paint0_linear" x1="12.5" y1="2.01339" x2="12.5" y2="18.103" gradientUnits="userSpaceOnUse">
<stop stop-color="#0083FE"/>
<stop offset="1" stop-color="#091CD0"/>
</linearGradient>
</defs>
</svg>
