<svg width="1920" height="974" viewBox="0 0 1920 974" fill="none" xmlns="http://www.w3.org/2000/svg">
<path d="M1920 0L960 83.2946L0 173.885V974L1920 831.73V0Z" fill="url(#paint0_linear)"/>
<path opacity="0.45" d="M1196.02 229.448C1204.31 229.448 1211.03 222.632 1211.03 214.224C1211.03 205.816 1204.31 199 1196.02 199C1187.72 199 1181 205.816 1181 214.224C1181 222.632 1187.72 229.448 1196.02 229.448Z" stroke="#D96BCE" stroke-width="4"/>
<path opacity="0.45" d="M226.016 450.448C234.308 450.448 241.031 443.632 241.031 435.224C241.031 426.816 234.308 420 226.016 420C217.723 420 211 426.816 211 435.224C211 443.632 217.723 450.448 226.016 450.448Z" stroke="#D96BCE" stroke-width="4"/>
<path opacity="0.35" d="M881.178 606.57L883.083 629.952L901.826 617.122L881.178 606.57ZM877.759 601.426C878.1 601.193 878.555 601.132 878.974 601.346L907.108 615.723C907.925 616.141 907.994 617.297 907.232 617.818L881.693 635.301C880.932 635.822 879.901 635.325 879.826 634.399L877.231 602.539C877.192 602.065 877.418 601.659 877.759 601.426Z" fill="#8E7BDA"/>
<path opacity="0.26" d="M122.204 237.525C124.526 237.525 126.409 235.617 126.409 233.263C126.409 230.908 124.526 229 122.204 229C119.882 229 118 230.908 118 233.263C118 235.617 119.882 237.525 122.204 237.525Z" fill="#3484FB"/>
<path opacity="0.35" d="M1350.79 842.252C1350.38 842.13 1350.01 841.9 1349.72 841.586C1349.43 841.272 1349.22 840.885 1349.13 840.465C1349.03 840.045 1349.05 839.606 1349.17 839.195C1349.3 838.783 1349.53 838.413 1349.85 838.121L1367.07 822.126C1367.38 821.838 1367.76 821.638 1368.17 821.544C1368.58 821.451 1369.01 821.469 1369.41 821.595C1369.81 821.721 1370.17 821.952 1370.46 822.264C1370.74 822.576 1370.94 822.958 1371.04 823.373L1376.21 846.083C1376.3 846.497 1376.29 846.93 1376.17 847.337C1376.05 847.744 1375.82 848.112 1375.52 848.404C1375.21 848.695 1374.84 848.901 1374.43 848.999C1374.02 849.098 1373.59 849.086 1373.19 848.966L1350.79 842.252Z" fill="#FAC678"/>
<defs>
<linearGradient id="paint0_linear" x1="960" y1="865.684" x2="960" y2="-4.06196e-05" gradientUnits="userSpaceOnUse">
<stop stop-color="#0083FE"/>
<stop offset="1" stop-color="#091CD0"/>
</linearGradient>
</defs>
</svg>
