<svg width="1920" height="1151" viewBox="0 0 1920 1151" fill="none" xmlns="http://www.w3.org/2000/svg">
<path d="M0 191.048C0 191.048 447.586 -0.000737696 974.655 2.13636e-09C1501.72 0.0007377 1920 247.532 1920 247.532V1151L960 1031.1L0 911.21V191.048Z" fill="url(#paint0_linear)"/>
<path opacity="0.45" d="M192.016 501.449C200.308 501.449 207.031 494.633 207.031 486.225C207.031 477.817 200.308 471 192.016 471C183.723 471 177 477.817 177 486.225C177 494.633 183.723 501.449 192.016 501.449Z" stroke="#D96BCE" stroke-width="4"/>
<path opacity="0.45" d="M849.016 772.448C857.308 772.448 864.031 765.632 864.031 757.224C864.031 748.816 857.308 742 849.016 742C840.723 742 834 748.816 834 757.224C834 765.632 840.723 772.448 849.016 772.448Z" stroke="#D96BCE" stroke-width="4"/>
<path opacity="0.35" d="M1517.19 130.57L1519.09 153.952L1537.83 141.121L1517.19 130.57ZM1513.77 125.426C1514.11 125.192 1514.56 125.131 1514.98 125.346L1543.12 139.723C1543.93 140.14 1544 141.296 1543.24 141.817L1517.7 159.301C1516.94 159.822 1515.91 159.324 1515.83 158.399L1513.24 126.539C1513.2 126.064 1513.43 125.659 1513.77 125.426Z" fill="#8E7BDA"/>
<path opacity="0.26" d="M187.204 338.526C189.526 338.526 191.409 336.618 191.409 334.263C191.409 331.909 189.526 330 187.204 330C184.882 330 183 331.909 183 334.263C183 336.618 184.882 338.526 187.204 338.526Z" fill="#3484FB"/>
<path opacity="0.35" d="M1825.79 853.252C1825.38 853.13 1825.01 852.9 1824.72 852.586C1824.43 852.272 1824.22 851.885 1824.13 851.465C1824.03 851.045 1824.05 850.607 1824.17 850.195C1824.3 849.783 1824.53 849.413 1824.85 849.122L1842.07 833.126C1842.38 832.838 1842.76 832.638 1843.17 832.545C1843.58 832.452 1844.01 832.469 1844.41 832.595C1844.81 832.721 1845.17 832.952 1845.46 833.264C1845.74 833.576 1845.94 833.958 1846.04 834.373L1851.21 857.083C1851.3 857.498 1851.29 857.93 1851.17 858.337C1851.05 858.744 1850.82 859.112 1850.52 859.404C1850.21 859.696 1849.84 859.901 1849.43 860C1849.02 860.098 1848.59 860.087 1848.19 859.966L1825.79 853.252Z" fill="#FAC678"/>
<path opacity="0.35" d="M389.787 164.252C389.379 164.13 389.011 163.9 388.719 163.586C388.428 163.272 388.224 162.885 388.128 162.465C388.033 162.045 388.049 161.607 388.175 161.195C388.301 160.783 388.532 160.413 388.846 160.122L406.073 144.126C406.383 143.838 406.761 143.638 407.171 143.545C407.58 143.452 408.007 143.469 408.408 143.595C408.809 143.721 409.17 143.952 409.456 144.264C409.742 144.576 409.942 144.958 410.036 145.373L415.21 168.083C415.305 168.498 415.29 168.93 415.169 169.337C415.047 169.744 414.822 170.112 414.516 170.404C414.211 170.696 413.835 170.901 413.427 171C413.019 171.098 412.592 171.087 412.19 170.966L389.787 164.252Z" fill="#FAC678"/>
<defs>
<linearGradient id="paint0_linear" x1="960" y1="1023" x2="960" y2="-4.80012e-05" gradientUnits="userSpaceOnUse">
<stop stop-color="#0083FE"/>
<stop offset="1" stop-color="#091CD0"/>
</linearGradient>
</defs>
</svg>
