<svg width="1920" height="502" viewBox="0 0 1920 502" fill="none" xmlns="http://www.w3.org/2000/svg">
<path d="M1920 0H0V502L1920 380.431V0Z" fill="#EFF2F3"/>
<path opacity="0.45" d="M1628.02 71.4482C1636.31 71.4482 1643.03 64.6322 1643.03 56.2241C1643.03 47.8161 1636.31 41 1628.02 41C1619.72 41 1613 47.8161 1613 56.2241C1613 64.6322 1619.72 71.4482 1628.02 71.4482Z" stroke="#D96BCE" stroke-width="4"/>
<path opacity="0.45" d="M349.016 111.448C357.308 111.448 364.031 104.632 364.031 96.2241C364.031 87.8161 357.308 81 349.016 81C340.723 81 334 87.8161 334 96.2241C334 104.632 340.723 111.448 349.016 111.448Z" stroke="#D96BCE" stroke-width="4"/>
<path opacity="0.26" d="M183.204 255.526C185.526 255.526 187.409 253.617 187.409 251.263C187.409 248.909 185.526 247 183.204 247C180.882 247 179 248.909 179 251.263C179 253.617 180.882 255.526 183.204 255.526Z" fill="#3484FB"/>
<path opacity="0.35" d="M753.787 419.252C753.379 419.13 753.011 418.9 752.719 418.586C752.428 418.272 752.224 417.885 752.128 417.465C752.033 417.045 752.049 416.607 752.175 416.195C752.301 415.783 752.532 415.413 752.846 415.122L770.073 399.126C770.383 398.838 770.761 398.638 771.171 398.545C771.58 398.452 772.007 398.469 772.408 398.595C772.809 398.721 773.17 398.952 773.456 399.264C773.742 399.576 773.942 399.958 774.036 400.373L779.21 423.083C779.305 423.498 779.29 423.93 779.169 424.337C779.047 424.744 778.822 425.112 778.516 425.404C778.211 425.696 777.835 425.901 777.427 426C777.019 426.098 776.592 426.087 776.19 425.966L753.787 419.252Z" fill="#FAC678"/>
<path opacity="0.35" d="M1742.79 272.252C1742.38 272.13 1742.01 271.9 1741.72 271.586C1741.43 271.272 1741.22 270.885 1741.13 270.465C1741.03 270.045 1741.05 269.607 1741.17 269.195C1741.3 268.783 1741.53 268.413 1741.85 268.122L1759.07 252.126C1759.38 251.838 1759.76 251.638 1760.17 251.545C1760.58 251.452 1761.01 251.469 1761.41 251.595C1761.81 251.721 1762.17 251.952 1762.46 252.264C1762.74 252.576 1762.94 252.958 1763.04 253.373L1768.21 276.083C1768.3 276.498 1768.29 276.93 1768.17 277.337C1768.05 277.744 1767.82 278.112 1767.52 278.404C1767.21 278.696 1766.84 278.901 1766.43 279C1766.02 279.098 1765.59 279.087 1765.19 278.966L1742.79 272.252Z" fill="#FAC678"/>
<path d="M12.42 177.21C12.42 177.88 11.88 178.42 11.21 178.42C10.54 178.42 10 177.88 10 177.21C10 176.54 10.54 176 11.21 176C11.88 176.01 12.42 176.55 12.42 177.21Z" fill="url(#paint0_linear)"/>
<path d="M12.42 187.46C12.42 188.13 11.88 188.67 11.21 188.67C10.54 188.67 10 188.13 10 187.46C10 186.79 10.54 186.25 11.21 186.25C11.88 186.25 12.42 186.79 12.42 187.46Z" fill="url(#paint1_linear)"/>
<path d="M12.42 197.71C12.42 198.38 11.88 198.92 11.21 198.92C10.54 198.92 10 198.38 10 197.71C10 197.04 10.54 196.5 11.21 196.5C11.88 196.5 12.42 197.04 12.42 197.71Z" fill="url(#paint2_linear)"/>
<path d="M12.42 207.95C12.42 208.62 11.88 209.16 11.21 209.16C10.54 209.16 10 208.62 10 207.95C10 207.28 10.54 206.74 11.21 206.74C11.88 206.75 12.42 207.29 12.42 207.95Z" fill="url(#paint3_linear)"/>
<path d="M12.42 218.2C12.42 218.87 11.88 219.41 11.21 219.41C10.54 219.41 10 218.87 10 218.2C10 217.53 10.54 216.99 11.21 216.99C11.88 217 12.42 217.54 12.42 218.2Z" fill="url(#paint4_linear)"/>
<path d="M12.42 228.45C12.42 229.12 11.88 229.66 11.21 229.66C10.54 229.66 10 229.12 10 228.45C10 227.78 10.54 227.24 11.21 227.24C11.88 227.24 12.42 227.78 12.42 228.45Z" fill="url(#paint5_linear)"/>
<path d="M22.0597 177.21C22.0597 177.88 21.5197 178.42 20.8497 178.42C20.1797 178.42 19.6396 177.88 19.6396 177.21C19.6396 176.54 20.1797 176 20.8497 176C21.5197 176 22.0597 176.55 22.0597 177.21Z" fill="url(#paint6_linear)"/>
<path d="M20.8594 188.67C21.5277 188.67 22.0694 188.128 22.0694 187.46C22.0694 186.792 21.5277 186.25 20.8594 186.25C20.1911 186.25 19.6494 186.792 19.6494 187.46C19.6494 188.128 20.1911 188.67 20.8594 188.67Z" fill="url(#paint7_linear)"/>
<path d="M20.8594 198.92C21.5277 198.92 22.0694 198.378 22.0694 197.71C22.0694 197.042 21.5277 196.5 20.8594 196.5C20.1911 196.5 19.6494 197.042 19.6494 197.71C19.6494 198.378 20.1911 198.92 20.8594 198.92Z" fill="url(#paint8_linear)"/>
<path d="M20.8594 209.16C21.5277 209.16 22.0694 208.618 22.0694 207.95C22.0694 207.282 21.5277 206.74 20.8594 206.74C20.1911 206.74 19.6494 207.282 19.6494 207.95C19.6494 208.618 20.1911 209.16 20.8594 209.16Z" fill="url(#paint9_linear)"/>
<path d="M22.0597 218.2C22.0597 218.87 21.5197 219.41 20.8497 219.41C20.1797 219.41 19.6396 218.87 19.6396 218.2C19.6396 217.53 20.1797 216.99 20.8497 216.99C21.5197 216.99 22.0597 217.54 22.0597 218.2Z" fill="url(#paint10_linear)"/>
<path d="M22.0597 228.45C22.0597 229.12 21.5197 229.66 20.8497 229.66C20.1797 229.66 19.6396 229.12 19.6396 228.45C19.6396 227.78 20.1797 227.24 20.8497 227.24C21.5197 227.24 22.0597 227.78 22.0597 228.45Z" fill="url(#paint11_linear)"/>
<path d="M31.7101 177.21C31.7101 177.88 31.1701 178.42 30.5001 178.42C29.8301 178.42 29.29 177.88 29.29 177.21C29.29 176.54 29.8301 176 30.5001 176C31.1701 176 31.7101 176.55 31.7101 177.21Z" fill="url(#paint12_linear)"/>
<path d="M30.5001 188.67C31.1683 188.67 31.7101 188.128 31.7101 187.46C31.7101 186.792 31.1683 186.25 30.5001 186.25C29.8318 186.25 29.29 186.792 29.29 187.46C29.29 188.128 29.8318 188.67 30.5001 188.67Z" fill="url(#paint13_linear)"/>
<path d="M30.5001 198.92C31.1683 198.92 31.7101 198.378 31.7101 197.71C31.7101 197.042 31.1683 196.5 30.5001 196.5C29.8318 196.5 29.29 197.042 29.29 197.71C29.29 198.378 29.8318 198.92 30.5001 198.92Z" fill="url(#paint14_linear)"/>
<path d="M30.5001 209.16C31.1683 209.16 31.7101 208.618 31.7101 207.95C31.7101 207.282 31.1683 206.74 30.5001 206.74C29.8318 206.74 29.29 207.282 29.29 207.95C29.29 208.618 29.8318 209.16 30.5001 209.16Z" fill="url(#paint15_linear)"/>
<path d="M31.7101 218.2C31.7101 218.87 31.1701 219.41 30.5001 219.41C29.8301 219.41 29.29 218.87 29.29 218.2C29.29 217.53 29.8301 216.99 30.5001 216.99C31.1701 216.99 31.7101 217.54 31.7101 218.2Z" fill="url(#paint16_linear)"/>
<path d="M31.7101 228.45C31.7101 229.12 31.1701 229.66 30.5001 229.66C29.8301 229.66 29.29 229.12 29.29 228.45C29.29 227.78 29.8301 227.24 30.5001 227.24C31.1701 227.24 31.7101 227.78 31.7101 228.45Z" fill="url(#paint17_linear)"/>
<path d="M41.3497 177.21C41.3497 177.88 40.8097 178.42 40.1397 178.42C39.4697 178.42 38.9297 177.88 38.9297 177.21C38.9297 176.54 39.4697 176 40.1397 176C40.8097 176.01 41.3497 176.55 41.3497 177.21Z" fill="url(#paint18_linear)"/>
<path d="M41.3497 187.46C41.3497 188.13 40.8097 188.67 40.1397 188.67C39.4697 188.67 38.9297 188.13 38.9297 187.46C38.9297 186.79 39.4697 186.25 40.1397 186.25C40.8097 186.25 41.3497 186.79 41.3497 187.46Z" fill="url(#paint19_linear)"/>
<path d="M41.3497 197.71C41.3497 198.38 40.8097 198.92 40.1397 198.92C39.4697 198.92 38.9297 198.38 38.9297 197.71C38.9297 197.04 39.4697 196.5 40.1397 196.5C40.8097 196.5 41.3497 197.04 41.3497 197.71Z" fill="url(#paint20_linear)"/>
<path d="M41.3497 207.95C41.3497 208.62 40.8097 209.16 40.1397 209.16C39.4697 209.16 38.9297 208.62 38.9297 207.95C38.9297 207.28 39.4697 206.74 40.1397 206.74C40.8097 206.75 41.3497 207.29 41.3497 207.95Z" fill="url(#paint21_linear)"/>
<path d="M41.3497 218.2C41.3497 218.87 40.8097 219.41 40.1397 219.41C39.4697 219.41 38.9297 218.87 38.9297 218.2C38.9297 217.53 39.4697 216.99 40.1397 216.99C40.8097 217 41.3497 217.54 41.3497 218.2Z" fill="url(#paint22_linear)"/>
<path d="M41.3497 228.45C41.3497 229.12 40.8097 229.66 40.1397 229.66C39.4697 229.66 38.9297 229.12 38.9297 228.45C38.9297 227.78 39.4697 227.24 40.1397 227.24C40.8097 227.24 41.3497 227.78 41.3497 228.45Z" fill="url(#paint23_linear)"/>
<path d="M51.0001 177.21C51.0001 177.88 50.4601 178.42 49.7901 178.42C49.1201 178.42 48.5801 177.88 48.5801 177.21C48.5801 176.54 49.1201 176 49.7901 176C50.4601 176.01 51.0001 176.55 51.0001 177.21Z" fill="url(#paint24_linear)"/>
<path d="M51.0001 187.46C51.0001 188.13 50.4601 188.67 49.7901 188.67C49.1201 188.67 48.5801 188.13 48.5801 187.46C48.5801 186.79 49.1201 186.25 49.7901 186.25C50.4601 186.25 51.0001 186.79 51.0001 187.46Z" fill="url(#paint25_linear)"/>
<path d="M51.0001 197.71C51.0001 198.38 50.4601 198.92 49.7901 198.92C49.1201 198.92 48.5801 198.38 48.5801 197.71C48.5801 197.04 49.1201 196.5 49.7901 196.5C50.4601 196.5 51.0001 197.04 51.0001 197.71Z" fill="url(#paint26_linear)"/>
<path d="M51.0001 207.95C51.0001 208.62 50.4601 209.16 49.7901 209.16C49.1201 209.16 48.5801 208.62 48.5801 207.95C48.5801 207.28 49.1201 206.74 49.7901 206.74C50.4601 206.75 51.0001 207.29 51.0001 207.95Z" fill="url(#paint27_linear)"/>
<path d="M51.0001 218.2C51.0001 218.87 50.4601 219.41 49.7901 219.41C49.1201 219.41 48.5801 218.87 48.5801 218.2C48.5801 217.53 49.1201 216.99 49.7901 216.99C50.4601 217 51.0001 217.54 51.0001 218.2Z" fill="url(#paint28_linear)"/>
<path d="M51.0001 228.45C51.0001 229.12 50.4601 229.66 49.7901 229.66C49.1201 229.66 48.5801 229.12 48.5801 228.45C48.5801 227.78 49.1201 227.24 49.7901 227.24C50.4601 227.24 51.0001 227.78 51.0001 228.45Z" fill="url(#paint29_linear)"/>
<path d="M60.6397 177.21C60.6397 177.88 60.0997 178.42 59.4297 178.42C58.7597 178.42 58.2197 177.88 58.2197 177.21C58.2197 176.54 58.7597 176 59.4297 176C60.0997 176 60.6397 176.55 60.6397 177.21Z" fill="url(#paint30_linear)"/>
<path d="M59.4297 188.67C60.098 188.67 60.6397 188.128 60.6397 187.46C60.6397 186.792 60.098 186.25 59.4297 186.25C58.7615 186.25 58.2197 186.792 58.2197 187.46C58.2197 188.128 58.7615 188.67 59.4297 188.67Z" fill="url(#paint31_linear)"/>
<path d="M59.4297 198.92C60.098 198.92 60.6397 198.378 60.6397 197.71C60.6397 197.042 60.098 196.5 59.4297 196.5C58.7615 196.5 58.2197 197.042 58.2197 197.71C58.2197 198.378 58.7615 198.92 59.4297 198.92Z" fill="url(#paint32_linear)"/>
<path d="M59.4297 209.16C60.098 209.16 60.6397 208.618 60.6397 207.95C60.6397 207.282 60.098 206.74 59.4297 206.74C58.7615 206.74 58.2197 207.282 58.2197 207.95C58.2197 208.618 58.7615 209.16 59.4297 209.16Z" fill="url(#paint33_linear)"/>
<path d="M60.6397 218.2C60.6397 218.87 60.0997 219.41 59.4297 219.41C58.7597 219.41 58.2197 218.87 58.2197 218.2C58.2197 217.53 58.7597 216.99 59.4297 216.99C60.0997 216.99 60.6397 217.54 60.6397 218.2Z" fill="url(#paint34_linear)"/>
<path d="M60.6397 228.45C60.6397 229.12 60.0997 229.66 59.4297 229.66C58.7597 229.66 58.2197 229.12 58.2197 228.45C58.2197 227.78 58.7597 227.24 59.4297 227.24C60.0997 227.24 60.6397 227.78 60.6397 228.45Z" fill="url(#paint35_linear)"/>
<path d="M70.2901 177.21C70.2901 177.88 69.7501 178.42 69.0801 178.42C68.4101 178.42 67.8701 177.88 67.8701 177.21C67.8701 176.54 68.4101 176 69.0801 176C69.7501 176.01 70.2901 176.55 70.2901 177.21Z" fill="url(#paint36_linear)"/>
<path d="M70.2901 187.46C70.2901 188.13 69.7501 188.67 69.0801 188.67C68.4101 188.67 67.8701 188.13 67.8701 187.46C67.8701 186.79 68.4101 186.25 69.0801 186.25C69.7501 186.25 70.2901 186.79 70.2901 187.46Z" fill="url(#paint37_linear)"/>
<path d="M70.2901 197.71C70.2901 198.38 69.7501 198.92 69.0801 198.92C68.4101 198.92 67.8701 198.38 67.8701 197.71C67.8701 197.04 68.4101 196.5 69.0801 196.5C69.7501 196.5 70.2901 197.04 70.2901 197.71Z" fill="url(#paint38_linear)"/>
<path d="M70.2901 207.95C70.2901 208.62 69.7501 209.16 69.0801 209.16C68.4101 209.16 67.8701 208.62 67.8701 207.95C67.8701 207.28 68.4101 206.74 69.0801 206.74C69.7501 206.75 70.2901 207.29 70.2901 207.95Z" fill="url(#paint39_linear)"/>
<path d="M70.2901 218.2C70.2901 218.87 69.7501 219.41 69.0801 219.41C68.4101 219.41 67.8701 218.87 67.8701 218.2C67.8701 217.53 68.4101 216.99 69.0801 216.99C69.7501 217 70.2901 217.54 70.2901 218.2Z" fill="url(#paint40_linear)"/>
<path d="M70.2901 228.45C70.2901 229.12 69.7501 229.66 69.0801 229.66C68.4101 229.66 67.8701 229.12 67.8701 228.45C67.8701 227.78 68.4101 227.24 69.0801 227.24C69.7501 227.24 70.2901 227.78 70.2901 228.45Z" fill="url(#paint41_linear)"/>
<defs>
<linearGradient id="paint0_linear" x1="11.21" y1="178.151" x2="11.21" y2="176" gradientUnits="userSpaceOnUse">
<stop stop-color="#0083FE"/>
<stop offset="1" stop-color="#091CD0"/>
</linearGradient>
<linearGradient id="paint1_linear" x1="11.21" y1="188.401" x2="11.21" y2="186.25" gradientUnits="userSpaceOnUse">
<stop stop-color="#0083FE"/>
<stop offset="1" stop-color="#091CD0"/>
</linearGradient>
<linearGradient id="paint2_linear" x1="11.21" y1="198.651" x2="11.21" y2="196.5" gradientUnits="userSpaceOnUse">
<stop stop-color="#0083FE"/>
<stop offset="1" stop-color="#091CD0"/>
</linearGradient>
<linearGradient id="paint3_linear" x1="11.21" y1="208.891" x2="11.21" y2="206.74" gradientUnits="userSpaceOnUse">
<stop stop-color="#0083FE"/>
<stop offset="1" stop-color="#091CD0"/>
</linearGradient>
<linearGradient id="paint4_linear" x1="11.21" y1="219.141" x2="11.21" y2="216.99" gradientUnits="userSpaceOnUse">
<stop stop-color="#0083FE"/>
<stop offset="1" stop-color="#091CD0"/>
</linearGradient>
<linearGradient id="paint5_linear" x1="11.21" y1="229.391" x2="11.21" y2="227.24" gradientUnits="userSpaceOnUse">
<stop stop-color="#0083FE"/>
<stop offset="1" stop-color="#091CD0"/>
</linearGradient>
<linearGradient id="paint6_linear" x1="20.8497" y1="178.151" x2="20.8497" y2="176" gradientUnits="userSpaceOnUse">
<stop stop-color="#0083FE"/>
<stop offset="1" stop-color="#091CD0"/>
</linearGradient>
<linearGradient id="paint7_linear" x1="20.8594" y1="188.401" x2="20.8594" y2="186.25" gradientUnits="userSpaceOnUse">
<stop stop-color="#0083FE"/>
<stop offset="1" stop-color="#091CD0"/>
</linearGradient>
<linearGradient id="paint8_linear" x1="20.8594" y1="198.651" x2="20.8594" y2="196.5" gradientUnits="userSpaceOnUse">
<stop stop-color="#0083FE"/>
<stop offset="1" stop-color="#091CD0"/>
</linearGradient>
<linearGradient id="paint9_linear" x1="20.8594" y1="208.891" x2="20.8594" y2="206.74" gradientUnits="userSpaceOnUse">
<stop stop-color="#0083FE"/>
<stop offset="1" stop-color="#091CD0"/>
</linearGradient>
<linearGradient id="paint10_linear" x1="20.8497" y1="219.141" x2="20.8497" y2="216.99" gradientUnits="userSpaceOnUse">
<stop stop-color="#0083FE"/>
<stop offset="1" stop-color="#091CD0"/>
</linearGradient>
<linearGradient id="paint11_linear" x1="20.8497" y1="229.391" x2="20.8497" y2="227.24" gradientUnits="userSpaceOnUse">
<stop stop-color="#0083FE"/>
<stop offset="1" stop-color="#091CD0"/>
</linearGradient>
<linearGradient id="paint12_linear" x1="30.5" y1="178.151" x2="30.5" y2="176" gradientUnits="userSpaceOnUse">
<stop stop-color="#0083FE"/>
<stop offset="1" stop-color="#091CD0"/>
</linearGradient>
<linearGradient id="paint13_linear" x1="30.5" y1="188.401" x2="30.5" y2="186.25" gradientUnits="userSpaceOnUse">
<stop stop-color="#0083FE"/>
<stop offset="1" stop-color="#091CD0"/>
</linearGradient>
<linearGradient id="paint14_linear" x1="30.5" y1="198.651" x2="30.5" y2="196.5" gradientUnits="userSpaceOnUse">
<stop stop-color="#0083FE"/>
<stop offset="1" stop-color="#091CD0"/>
</linearGradient>
<linearGradient id="paint15_linear" x1="30.5" y1="208.891" x2="30.5" y2="206.74" gradientUnits="userSpaceOnUse">
<stop stop-color="#0083FE"/>
<stop offset="1" stop-color="#091CD0"/>
</linearGradient>
<linearGradient id="paint16_linear" x1="30.5" y1="219.141" x2="30.5" y2="216.99" gradientUnits="userSpaceOnUse">
<stop stop-color="#0083FE"/>
<stop offset="1" stop-color="#091CD0"/>
</linearGradient>
<linearGradient id="paint17_linear" x1="30.5" y1="229.391" x2="30.5" y2="227.24" gradientUnits="userSpaceOnUse">
<stop stop-color="#0083FE"/>
<stop offset="1" stop-color="#091CD0"/>
</linearGradient>
<linearGradient id="paint18_linear" x1="40.1397" y1="178.151" x2="40.1397" y2="176" gradientUnits="userSpaceOnUse">
<stop stop-color="#0083FE"/>
<stop offset="1" stop-color="#091CD0"/>
</linearGradient>
<linearGradient id="paint19_linear" x1="40.1397" y1="188.401" x2="40.1397" y2="186.25" gradientUnits="userSpaceOnUse">
<stop stop-color="#0083FE"/>
<stop offset="1" stop-color="#091CD0"/>
</linearGradient>
<linearGradient id="paint20_linear" x1="40.1397" y1="198.651" x2="40.1397" y2="196.5" gradientUnits="userSpaceOnUse">
<stop stop-color="#0083FE"/>
<stop offset="1" stop-color="#091CD0"/>
</linearGradient>
<linearGradient id="paint21_linear" x1="40.1397" y1="208.891" x2="40.1397" y2="206.74" gradientUnits="userSpaceOnUse">
<stop stop-color="#0083FE"/>
<stop offset="1" stop-color="#091CD0"/>
</linearGradient>
<linearGradient id="paint22_linear" x1="40.1397" y1="219.141" x2="40.1397" y2="216.99" gradientUnits="userSpaceOnUse">
<stop stop-color="#0083FE"/>
<stop offset="1" stop-color="#091CD0"/>
</linearGradient>
<linearGradient id="paint23_linear" x1="40.1397" y1="229.391" x2="40.1397" y2="227.24" gradientUnits="userSpaceOnUse">
<stop stop-color="#0083FE"/>
<stop offset="1" stop-color="#091CD0"/>
</linearGradient>
<linearGradient id="paint24_linear" x1="49.7901" y1="178.151" x2="49.7901" y2="176" gradientUnits="userSpaceOnUse">
<stop stop-color="#0083FE"/>
<stop offset="1" stop-color="#091CD0"/>
</linearGradient>
<linearGradient id="paint25_linear" x1="49.7901" y1="188.401" x2="49.7901" y2="186.25" gradientUnits="userSpaceOnUse">
<stop stop-color="#0083FE"/>
<stop offset="1" stop-color="#091CD0"/>
</linearGradient>
<linearGradient id="paint26_linear" x1="49.7901" y1="198.651" x2="49.7901" y2="196.5" gradientUnits="userSpaceOnUse">
<stop stop-color="#0083FE"/>
<stop offset="1" stop-color="#091CD0"/>
</linearGradient>
<linearGradient id="paint27_linear" x1="49.7901" y1="208.891" x2="49.7901" y2="206.74" gradientUnits="userSpaceOnUse">
<stop stop-color="#0083FE"/>
<stop offset="1" stop-color="#091CD0"/>
</linearGradient>
<linearGradient id="paint28_linear" x1="49.7901" y1="219.141" x2="49.7901" y2="216.99" gradientUnits="userSpaceOnUse">
<stop stop-color="#0083FE"/>
<stop offset="1" stop-color="#091CD0"/>
</linearGradient>
<linearGradient id="paint29_linear" x1="49.7901" y1="229.391" x2="49.7901" y2="227.24" gradientUnits="userSpaceOnUse">
<stop stop-color="#0083FE"/>
<stop offset="1" stop-color="#091CD0"/>
</linearGradient>
<linearGradient id="paint30_linear" x1="59.4297" y1="178.151" x2="59.4297" y2="176" gradientUnits="userSpaceOnUse">
<stop stop-color="#0083FE"/>
<stop offset="1" stop-color="#091CD0"/>
</linearGradient>
<linearGradient id="paint31_linear" x1="59.4297" y1="188.401" x2="59.4297" y2="186.25" gradientUnits="userSpaceOnUse">
<stop stop-color="#0083FE"/>
<stop offset="1" stop-color="#091CD0"/>
</linearGradient>
<linearGradient id="paint32_linear" x1="59.4297" y1="198.651" x2="59.4297" y2="196.5" gradientUnits="userSpaceOnUse">
<stop stop-color="#0083FE"/>
<stop offset="1" stop-color="#091CD0"/>
</linearGradient>
<linearGradient id="paint33_linear" x1="59.4297" y1="208.891" x2="59.4297" y2="206.74" gradientUnits="userSpaceOnUse">
<stop stop-color="#0083FE"/>
<stop offset="1" stop-color="#091CD0"/>
</linearGradient>
<linearGradient id="paint34_linear" x1="59.4297" y1="219.141" x2="59.4297" y2="216.99" gradientUnits="userSpaceOnUse">
<stop stop-color="#0083FE"/>
<stop offset="1" stop-color="#091CD0"/>
</linearGradient>
<linearGradient id="paint35_linear" x1="59.4297" y1="229.391" x2="59.4297" y2="227.24" gradientUnits="userSpaceOnUse">
<stop stop-color="#0083FE"/>
<stop offset="1" stop-color="#091CD0"/>
</linearGradient>
<linearGradient id="paint36_linear" x1="69.0801" y1="178.151" x2="69.0801" y2="176" gradientUnits="userSpaceOnUse">
<stop stop-color="#0083FE"/>
<stop offset="1" stop-color="#091CD0"/>
</linearGradient>
<linearGradient id="paint37_linear" x1="69.0801" y1="188.401" x2="69.0801" y2="186.25" gradientUnits="userSpaceOnUse">
<stop stop-color="#0083FE"/>
<stop offset="1" stop-color="#091CD0"/>
</linearGradient>
<linearGradient id="paint38_linear" x1="69.0801" y1="198.651" x2="69.0801" y2="196.5" gradientUnits="userSpaceOnUse">
<stop stop-color="#0083FE"/>
<stop offset="1" stop-color="#091CD0"/>
</linearGradient>
<linearGradient id="paint39_linear" x1="69.0801" y1="208.891" x2="69.0801" y2="206.74" gradientUnits="userSpaceOnUse">
<stop stop-color="#0083FE"/>
<stop offset="1" stop-color="#091CD0"/>
</linearGradient>
<linearGradient id="paint40_linear" x1="69.0801" y1="219.141" x2="69.0801" y2="216.99" gradientUnits="userSpaceOnUse">
<stop stop-color="#0083FE"/>
<stop offset="1" stop-color="#091CD0"/>
</linearGradient>
<linearGradient id="paint41_linear" x1="69.0801" y1="229.391" x2="69.0801" y2="227.24" gradientUnits="userSpaceOnUse">
<stop stop-color="#0083FE"/>
<stop offset="1" stop-color="#091CD0"/>
</linearGradient>
</defs>
</svg>
