<svg width="11" height="9" viewBox="0 0 11 9" fill="none" xmlns="http://www.w3.org/2000/svg">
<path d="M0.852057 0.866699H9.8756C10.0218 0.88196 10.1612 0.943014 10.2779 1.04287C10.3946 1.14273 10.4838 1.27736 10.5353 1.43135C10.5869 1.58535 10.5987 1.75248 10.5693 1.91363C10.54 2.07478 10.4708 2.22344 10.3696 2.34259L5.85978 7.91327C5.7986 7.99365 5.72257 8.05822 5.63695 8.10248C5.55132 8.14674 5.45814 8.16966 5.36383 8.16966C5.26952 8.16966 5.17634 8.14674 5.09072 8.10248C5.00509 8.05822 4.92906 7.99365 4.86788 7.91327L0.358063 2.34259C0.256845 2.22344 0.187621 2.07478 0.158314 1.91363C0.129006 1.75248 0.140798 1.58535 0.192342 1.43135C0.243885 1.27736 0.333097 1.14273 0.449767 1.04287C0.566437 0.943014 0.705853 0.88196 0.852057 0.866699Z" fill="white"/>
</svg>
