<svg width="303" height="143" viewBox="0 0 303 143" fill="none" xmlns="http://www.w3.org/2000/svg">
<path d="M274.184 142.603H270.835C270.53 142.603 270.283 142.355 270.283 142.051C270.283 141.746 270.53 141.499 270.835 141.499H274.184C274.488 141.499 274.736 141.746 274.736 142.051C274.737 142.356 274.489 142.603 274.184 142.603ZM266.371 142.603H263.023C262.718 142.603 262.47 142.355 262.47 142.051C262.47 141.746 262.718 141.499 263.023 141.499H266.371C266.676 141.499 266.924 141.746 266.924 142.051C266.924 142.356 266.676 142.603 266.371 142.603ZM258.558 142.603H255.21C254.905 142.603 254.657 142.355 254.657 142.051C254.657 141.746 254.905 141.499 255.21 141.499H258.558C258.863 141.499 259.111 141.746 259.111 142.051C259.111 142.356 258.863 142.603 258.558 142.603ZM250.745 142.603H247.396C247.092 142.603 246.844 142.355 246.844 142.051C246.844 141.746 247.092 141.499 247.396 141.499H250.745C251.05 141.499 251.297 141.746 251.297 142.051C251.297 142.356 251.051 142.603 250.745 142.603ZM242.932 142.603H239.584C239.279 142.603 239.031 142.355 239.031 142.051C239.031 141.746 239.279 141.499 239.584 141.499H242.932C243.237 141.499 243.485 141.746 243.485 142.051C243.485 142.356 243.237 142.603 242.932 142.603ZM278.646 142.533C278.359 142.533 278.116 142.312 278.095 142.022C278.072 141.718 278.3 141.454 278.605 141.43C279.693 141.349 280.781 141.193 281.842 140.966C282.137 140.902 282.433 141.092 282.498 141.39C282.561 141.688 282.372 141.982 282.073 142.046C280.964 142.282 279.825 142.446 278.689 142.531C278.673 142.533 278.659 142.533 278.646 142.533ZM286.214 140.735C285.997 140.735 285.791 140.607 285.702 140.395C285.586 140.113 285.719 139.79 286.002 139.674C287.005 139.258 287.991 138.77 288.932 138.22C289.196 138.067 289.535 138.155 289.688 138.418C289.843 138.681 289.754 139.019 289.49 139.173C288.507 139.747 287.476 140.258 286.425 140.693C286.357 140.721 286.285 140.735 286.214 140.735ZM292.842 136.665C292.686 136.665 292.531 136.6 292.421 136.473C292.222 136.242 292.249 135.893 292.481 135.695C293.305 134.988 294.091 134.217 294.814 133.407C295.017 133.178 295.365 133.158 295.594 133.361C295.823 133.564 295.843 133.913 295.64 134.14C294.884 134.989 294.063 135.794 293.2 136.533C293.097 136.621 292.969 136.665 292.842 136.665ZM297.877 130.746C297.779 130.746 297.681 130.72 297.591 130.666C297.33 130.507 297.246 130.168 297.405 129.907C297.971 128.979 298.478 128.005 298.911 127.011C299.032 126.732 299.357 126.604 299.638 126.726C299.917 126.847 300.047 127.173 299.924 127.452C299.471 128.491 298.941 129.51 298.35 130.481C298.246 130.652 298.064 130.746 297.877 130.746ZM300.818 123.559C300.777 123.559 300.735 123.555 300.692 123.544C300.395 123.475 300.21 123.178 300.279 122.881C300.525 121.826 300.701 120.742 300.802 119.659C300.83 119.355 301.1 119.132 301.404 119.16C301.707 119.188 301.931 119.457 301.903 119.76C301.797 120.893 301.614 122.027 301.356 123.131C301.297 123.387 301.07 123.559 300.818 123.559Z" fill="white"/>
<path d="M49.08 50.0053C49.5342 50.0053 49.8983 49.7167 49.8983 49.3627V46.7921C49.8983 46.438 49.5342 46.1494 49.08 46.1494C48.6259 46.1494 48.2617 46.438 48.2617 46.7921V49.3627C48.2617 49.7167 48.6259 50.0053 49.08 50.0053Z" fill="white"/>
<path d="M49.08 43.8345C49.5342 43.8345 49.8983 43.546 49.8983 43.1919V40.6213C49.8983 40.2672 49.5342 39.9786 49.08 39.9786C48.6259 39.9786 48.2617 40.2672 48.2617 40.6213V43.1919C48.2617 43.546 48.6259 43.8345 49.08 43.8345Z" fill="white"/>
<path d="M49.08 37.6663C49.5342 37.6663 49.8983 37.3778 49.8983 37.0237V34.4531C49.8983 34.099 49.5342 33.8104 49.08 33.8104C48.6259 33.8104 48.2617 34.099 48.2617 34.4531V37.0237C48.2617 37.3778 48.6259 37.6663 49.08 37.6663Z" fill="white"/>
<path d="M49.08 31.4955C49.5342 31.4955 49.8983 31.207 49.8983 30.8529V28.2823C49.8983 27.9282 49.5342 27.6396 49.08 27.6396C48.6259 27.6396 48.2617 27.9282 48.2617 28.2823V30.8529C48.2617 31.207 48.6259 31.4955 49.08 31.4955Z" fill="white"/>
<path d="M49.1808 25.3269C49.6032 25.3269 49.9674 25.0711 49.9991 24.7318C50.0753 23.9106 50.2098 23.0745 50.4014 22.249C50.485 21.9002 50.1844 21.5662 49.7429 21.5038C49.2507 21.4287 48.8738 21.6771 48.7902 22.0238C48.5922 22.8927 48.4451 23.771 48.3614 24.6378C48.3297 24.9918 48.6684 25.3005 49.1162 25.3259C49.1427 25.3269 49.1617 25.3269 49.1808 25.3269Z" fill="white"/>
<path d="M50.7095 19.2946C51.0546 19.2946 51.3743 19.1212 51.4897 18.8506C51.8221 18.042 52.2053 17.2567 52.6341 16.5158C52.8193 16.1923 52.6341 15.8129 52.2244 15.667C51.7957 15.5137 51.3362 15.6617 51.1372 15.9883C50.6894 16.7716 50.2871 17.6002 49.9293 18.4532C49.7885 18.7893 50.0256 19.154 50.4533 19.2618C50.5433 19.284 50.6259 19.2946 50.7095 19.2946Z" fill="white"/>
<path d="M54.0272 13.716C54.3024 13.716 54.5703 13.6081 54.7238 13.4126C55.2933 12.6875 55.9062 11.9962 56.5393 11.3568C56.8145 11.0777 56.75 10.674 56.3985 10.4552C56.0407 10.2395 55.523 10.2871 55.2478 10.5683C54.5766 11.2437 53.9372 11.9719 53.3296 12.7351C53.0935 13.0363 53.2078 13.4327 53.5921 13.6208C53.7329 13.6864 53.8801 13.716 54.0272 13.716Z" fill="white"/>
<path d="M58.9252 8.91081C59.1295 8.91081 59.3413 8.85056 59.5011 8.72795C60.275 8.13075 61.0806 7.57055 61.8862 7.06108C62.2376 6.83806 62.2959 6.43323 62.0143 6.15736C61.739 5.8762 61.2214 5.83392 60.8636 6.05694C60.0135 6.59389 59.1698 7.18158 58.3504 7.80943C58.0307 8.05782 58.0243 8.46476 58.344 8.71844C58.5039 8.84527 58.7146 8.91081 58.9252 8.91081Z" fill="white"/>
<path d="M65.121 5.14474C65.2681 5.14474 65.4089 5.11515 65.5434 5.0549C66.4517 4.62788 67.397 4.23151 68.3624 3.8753C68.7647 3.72204 68.9447 3.34047 68.752 3.01915C68.5541 2.69782 68.0745 2.57204 67.6585 2.71051C66.6486 3.08679 65.6513 3.5043 64.6986 3.95035C64.3154 4.13321 64.1873 4.52746 64.417 4.83399C64.5705 5.03482 64.8457 5.14474 65.121 5.14474Z" fill="white"/>
<path d="M72.2079 2.65137C72.2842 2.65666 72.3678 2.65349 72.4525 2.64186C73.4973 2.46746 74.5454 2.33533 75.5775 2.25078C76.0295 2.21378 76.3344 1.89668 76.2709 1.54471C76.2137 1.19062 75.7903 0.932714 75.352 0.970765C74.2616 1.06167 73.1554 1.19907 72.0587 1.37982C71.6236 1.45381 71.3547 1.7931 71.4637 2.14191C71.5516 2.42412 71.8575 2.62601 72.2079 2.65137Z" fill="white"/>
<path d="M79.9778 2.14609C79.9969 2.14609 80.0096 2.14609 80.0286 2.14609C80.6871 2.11121 81.3837 2.07845 82.0294 2.09853H83.2511C83.7052 2.09853 84.0694 1.80997 84.0694 1.45588C84.0694 1.10179 83.7052 0.813232 83.2511 0.813232H82.0368C81.3011 0.815346 80.6236 0.831201 79.927 0.860797C79.4792 0.882994 79.1341 1.18952 79.1595 1.54361C79.1849 1.8829 79.5501 2.14609 79.9778 2.14609Z" fill="white"/>
<path d="M87.8359 2.09853H91.1091C91.5633 2.09853 91.9274 1.80997 91.9274 1.45588C91.9274 1.10179 91.5633 0.813232 91.1091 0.813232H87.8359C87.3817 0.813232 87.0176 1.10179 87.0176 1.45588C87.0176 1.80997 87.3817 2.09853 87.8359 2.09853Z" fill="white"/>
<path d="M95.6933 2.09853H98.9665C99.4207 2.09853 99.7848 1.80997 99.7848 1.45588C99.7848 1.10179 99.4207 0.813232 98.9665 0.813232H95.6933C95.2392 0.813232 94.875 1.10179 94.875 1.45588C94.875 1.80997 95.2392 2.09853 95.6933 2.09853Z" fill="white"/>
<path d="M103.547 2.09853H106.82C107.274 2.09853 107.638 1.80997 107.638 1.45588C107.638 1.10179 107.274 0.813232 106.82 0.813232H103.547C103.093 0.813232 102.729 1.10179 102.729 1.45588C102.729 1.80997 103.093 2.09853 103.547 2.09853Z" fill="white"/>
<path d="M88.4912 142.727H232.529C232.983 142.727 233.348 142.441 233.348 142.085C233.348 141.728 232.983 141.442 232.529 141.442H88.4912C81.5731 141.442 75.9413 137.018 75.9413 131.585V119.44C75.9413 119.083 75.5771 118.797 75.123 118.797C74.6689 118.797 74.3047 119.083 74.3047 119.44V131.585C74.3047 137.732 80.6659 142.727 88.4912 142.727Z" fill="white"/>
<path d="M301.399 94.1592C301.853 94.1592 302.217 93.8728 302.217 93.5166V13.9654C302.217 6.37413 294.352 0.192871 284.686 0.192871H243.174C242.72 0.192871 242.355 0.479314 242.355 0.835519C242.355 1.19172 242.72 1.47817 243.174 1.47817H284.686C293.452 1.47817 300.58 7.08125 300.58 13.9654V93.5166C300.58 93.8728 300.946 94.1592 301.399 94.1592Z" fill="white"/>
<path d="M11.4423 116.036C10.1794 117.132 8.56394 117.722 6.89239 117.692C4.98266 117.661 3.16607 116.812 1.91162 115.371C0.813835 114.111 0.226305 112.499 0.257004 110.828C0.289821 108.923 1.13883 107.11 2.58172 105.857C3.84359 104.762 5.45797 104.173 7.12846 104.203C8.17649 104.22 9.17794 104.473 10.1053 104.948C10.2916 105.045 10.3668 105.275 10.2694 105.46C10.1762 105.654 9.94438 105.724 9.75383 105.626C8.93234 105.203 8.04628 104.982 7.11682 104.967C5.6337 104.942 4.2014 105.459 3.08139 106.431C1.80152 107.543 1.05202 109.153 1.02344 110.844C0.994858 112.323 1.51464 113.752 2.48856 114.869C3.60116 116.147 5.21132 116.898 6.90404 116.927C8.38716 116.952 9.82158 116.434 10.9416 115.461C12.2193 114.352 12.9699 112.746 13.0006 111.052C13.0101 110.421 12.9223 109.798 12.7412 109.2C12.683 109.001 12.8016 108.793 12.9964 108.725C13.1996 108.666 13.4124 108.777 13.4749 108.982C13.677 109.651 13.7744 110.353 13.7649 111.065C13.7321 112.976 12.882 114.784 11.4423 116.036Z" fill="white"/>
<path d="M10.2163 114.63C9.3895 115.348 8.37005 115.76 7.27121 115.82C5.75633 115.905 4.3145 115.294 3.31835 114.15C2.59955 113.325 2.18669 112.307 2.12635 111.21C2.04484 109.695 2.65777 108.26 3.80425 107.264C4.63209 106.545 5.65047 106.134 6.74614 106.073C7.37178 106.039 7.98577 106.122 8.56907 106.321C8.76915 106.389 8.87501 106.604 8.80832 106.804C8.74904 107.01 8.52673 107.113 8.32347 107.044C7.83545 106.878 7.31567 106.806 6.78848 106.837C5.8622 106.887 5.00366 107.232 4.30603 107.839C3.33846 108.679 2.82398 109.894 2.89279 111.17C2.9436 112.098 3.29188 112.954 3.89741 113.65C4.73795 114.615 5.95112 115.129 7.22992 115.058C8.15939 115.01 9.01898 114.663 9.71661 114.057C10.6831 113.218 11.1976 112.003 11.1277 110.728C11.1224 110.641 11.1129 110.554 11.1045 110.471C11.0812 110.264 11.2304 110.076 11.439 110.048C11.6496 110.024 11.8391 110.173 11.8645 110.383C11.8772 110.481 11.8836 110.58 11.8899 110.683C11.9715 112.197 11.3628 113.634 10.2163 114.63Z" fill="white"/>
<path d="M274.938 11.8165H81.2546C70.2006 11.8165 61.2119 18.8761 61.2119 27.5582V73.22L6.59052 109.954L5.77539 110.654L6.70062 111.626L62.8475 73.1672V27.5572C62.8475 19.5885 71.1078 13.1018 81.2536 13.1018H274.938C281.854 13.1018 287.488 17.5253 287.488 22.9582V30.7915C287.488 31.1477 287.853 31.4342 288.307 31.4342C288.76 31.4342 289.125 31.1477 289.125 30.7915V22.9582C289.125 16.8118 282.764 11.8165 274.938 11.8165Z" fill="white"/>
</svg>
