<svg width="303" height="119" viewBox="0 0 303 119" fill="none" xmlns="http://www.w3.org/2000/svg">
<path d="M28.8184 41.6381H32.1668C32.4717 41.6381 32.7194 41.8854 32.7194 42.1898C32.7194 42.4942 32.4717 42.7415 32.1668 42.7415H28.8184C28.5135 42.7415 28.2658 42.4942 28.2658 42.1898C28.2647 41.8843 28.5125 41.6381 28.8184 41.6381ZM36.631 41.6381H39.9794C40.2842 41.6381 40.532 41.8854 40.532 42.1898C40.532 42.4942 40.2842 42.7415 39.9794 42.7415H36.631C36.3261 42.7415 36.0784 42.4942 36.0784 42.1898C36.0784 41.8843 36.3261 41.6381 36.631 41.6381ZM44.4435 41.6381H47.7919C48.0968 41.6381 48.3445 41.8854 48.3445 42.1898C48.3445 42.4942 48.0968 42.7415 47.7919 42.7415H44.4435C44.1386 42.7415 43.8909 42.4942 43.8909 42.1898C43.8909 41.8843 44.1386 41.6381 44.4435 41.6381ZM52.2572 41.6381H55.6055C55.9104 41.6381 56.1582 41.8854 56.1582 42.1898C56.1582 42.4942 55.9104 42.7415 55.6055 42.7415H52.2572C51.9523 42.7415 51.7046 42.4942 51.7046 42.1898C51.7046 41.8843 51.9512 41.6381 52.2572 41.6381ZM60.0697 41.6381H63.4181C63.723 41.6381 63.9707 41.8854 63.9707 42.1898C63.9707 42.4942 63.723 42.7415 63.4181 42.7415H60.0697C59.7648 42.7415 59.5171 42.4942 59.5171 42.1898C59.5171 41.8843 59.7648 41.6381 60.0697 41.6381ZM24.3563 41.7078C24.6432 41.7078 24.8856 41.9287 24.9068 42.2183C24.9301 42.5228 24.7015 42.787 24.3966 42.8102C23.3094 42.8916 22.2211 43.0481 21.1604 43.2743C20.865 43.3387 20.5686 43.1485 20.5041 42.8504C20.4405 42.5523 20.63 42.2585 20.9286 42.1951C22.038 41.9583 23.1771 41.7945 24.313 41.7099C24.3288 41.7078 24.3426 41.7078 24.3563 41.7078ZM16.7883 43.5057C17.0053 43.5057 17.2107 43.6336 17.2996 43.8461C17.4161 44.1273 17.2827 44.4507 17 44.567C15.9965 44.9824 15.0109 45.4707 14.0698 46.0203C13.8062 46.1736 13.4674 46.0858 13.3139 45.8227C13.1594 45.5595 13.2483 45.2212 13.5119 45.068C14.4954 44.494 15.5265 43.9825 16.5766 43.548C16.6454 43.5195 16.7174 43.5057 16.7883 43.5057ZM10.1604 47.5751C10.316 47.5751 10.4705 47.6407 10.5806 47.7675C10.7796 47.999 10.7532 48.3478 10.5213 48.5455C9.69667 49.2526 8.91118 50.0231 8.18814 50.8338C7.98489 51.0621 7.63662 51.0822 7.40796 50.8793C7.1793 50.6763 7.15917 50.3275 7.36242 50.1003C8.11827 49.2515 8.9387 48.4461 9.80147 47.7073C9.90522 47.6195 10.0333 47.5751 10.1604 47.5751ZM5.12452 53.4943C5.22298 53.4943 5.32142 53.5207 5.4114 53.5746C5.67182 53.7332 5.75546 54.0724 5.59666 54.3335C5.03136 55.2616 4.52429 56.2361 4.09132 57.2297C3.96958 57.5087 3.64457 57.6366 3.36404 57.515C3.08456 57.3935 2.95542 57.0679 3.07822 56.7889C3.5313 55.7499 4.06062 54.7309 4.65239 53.7596C4.75613 53.5883 4.93821 53.4943 5.12452 53.4943ZM2.18369 60.6818C2.22498 60.6818 2.26732 60.686 2.30966 60.6966C2.60713 60.7653 2.7924 61.0623 2.72254 61.3593C2.47694 62.4142 2.30119 63.4987 2.19956 64.5821C2.17204 64.8854 1.9021 65.1084 1.59828 65.081C1.29446 65.0524 1.07109 64.7839 1.09861 64.4806C1.20448 63.3475 1.38761 62.2134 1.64591 61.1099C1.70519 60.8541 1.93174 60.6818 2.18369 60.6818Z" fill="white"/>
<path d="M253.922 68.251C253.468 68.251 253.104 68.5396 253.104 68.8937V71.4643C253.104 71.8184 253.468 72.1069 253.922 72.1069C254.376 72.1069 254.74 71.8184 254.74 71.4643V68.8937C254.74 68.5396 254.376 68.251 253.922 68.251Z" fill="white"/>
<path d="M253.922 74.4218C253.468 74.4218 253.104 74.7104 253.104 75.0645V77.6351C253.104 77.9892 253.468 78.2777 253.922 78.2777C254.376 78.2777 254.74 77.9892 254.74 77.6351V75.0645C254.74 74.7104 254.376 74.4218 253.922 74.4218Z" fill="white"/>
<path d="M253.922 80.59C253.468 80.59 253.104 80.8786 253.104 81.2327V83.8033C253.104 84.1574 253.468 84.4459 253.922 84.4459C254.376 84.4459 254.74 84.1574 254.74 83.8033V81.2327C254.74 80.8786 254.376 80.59 253.922 80.59Z" fill="white"/>
<path d="M253.922 86.7608C253.468 86.7608 253.104 87.0494 253.104 87.4035V89.9741C253.104 90.3281 253.468 90.6167 253.922 90.6167C254.376 90.6167 254.74 90.3281 254.74 89.9741V87.4035C254.74 87.0494 254.376 86.7608 253.922 86.7608Z" fill="white"/>
<path d="M253.821 92.9294C253.399 92.9294 253.035 93.1852 253.003 93.5245C252.927 94.3458 252.792 95.1819 252.601 96.0074C252.517 96.3562 252.818 96.6902 253.259 96.7526C253.751 96.8276 254.128 96.5792 254.212 96.2325C254.41 95.3637 254.557 94.4853 254.641 93.6186C254.672 93.2645 254.334 92.9559 253.886 92.9305C253.859 92.9294 253.84 92.9294 253.821 92.9294Z" fill="white"/>
<path d="M252.292 98.9618C251.947 98.9618 251.628 99.1351 251.512 99.4057C251.18 100.214 250.797 101 250.368 101.741C250.183 102.064 250.368 102.443 250.778 102.589C251.206 102.743 251.666 102.595 251.865 102.268C252.313 101.485 252.715 100.656 253.073 99.8031C253.213 99.467 252.976 99.1023 252.549 98.9945C252.459 98.9723 252.376 98.9618 252.292 98.9618Z" fill="white"/>
<path d="M248.975 104.54C248.7 104.54 248.432 104.648 248.278 104.844C247.709 105.569 247.096 106.26 246.463 106.9C246.187 107.179 246.252 107.582 246.603 107.801C246.961 108.017 247.479 107.969 247.754 107.688C248.425 107.013 249.065 106.284 249.672 105.521C249.908 105.22 249.794 104.824 249.41 104.636C249.269 104.57 249.122 104.54 248.975 104.54Z" fill="white"/>
<path d="M244.077 109.346C243.872 109.346 243.661 109.406 243.501 109.528C242.727 110.126 241.921 110.686 241.116 111.195C240.764 111.418 240.706 111.823 240.988 112.099C241.263 112.38 241.781 112.422 242.138 112.199C242.988 111.662 243.832 111.075 244.652 110.447C244.971 110.199 244.978 109.792 244.658 109.538C244.498 109.411 244.287 109.346 244.077 109.346Z" fill="white"/>
<path d="M237.881 113.112C237.734 113.112 237.593 113.141 237.459 113.201C236.55 113.628 235.605 114.025 234.64 114.381C234.237 114.534 234.057 114.916 234.25 115.237C234.448 115.559 234.927 115.684 235.343 115.546C236.353 115.17 237.351 114.752 238.303 114.306C238.687 114.123 238.815 113.729 238.585 113.422C238.431 113.222 238.156 113.112 237.881 113.112Z" fill="white"/>
<path d="M230.794 115.605C230.718 115.6 230.634 115.603 230.549 115.614C229.505 115.789 228.457 115.921 227.424 116.006C226.972 116.043 226.668 116.36 226.731 116.712C226.788 117.066 227.212 117.324 227.65 117.286C228.74 117.195 229.847 117.057 230.943 116.877C231.378 116.803 231.647 116.463 231.538 116.114C231.45 115.832 231.144 115.63 230.794 115.605Z" fill="white"/>
<path d="M223.024 116.11C223.005 116.11 222.992 116.11 222.973 116.11C222.315 116.145 221.618 116.178 220.973 116.158H219.751C219.297 116.158 218.933 116.446 218.933 116.8C218.933 117.155 219.297 117.443 219.751 117.443H220.965C221.701 117.441 222.378 117.425 223.075 117.396C223.523 117.373 223.868 117.067 223.842 116.713C223.817 116.373 223.452 116.11 223.024 116.11Z" fill="white"/>
<path d="M215.166 116.158H211.893C211.439 116.158 211.075 116.446 211.075 116.8C211.075 117.155 211.439 117.443 211.893 117.443H215.166C215.62 117.443 215.984 117.155 215.984 116.8C215.984 116.446 215.62 116.158 215.166 116.158Z" fill="white"/>
<path d="M207.309 116.158H204.035C203.581 116.158 203.217 116.446 203.217 116.8C203.217 117.155 203.581 117.443 204.035 117.443H207.309C207.763 117.443 208.127 117.155 208.127 116.8C208.127 116.446 207.763 116.158 207.309 116.158Z" fill="white"/>
<path d="M199.455 116.158H196.182C195.728 116.158 195.364 116.446 195.364 116.8C195.364 117.155 195.728 117.443 196.182 117.443H199.455C199.909 117.443 200.273 117.155 200.273 116.8C200.273 116.446 199.909 116.158 199.455 116.158Z" fill="white"/>
<path d="M214.511 41.5134H70.4727C70.0185 41.5134 69.6544 41.7999 69.6544 42.1561C69.6544 42.5123 70.0185 42.7987 70.4727 42.7987H214.511C221.429 42.7987 227.061 47.2222 227.061 52.6551V64.801C227.061 65.1572 227.425 65.4436 227.879 65.4436C228.333 65.4436 228.697 65.1572 228.697 64.801V52.6551C228.697 46.5087 222.336 41.5134 214.511 41.5134Z" fill="white"/>
<path d="M1.60336 68.8322C1.14922 68.8322 0.785057 69.1187 0.785057 69.4749V104.291C0.785057 111.882 8.64948 118.063 18.3157 118.063H59.8282C60.2823 118.063 60.6465 117.777 60.6465 117.421C60.6465 117.065 60.2823 116.778 59.8282 116.778H18.3157C9.55036 116.778 2.42167 111.175 2.42167 104.291V69.4749C2.42167 69.1187 2.05645 68.8322 1.60336 68.8322Z" fill="white"/>
<path d="M291.56 2.22042C292.823 1.12432 294.438 0.534534 296.11 0.564129C298.019 0.595839 299.836 1.44459 301.09 2.88527C302.188 4.14519 302.776 5.75709 302.745 7.42819C302.712 9.33288 301.863 11.1467 300.42 12.3992C299.158 13.4942 297.544 14.083 295.873 14.0534C294.825 14.0365 293.824 13.7838 292.897 13.3082C292.71 13.211 292.635 12.9816 292.733 12.7966C292.826 12.6021 293.058 12.5324 293.248 12.6307C294.07 13.0535 294.956 13.2744 295.885 13.2892C297.368 13.3145 298.801 12.7977 299.921 11.8253C301.2 10.7133 301.95 9.10351 301.979 7.41234C302.007 5.93361 301.487 4.50457 300.513 3.38733C299.401 2.10944 297.791 1.35792 296.098 1.32938C294.615 1.30402 293.18 1.82194 292.06 2.79542C290.783 3.9042 290.032 5.51082 290.001 7.20411C289.992 7.83513 290.08 8.45875 290.261 9.05595C290.319 9.25572 290.2 9.46289 290.006 9.53159C289.802 9.59078 289.59 9.4798 289.527 9.27474C289.325 8.60567 289.228 7.90383 289.237 7.19142C289.27 5.28039 290.12 3.47189 291.56 2.22042Z" fill="white"/>
<path d="M292.786 3.62626C293.612 2.90856 294.632 2.49634 295.731 2.43609C297.246 2.35153 298.687 2.96247 299.684 4.10612C300.402 4.93163 300.815 5.9495 300.876 7.04665C300.957 8.56131 300.344 9.9967 299.198 10.9924C298.37 11.7111 297.351 12.1223 296.256 12.1836C295.63 12.2174 295.016 12.1339 294.433 11.9352C294.233 11.8676 294.127 11.6519 294.194 11.4522C294.253 11.246 294.475 11.1435 294.678 11.2122C295.167 11.3782 295.686 11.45 296.213 11.4194C297.14 11.3697 297.998 11.0241 298.696 10.4174C299.663 9.57707 300.178 8.3626 300.109 7.08682C300.058 6.15879 299.71 5.30263 299.105 4.60608C298.264 3.64106 297.051 3.12736 295.772 3.19818C294.843 3.2468 293.983 3.59349 293.285 4.19914C292.319 5.03838 291.804 6.25286 291.874 7.52864C291.88 7.61531 291.889 7.70198 291.898 7.78548C291.921 7.99265 291.772 8.1808 291.563 8.20828C291.352 8.23259 291.163 8.08356 291.137 7.87322C291.125 7.77492 291.118 7.67661 291.112 7.57303C291.03 6.05943 291.639 4.62193 292.786 3.62626Z" fill="white"/>
<path d="M28.0645 106.44H221.747C232.801 106.44 241.79 99.3802 241.79 90.6981V45.0363L296.411 8.30228L297.227 7.60255L296.301 6.63013L240.154 45.0892V90.6992C240.154 98.6678 231.894 105.155 221.748 105.155H28.0645C21.1475 105.155 15.5136 100.731 15.5136 95.2981V87.4648C15.5136 87.1086 15.1494 86.8222 14.6953 86.8222C14.2422 86.8222 13.877 87.1086 13.877 87.4648V95.2981C13.877 101.445 20.2381 106.44 28.0645 106.44Z" fill="white"/>
</svg>
