<svg width="59" height="59" viewBox="0 0 59 59" fill="none" xmlns="http://www.w3.org/2000/svg">
<g filter="url(#filter0_d)">
<path d="M38.2699 37.069H20.8184V19.6175C20.8184 10.0054 28.6577 2.16602 38.2699 2.16602C47.882 2.16602 55.7213 10.0054 55.7213 19.6175C55.7213 29.2296 47.9214 37.069 38.2699 37.069ZM27.1214 30.766H38.2699C44.4153 30.766 49.4183 25.7629 49.4183 19.6175C49.4183 13.4721 44.4153 8.46904 38.2699 8.46904C32.1244 8.46904 27.1214 13.4721 27.1214 19.6175V30.766Z" fill="white"/>
<path d="M15.1906 54.7191C8.61181 54.7191 3.21484 49.3615 3.21484 42.7433C3.21484 36.1645 8.57241 30.7676 15.1906 30.7676H27.1663V42.7433C27.1269 49.3221 21.7694 54.7191 15.1906 54.7191ZM15.1906 37.0706C12.0785 37.0706 9.51786 39.6312 9.51786 42.7433C9.51786 45.8554 12.0785 48.416 15.1906 48.416C18.3027 48.416 20.8633 45.8554 20.8633 42.7433V37.0706H15.1906Z" fill="white"/>
<path d="M27.1214 37.0688H20.8184V42.7416H27.1214V37.0688Z" fill="white"/>
<path d="M27.1214 25.0942H20.8184V30.7669H27.1214V25.0942Z" fill="white"/>
</g>
<defs>
<filter id="filter0_d" x="0.214844" y="0.166016" width="58.5065" height="58.553" filterUnits="userSpaceOnUse" color-interpolation-filters="sRGB">
<feFlood flood-opacity="0" result="BackgroundImageFix"/>
<feColorMatrix in="SourceAlpha" type="matrix" values="0 0 0 0 0 0 0 0 0 0 0 0 0 0 0 0 0 0 127 0"/>
<feOffset dy="1"/>
<feGaussianBlur stdDeviation="1.5"/>
<feColorMatrix type="matrix" values="0 0 0 0 0 0 0 0 0 0 0 0 0 0 0 0 0 0 0.5 0"/>
<feBlend mode="normal" in2="BackgroundImageFix" result="effect1_dropShadow"/>
<feBlend mode="normal" in="SourceGraphic" in2="effect1_dropShadow" result="shape"/>
</filter>
</defs>
</svg>
