<svg width="118" height="118" viewBox="0 0 118 118" fill="none" xmlns="http://www.w3.org/2000/svg">
<g filter="url(#filter0_d)">
<rect x="9" y="8" width="100" height="100" rx="50" fill="url(#paint0_linear)"/>
</g>
<path d="M73.9819 73.184V59.9552H72.512V72.4491H67.3675C67.1726 72.4491 66.9856 72.5265 66.8478 72.6644C66.71 72.8022 66.6326 72.9891 66.6326 73.184V78.3286H42.3797V74.6539H44.5845V73.184H42.3797V68.0395H44.5845V66.5696H42.3797V61.4251H44.5845V59.9552H42.3797V54.8107H44.5845V53.3408H42.3797V48.1963H44.5845V46.7264H42.3797V43.0518H40.9099V46.7264H38.7051V48.1963H40.9099V53.3408H38.7051V54.8107H40.9099V59.9552H38.7051V61.4251H40.9099V66.5696H38.7051V68.0395H40.9099V73.184H38.7051V74.6539H40.9099V79.0635C40.9099 79.2584 40.9873 79.4454 41.1251 79.5832C41.263 79.721 41.4499 79.7984 41.6448 79.7984H67.3675C67.464 79.7984 67.5596 79.7794 67.6487 79.7425C67.7379 79.7056 67.8189 79.6514 67.8872 79.5832L73.7666 73.7037C73.8349 73.6355 73.889 73.5545 73.926 73.4653C73.9629 73.3761 73.9819 73.2805 73.9819 73.184ZM71.4726 73.919L68.1024 77.2892V73.919H71.4726Z" fill="white"/>
<path d="M44.5845 40.1117H42.3797V37.172H72.512V43.0515H73.9819V37.172H75.4517V41.5816H76.9216V37.172H78.3915V41.5816H79.8613V36.4371C79.8613 36.2422 79.7839 36.0552 79.6461 35.9174C79.5083 35.7796 79.3213 35.7021 79.1264 35.7021H41.6448C41.4499 35.7021 41.263 35.7796 41.1251 35.9174C40.9873 36.0552 40.9099 36.2422 40.9099 36.4371V40.1117H38.7051V41.5816H44.5845V40.1117Z" fill="white"/>
<path d="M54.1387 44.6553H67.3675V46.1251H54.1387V44.6553Z" fill="white"/>
<path d="M54.1387 52.1377H64.4277V53.6076H54.1387V52.1377Z" fill="white"/>
<path d="M79.3943 41.0469C78.9582 41.0469 78.5319 41.1762 78.1693 41.4185C77.8068 41.6607 77.5242 42.0051 77.3573 42.4079C77.1904 42.8108 77.1467 43.2541 77.2318 43.6818C77.3169 44.1095 77.5269 44.5024 77.8352 44.8107C78.1436 45.1191 78.5364 45.329 78.9641 45.4141C79.3918 45.4992 79.8351 45.4555 80.238 45.2886C80.6409 45.1218 80.9852 44.8392 81.2275 44.4766C81.4697 44.114 81.5991 43.6877 81.5991 43.2517C81.5984 42.6671 81.3659 42.1067 80.9526 41.6934C80.5392 41.28 79.9788 41.0475 79.3943 41.0469ZM79.3943 43.9866C79.2489 43.9866 79.1068 43.9435 78.9859 43.8628C78.8651 43.782 78.7709 43.6672 78.7153 43.5329C78.6596 43.3986 78.6451 43.2509 78.6734 43.1083C78.7018 42.9657 78.7718 42.8348 78.8746 42.732C78.9774 42.6292 79.1083 42.5592 79.2509 42.5309C79.3934 42.5025 79.5412 42.5171 79.6755 42.5727C79.8098 42.6283 79.9246 42.7225 80.0053 42.8434C80.0861 42.9642 80.1292 43.1063 80.1292 43.2517C80.129 43.4465 80.0515 43.6333 79.9137 43.7711C79.7759 43.9089 79.5891 43.9864 79.3943 43.9866Z" fill="white"/>
<path d="M72.9802 42.6509C72.5441 42.6509 72.1178 42.7802 71.7553 43.0225C71.3927 43.2647 71.1101 43.6091 70.9432 44.0119C70.7763 44.4148 70.7327 44.8581 70.8178 45.2858C70.9028 45.7135 71.1128 46.1064 71.4212 46.4147C71.7295 46.7231 72.1224 46.933 72.5501 47.0181C72.9777 47.1032 73.4211 47.0595 73.8239 46.8927C74.2268 46.7258 74.5711 46.4432 74.8134 46.0806C75.0557 45.718 75.185 45.2917 75.185 44.8557C75.1843 44.2711 74.9518 43.7107 74.5385 43.2974C74.1252 42.884 73.5647 42.6515 72.9802 42.6509ZM72.9802 45.5906C72.8348 45.5906 72.6927 45.5475 72.5719 45.4668C72.451 45.386 72.3568 45.2712 72.3012 45.1369C72.2456 45.0026 72.231 44.8549 72.2594 44.7123C72.2877 44.5697 72.3577 44.4388 72.4605 44.336C72.5633 44.2332 72.6942 44.1632 72.8368 44.1349C72.9794 44.1065 73.1271 44.1211 73.2614 44.1767C73.3957 44.2323 73.5105 44.3265 73.5913 44.4474C73.672 44.5682 73.7151 44.7103 73.7151 44.8557C73.7149 45.0505 73.6374 45.2373 73.4996 45.3751C73.3618 45.5129 73.175 45.5904 72.9802 45.5906Z" fill="white"/>
<path d="M52.1476 41.9307L50.6777 43.4005C50.2083 43.1762 49.6746 43.1252 49.1711 43.2563C48.6676 43.3874 48.2267 43.6924 47.9263 44.1172C47.6259 44.542 47.4853 45.0593 47.5294 45.5777C47.5736 46.0961 47.7996 46.5823 48.1675 46.9502C48.5354 47.3181 49.0215 47.5441 49.5399 47.5882C50.0583 47.6324 50.5757 47.4918 51.0005 47.1914C51.4253 46.891 51.7302 46.45 51.8614 45.9465C51.9925 45.443 51.9414 44.9094 51.7171 44.4399L53.187 42.97L52.1476 41.9307ZM48.9926 45.3901C48.9926 45.2936 49.0116 45.198 49.0485 45.1089C49.0855 45.0197 49.1398 44.9388 49.2082 44.8707L50.247 45.9095C50.1442 46.0122 50.0133 46.0821 49.8708 46.1104C49.7283 46.1387 49.5806 46.1242 49.4464 46.0686C49.3122 46.013 49.1974 45.9189 49.1167 45.7981C49.0359 45.6774 48.9927 45.5354 48.9926 45.3901Z" fill="white"/>
<path d="M52.1476 49.4131L50.6777 50.883C50.2083 50.6587 49.6746 50.6076 49.1711 50.7387C48.6676 50.8699 48.2267 51.1748 47.9263 51.5996C47.6259 52.0244 47.4853 52.5417 47.5294 53.0601C47.5736 53.5786 47.7996 54.0647 48.1675 54.4326C48.5354 54.8005 49.0215 55.0265 49.5399 55.0706C50.0583 55.1148 50.5757 54.9742 51.0005 54.6738C51.4253 54.3734 51.7302 53.9325 51.8614 53.429C51.9925 52.9255 51.9414 52.3918 51.7171 51.9223L53.187 50.4525L52.1476 49.4131ZM48.9926 52.8725C48.9926 52.776 49.0116 52.6804 49.0485 52.5913C49.0855 52.5021 49.1398 52.4212 49.2082 52.3531L50.247 53.3919C50.1442 53.4946 50.0133 53.5645 49.8708 53.5928C49.7283 53.6211 49.5806 53.6066 49.4464 53.551C49.3122 53.4954 49.1974 53.4013 49.1167 53.2805C49.0359 53.1598 48.9927 53.0178 48.9926 52.8725Z" fill="white"/>
<path d="M80.186 47.5871C79.8164 47.5861 79.4502 47.6584 79.1087 47.7998C78.7672 47.9413 78.4571 48.149 78.1964 48.4111L77.8551 48.7525L77.2092 48.1067C76.7958 47.6932 76.235 47.4609 75.6503 47.4609C75.0655 47.4609 74.5048 47.6932 74.0913 48.1067L69.2511 52.9468L70.2905 53.9862L75.1306 49.1461C75.2685 49.0085 75.4554 48.9312 75.6503 48.9312C75.8451 48.9312 76.032 49.0085 76.17 49.1461L76.8157 49.7919L62.6367 63.9708C62.534 64.0733 62.4641 64.2041 62.4358 64.3464V64.3489V64.3512L61.7018 68.021C61.678 68.1397 61.684 68.2624 61.719 68.3782C61.7541 68.494 61.8172 68.5993 61.9028 68.6849C61.9883 68.7705 62.0937 68.8336 62.2095 68.8686C62.3253 68.9037 62.448 68.9096 62.5666 68.8859L66.2413 68.1509C66.3836 68.1225 66.5142 68.0525 66.6168 67.9499L82.1755 52.3902C82.569 51.9967 82.8369 51.4954 82.9455 50.9496C83.0541 50.4038 82.9984 49.8381 82.7854 49.324C82.5725 48.8098 82.2119 48.3704 81.7492 48.0612C81.2865 47.7521 80.7425 47.5871 80.186 47.5871ZM77.8551 50.8312L79.7554 52.7316L75.2828 57.2042L73.3824 55.3039L77.8551 50.8312ZM63.6077 65.9812L64.6054 66.9789L63.3585 67.2281L63.6077 65.9812ZM66.0961 66.391L64.1957 64.4905L72.3431 56.3432L74.2434 58.2436L66.0961 66.391ZM81.1362 51.3508L80.7948 51.6922L78.8944 49.7919L79.2357 49.4505C79.4884 49.2017 79.8292 49.0628 80.1838 49.0642C80.5384 49.0655 80.8781 49.207 81.1288 49.4577C81.3796 49.7085 81.5211 50.0482 81.5224 50.4028C81.5238 50.7574 81.385 51.0982 81.1362 51.3508Z" fill="white"/>
<defs>
<filter id="filter0_d" x="0" y="0" width="118" height="118" filterUnits="userSpaceOnUse" color-interpolation-filters="sRGB">
<feFlood flood-opacity="0" result="BackgroundImageFix"/>
<feColorMatrix in="SourceAlpha" type="matrix" values="0 0 0 0 0 0 0 0 0 0 0 0 0 0 0 0 0 0 127 0"/>
<feOffset dy="1"/>
<feGaussianBlur stdDeviation="4.5"/>
<feColorMatrix type="matrix" values="0 0 0 0 0.4 0 0 0 0 0.4 0 0 0 0 0.4 0 0 0 0.11 0"/>
<feBlend mode="normal" in2="BackgroundImageFix" result="effect1_dropShadow"/>
<feBlend mode="normal" in="SourceGraphic" in2="effect1_dropShadow" result="shape"/>
</filter>
<linearGradient id="paint0_linear" x1="59" y1="96.8792" x2="59" y2="8" gradientUnits="userSpaceOnUse">
<stop stop-color="#0083FE"/>
<stop offset="1" stop-color="#091CD0"/>
</linearGradient>
</defs>
</svg>
