<svg width="118" height="118" viewBox="0 0 118 118" fill="none" xmlns="http://www.w3.org/2000/svg">
<g filter="url(#filter0_d)">
<rect x="9" y="8" width="100" height="100" rx="50" fill="url(#paint0_linear)"/>
</g>
<path d="M57.5389 53.6817C57.6882 53.8311 57.8908 53.915 58.1021 53.9151H58.1323C58.242 53.9109 58.3496 53.8842 58.4485 53.8365C58.5473 53.7888 58.6352 53.7212 58.7067 53.6379L63.4863 48.0616C63.6144 47.9002 63.6749 47.6954 63.6551 47.4902C63.6354 47.2851 63.5369 47.0956 63.3803 46.9616C63.2238 46.8275 63.0214 46.7594 62.8157 46.7714C62.61 46.7834 62.4169 46.8747 62.2771 47.026L58.0551 51.9491L56.2738 50.1679C56.1236 50.0227 55.9224 49.9425 55.7135 49.9443C55.5046 49.9461 55.3048 50.0299 55.1571 50.1776C55.0095 50.3253 54.9257 50.5251 54.9239 50.7339C54.922 50.9428 55.0023 51.144 55.1474 51.2943L57.5389 53.6817Z" fill="white"/>
<path d="M58.8982 37.983C59.1094 37.983 59.3121 37.8991 59.4615 37.7497C59.6108 37.6003 59.6948 37.3977 59.6948 37.1864V34.7966C59.6948 34.5853 59.6108 34.3827 59.4615 34.2333C59.3121 34.0839 59.1094 34 58.8982 34C58.6869 34 58.4843 34.0839 58.3349 34.2333C58.1855 34.3827 58.1016 34.5853 58.1016 34.7966V37.1864C58.1016 37.3977 58.1855 37.6003 58.3349 37.7497C58.4843 37.8991 58.6869 37.983 58.8982 37.983Z" fill="white"/>
<path d="M44.5583 49.1357H46.9481C47.1594 49.1357 47.362 49.0518 47.5114 48.9024C47.6608 48.753 47.7448 48.5504 47.7448 48.3391C47.7448 48.1278 47.6608 47.9252 47.5114 47.7758C47.362 47.6264 47.1594 47.5425 46.9481 47.5425H44.5583C44.3471 47.5425 44.1444 47.6264 43.995 47.7758C43.8456 47.9252 43.7617 48.1278 43.7617 48.3391C43.7617 48.5504 43.8456 48.753 43.995 48.9024C44.1444 49.0518 44.3471 49.1357 44.5583 49.1357Z" fill="white"/>
<path d="M70.8454 49.1357H73.2353C73.4465 49.1357 73.6491 49.0518 73.7985 48.9024C73.9479 48.753 74.0319 48.5504 74.0319 48.3391C74.0319 48.1278 73.9479 47.9252 73.7985 47.7758C73.6491 47.6264 73.4465 47.5425 73.2353 47.5425H70.8454C70.6342 47.5425 70.4315 47.6264 70.2821 47.7758C70.1328 47.9252 70.0488 48.1278 70.0488 48.3391C70.0488 48.5504 70.1328 48.753 70.2821 48.9024C70.4315 49.0518 70.6342 49.1357 70.8454 49.1357Z" fill="white"/>
<path d="M49.5727 40.936C49.723 41.0811 49.9242 41.1614 50.1331 41.1595C50.3419 41.1577 50.5417 41.0739 50.6894 40.9262C50.8371 40.7786 50.9209 40.5788 50.9227 40.3699C50.9245 40.161 50.8442 39.9598 50.6991 39.8096L49.1059 38.2163C49.0324 38.1403 48.9445 38.0796 48.8473 38.0378C48.7502 37.9961 48.6456 37.9741 48.5399 37.9732C48.4341 37.9723 48.3292 37.9924 48.2313 38.0325C48.1334 38.0725 48.0444 38.1317 47.9696 38.2065C47.8949 38.2813 47.8357 38.3702 47.7956 38.4681C47.7556 38.566 47.7354 38.6709 47.7364 38.7767C47.7373 38.8824 47.7593 38.987 47.801 39.0842C47.8428 39.1814 47.9034 39.2693 47.9795 39.3427L49.5727 40.936Z" fill="white"/>
<path d="M67.6597 41.1694C67.871 41.1693 68.0736 41.0854 68.2229 40.936L69.8161 39.3427C69.8922 39.2693 69.9529 39.1814 69.9947 39.0842C70.0364 38.987 70.0584 38.8824 70.0593 38.7767C70.0602 38.6709 70.0401 38.566 70 38.4681C69.96 38.3702 69.9008 38.2813 69.826 38.2065C69.7512 38.1317 69.6623 38.0725 69.5644 38.0325C69.4665 37.9924 69.3616 37.9723 69.2558 37.9732C69.15 37.9741 69.0455 37.9961 68.9483 38.0378C68.8511 38.0796 68.7632 38.1403 68.6897 38.2163L67.0965 39.8096C66.9851 39.921 66.9093 40.0629 66.8786 40.2174C66.8479 40.3719 66.8636 40.532 66.9239 40.6776C66.9842 40.8231 67.0863 40.9475 67.2172 41.0351C67.3482 41.1226 67.5022 41.1693 67.6597 41.1694Z" fill="white"/>
<path d="M58.8994 39.5762C56.8776 39.5778 54.9084 40.2203 53.2748 41.4115C51.6412 42.6027 50.4274 44.2811 49.8077 46.2056C49.1881 48.1301 49.1945 50.2015 49.8262 52.122C50.4578 54.0426 51.6822 55.7134 53.3232 56.8944V59.4913C53.3237 59.6063 53.3489 59.7198 53.397 59.8242C53.4451 59.9287 53.515 60.0216 53.602 60.0968C53.7458 60.221 53.9297 60.2889 54.1198 60.2879C54.1624 60.2893 54.2051 60.2866 54.2472 60.28L63.8065 58.6868C63.9936 58.6564 64.1638 58.5604 64.2865 58.4158C64.4091 58.2712 64.4762 58.0877 64.4757 57.8981V56.8944C66.1167 55.7134 67.341 54.0426 67.9726 52.122C68.6043 50.2015 68.6108 48.1301 67.9911 46.2056C67.3715 44.2811 66.1576 42.6027 64.524 41.4115C62.8904 40.2203 60.9212 39.5778 58.8994 39.5762ZM63.2409 55.811C63.1313 55.8832 63.0413 55.9813 62.9787 56.0966C62.9162 56.212 62.8831 56.341 62.8824 56.4722V57.221L54.9164 58.5513V56.4722C54.9157 56.341 54.8826 56.212 54.8201 56.0966C54.7575 55.9813 54.6675 55.8832 54.5579 55.811C53.1178 54.8749 52.0188 53.4984 51.4248 51.8868C50.8308 50.2751 50.7737 48.5146 51.2619 46.8678C51.7501 45.2211 52.7574 43.7762 54.1338 42.7486C55.5102 41.7211 57.1818 41.1659 58.8994 41.1659C60.617 41.1659 62.2887 41.7211 63.665 42.7486C65.0414 43.7762 66.0488 45.2211 66.5369 46.8678C67.0251 48.5146 66.968 50.2751 66.374 51.8868C65.78 53.4984 64.681 54.8749 63.2409 55.811Z" fill="white"/>
<path d="M64.4674 60.9569C64.4845 61.0605 64.4809 61.1665 64.4568 61.2687C64.4328 61.3709 64.3888 61.4673 64.3273 61.5524C64.2659 61.6376 64.1882 61.7097 64.0988 61.7647C64.0093 61.8198 63.9099 61.8566 63.8062 61.873L54.247 63.4662C54.2048 63.4728 54.1621 63.4755 54.1195 63.4742C53.9165 63.4783 53.7196 63.4048 53.569 63.2686C53.4184 63.1325 53.3255 62.944 53.3092 62.7416C53.2929 62.5392 53.3545 62.3383 53.4815 62.1798C53.6084 62.0213 53.791 61.9173 53.992 61.8889L63.5513 60.2957C63.6549 60.2787 63.7609 60.2823 63.8631 60.3063C63.9653 60.3304 64.0617 60.3744 64.1469 60.4358C64.232 60.4973 64.3041 60.5749 64.3592 60.6644C64.4142 60.7538 64.451 60.8532 64.4674 60.9569Z" fill="white"/>
<path d="M81.9998 68.2541H62.7378C62.8306 67.9986 62.8791 67.7292 62.8812 67.4575V65.211L63.8053 65.0597C63.9089 65.0429 64.0081 65.006 64.0974 64.9509C64.1867 64.8958 64.2642 64.8236 64.3256 64.7386C64.387 64.6535 64.431 64.5572 64.4552 64.4551C64.4794 64.353 64.4832 64.2472 64.4665 64.1436C64.4497 64.04 64.4128 63.9408 64.3577 63.8515C64.3026 63.7622 64.2304 63.6847 64.1454 63.6233C64.0603 63.5619 63.964 63.5178 63.8619 63.4937C63.7598 63.4695 63.6539 63.4657 63.5504 63.4824L53.9911 65.0756C53.7901 65.104 53.6074 65.208 53.4805 65.3665C53.3536 65.5249 53.292 65.7259 53.3083 65.9283C53.3245 66.1306 53.4175 66.3192 53.5681 66.4553C53.7187 66.5915 53.9156 66.665 54.1186 66.6609C54.1612 66.6622 54.2039 66.6595 54.246 66.6529L54.9152 66.5414V67.4575C54.9173 67.7292 54.9658 67.9986 55.0585 68.2541H41.3729C39.6827 68.2541 38.0617 68.9255 36.8666 70.1206C35.6714 71.3158 35 72.9367 35 74.6269C35 76.3171 35.6714 77.9381 36.8666 79.1332C38.0617 80.3284 39.6827 80.9998 41.3729 80.9998H81.9998C82.2111 80.9998 82.4137 80.9158 82.5631 80.7665C82.7125 80.6171 82.7964 80.4144 82.7964 80.2032V69.0507C82.7964 68.8394 82.7125 68.6368 82.5631 68.4874C82.4137 68.338 82.2111 68.2541 81.9998 68.2541ZM56.5084 66.2705L61.288 65.4739V67.4575C61.288 67.6687 61.2041 67.8714 61.0547 68.0208C60.9053 68.1701 60.7027 68.2541 60.4914 68.2541H57.305C57.0937 68.2541 56.8911 68.1701 56.7417 68.0208C56.5923 67.8714 56.5084 67.6687 56.5084 67.4575V66.2705ZM81.2032 73.8303H40.5762C40.365 73.8303 40.1624 73.9142 40.013 74.0636C39.8636 74.213 39.7796 74.4157 39.7796 74.6269C39.7796 74.8382 39.8636 75.0408 40.013 75.1902C40.1624 75.3396 40.365 75.4235 40.5762 75.4235H81.2032V79.4066H41.3729C40.1052 79.4066 38.8895 78.903 37.9931 78.0066C37.0968 77.1103 36.5932 75.8946 36.5932 74.6269C36.5932 73.3593 37.0968 72.1436 37.9931 71.2472C38.8895 70.3509 40.1052 69.8473 41.3729 69.8473H81.2032V73.8303Z" fill="white"/>
<defs>
<filter id="filter0_d" x="0" y="0" width="118" height="118" filterUnits="userSpaceOnUse" color-interpolation-filters="sRGB">
<feFlood flood-opacity="0" result="BackgroundImageFix"/>
<feColorMatrix in="SourceAlpha" type="matrix" values="0 0 0 0 0 0 0 0 0 0 0 0 0 0 0 0 0 0 127 0"/>
<feOffset dy="1"/>
<feGaussianBlur stdDeviation="4.5"/>
<feColorMatrix type="matrix" values="0 0 0 0 0.4 0 0 0 0 0.4 0 0 0 0 0.4 0 0 0 0.11 0"/>
<feBlend mode="normal" in2="BackgroundImageFix" result="effect1_dropShadow"/>
<feBlend mode="normal" in="SourceGraphic" in2="effect1_dropShadow" result="shape"/>
</filter>
<linearGradient id="paint0_linear" x1="59" y1="96.8792" x2="59" y2="8" gradientUnits="userSpaceOnUse">
<stop stop-color="#0083FE"/>
<stop offset="1" stop-color="#091CD0"/>
</linearGradient>
</defs>
</svg>
