<svg width="118" height="118" viewBox="0 0 118 118" fill="none" xmlns="http://www.w3.org/2000/svg">
<g filter="url(#filter0_d)">
<rect x="9" y="7.99976" width="100" height="100" rx="50" fill="url(#paint0_linear)"/>
</g>
<path d="M58.495 39.9976C54.9427 39.9976 52.0527 42.8875 52.0527 46.4398C52.0527 49.9921 54.9427 52.8821 58.495 52.8821C62.0473 52.8821 64.9372 49.9921 64.9372 46.4398C64.9372 42.8875 62.0473 39.9976 58.495 39.9976ZM58.495 50.6909C56.151 50.6909 54.2439 48.7838 54.2439 46.4398C54.2439 44.0957 56.151 42.1887 58.495 42.1887C60.8391 42.1887 62.746 44.0958 62.746 46.4398C62.746 48.7838 60.8391 50.6909 58.495 50.6909Z" fill="white"/>
<path d="M43.0714 46.5544C40.1522 46.5544 37.7773 48.9293 37.7773 51.8485C37.7773 54.7677 40.1522 57.1426 43.0714 57.1426C45.9906 57.1426 48.3655 54.7677 48.3655 51.8485C48.3655 48.9293 45.9905 46.5544 43.0714 46.5544ZM43.0714 54.9513C41.3605 54.9513 39.9686 53.5594 39.9686 51.8485C39.9686 50.1376 41.3605 48.7457 43.0714 48.7457C44.7823 48.7457 46.1742 50.1377 46.1742 51.8485C46.1742 53.5593 44.7823 54.9513 43.0714 54.9513Z" fill="white"/>
<path d="M73.9347 46.5544C71.0156 46.5544 68.6406 48.9293 68.6406 51.8485C68.6406 54.7677 71.0156 57.1426 73.9347 57.1426C76.8539 57.1426 79.2287 54.7677 79.2287 51.8485C79.2287 48.9293 76.8538 46.5544 73.9347 46.5544ZM73.9347 54.9513C72.2238 54.9513 70.8319 53.5594 70.8319 51.8485C70.8319 50.1376 72.2238 48.7457 73.9347 48.7457C75.6455 48.7457 77.0374 50.1377 77.0374 51.8485C77.0374 53.5593 75.6455 54.9513 73.9347 54.9513Z" fill="white"/>
<path d="M84.9044 74.8115H81.8238V66.7448C81.8238 62.3943 78.2843 58.8547 73.9336 58.8547C71.5142 58.8547 69.3469 59.9502 67.8985 61.6701C66.7683 57.5373 62.9806 54.4905 58.4942 54.4905C54.0116 54.4905 50.2274 57.5392 49.1 61.6742C47.6537 59.9519 45.4879 58.8547 43.0702 58.8547C38.7197 58.8547 35.18 62.3943 35.18 66.7448V74.8115H32.0956C31.4905 74.8115 31 75.3019 31 75.907C31 76.5122 31.4905 77.0026 32.0956 77.0026H84.9044C85.5094 77.0026 86 76.5122 86 75.907C86 75.3019 85.5094 74.8115 84.9044 74.8115ZM48.7575 74.8115H37.3712V66.7448C37.3712 63.6025 39.9277 61.046 43.0701 61.046C46.2061 61.046 48.7574 63.6025 48.7574 66.7448V74.8115H48.7575ZM66.0437 74.8115H50.9487V64.2389C50.9487 60.0718 54.3335 56.6817 58.4942 56.6817C62.6613 56.6817 66.0514 60.0718 66.0514 64.2389L66.0437 74.8115ZM79.6325 74.8113H68.2426V66.447C68.398 63.4425 70.8913 61.0459 73.9337 61.0459C77.076 61.0459 79.6325 63.6024 79.6325 66.7447V74.8113Z" fill="white"/>
<defs>
<filter id="filter0_d" x="0" y="-0.000244141" width="118" height="118" filterUnits="userSpaceOnUse" color-interpolation-filters="sRGB">
<feFlood flood-opacity="0" result="BackgroundImageFix"/>
<feColorMatrix in="SourceAlpha" type="matrix" values="0 0 0 0 0 0 0 0 0 0 0 0 0 0 0 0 0 0 127 0"/>
<feOffset dy="1"/>
<feGaussianBlur stdDeviation="4.5"/>
<feColorMatrix type="matrix" values="0 0 0 0 0.4 0 0 0 0 0.4 0 0 0 0 0.4 0 0 0 0.11 0"/>
<feBlend mode="normal" in2="BackgroundImageFix" result="effect1_dropShadow"/>
<feBlend mode="normal" in="SourceGraphic" in2="effect1_dropShadow" result="shape"/>
</filter>
<linearGradient id="paint0_linear" x1="59" y1="96.879" x2="59" y2="7.99975" gradientUnits="userSpaceOnUse">
<stop stop-color="#0083FE"/>
<stop offset="1" stop-color="#091CD0"/>
</linearGradient>
</defs>
</svg>
