<svg width="1437" height="678" viewBox="0 0 1437 678" fill="none" xmlns="http://www.w3.org/2000/svg">
<path d="M787.5 181L892.158 58H1162" stroke="url(#paint0_linear)" stroke-dasharray="3 3"/>
<path d="M866 303L957.158 198H1227" stroke="url(#paint1_linear)" stroke-dasharray="3 3"/>
<path d="M866 373L957.158 478H1227" stroke="url(#paint2_linear)" stroke-dasharray="3 3"/>
<path d="M778 485L892.158 623H1162" stroke="url(#paint3_linear)" stroke-dasharray="3 3"/>
<g filter="url(#filter0_d)">
<rect x="1180" y="568" width="100" height="100" rx="50" fill="url(#paint4_linear)"/>
</g>
<path d="M1229.5 599.998C1225.94 599.998 1223.05 602.888 1223.05 606.44C1223.05 609.992 1225.94 612.882 1229.5 612.882C1233.05 612.882 1235.94 609.992 1235.94 606.44C1235.94 602.888 1233.05 599.998 1229.5 599.998ZM1229.5 610.691C1227.15 610.691 1225.24 608.784 1225.24 606.44C1225.24 604.096 1227.15 602.189 1229.5 602.189C1231.84 602.189 1233.75 604.096 1233.75 606.44C1233.75 608.784 1231.84 610.691 1229.5 610.691Z" fill="white"/>
<path d="M1214.07 606.554C1211.15 606.554 1208.78 608.929 1208.78 611.849C1208.78 614.768 1211.15 617.143 1214.07 617.143C1216.99 617.143 1219.37 614.768 1219.37 611.849C1219.37 608.929 1216.99 606.554 1214.07 606.554ZM1214.07 614.951C1212.36 614.951 1210.97 613.559 1210.97 611.849C1210.97 610.138 1212.36 608.746 1214.07 608.746C1215.78 608.746 1217.17 610.138 1217.17 611.849C1217.17 613.559 1215.78 614.951 1214.07 614.951Z" fill="white"/>
<path d="M1244.93 606.554C1242.02 606.554 1239.64 608.929 1239.64 611.849C1239.64 614.768 1242.02 617.143 1244.93 617.143C1247.85 617.143 1250.23 614.768 1250.23 611.849C1250.23 608.929 1247.85 606.554 1244.93 606.554ZM1244.93 614.951C1243.22 614.951 1241.83 613.559 1241.83 611.849C1241.83 610.138 1243.22 608.746 1244.93 608.746C1246.65 608.746 1248.04 610.138 1248.04 611.849C1248.04 613.559 1246.65 614.951 1244.93 614.951Z" fill="white"/>
<path d="M1255.9 634.811H1252.82V626.745C1252.82 622.394 1249.28 618.855 1244.93 618.855C1242.51 618.855 1240.35 619.95 1238.9 621.67C1237.77 617.537 1233.98 614.49 1229.49 614.49C1225.01 614.49 1221.23 617.539 1220.1 621.674C1218.65 619.952 1216.49 618.855 1214.07 618.855C1209.72 618.855 1206.18 622.394 1206.18 626.745V634.811H1203.1C1202.49 634.811 1202 635.302 1202 635.907C1202 636.512 1202.49 637.003 1203.1 637.003H1255.9C1256.51 637.003 1257 636.512 1257 635.907C1257 635.302 1256.51 634.811 1255.9 634.811ZM1219.76 634.811H1208.37V626.745C1208.37 623.603 1210.93 621.046 1214.07 621.046C1217.21 621.046 1219.76 623.603 1219.76 626.745V634.811H1219.76ZM1237.04 634.811H1221.95V624.239C1221.95 620.072 1225.33 616.682 1229.49 616.682C1233.66 616.682 1237.05 620.072 1237.05 624.239L1237.04 634.811ZM1250.63 634.811H1239.24V626.447C1239.4 623.442 1241.89 621.046 1244.93 621.046C1248.08 621.046 1250.63 623.602 1250.63 626.745V634.811Z" fill="white"/>
<path d="M900 340H1306" stroke="url(#paint5_linear)" stroke-dasharray="3 3"/>
<path d="M646.5 177L544.842 58H275" stroke="url(#paint6_linear)" stroke-dasharray="3 3"/>
<path d="M571 303L479.842 198H210" stroke="url(#paint7_linear)" stroke-dasharray="3 3"/>
<path d="M571 373L479.842 478H210" stroke="url(#paint8_linear)" stroke-dasharray="3 3"/>
<path d="M653 492L544.842 623H275" stroke="url(#paint9_linear)" stroke-dasharray="3 3"/>
<g filter="url(#filter1_d)">
<rect x="157" y="8" width="100" height="100" rx="50" fill="url(#paint10_linear)"/>
</g>
<g filter="url(#filter2_d)">
<rect x="157" y="568" width="100" height="100" rx="50" fill="url(#paint11_linear)"/>
</g>
<g filter="url(#filter3_d)">
<rect x="83" y="148" width="100" height="100" rx="50" fill="url(#paint12_linear)"/>
</g>
<g filter="url(#filter4_d)">
<rect x="83" y="428" width="100" height="100" rx="50" fill="url(#paint13_linear)"/>
</g>
<g filter="url(#filter5_d)">
<rect x="9" y="288" width="100" height="100" rx="50" fill="url(#paint14_linear)"/>
</g>
<path d="M75.6309 342.959C74.9848 342.959 74.5541 342.528 74.5541 341.882V338.652H42.2494V341.882C42.2494 342.528 41.8186 342.959 41.1725 342.959C40.5264 342.959 40.0957 342.528 40.0957 341.882V337.575C40.0957 336.929 40.5264 336.498 41.1725 336.498H75.6309C76.277 336.498 76.7078 336.929 76.7078 337.575V341.882C76.7078 342.528 76.277 342.959 75.6309 342.959Z" fill="white"/>
<path d="M58.401 338.651C57.7549 338.651 57.3242 338.221 57.3242 337.575V333.267C57.3242 332.621 57.7549 332.19 58.401 332.19C59.0471 332.19 59.4779 332.621 59.4779 333.267V337.575C59.4779 338.221 59.0471 338.651 58.401 338.651Z" fill="white"/>
<path d="M62.7286 352.697C63.6249 351.83 64.1828 350.616 64.1828 349.274C64.1828 346.645 62.0422 344.507 59.411 344.507C56.7799 344.507 54.6392 346.645 54.6392 349.274C54.6392 350.616 55.1972 351.83 56.0935 352.697C53.972 353.436 52.4453 355.454 52.4453 357.822V361.548C52.4453 363.452 53.9954 365 55.9007 365H62.9213C64.8266 365 66.3767 363.452 66.3767 361.548V357.822C66.3767 355.454 64.8501 353.436 62.7286 352.697ZM59.411 346.151C61.1349 346.151 62.5374 347.552 62.5374 349.274C62.5374 350.996 61.1349 352.397 59.411 352.397C57.6872 352.397 56.2847 350.996 56.2847 349.274C56.2847 347.552 57.6872 346.151 59.411 346.151ZM64.7313 361.548C64.7313 362.545 63.9193 363.356 62.9213 363.356H55.9007C54.9027 363.356 54.0908 362.545 54.0908 361.548V357.822C54.0908 355.737 55.7885 354.041 57.8753 354.041H60.9468C63.0335 354.041 64.7313 355.737 64.7313 357.822V361.548Z" fill="white"/>
<path d="M78.2754 352.697C79.1718 351.83 79.7297 350.616 79.7297 349.274C79.7297 346.645 77.5891 344.507 74.9579 344.507C72.3267 344.507 70.1861 346.645 70.1861 349.274C70.1861 350.616 70.744 351.83 71.6404 352.697C69.5188 353.436 67.9922 355.454 67.9922 357.822V361.548C67.9922 363.452 69.5423 365 71.4476 365H73.4073C73.8618 365 74.2301 364.632 74.2301 364.178C74.2301 363.724 73.8618 363.356 73.4073 363.356H71.4476C70.4496 363.356 69.6376 362.545 69.6376 361.548V357.822C69.6376 355.737 71.3354 354.041 73.4222 354.041H76.4937C78.5804 354.041 80.2782 355.737 80.2782 357.822V361.548C80.2782 362.545 79.4662 363.356 78.4682 363.356H76.938C76.4836 363.356 76.1153 363.724 76.1153 364.178C76.1153 364.632 76.4836 365 76.938 365H78.4682C80.3735 365 81.9236 363.452 81.9236 361.548V357.822C81.9236 355.454 80.397 353.436 78.2754 352.697ZM74.9579 346.151C76.6818 346.151 78.0842 347.552 78.0842 349.274C78.0842 350.996 76.6818 352.397 74.9579 352.397C73.234 352.397 71.8316 350.996 71.8316 349.274C71.8316 347.552 73.234 346.151 74.9579 346.151Z" fill="white"/>
<path d="M47.2833 352.697C48.1796 351.83 48.7375 350.616 48.7375 349.274C48.7375 346.645 46.5969 344.507 43.9657 344.507C41.3345 344.507 39.1939 346.645 39.1939 349.274C39.1939 350.616 39.7518 351.83 40.6482 352.697C38.5266 353.436 37 355.454 37 357.822V361.548C37 363.452 38.5501 365 40.4554 365H47.476C49.3813 365 50.9314 363.452 50.9314 361.548V357.822C50.9314 355.454 49.4048 353.436 47.2833 352.697ZM43.9657 346.151C45.6896 346.151 47.0921 347.552 47.0921 349.274C47.0921 350.996 45.6896 352.397 43.9657 352.397C42.2418 352.397 40.8394 350.996 40.8394 349.274C40.8394 347.552 42.2418 346.151 43.9657 346.151ZM49.286 361.548C49.286 362.545 48.474 363.356 47.476 363.356H40.4554C39.4574 363.356 38.6454 362.545 38.6454 361.548V357.822C38.6454 355.737 40.3432 354.041 42.43 354.041H45.5015C47.5882 354.041 49.286 355.737 49.286 357.822V361.548Z" fill="white"/>
<path d="M58.4021 317.552C56.0603 317.552 54.1621 319.405 54.1621 321.691C54.1621 323.977 56.0603 325.83 58.4021 325.83C60.744 325.83 62.6421 323.977 62.6421 321.691C62.6394 319.407 60.7426 317.555 58.4021 317.552ZM58.4021 324.648C56.7296 324.648 55.3735 323.324 55.3735 321.691C55.3735 320.059 56.7296 318.735 58.4021 318.735C60.0746 318.735 61.4307 320.059 61.4307 321.691C61.4286 323.323 60.0739 324.646 58.4021 324.648Z" fill="white"/>
<path d="M67.9935 319.792C67.9935 319.461 67.7252 319.193 67.394 319.193H65.8098C65.6829 318.799 65.5247 318.416 65.3357 318.048L66.456 316.928C66.6897 316.694 66.6897 316.315 66.456 316.081L63.9127 313.537C63.6785 313.304 63.2992 313.304 63.065 313.537L61.9455 314.657C61.577 314.469 61.1941 314.311 60.8006 314.184V312.599C60.8006 312.268 60.5324 312 60.2012 312H56.6048C56.2736 312 56.0054 312.268 56.0054 312.599V314.184C55.6118 314.311 55.229 314.469 54.8605 314.657L53.741 313.537C53.5067 313.304 53.1275 313.304 52.8932 313.537L50.35 316.081C50.1162 316.315 50.1162 316.694 50.35 316.928L51.4697 318.048C51.4196 318.146 51.3714 318.245 51.3258 318.344C51.1993 318.62 51.0893 318.904 50.9961 319.193H49.4119C49.0807 319.193 48.8125 319.461 48.8125 319.792V323.389C48.8125 323.72 49.0807 323.988 49.4119 323.988H50.9961C51.1231 324.382 51.2813 324.765 51.4703 325.133L50.35 326.252C50.1162 326.487 50.1162 326.866 50.35 327.1L52.8932 329.643C53.1275 329.877 53.5067 329.877 53.741 329.643L54.8605 328.524C55.229 328.712 55.6118 328.87 56.0054 328.997V330.582C56.0054 330.913 56.2736 331.181 56.6048 331.181H60.2012C60.5324 331.181 60.8006 330.913 60.8006 330.582V328.997C61.1941 328.87 61.577 328.712 61.9455 328.524L63.065 329.643C63.2992 329.877 63.6785 329.877 63.9127 329.643L66.456 327.1C66.6897 326.866 66.6897 326.487 66.456 326.252L65.3357 325.133C65.5247 324.765 65.6829 324.382 65.8098 323.988H67.394C67.7252 323.988 67.9935 323.72 67.9935 323.389V319.792ZM66.7946 322.789H65.3597C65.0863 322.789 64.8478 322.974 64.7794 323.239C64.6263 323.834 64.3903 324.405 64.0781 324.934C63.9392 325.169 63.9774 325.469 64.1704 325.662L65.1839 326.676L63.4888 328.372L62.4747 327.358C62.2813 327.165 61.9816 327.127 61.7462 327.266C61.2169 327.578 60.6462 327.814 60.0513 327.967C59.7869 328.035 59.6018 328.274 59.6018 328.547V329.982H57.2042V328.547C57.2042 328.274 57.0191 328.035 56.7546 327.967C56.1597 327.814 55.5891 327.578 55.0598 327.266C54.8244 327.127 54.5247 327.165 54.3312 327.358L53.3172 328.372L51.6221 326.676L52.6355 325.662C52.8285 325.469 52.8667 325.169 52.7278 324.934C52.4157 324.405 52.1797 323.834 52.0265 323.239C51.9582 322.974 51.7196 322.789 51.4463 322.789H50.0113V320.392H51.4463C51.7196 320.392 51.9582 320.207 52.0265 319.942C52.1233 319.565 52.2538 319.197 52.4163 318.844C52.5099 318.638 52.6139 318.438 52.7278 318.244C52.8663 318.009 52.8284 317.709 52.6355 317.516L51.6221 316.502L53.3172 314.806L54.3312 315.821C54.5247 316.014 54.8244 316.052 55.0598 315.913C55.5891 315.601 56.1597 315.364 56.7546 315.211C57.0191 315.143 57.2042 314.904 57.2042 314.632V313.199H59.6018V314.634C59.6018 314.907 59.7869 315.146 60.0513 315.214C60.6462 315.367 61.2169 315.603 61.7462 315.915C61.9816 316.054 62.2813 316.016 62.4747 315.823L63.4888 314.809L65.1839 316.505L64.1704 317.519C63.9774 317.712 63.9392 318.012 64.0781 318.247C64.3903 318.776 64.6263 319.347 64.7794 319.942C64.8478 320.207 65.0863 320.392 65.3597 320.392H66.7946V322.789Z" fill="white"/>
<path d="M538 340H132" stroke="url(#paint15_linear)" stroke-dasharray="3 3"/>
<g filter="url(#filter6_d)">
<rect x="547" y="159" width="353" height="353" rx="176.5" fill="url(#paint16_linear)"/>
</g>
<g filter="url(#filter7_d)">
<g filter="url(#filter8_d)">
<path d="M733.27 295.069H715.818V277.617C715.818 268.005 723.658 260.166 733.27 260.166C742.882 260.166 750.721 268.005 750.721 277.617C750.721 287.23 742.921 295.069 733.27 295.069ZM722.121 288.766H733.27C739.415 288.766 744.418 283.763 744.418 277.617C744.418 271.472 739.415 266.469 733.27 266.469C727.124 266.469 722.121 271.472 722.121 277.617V288.766Z" fill="white"/>
<path d="M710.191 312.719C703.612 312.719 698.215 307.361 698.215 300.743C698.215 294.165 703.572 288.768 710.191 288.768H722.166V300.743C722.127 307.322 716.769 312.719 710.191 312.719ZM710.191 295.071C707.078 295.071 704.518 297.631 704.518 300.743C704.518 303.855 707.078 306.416 710.191 306.416C713.303 306.416 715.863 303.855 715.863 300.743V295.071H710.191Z" fill="white"/>
<path d="M722.121 295.069H715.818V300.742H722.121V295.069Z" fill="white"/>
<path d="M722.121 283.094H715.818V288.767H722.121V283.094Z" fill="white"/>
</g>
</g>
<path d="M207.011 40.3846C207.452 40.3846 207.809 40.0273 207.809 39.5865V34.7981C207.809 34.3573 207.452 34 207.011 34C206.57 34 206.213 34.3573 206.213 34.7981V39.5865C206.213 40.0273 206.57 40.3846 207.011 40.3846Z" fill="white"/>
<path d="M195.147 38.1873L197.541 42.3373C197.759 42.7205 198.246 42.8544 198.629 42.6366C199.013 42.4187 199.147 41.9315 198.929 41.5483C198.927 41.5452 198.925 41.5422 198.923 41.5391L196.529 37.3891C196.311 37.0059 195.824 36.8719 195.441 37.0898C195.058 37.3077 194.924 37.7949 195.142 38.1781C195.143 38.1812 195.145 38.1843 195.147 38.1873Z" fill="white"/>
<path d="M187.26 46.6625L191.41 49.0567C191.793 49.2746 192.28 49.1406 192.498 48.7575C192.714 48.3779 192.585 47.8953 192.208 47.6745L188.058 45.2802C187.675 45.0624 187.188 45.1963 186.97 45.5795C186.754 45.9591 186.883 46.4416 187.26 46.6625Z" fill="white"/>
<path d="M190.252 57.1443C190.252 56.7035 189.894 56.3462 189.454 56.3462H184.665C184.225 56.3462 183.867 56.7035 183.867 57.1443C183.867 57.585 184.225 57.9423 184.665 57.9423H189.454C189.894 57.9423 190.252 57.585 190.252 57.1443Z" fill="white"/>
<path d="M191.417 65.2264C191.414 65.2282 191.41 65.23 191.407 65.2318L187.257 67.6261C186.874 67.8438 186.74 68.3311 186.958 68.7142C187.176 69.0974 187.663 69.2315 188.046 69.0137C188.049 69.0119 188.052 69.0101 188.055 69.0083L192.205 66.6141C192.589 66.3963 192.723 65.9091 192.505 65.5259C192.287 65.1427 191.8 65.0087 191.417 65.2264Z" fill="white"/>
<path d="M226.762 67.6261L222.612 65.2318C222.232 65.0089 221.743 65.1364 221.52 65.5166C221.297 65.8967 221.424 66.3858 221.805 66.6087C221.808 66.6105 221.811 66.6123 221.814 66.6141L225.964 69.0083C226.347 69.2261 226.834 69.092 227.052 68.7089C227.268 68.3294 227.139 67.8469 226.762 67.6261Z" fill="white"/>
<path d="M229.358 56.3462H224.57C224.129 56.3462 223.771 56.7035 223.771 57.1443C223.771 57.585 224.129 57.9423 224.57 57.9423H229.358C229.799 57.9423 230.156 57.585 230.156 57.1443C230.156 56.7035 229.799 56.3462 229.358 56.3462Z" fill="white"/>
<path d="M222.218 49.1636C222.358 49.1636 222.496 49.1267 222.617 49.0567L226.767 46.6625C227.147 46.4396 227.275 45.9506 227.052 45.5704C226.831 45.1937 226.349 45.0644 225.969 45.2802L221.819 47.6744C221.437 47.8948 221.307 48.3829 221.527 48.7646C221.67 49.0115 221.933 49.1636 222.218 49.1636Z" fill="white"/>
<path d="M215.391 42.6294C215.773 42.8498 216.261 42.719 216.482 42.3373L218.876 38.1873C219.099 37.8071 218.971 37.3181 218.591 37.0951C218.211 36.8722 217.722 36.9996 217.499 37.3798C217.497 37.3829 217.495 37.386 217.494 37.3891L215.099 41.5391C214.879 41.9209 215.01 42.409 215.391 42.6294Z" fill="white"/>
<path d="M207.012 45.1733C200.404 45.1808 195.048 50.5361 195.041 57.1445C195.041 57.5852 195.398 57.9426 195.839 57.9426C196.28 57.9426 196.637 57.5852 196.637 57.1445C196.644 51.4173 201.285 46.7761 207.012 46.7695C207.453 46.7695 207.81 46.4122 207.81 45.9714C207.81 45.5307 207.453 45.1733 207.012 45.1733Z" fill="white"/>
<path d="M221.616 61.2095V61.2055C221.642 61.1257 221.665 61.0395 221.685 60.9613C221.713 60.8512 221.737 60.7402 221.764 60.6293C221.792 60.5184 221.817 60.4074 221.832 60.3189C223.602 52.1334 218.401 44.0633 210.215 42.2938C202.03 40.5242 193.959 45.7255 192.19 53.911C191.96 54.9733 191.846 56.0572 191.848 57.1441C191.848 57.4993 191.863 57.852 191.888 58.2024C191.9 58.3963 191.92 58.5934 191.943 58.8001C191.988 59.2071 192.046 59.611 192.123 60.0108C192.129 60.0435 192.132 60.077 192.141 60.1098C192.176 60.2925 192.22 60.4697 192.263 60.6469C192.287 60.7498 192.311 60.8528 192.338 60.9549C192.35 60.998 192.356 61.0347 192.37 61.0842C192.402 61.2031 192.439 61.3157 192.474 61.4322C192.512 61.5615 192.548 61.6908 192.589 61.8185L192.594 61.8336C192.666 62.0659 192.747 62.2917 192.845 62.5431C192.864 62.5918 192.883 62.6397 192.902 62.6876C192.92 62.747 192.943 62.8047 192.971 62.8599L192.975 62.8695C193.028 63.0116 193.09 63.1528 193.153 63.2853L193.163 63.3053C193.203 63.3955 193.243 63.4848 193.286 63.575C193.306 63.6197 193.325 63.6692 193.345 63.7099C193.559 64.1604 193.797 64.599 194.058 65.0235L194.133 65.1416C194.18 65.2215 194.229 65.3013 194.278 65.3691L194.376 65.5151C194.424 65.5854 194.473 65.6564 194.522 65.7266C194.557 65.7777 194.59 65.8288 194.626 65.8791C194.643 65.9078 194.66 65.9357 194.682 65.9661C194.699 65.9884 194.718 66.0108 194.735 66.0331C194.766 66.0762 194.798 66.1129 194.829 66.1552C194.96 66.3324 195.093 66.508 195.228 66.6795L195.238 66.6923C195.263 66.7226 195.29 66.7514 195.318 66.7817C195.477 66.9748 195.637 67.1664 195.809 67.3523H195.813C195.955 67.5119 196.105 67.662 196.255 67.8136C196.303 67.8607 196.347 67.911 196.395 67.9581C196.416 67.978 196.434 68.0004 196.455 68.0203C196.67 68.2278 196.894 68.4265 197.115 68.6229C197.534 68.9902 197.976 69.3303 198.438 69.6412C198.521 69.7347 198.625 69.8074 198.741 69.8535L199.053 72.1775C199.041 72.2201 199.034 72.2637 199.03 72.3076C199.033 72.4303 199.063 72.5509 199.121 72.6595L199.708 77.0266C199.718 77.1018 199.738 77.1753 199.769 77.2445C199.938 77.6263 200.142 77.9917 200.378 78.3363V78.3419L200.384 78.349C202.836 82.006 207.789 82.9826 211.446 80.5301C212.308 79.952 213.049 79.2111 213.627 78.349L213.634 78.3419L213.638 78.3363C213.873 77.9917 214.077 77.6263 214.246 77.2445C214.277 77.1753 214.298 77.1018 214.307 77.0266L215.272 69.8527C215.328 69.8341 215.381 69.8091 215.432 69.7785C218.443 67.7605 220.632 64.7313 221.604 61.239C221.611 61.2295 221.616 61.2199 221.616 61.2095ZM202.796 78.6922H211.227C208.819 80.8204 205.203 80.8204 202.796 78.6922ZM212.748 76.697C212.685 76.8327 212.615 76.966 212.541 77.0961H201.481C201.407 76.9668 201.338 76.8335 201.274 76.697L200.792 73.1057H213.23L212.748 76.697ZM213.444 71.5191C213.427 71.5183 213.413 71.5095 213.396 71.5095H200.577L200.362 69.9134H213.66L213.444 71.5191ZM205.415 68.3172V60.844L206.54 61.654C206.818 61.8548 207.194 61.8548 207.472 61.654L208.607 60.8368V68.3172H205.415ZM220.548 58.022C220.533 58.2678 220.511 58.5056 220.481 58.7451V58.7634C220.471 58.807 220.465 58.8513 220.461 58.8959V58.9119C220.456 58.9358 220.453 58.9597 220.45 58.9853C220.447 59.0108 220.445 59.0252 220.443 59.0467C220.443 59.0699 220.436 59.0922 220.433 59.1154C220.416 59.2391 220.397 59.362 220.376 59.4849C220.365 59.5407 220.357 59.5926 220.344 59.6557C220.331 59.7403 220.311 59.8312 220.282 59.9669V59.9813C220.262 60.077 220.241 60.1728 220.219 60.2678C220.211 60.2997 220.205 60.3268 220.195 60.3628C220.169 60.4939 220.135 60.6236 220.095 60.7514C220.08 60.8081 220.063 60.8647 220.047 60.9214C220.008 61.0659 219.967 61.2071 219.913 61.3612C219.847 61.5655 219.783 61.7698 219.703 61.9653L219.672 62.0451C219.635 62.1489 219.592 62.2506 219.544 62.35C219.527 62.3844 219.512 62.4202 219.5 62.4569L219.484 62.4928C219.413 62.6716 219.334 62.8424 219.232 63.0515C219.175 63.1808 219.111 63.3029 219.047 63.425L218.95 63.6157C217.926 65.5031 216.468 67.1196 214.695 68.3316C214.654 68.3232 214.611 68.3184 214.569 68.3172H210.203V61.6086L210.267 61.654C210.546 61.854 210.92 61.854 211.199 61.654L213.063 60.3149C213.428 60.0678 213.524 59.5717 213.277 59.2066C213.029 58.8416 212.533 58.746 212.168 58.9931C212.156 59.0013 212.144 59.0099 212.132 59.0188L210.733 60.0236L209.334 59.0188C209.055 58.8185 208.68 58.8185 208.401 59.0188L207.006 60.0228L205.611 59.0188C205.333 58.8181 204.957 58.8181 204.678 59.0188L203.284 60.0228L201.891 59.0188C201.534 58.7609 201.035 58.8419 200.777 59.1996C200.519 59.5572 200.6 60.0562 200.958 60.3141L202.817 61.654C203.096 61.8548 203.472 61.8548 203.75 61.654L203.819 61.6046V68.3172H199.453C199.419 68.3176 199.386 68.32 199.352 68.3244C198.49 67.7344 197.699 67.0476 196.994 66.2773C196.841 66.1113 196.694 65.9357 196.545 65.7562C196.518 65.7234 196.489 65.6915 196.461 65.658C196.326 65.4984 196.203 65.3292 196.08 65.1584C196.033 65.0946 195.983 65.0331 195.937 64.9685V64.9637C195.931 64.9541 195.925 64.9453 195.919 64.9373L195.892 64.8982C195.872 64.8711 195.855 64.8432 195.835 64.8184C195.649 64.5487 195.476 64.2709 195.31 63.9892C195.15 63.7211 195.006 63.4521 194.872 63.1784C194.818 63.0722 194.763 62.9669 194.712 62.8591C194.697 62.8216 194.678 62.7793 194.669 62.7562L194.63 62.6764L194.62 62.6572V62.6532C194.425 62.2188 194.254 61.7742 194.107 61.3213C194.093 61.2782 194.079 61.2327 194.065 61.1888C193.992 60.9565 193.924 60.7219 193.864 60.4841C193.864 60.4713 193.856 60.4593 193.854 60.4466C193.849 60.4146 193.843 60.3829 193.835 60.3516C193.821 60.2973 193.81 60.2407 193.797 60.1864C193.759 60.0204 193.718 59.8552 193.687 59.6876C193.687 59.6692 193.683 59.6509 193.68 59.6325C193.638 59.4146 193.6 59.1888 193.573 58.9629C193.573 58.9133 193.566 58.8641 193.554 58.8161C193.554 58.7993 193.548 58.7722 193.544 58.7443C193.514 58.5048 193.493 58.2718 193.477 58.014C193.451 57.7243 193.444 57.4338 193.444 57.1441C193.452 49.6545 199.522 43.5852 207.011 43.5768C214.501 43.5852 220.57 49.6545 220.578 57.1441C220.578 57.4338 220.571 57.7243 220.548 58.022Z" fill="white"/>
<g filter="url(#filter9_d)">
<rect x="1328" y="288" width="100" height="100" rx="50" fill="url(#paint17_linear)"/>
</g>
<path d="M1374.75 331.5H1355.25C1353.46 331.5 1352 330.042 1352 328.25V315.25C1352 313.458 1353.46 312 1355.25 312H1374.75C1376.54 312 1378 313.458 1378 315.25V328.25C1378 330.042 1376.54 331.5 1374.75 331.5ZM1355.25 314.167C1354.65 314.167 1354.17 314.652 1354.17 315.25V328.25C1354.17 328.848 1354.65 329.333 1355.25 329.333H1374.75C1375.35 329.333 1375.83 328.848 1375.83 328.25V315.25C1375.83 314.652 1375.35 314.167 1374.75 314.167H1355.25Z" fill="white"/>
<path d="M1368.25 335.833H1361.75C1361.15 335.833 1360.67 335.348 1360.67 334.75C1360.67 334.152 1361.15 333.667 1361.75 333.667H1368.25C1368.85 333.667 1369.33 334.152 1369.33 334.75C1369.33 335.348 1368.85 335.833 1368.25 335.833Z" fill="white"/>
<path d="M1365 335.833C1364.4 335.833 1363.92 335.348 1363.92 334.75V330.417C1363.92 329.819 1364.4 329.333 1365 329.333C1365.6 329.333 1366.08 329.819 1366.08 330.417V334.75C1366.08 335.348 1365.6 335.833 1365 335.833Z" fill="white"/>
<path d="M1400.75 359.667H1381.25C1379.46 359.667 1378 358.208 1378 356.417V343.417C1378 341.625 1379.46 340.167 1381.25 340.167H1400.75C1402.54 340.167 1404 341.625 1404 343.417V356.417C1404 358.208 1402.54 359.667 1400.75 359.667ZM1381.25 342.333C1380.65 342.333 1380.17 342.819 1380.17 343.417V356.417C1380.17 357.015 1380.65 357.5 1381.25 357.5H1400.75C1401.35 357.5 1401.83 357.015 1401.83 356.417V343.417C1401.83 342.819 1401.35 342.333 1400.75 342.333H1381.25Z" fill="white"/>
<path d="M1394.25 364H1387.75C1387.15 364 1386.67 363.515 1386.67 362.917C1386.67 362.319 1387.15 361.833 1387.75 361.833H1394.25C1394.85 361.833 1395.33 362.319 1395.33 362.917C1395.33 363.515 1394.85 364 1394.25 364Z" fill="white"/>
<path d="M1391 364C1390.4 364 1389.92 363.515 1389.92 362.917V358.583C1389.92 357.985 1390.4 357.5 1391 357.5C1391.6 357.5 1392.08 357.985 1392.08 358.583V362.917C1392.08 363.515 1391.6 364 1391 364Z" fill="white"/>
<path d="M1386.67 322.834H1383.42C1382.82 322.834 1382.33 322.348 1382.33 321.75C1382.33 321.152 1382.82 320.667 1383.42 320.667H1386.67C1387.26 320.667 1387.75 321.152 1387.75 321.75C1387.75 322.348 1387.26 322.834 1386.67 322.834Z" fill="white"/>
<path d="M1394.25 328.159C1393.65 328.159 1393.16 327.674 1393.16 327.076V326.084C1393.16 324.628 1392.19 323.339 1390.78 322.951C1390.21 322.79 1389.87 322.195 1390.03 321.618C1390.19 321.04 1390.79 320.706 1391.36 320.862C1393.7 321.51 1395.33 323.657 1395.33 326.084V327.076C1395.33 327.674 1394.85 328.159 1394.25 328.159Z" fill="white"/>
<path d="M1394.25 335.834C1393.65 335.834 1393.17 335.348 1393.17 334.75V331.5C1393.17 330.902 1393.65 330.417 1394.25 330.417C1394.85 330.417 1395.33 330.902 1395.33 331.5V334.75C1395.33 335.348 1394.85 335.834 1394.25 335.834Z" fill="white"/>
<path d="M1372.58 355.333H1369.33C1368.74 355.333 1368.25 354.848 1368.25 354.25C1368.25 353.652 1368.74 353.167 1369.33 353.167H1372.58C1373.18 353.167 1373.67 353.652 1373.67 354.25C1373.67 354.848 1373.18 355.333 1372.58 355.333Z" fill="white"/>
<path d="M1364.93 355.178C1364.83 355.178 1364.73 355.165 1364.64 355.139C1362.3 354.491 1360.67 352.344 1360.67 349.917V348.925C1360.67 348.327 1361.15 347.841 1361.75 347.841C1362.35 347.841 1362.83 348.327 1362.83 348.925V349.917C1362.83 351.373 1363.81 352.662 1365.22 353.05C1365.79 353.21 1366.13 353.806 1365.97 354.382C1365.84 354.863 1365.4 355.178 1364.93 355.178Z" fill="white"/>
<path d="M1361.75 345.583C1361.15 345.583 1360.67 345.098 1360.67 344.5V341.25C1360.67 340.652 1361.15 340.167 1361.75 340.167C1362.35 340.167 1362.83 340.652 1362.83 341.25V344.5C1362.83 345.098 1362.35 345.583 1361.75 345.583Z" fill="white"/>
<path d="M133 177.068C132.437 177.068 131.98 176.611 131.98 176.048V172.908C131.98 172.344 132.437 171.888 133 171.888C133.564 171.888 134.021 172.344 134.021 172.908V176.048C134.021 176.611 133.564 177.068 133 177.068Z" fill="white"/>
<path d="M119.731 182.565C119.47 182.565 119.209 182.465 119.01 182.266L116.789 180.046C116.391 179.647 116.391 179.001 116.789 178.603C117.187 178.205 117.833 178.205 118.232 178.603L120.452 180.824C120.851 181.222 120.851 181.868 120.452 182.266C120.253 182.465 119.992 182.565 119.731 182.565Z" fill="white"/>
<path d="M146.268 182.564C146.007 182.564 145.746 182.464 145.547 182.265C145.148 181.866 145.148 181.221 145.547 180.822L147.767 178.601C148.166 178.203 148.812 178.203 149.21 178.601C149.608 179 149.608 179.646 149.21 180.044L146.989 182.265C146.79 182.464 146.529 182.564 146.268 182.564Z" fill="white"/>
<path d="M113.426 210.084C113.165 210.084 112.904 209.984 112.705 209.785C112.307 209.386 112.307 208.741 112.705 208.342L114.926 206.121C115.324 205.723 115.97 205.723 116.368 206.121C116.766 206.52 116.766 207.166 116.368 207.564L114.147 209.785C113.948 209.984 113.687 210.084 113.426 210.084Z" fill="white"/>
<path d="M152.571 210.084C152.31 210.084 152.049 209.984 151.849 209.785L149.629 207.564C149.23 207.166 149.23 206.52 149.629 206.121C150.027 205.723 150.673 205.723 151.071 206.121L153.292 208.342C153.69 208.74 153.69 209.386 153.292 209.785C153.093 209.984 152.832 210.084 152.571 210.084Z" fill="white"/>
<path d="M155.979 195.833H152.838C152.275 195.833 151.818 195.376 151.818 194.812C151.818 194.249 152.275 193.792 152.838 193.792H155.979C156.542 193.792 156.999 194.249 156.999 194.812C156.999 195.376 156.542 195.833 155.979 195.833Z" fill="white"/>
<path d="M113.158 195.833H110.018C109.455 195.833 108.998 195.376 108.998 194.812C108.998 194.249 109.455 193.792 110.018 193.792H113.158C113.722 193.792 114.179 194.249 114.179 194.812C114.179 195.376 113.722 195.833 113.158 195.833Z" fill="white"/>
<path d="M147.836 204.382C146.838 204.383 146.438 203.066 147.27 202.514C147.603 202.285 148.07 202.286 148.403 202.514C149.237 203.066 148.834 204.383 147.836 204.382Z" fill="white"/>
<path d="M145.513 183.651C142.253 180.345 137.903 178.486 133.263 178.417C128.579 178.35 124.136 180.12 120.755 183.408C117.378 186.693 115.484 191.079 115.423 195.758C115.383 198.864 116.163 201.933 117.679 204.631C119.142 207.235 121.251 209.438 123.778 211.004C125.374 211.993 126.327 213.702 126.327 215.577V219.525C126.327 220.088 126.784 220.545 127.347 220.545H128.825V223.093C128.825 223.656 129.282 224.113 129.845 224.113H136.151C136.715 224.113 137.171 223.656 137.171 223.093V220.545H138.65C139.213 220.545 139.67 220.088 139.67 219.525V215.577C139.67 213.701 140.619 211.994 142.21 211.009C143.151 210.427 144.044 209.749 144.864 208.995C145.278 208.613 145.305 207.968 144.924 207.554C144.542 207.139 143.897 207.112 143.483 207.494C142.758 208.161 141.968 208.76 141.136 209.275C140.098 209.917 139.257 210.783 138.66 211.791V197.687C138.66 196.783 138.399 195.904 137.907 195.146L133.854 188.906C133.665 188.616 133.344 188.442 132.998 188.442C132.653 188.442 132.331 188.616 132.143 188.906L128.089 195.146C127.597 195.904 127.337 196.783 127.337 197.687V211.795C126.738 210.784 125.894 209.915 124.852 209.27C120.223 206.402 117.392 201.234 117.463 195.784C117.517 191.651 119.191 187.775 122.178 184.871C125.167 181.963 129.098 180.396 133.233 180.457C141.671 180.582 148.535 187.551 148.535 195.992C148.535 196.72 148.484 197.452 148.384 198.168C148.306 198.726 148.695 199.242 149.253 199.32C149.811 199.398 150.326 199.009 150.404 198.451C150.517 197.641 150.575 196.814 150.575 195.992C150.575 191.343 148.777 186.96 145.513 183.651ZM129.8 196.257L130.585 195.049H135.411L136.196 196.257C136.457 196.659 136.602 197.12 136.618 197.598C136.321 197.535 136.017 197.503 135.708 197.503C134.706 197.503 133.762 197.833 132.998 198.431C132.234 197.833 131.291 197.503 130.289 197.503C129.98 197.503 129.675 197.535 129.378 197.598C129.394 197.12 129.539 196.659 129.8 196.257ZM134.018 214.557V200.252C134.462 199.798 135.062 199.544 135.708 199.544C136.025 199.544 136.333 199.606 136.62 199.725V214.557H134.018ZM129.377 199.725C129.663 199.606 129.972 199.544 130.289 199.544C130.934 199.544 131.535 199.798 131.978 200.252V214.557H129.377V199.725ZM135.132 222.073H130.865V220.545H135.132V222.073ZM137.63 218.505H128.367V216.597H137.63V218.505ZM132.998 191.334L134.086 193.009H131.91L132.998 191.334Z" fill="white"/>
<path d="M221.624 594.292L219.506 596.409H216.701C216.494 596.409 216.295 596.492 216.148 596.639C216.001 596.785 215.919 596.984 215.919 597.192V599.997L213.248 602.668H210.443C210.235 602.668 210.036 602.75 209.89 602.897C209.743 603.044 209.66 603.243 209.66 603.45V606.255L206.989 608.926H204.184C203.977 608.926 203.778 609.008 203.631 609.155C203.485 609.302 203.402 609.501 203.402 609.708V612.513L199.949 615.967H197.274C197.491 614.673 197.977 613.439 198.701 612.346C199.425 611.252 200.371 610.323 201.477 609.619L200.633 608.301C198.637 609.577 197.109 611.465 196.277 613.683C195.445 615.901 195.354 618.329 196.019 620.603C196.683 622.876 198.067 624.873 199.962 626.294C201.858 627.715 204.162 628.483 206.531 628.483H216.579C213.837 630.998 210.252 632.393 206.531 632.395C198.335 632.395 191.668 625.727 191.668 617.531H190.103C190.103 618.849 190.261 620.163 190.575 621.443H184.627V613.62H190.885C191.04 613.62 191.191 613.574 191.32 613.488C191.449 613.402 191.549 613.28 191.608 613.137L192.872 610.086C192.931 609.943 192.946 609.786 192.916 609.634C192.886 609.483 192.812 609.343 192.702 609.234L188.277 604.809L193.809 599.277L198.234 603.702C198.343 603.812 198.483 603.886 198.634 603.916C198.786 603.946 198.943 603.931 199.086 603.872L202.137 602.608C202.28 602.549 202.402 602.449 202.488 602.32C202.574 602.191 202.62 602.04 202.62 601.885V595.627H210.443V600.321H212.007V594.845C212.007 594.637 211.925 594.438 211.778 594.292C211.631 594.145 211.432 594.063 211.225 594.062H201.837C201.63 594.063 201.431 594.145 201.284 594.292C201.138 594.438 201.055 594.637 201.055 594.845V601.363L198.97 602.226L194.362 597.617C194.215 597.471 194.016 597.388 193.809 597.388C193.601 597.388 193.402 597.471 193.255 597.617L186.617 604.255C186.471 604.402 186.388 604.601 186.388 604.809C186.388 605.016 186.471 605.215 186.617 605.362L191.226 609.97L190.363 612.055H183.845C183.637 612.055 183.438 612.138 183.292 612.284C183.145 612.431 183.063 612.63 183.062 612.837V622.225C183.063 622.432 183.145 622.631 183.292 622.778C183.438 622.925 183.637 623.007 183.845 623.007H190.363L191.226 625.092L186.617 629.701C186.471 629.848 186.388 630.047 186.388 630.254C186.388 630.461 186.471 630.66 186.617 630.807L193.255 637.445C193.402 637.592 193.601 637.674 193.809 637.674C194.016 637.674 194.215 637.592 194.362 637.445L198.97 632.836L201.055 633.7V640.218C201.055 640.425 201.138 640.624 201.284 640.771C201.431 640.918 201.63 641 201.837 641H211.225C211.432 641 211.631 640.918 211.778 640.771C211.925 640.624 212.007 640.425 212.007 640.218V633.7L214.092 632.836L218.701 637.445C218.848 637.592 219.047 637.674 219.254 637.674C219.461 637.674 219.66 637.592 219.807 637.445L226.445 630.807C226.592 630.66 226.674 630.461 226.674 630.254C226.674 630.046 226.592 629.847 226.445 629.701L225.228 628.483H229.218C229.425 628.483 229.624 628.401 229.771 628.254C229.918 628.107 230 627.909 230 627.701V601.103C230 600.896 229.918 600.697 229.771 600.55C229.624 600.403 229.425 600.321 229.218 600.321H222.959C222.752 600.321 222.553 600.403 222.406 600.55C222.26 600.697 222.177 600.896 222.177 601.103V606.579H216.701C216.494 606.579 216.295 606.662 216.148 606.808C216.001 606.955 215.919 607.154 215.919 607.361V611.273H210.443C210.235 611.273 210.036 611.355 209.89 611.502C209.743 611.649 209.66 611.848 209.66 612.055V616.749H204.184C203.977 616.749 203.778 616.831 203.631 616.978C203.485 617.125 203.402 617.324 203.402 617.531V620.66H197.681C197.325 619.656 197.143 618.597 197.144 617.531H200.273C200.48 617.531 200.679 617.449 200.826 617.302L204.508 613.62H207.314C207.521 613.62 207.72 613.537 207.867 613.391C208.013 613.244 208.096 613.045 208.096 612.837V610.032L210.767 607.361H213.572C213.779 607.361 213.978 607.279 214.125 607.132C214.272 606.986 214.354 606.787 214.354 606.579V603.774L217.025 601.103H219.83C220.038 601.103 220.237 601.021 220.383 600.874C220.53 600.727 220.612 600.528 220.612 600.321V597.516L222.501 595.627H230V594.062H222.177C221.97 594.063 221.771 594.145 221.624 594.292ZM193.809 635.786L188.277 630.254L192.486 626.045C193.861 628.304 195.758 630.201 198.017 631.577L193.809 635.786ZM202.62 639.435V633.488C205.189 634.117 207.873 634.117 210.443 633.486V639.435H202.62ZM224.786 630.254L219.254 635.786L215.046 631.578C216.435 630.736 217.692 629.693 218.775 628.483H223.015L224.786 630.254ZM223.742 601.885H228.435V626.919H223.742V601.885ZM217.483 608.144H222.177V626.919H217.483V608.144ZM211.225 612.837H215.919V626.919H211.225V612.837ZM204.967 618.314H209.66V626.919H206.531C206.007 626.919 205.484 626.875 204.967 626.788V618.314ZM203.402 622.225V626.382C201.296 625.632 199.525 624.159 198.404 622.225H203.402ZM206.531 612.055H204.967V610.491H206.531V612.055ZM212.79 605.797H211.225V604.232H212.79V605.797ZM219.048 599.539H217.483V597.974H219.048V599.539Z" fill="white"/>
<g filter="url(#filter10_d)">
<rect x="1180" y="8" width="100" height="100" rx="50" fill="url(#paint18_linear)"/>
</g>
<path d="M1244.98 73.184V59.9552H1243.51V72.4491H1238.37C1238.17 72.4491 1237.99 72.5265 1237.85 72.6644C1237.71 72.8022 1237.63 72.9891 1237.63 73.184V78.3286H1213.38V74.6539H1215.58V73.184H1213.38V68.0395H1215.58V66.5696H1213.38V61.4251H1215.58V59.9552H1213.38V54.8107H1215.58V53.3408H1213.38V48.1963H1215.58V46.7264H1213.38V43.0518H1211.91V46.7264H1209.71V48.1963H1211.91V53.3408H1209.71V54.8107H1211.91V59.9552H1209.71V61.4251H1211.91V66.5696H1209.71V68.0395H1211.91V73.184H1209.71V74.6539H1211.91V79.0635C1211.91 79.2584 1211.99 79.4454 1212.13 79.5832C1212.26 79.721 1212.45 79.7984 1212.64 79.7984H1238.37C1238.46 79.7984 1238.56 79.7794 1238.65 79.7425C1238.74 79.7056 1238.82 79.6514 1238.89 79.5832L1244.77 73.7037C1244.83 73.6355 1244.89 73.5545 1244.93 73.4653C1244.96 73.3761 1244.98 73.2805 1244.98 73.184ZM1242.47 73.919L1239.1 77.2892V73.919H1242.47Z" fill="white"/>
<path d="M1215.58 40.1117H1213.38V37.172H1243.51V43.0515H1244.98V37.172H1246.45V41.5816H1247.92V37.172H1249.39V41.5816H1250.86V36.4371C1250.86 36.2422 1250.78 36.0552 1250.65 35.9174C1250.51 35.7796 1250.32 35.7021 1250.13 35.7021H1212.64C1212.45 35.7021 1212.26 35.7796 1212.13 35.9174C1211.99 36.0552 1211.91 36.2422 1211.91 36.4371V40.1117H1209.71V41.5816H1215.58V40.1117Z" fill="white"/>
<path d="M1225.14 44.6553H1238.37V46.1251H1225.14V44.6553Z" fill="white"/>
<path d="M1225.14 52.1377H1235.43V53.6076H1225.14V52.1377Z" fill="white"/>
<path d="M1250.39 41.0469C1249.96 41.0469 1249.53 41.1762 1249.17 41.4185C1248.81 41.6607 1248.52 42.0051 1248.36 42.4079C1248.19 42.8108 1248.15 43.2541 1248.23 43.6818C1248.32 44.1095 1248.53 44.5024 1248.84 44.8107C1249.14 45.1191 1249.54 45.329 1249.96 45.4141C1250.39 45.4992 1250.84 45.4555 1251.24 45.2886C1251.64 45.1218 1251.99 44.8392 1252.23 44.4766C1252.47 44.114 1252.6 43.6877 1252.6 43.2517C1252.6 42.6671 1252.37 42.1067 1251.95 41.6934C1251.54 41.28 1250.98 41.0475 1250.39 41.0469ZM1250.39 43.9866C1250.25 43.9866 1250.11 43.9435 1249.99 43.8628C1249.87 43.782 1249.77 43.6672 1249.72 43.5329C1249.66 43.3986 1249.65 43.2509 1249.67 43.1083C1249.7 42.9657 1249.77 42.8348 1249.87 42.732C1249.98 42.6292 1250.11 42.5592 1250.25 42.5309C1250.39 42.5025 1250.54 42.5171 1250.68 42.5727C1250.81 42.6283 1250.92 42.7225 1251.01 42.8434C1251.09 42.9642 1251.13 43.1063 1251.13 43.2517C1251.13 43.4465 1251.05 43.6333 1250.91 43.7711C1250.78 43.9089 1250.59 43.9864 1250.39 43.9866Z" fill="white"/>
<path d="M1243.98 42.6509C1243.54 42.6509 1243.12 42.7802 1242.76 43.0225C1242.39 43.2647 1242.11 43.6091 1241.94 44.0119C1241.78 44.4148 1241.73 44.8581 1241.82 45.2858C1241.9 45.7135 1242.11 46.1064 1242.42 46.4147C1242.73 46.7231 1243.12 46.933 1243.55 47.0181C1243.98 47.1032 1244.42 47.0595 1244.82 46.8927C1245.23 46.7258 1245.57 46.4432 1245.81 46.0806C1246.06 45.718 1246.18 45.2917 1246.18 44.8557C1246.18 44.2711 1245.95 43.7107 1245.54 43.2974C1245.13 42.884 1244.56 42.6515 1243.98 42.6509ZM1243.98 45.5906C1243.83 45.5906 1243.69 45.5475 1243.57 45.4668C1243.45 45.386 1243.36 45.2712 1243.3 45.1369C1243.25 45.0026 1243.23 44.8549 1243.26 44.7123C1243.29 44.5697 1243.36 44.4388 1243.46 44.336C1243.56 44.2332 1243.69 44.1632 1243.84 44.1349C1243.98 44.1065 1244.13 44.1211 1244.26 44.1767C1244.4 44.2323 1244.51 44.3265 1244.59 44.4474C1244.67 44.5682 1244.72 44.7103 1244.72 44.8557C1244.71 45.0505 1244.64 45.2373 1244.5 45.3751C1244.36 45.5129 1244.18 45.5904 1243.98 45.5906Z" fill="white"/>
<path d="M1223.15 41.9307L1221.68 43.4005C1221.21 43.1762 1220.67 43.1252 1220.17 43.2563C1219.67 43.3874 1219.23 43.6924 1218.93 44.1172C1218.63 44.542 1218.49 45.0593 1218.53 45.5777C1218.57 46.0961 1218.8 46.5823 1219.17 46.9502C1219.54 47.3181 1220.02 47.5441 1220.54 47.5882C1221.06 47.6324 1221.58 47.4918 1222 47.1914C1222.43 46.891 1222.73 46.45 1222.86 45.9465C1222.99 45.443 1222.94 44.9094 1222.72 44.4399L1224.19 42.97L1223.15 41.9307ZM1219.99 45.3901C1219.99 45.2936 1220.01 45.198 1220.05 45.1089C1220.09 45.0197 1220.14 44.9388 1220.21 44.8707L1221.25 45.9095C1221.14 46.0122 1221.01 46.0821 1220.87 46.1104C1220.73 46.1387 1220.58 46.1242 1220.45 46.0686C1220.31 46.013 1220.2 45.9189 1220.12 45.7981C1220.04 45.6774 1219.99 45.5354 1219.99 45.3901Z" fill="white"/>
<path d="M1223.15 49.4131L1221.68 50.883C1221.21 50.6587 1220.67 50.6076 1220.17 50.7387C1219.67 50.8699 1219.23 51.1748 1218.93 51.5996C1218.63 52.0244 1218.49 52.5417 1218.53 53.0601C1218.57 53.5786 1218.8 54.0647 1219.17 54.4326C1219.54 54.8005 1220.02 55.0265 1220.54 55.0706C1221.06 55.1148 1221.58 54.9742 1222 54.6738C1222.43 54.3734 1222.73 53.9325 1222.86 53.429C1222.99 52.9255 1222.94 52.3918 1222.72 51.9223L1224.19 50.4525L1223.15 49.4131ZM1219.99 52.8725C1219.99 52.776 1220.01 52.6804 1220.05 52.5913C1220.09 52.5021 1220.14 52.4212 1220.21 52.3531L1221.25 53.3919C1221.14 53.4946 1221.01 53.5645 1220.87 53.5928C1220.73 53.6211 1220.58 53.6066 1220.45 53.551C1220.31 53.4954 1220.2 53.4013 1220.12 53.2805C1220.04 53.1598 1219.99 53.0178 1219.99 52.8725Z" fill="white"/>
<path d="M1251.19 47.5871C1250.82 47.5861 1250.45 47.6584 1250.11 47.7998C1249.77 47.9413 1249.46 48.149 1249.2 48.4111L1248.86 48.7525L1248.21 48.1067C1247.8 47.6932 1247.23 47.4609 1246.65 47.4609C1246.07 47.4609 1245.5 47.6932 1245.09 48.1067L1240.25 52.9468L1241.29 53.9862L1246.13 49.1461C1246.27 49.0085 1246.46 48.9312 1246.65 48.9312C1246.85 48.9312 1247.03 49.0085 1247.17 49.1461L1247.82 49.7919L1233.64 63.9708C1233.53 64.0733 1233.46 64.2041 1233.44 64.3464V64.3489V64.3512L1232.7 68.021C1232.68 68.1397 1232.68 68.2624 1232.72 68.3782C1232.75 68.494 1232.82 68.5993 1232.9 68.6849C1232.99 68.7705 1233.09 68.8336 1233.21 68.8686C1233.33 68.9037 1233.45 68.9096 1233.57 68.8859L1237.24 68.1509C1237.38 68.1225 1237.51 68.0525 1237.62 67.9499L1253.18 52.3902C1253.57 51.9967 1253.84 51.4954 1253.95 50.9496C1254.05 50.4038 1254 49.8381 1253.79 49.324C1253.57 48.8098 1253.21 48.3704 1252.75 48.0612C1252.29 47.7521 1251.74 47.5871 1251.19 47.5871ZM1248.86 50.8312L1250.76 52.7316L1246.28 57.2042L1244.38 55.3039L1248.86 50.8312ZM1234.61 65.9812L1235.61 66.9789L1234.36 67.2281L1234.61 65.9812ZM1237.1 66.391L1235.2 64.4905L1243.34 56.3432L1245.24 58.2436L1237.1 66.391ZM1252.14 51.3508L1251.79 51.6922L1249.89 49.7919L1250.24 49.4505C1250.49 49.2017 1250.83 49.0628 1251.18 49.0642C1251.54 49.0655 1251.88 49.207 1252.13 49.4577C1252.38 49.7085 1252.52 50.0482 1252.52 50.4028C1252.52 50.7574 1252.38 51.0982 1252.14 51.3508Z" fill="white"/>
<g filter="url(#filter11_d)">
<rect x="1254" y="428" width="100" height="100" rx="50" fill="url(#paint19_linear)"/>
</g>
<path d="M1327.04 473.978H1320.92C1320.39 473.978 1319.96 474.406 1319.96 474.935V479.768C1319.96 480.296 1320.39 480.725 1320.92 480.725C1321.45 480.725 1321.88 480.296 1321.88 479.768V475.892H1326.09V501.086H1323.98H1321.88V486.946C1321.88 486.417 1321.45 485.989 1320.92 485.989C1320.39 485.989 1319.96 486.417 1319.96 486.946V501.086H1318.05V481.275C1318.05 480.747 1317.62 480.318 1317.09 480.318H1310.96C1310.44 480.318 1310.01 480.747 1310.01 481.275V501.086H1308.09V487.975C1308.09 487.446 1307.67 487.018 1307.14 487.018H1301.01C1300.48 487.018 1300.05 487.446 1300.05 487.975V501.086H1298.14V493.466C1298.14 492.937 1297.71 492.509 1297.18 492.509H1291.06C1290.53 492.509 1290.1 492.937 1290.1 493.466V501.086H1281.87C1281.34 501.086 1280.91 500.657 1280.91 500.129V456.871C1280.91 456.343 1281.34 455.914 1281.87 455.914H1306.56V462.231C1306.56 463.814 1307.85 465.102 1309.43 465.102H1315.75V476.873C1315.75 477.402 1316.18 477.83 1316.7 477.83C1317.23 477.83 1317.66 477.402 1317.66 476.873V464.145C1317.66 463.891 1317.56 463.648 1317.38 463.468L1308.19 454.28C1308.01 454.101 1307.77 454 1307.52 454H1281.87C1280.29 454 1279 455.288 1279 456.871V500.129C1279 501.712 1280.29 503 1281.87 503H1327.04C1327.57 503 1328 502.571 1328 502.043V474.935C1328 474.406 1327.57 473.978 1327.04 473.978ZM1308.47 457.268L1314.39 463.188H1309.43C1308.9 463.188 1308.47 462.758 1308.47 462.231V457.268ZM1296.23 501.086H1292.02V494.423H1296.23V501.086ZM1306.18 501.086H1301.97V488.932H1306.18V501.086ZM1316.13 501.086H1311.92V482.232H1316.13V501.086Z" fill="white"/>
<path d="M1292.93 459.237C1292.4 459.237 1291.97 459.666 1291.97 460.194V461.916C1287.57 462.394 1284.13 466.136 1284.13 470.667C1284.13 475.52 1288.08 479.469 1292.93 479.469C1297.46 479.469 1301.2 476.029 1301.68 471.624H1303.4C1303.93 471.624 1304.36 471.195 1304.36 470.667C1304.36 464.364 1299.23 459.237 1292.93 459.237ZM1292.93 477.555C1289.13 477.555 1286.04 474.465 1286.04 470.666C1286.04 467.193 1288.63 464.312 1291.97 463.845V470.666C1291.97 471.195 1292.4 471.623 1292.93 471.623H1299.75C1299.28 474.97 1296.4 477.555 1292.93 477.555ZM1293.89 469.71V469.709V461.199C1298.37 461.649 1301.95 465.226 1302.4 469.71H1293.89Z" fill="white"/>
<path d="M1303.4 482.161H1285.12C1284.6 482.161 1284.17 482.589 1284.17 483.118C1284.17 483.646 1284.6 484.075 1285.12 484.075H1303.4C1303.93 484.075 1304.36 483.646 1304.36 483.118C1304.36 482.589 1303.93 482.161 1303.4 482.161Z" fill="white"/>
<path d="M1291.25 486.778H1285.12C1284.6 486.778 1284.17 487.207 1284.17 487.735C1284.17 488.264 1284.6 488.692 1285.12 488.692H1291.25C1291.78 488.692 1292.21 488.264 1292.21 487.735C1292.21 487.207 1291.78 486.778 1291.25 486.778Z" fill="white"/>
<g filter="url(#filter12_d)">
<rect x="1254" y="148" width="100" height="100" rx="50" fill="url(#paint20_linear)"/>
</g>
<path d="M1302.54 193.682C1302.69 193.831 1302.89 193.915 1303.1 193.915H1303.13C1303.24 193.911 1303.35 193.884 1303.45 193.836C1303.55 193.789 1303.64 193.721 1303.71 193.638L1308.49 188.062C1308.61 187.9 1308.67 187.695 1308.66 187.49C1308.64 187.285 1308.54 187.096 1308.38 186.962C1308.22 186.828 1308.02 186.759 1307.82 186.771C1307.61 186.783 1307.42 186.875 1307.28 187.026L1303.06 191.949L1301.27 190.168C1301.12 190.023 1300.92 189.942 1300.71 189.944C1300.5 189.946 1300.3 190.03 1300.16 190.178C1300.01 190.325 1299.93 190.525 1299.92 190.734C1299.92 190.943 1300 191.144 1300.15 191.294L1302.54 193.682Z" fill="white"/>
<path d="M1303.9 177.983C1304.11 177.983 1304.31 177.899 1304.46 177.75C1304.61 177.6 1304.69 177.398 1304.69 177.186V174.797C1304.69 174.585 1304.61 174.383 1304.46 174.233C1304.31 174.084 1304.11 174 1303.9 174C1303.69 174 1303.48 174.084 1303.33 174.233C1303.19 174.383 1303.1 174.585 1303.1 174.797V177.186C1303.1 177.398 1303.19 177.6 1303.33 177.75C1303.48 177.899 1303.69 177.983 1303.9 177.983Z" fill="white"/>
<path d="M1289.56 189.136H1291.95C1292.16 189.136 1292.36 189.052 1292.51 188.902C1292.66 188.753 1292.74 188.55 1292.74 188.339C1292.74 188.128 1292.66 187.925 1292.51 187.776C1292.36 187.626 1292.16 187.542 1291.95 187.542H1289.56C1289.35 187.542 1289.14 187.626 1289 187.776C1288.85 187.925 1288.76 188.128 1288.76 188.339C1288.76 188.55 1288.85 188.753 1289 188.902C1289.14 189.052 1289.35 189.136 1289.56 189.136Z" fill="white"/>
<path d="M1315.85 189.136H1318.24C1318.45 189.136 1318.65 189.052 1318.8 188.902C1318.95 188.753 1319.03 188.55 1319.03 188.339C1319.03 188.128 1318.95 187.925 1318.8 187.776C1318.65 187.626 1318.45 187.542 1318.24 187.542H1315.85C1315.63 187.542 1315.43 187.626 1315.28 187.776C1315.13 187.925 1315.05 188.128 1315.05 188.339C1315.05 188.55 1315.13 188.753 1315.28 188.902C1315.43 189.052 1315.63 189.136 1315.85 189.136Z" fill="white"/>
<path d="M1294.57 180.936C1294.72 181.081 1294.92 181.161 1295.13 181.16C1295.34 181.158 1295.54 181.074 1295.69 180.926C1295.84 180.779 1295.92 180.579 1295.92 180.37C1295.92 180.161 1295.84 179.96 1295.7 179.81L1294.11 178.216C1294.03 178.14 1293.94 178.08 1293.85 178.038C1293.75 177.996 1293.65 177.974 1293.54 177.973C1293.43 177.972 1293.33 177.992 1293.23 178.032C1293.13 178.073 1293.04 178.132 1292.97 178.206C1292.89 178.281 1292.84 178.37 1292.8 178.468C1292.76 178.566 1292.74 178.671 1292.74 178.777C1292.74 178.882 1292.76 178.987 1292.8 179.084C1292.84 179.181 1292.9 179.269 1292.98 179.343L1294.57 180.936Z" fill="white"/>
<path d="M1312.66 181.169C1312.87 181.169 1313.07 181.085 1313.22 180.936L1314.82 179.343C1314.89 179.269 1314.95 179.181 1314.99 179.084C1315.04 178.987 1315.06 178.882 1315.06 178.777C1315.06 178.671 1315.04 178.566 1315 178.468C1314.96 178.37 1314.9 178.281 1314.83 178.206C1314.75 178.132 1314.66 178.073 1314.56 178.032C1314.47 177.992 1314.36 177.972 1314.26 177.973C1314.15 177.974 1314.05 177.996 1313.95 178.038C1313.85 178.08 1313.76 178.14 1313.69 178.216L1312.1 179.81C1311.99 179.921 1311.91 180.063 1311.88 180.217C1311.85 180.372 1311.86 180.532 1311.92 180.678C1311.98 180.823 1312.09 180.948 1312.22 181.035C1312.35 181.123 1312.5 181.169 1312.66 181.169Z" fill="white"/>
<path d="M1303.9 179.576C1301.88 179.578 1299.91 180.22 1298.27 181.412C1296.64 182.603 1295.43 184.281 1294.81 186.206C1294.19 188.13 1294.19 190.201 1294.83 192.122C1295.46 194.043 1296.68 195.713 1298.32 196.894V199.491C1298.32 199.606 1298.35 199.72 1298.4 199.824C1298.45 199.929 1298.51 200.022 1298.6 200.097C1298.75 200.221 1298.93 200.289 1299.12 200.288C1299.16 200.289 1299.21 200.287 1299.25 200.28L1308.81 198.687C1308.99 198.656 1309.16 198.56 1309.29 198.416C1309.41 198.271 1309.48 198.088 1309.48 197.898V196.894C1311.12 195.713 1312.34 194.043 1312.97 192.122C1313.6 190.201 1313.61 188.13 1312.99 186.206C1312.37 184.281 1311.16 182.603 1309.52 181.412C1307.89 180.22 1305.92 179.578 1303.9 179.576ZM1308.24 195.811C1308.13 195.883 1308.04 195.981 1307.98 196.097C1307.92 196.212 1307.88 196.341 1307.88 196.472V197.221L1299.92 198.551V196.472C1299.92 196.341 1299.88 196.212 1299.82 196.097C1299.76 195.981 1299.67 195.883 1299.56 195.811C1298.12 194.875 1297.02 193.498 1296.42 191.887C1295.83 190.275 1295.77 188.515 1296.26 186.868C1296.75 185.221 1297.76 183.776 1299.13 182.749C1300.51 181.721 1302.18 181.166 1303.9 181.166C1305.62 181.166 1307.29 181.721 1308.67 182.749C1310.04 183.776 1311.05 185.221 1311.54 186.868C1312.03 188.515 1311.97 190.275 1311.37 191.887C1310.78 193.498 1309.68 194.875 1308.24 195.811Z" fill="white"/>
<path d="M1309.47 200.957C1309.48 201.061 1309.48 201.166 1309.46 201.269C1309.43 201.371 1309.39 201.467 1309.33 201.552C1309.27 201.638 1309.19 201.71 1309.1 201.765C1309.01 201.82 1308.91 201.857 1308.81 201.873L1299.25 203.466C1299.2 203.473 1299.16 203.476 1299.12 203.474C1298.92 203.478 1298.72 203.405 1298.57 203.269C1298.42 203.132 1298.33 202.944 1298.31 202.742C1298.29 202.539 1298.35 202.338 1298.48 202.18C1298.61 202.021 1298.79 201.917 1298.99 201.889L1308.55 200.296C1308.65 200.279 1308.76 200.282 1308.86 200.306C1308.97 200.33 1309.06 200.374 1309.15 200.436C1309.23 200.497 1309.3 200.575 1309.36 200.664C1309.41 200.754 1309.45 200.853 1309.47 200.957Z" fill="white"/>
<path d="M1327 208.254H1307.74C1307.83 207.999 1307.88 207.729 1307.88 207.457V205.211L1308.81 205.06C1308.91 205.043 1309.01 205.006 1309.1 204.951C1309.19 204.896 1309.26 204.824 1309.33 204.739C1309.39 204.654 1309.43 204.557 1309.46 204.455C1309.48 204.353 1309.48 204.247 1309.47 204.144C1309.45 204.04 1309.41 203.941 1309.36 203.851C1309.3 203.762 1309.23 203.685 1309.15 203.623C1309.06 203.562 1308.96 203.518 1308.86 203.494C1308.76 203.469 1308.65 203.466 1308.55 203.482L1298.99 205.076C1298.79 205.104 1298.61 205.208 1298.48 205.366C1298.35 205.525 1298.29 205.726 1298.31 205.928C1298.32 206.131 1298.42 206.319 1298.57 206.455C1298.72 206.591 1298.92 206.665 1299.12 206.661C1299.16 206.662 1299.2 206.66 1299.25 206.653L1299.92 206.541V207.457C1299.92 207.729 1299.97 207.999 1300.06 208.254H1286.37C1284.68 208.254 1283.06 208.925 1281.87 210.121C1280.67 211.316 1280 212.937 1280 214.627C1280 216.317 1280.67 217.938 1281.87 219.133C1283.06 220.328 1284.68 221 1286.37 221H1327C1327.21 221 1327.41 220.916 1327.56 220.766C1327.71 220.617 1327.8 220.414 1327.8 220.203V209.051C1327.8 208.839 1327.71 208.637 1327.56 208.487C1327.41 208.338 1327.21 208.254 1327 208.254ZM1301.51 206.271L1306.29 205.474V207.457C1306.29 207.669 1306.2 207.871 1306.05 208.021C1305.91 208.17 1305.7 208.254 1305.49 208.254H1302.3C1302.09 208.254 1301.89 208.17 1301.74 208.021C1301.59 207.871 1301.51 207.669 1301.51 207.457V206.271ZM1326.2 213.83H1285.58C1285.36 213.83 1285.16 213.914 1285.01 214.064C1284.86 214.213 1284.78 214.416 1284.78 214.627C1284.78 214.838 1284.86 215.041 1285.01 215.19C1285.16 215.34 1285.36 215.424 1285.58 215.424H1326.2V219.407H1286.37C1285.11 219.407 1283.89 218.903 1282.99 218.007C1282.1 217.11 1281.59 215.895 1281.59 214.627C1281.59 213.359 1282.1 212.144 1282.99 211.247C1283.89 210.351 1285.11 209.847 1286.37 209.847H1326.2V213.83Z" fill="white"/>
<path d="M159.801 454H105.29C104.678 454 104.182 454.488 104.182 455.091V500.909C104.182 501.511 104.678 502 105.29 502H127.559C128.171 502 128.667 501.511 128.667 500.909C128.667 500.307 128.171 499.818 127.559 499.818H106.398V466H158.693V499.818H137.531C136.919 499.818 136.423 500.307 136.423 500.909C136.423 501.511 136.919 502 137.531 502H159.801C160.413 502 160.909 501.511 160.909 500.909V455.091C160.909 454.488 160.413 454 159.801 454ZM158.693 463.818H106.398V456.182H138.085V458.364C138.085 458.966 138.581 459.455 139.193 459.455C139.805 459.455 140.301 458.966 140.301 458.364V456.182H144.733V458.364C144.733 458.966 145.229 459.455 145.841 459.455C146.453 459.455 146.949 458.966 146.949 458.364V456.182H151.381V458.364C151.381 458.966 151.877 459.455 152.488 459.455C153.1 459.455 153.596 458.966 153.596 458.364V456.182H158.693V463.818Z" fill="white"/>
<path d="M132.379 479.343C134.579 479.343 136.806 478.651 136.806 477.329V474.467L138.889 473.572V478.839C138.889 479.117 139.123 479.343 139.41 479.343C139.698 479.343 139.931 479.117 139.931 478.839V472.797C139.931 472.574 139.787 472.404 139.612 472.333L132.59 469.316C132.455 469.258 132.302 469.258 132.167 469.316L125.135 472.337C124.947 472.418 124.826 472.598 124.826 472.797C124.826 472.996 124.947 473.177 125.135 473.258L127.951 474.467V477.329C127.951 478.651 130.179 479.343 132.379 479.343ZM135.764 477.329C135.764 477.63 134.612 478.336 132.379 478.336C130.145 478.336 128.993 477.63 128.993 477.329V474.915L132.167 476.279C132.234 476.307 132.307 476.322 132.379 476.322C132.451 476.322 132.523 476.307 132.59 476.279L135.764 474.915V477.329ZM126.629 472.797L132.379 470.327L138.128 472.797L132.379 475.267L126.629 472.797Z" fill="white"/>
<path d="M132.378 483.371C130.431 483.371 128.854 484.949 128.854 486.896C128.854 488.842 130.431 490.42 132.378 490.42C134.325 490.42 135.902 488.842 135.902 486.896C135.9 484.95 134.324 483.373 132.378 483.371ZM132.378 489.413C130.988 489.413 129.861 488.286 129.861 486.896C129.861 485.505 130.988 484.378 132.378 484.378C133.768 484.378 134.895 485.505 134.895 486.896C134.894 488.285 133.768 489.411 132.378 489.413Z" fill="white"/>
<path d="M140.937 485.29C140.937 484.995 140.698 484.756 140.402 484.756H138.988C138.875 484.404 138.734 484.062 138.565 483.734L139.565 482.735C139.774 482.526 139.774 482.187 139.565 481.978L137.295 479.708C137.086 479.499 136.748 479.499 136.539 479.708L135.539 480.707C135.211 480.539 134.869 480.398 134.518 480.285V478.871C134.518 478.575 134.278 478.336 133.983 478.336H130.773C130.477 478.336 130.238 478.575 130.238 478.871V480.285C129.887 480.398 129.545 480.539 129.216 480.707L128.217 479.708C128.008 479.499 127.669 479.499 127.46 479.708L125.191 481.978C124.982 482.187 124.982 482.526 125.191 482.735L126.19 483.734C126.145 483.821 126.102 483.909 126.061 483.998C125.949 484.245 125.85 484.497 125.767 484.756H124.353C124.058 484.756 123.818 484.995 123.818 485.29V488.5C123.818 488.796 124.058 489.035 124.353 489.035H125.767C125.881 489.387 126.022 489.729 126.19 490.057L125.191 491.056C124.982 491.265 124.982 491.604 125.191 491.813L127.46 494.083C127.669 494.291 128.008 494.291 128.217 494.083L129.216 493.083C129.545 493.251 129.887 493.393 130.238 493.506V494.92C130.238 495.215 130.477 495.455 130.773 495.455H133.983C134.278 495.455 134.518 495.215 134.518 494.92V493.506C134.869 493.393 135.211 493.251 135.539 493.083L136.539 494.083C136.748 494.291 137.086 494.291 137.295 494.083L139.565 491.813C139.774 491.604 139.774 491.265 139.565 491.056L138.565 490.057C138.734 489.729 138.875 489.387 138.988 489.035H140.402C140.698 489.035 140.937 488.796 140.937 488.5V485.29ZM139.867 487.965H138.587C138.343 487.965 138.13 488.13 138.069 488.367C137.932 488.897 137.721 489.407 137.443 489.879C137.319 490.089 137.353 490.357 137.525 490.529L138.43 491.434L136.917 492.948L136.012 492.043C135.839 491.87 135.572 491.836 135.362 491.96C134.889 492.239 134.38 492.45 133.849 492.586C133.613 492.647 133.448 492.86 133.448 493.104V494.385H131.308V493.104C131.308 492.86 131.143 492.647 130.907 492.586C130.376 492.45 129.866 492.239 129.394 491.96C129.184 491.836 128.916 491.87 128.744 492.043L127.839 492.948L126.326 491.434L127.23 490.529C127.403 490.357 127.437 490.089 127.313 489.879C127.034 489.407 126.824 488.897 126.687 488.367C126.626 488.13 126.413 487.965 126.169 487.965H124.888V485.825H126.169C126.413 485.825 126.626 485.66 126.687 485.424C126.773 485.087 126.89 484.76 127.035 484.444C127.118 484.261 127.211 484.082 127.313 483.909C127.436 483.699 127.402 483.432 127.23 483.259L126.326 482.354L127.839 480.841L128.744 481.746C128.916 481.919 129.184 481.952 129.394 481.828C129.866 481.55 130.376 481.339 130.907 481.202C131.143 481.141 131.308 480.928 131.308 480.685V479.406H133.448V480.687C133.448 480.931 133.613 481.143 133.849 481.204C134.38 481.341 134.889 481.552 135.362 481.83C135.572 481.954 135.839 481.92 136.012 481.748L136.917 480.843L138.43 482.356L137.525 483.261C137.353 483.434 137.319 483.701 137.443 483.911C137.721 484.384 137.932 484.893 138.069 485.424C138.13 485.66 138.343 485.825 138.587 485.825H139.867V487.965Z" fill="white"/>
<defs>
<filter id="filter0_d" x="1171" y="560" width="118" height="118" filterUnits="userSpaceOnUse" color-interpolation-filters="sRGB">
<feFlood flood-opacity="0" result="BackgroundImageFix"/>
<feColorMatrix in="SourceAlpha" type="matrix" values="0 0 0 0 0 0 0 0 0 0 0 0 0 0 0 0 0 0 127 0"/>
<feOffset dy="1"/>
<feGaussianBlur stdDeviation="4.5"/>
<feColorMatrix type="matrix" values="0 0 0 0 0.4 0 0 0 0 0.4 0 0 0 0 0.4 0 0 0 0.11 0"/>
<feBlend mode="normal" in2="BackgroundImageFix" result="effect1_dropShadow"/>
<feBlend mode="normal" in="SourceGraphic" in2="effect1_dropShadow" result="shape"/>
</filter>
<filter id="filter1_d" x="148" y="0" width="118" height="118" filterUnits="userSpaceOnUse" color-interpolation-filters="sRGB">
<feFlood flood-opacity="0" result="BackgroundImageFix"/>
<feColorMatrix in="SourceAlpha" type="matrix" values="0 0 0 0 0 0 0 0 0 0 0 0 0 0 0 0 0 0 127 0"/>
<feOffset dy="1"/>
<feGaussianBlur stdDeviation="4.5"/>
<feColorMatrix type="matrix" values="0 0 0 0 0.4 0 0 0 0 0.4 0 0 0 0 0.4 0 0 0 0.11 0"/>
<feBlend mode="normal" in2="BackgroundImageFix" result="effect1_dropShadow"/>
<feBlend mode="normal" in="SourceGraphic" in2="effect1_dropShadow" result="shape"/>
</filter>
<filter id="filter2_d" x="148" y="560" width="118" height="118" filterUnits="userSpaceOnUse" color-interpolation-filters="sRGB">
<feFlood flood-opacity="0" result="BackgroundImageFix"/>
<feColorMatrix in="SourceAlpha" type="matrix" values="0 0 0 0 0 0 0 0 0 0 0 0 0 0 0 0 0 0 127 0"/>
<feOffset dy="1"/>
<feGaussianBlur stdDeviation="4.5"/>
<feColorMatrix type="matrix" values="0 0 0 0 0.4 0 0 0 0 0.4 0 0 0 0 0.4 0 0 0 0.11 0"/>
<feBlend mode="normal" in2="BackgroundImageFix" result="effect1_dropShadow"/>
<feBlend mode="normal" in="SourceGraphic" in2="effect1_dropShadow" result="shape"/>
</filter>
<filter id="filter3_d" x="74" y="140" width="118" height="118" filterUnits="userSpaceOnUse" color-interpolation-filters="sRGB">
<feFlood flood-opacity="0" result="BackgroundImageFix"/>
<feColorMatrix in="SourceAlpha" type="matrix" values="0 0 0 0 0 0 0 0 0 0 0 0 0 0 0 0 0 0 127 0"/>
<feOffset dy="1"/>
<feGaussianBlur stdDeviation="4.5"/>
<feColorMatrix type="matrix" values="0 0 0 0 0.4 0 0 0 0 0.4 0 0 0 0 0.4 0 0 0 0.11 0"/>
<feBlend mode="normal" in2="BackgroundImageFix" result="effect1_dropShadow"/>
<feBlend mode="normal" in="SourceGraphic" in2="effect1_dropShadow" result="shape"/>
</filter>
<filter id="filter4_d" x="74" y="420" width="118" height="118" filterUnits="userSpaceOnUse" color-interpolation-filters="sRGB">
<feFlood flood-opacity="0" result="BackgroundImageFix"/>
<feColorMatrix in="SourceAlpha" type="matrix" values="0 0 0 0 0 0 0 0 0 0 0 0 0 0 0 0 0 0 127 0"/>
<feOffset dy="1"/>
<feGaussianBlur stdDeviation="4.5"/>
<feColorMatrix type="matrix" values="0 0 0 0 0.4 0 0 0 0 0.4 0 0 0 0 0.4 0 0 0 0.11 0"/>
<feBlend mode="normal" in2="BackgroundImageFix" result="effect1_dropShadow"/>
<feBlend mode="normal" in="SourceGraphic" in2="effect1_dropShadow" result="shape"/>
</filter>
<filter id="filter5_d" x="0" y="280" width="118" height="118" filterUnits="userSpaceOnUse" color-interpolation-filters="sRGB">
<feFlood flood-opacity="0" result="BackgroundImageFix"/>
<feColorMatrix in="SourceAlpha" type="matrix" values="0 0 0 0 0 0 0 0 0 0 0 0 0 0 0 0 0 0 127 0"/>
<feOffset dy="1"/>
<feGaussianBlur stdDeviation="4.5"/>
<feColorMatrix type="matrix" values="0 0 0 0 0.4 0 0 0 0 0.4 0 0 0 0 0.4 0 0 0 0.11 0"/>
<feBlend mode="normal" in2="BackgroundImageFix" result="effect1_dropShadow"/>
<feBlend mode="normal" in="SourceGraphic" in2="effect1_dropShadow" result="shape"/>
</filter>
<filter id="filter6_d" x="521" y="134" width="405" height="405" filterUnits="userSpaceOnUse" color-interpolation-filters="sRGB">
<feFlood flood-opacity="0" result="BackgroundImageFix"/>
<feColorMatrix in="SourceAlpha" type="matrix" values="0 0 0 0 0 0 0 0 0 0 0 0 0 0 0 0 0 0 127 0"/>
<feOffset dy="1"/>
<feGaussianBlur stdDeviation="13"/>
<feColorMatrix type="matrix" values="0 0 0 0 0.200521 0 0 0 0 0.512187 0 0 0 0 0.6875 0 0 0 0.7 0"/>
<feBlend mode="normal" in2="BackgroundImageFix" result="effect1_dropShadow"/>
<feBlend mode="normal" in="SourceGraphic" in2="effect1_dropShadow" result="shape"/>
</filter>
<filter id="filter7_d" x="695.215" y="258.166" width="58.5065" height="58.553" filterUnits="userSpaceOnUse" color-interpolation-filters="sRGB">
<feFlood flood-opacity="0" result="BackgroundImageFix"/>
<feColorMatrix in="SourceAlpha" type="matrix" values="0 0 0 0 0 0 0 0 0 0 0 0 0 0 0 0 0 0 127 0"/>
<feOffset dy="1"/>
<feGaussianBlur stdDeviation="1.5"/>
<feColorMatrix type="matrix" values="0 0 0 0 0 0 0 0 0 0 0 0 0 0 0 0 0 0 0.5 0"/>
<feBlend mode="normal" in2="BackgroundImageFix" result="effect1_dropShadow"/>
<feBlend mode="normal" in="SourceGraphic" in2="effect1_dropShadow" result="shape"/>
</filter>
<filter id="filter8_d" x="695.215" y="258.166" width="58.5065" height="58.553" filterUnits="userSpaceOnUse" color-interpolation-filters="sRGB">
<feFlood flood-opacity="0" result="BackgroundImageFix"/>
<feColorMatrix in="SourceAlpha" type="matrix" values="0 0 0 0 0 0 0 0 0 0 0 0 0 0 0 0 0 0 127 0"/>
<feOffset dy="1"/>
<feGaussianBlur stdDeviation="1.5"/>
<feColorMatrix type="matrix" values="0 0 0 0 0 0 0 0 0 0 0 0 0 0 0 0 0 0 0.5 0"/>
<feBlend mode="normal" in2="BackgroundImageFix" result="effect1_dropShadow"/>
<feBlend mode="normal" in="SourceGraphic" in2="effect1_dropShadow" result="shape"/>
</filter>
<filter id="filter9_d" x="1319" y="280" width="118" height="118" filterUnits="userSpaceOnUse" color-interpolation-filters="sRGB">
<feFlood flood-opacity="0" result="BackgroundImageFix"/>
<feColorMatrix in="SourceAlpha" type="matrix" values="0 0 0 0 0 0 0 0 0 0 0 0 0 0 0 0 0 0 127 0"/>
<feOffset dy="1"/>
<feGaussianBlur stdDeviation="4.5"/>
<feColorMatrix type="matrix" values="0 0 0 0 0.4 0 0 0 0 0.4 0 0 0 0 0.4 0 0 0 0.11 0"/>
<feBlend mode="normal" in2="BackgroundImageFix" result="effect1_dropShadow"/>
<feBlend mode="normal" in="SourceGraphic" in2="effect1_dropShadow" result="shape"/>
</filter>
<filter id="filter10_d" x="1171" y="0" width="118" height="118" filterUnits="userSpaceOnUse" color-interpolation-filters="sRGB">
<feFlood flood-opacity="0" result="BackgroundImageFix"/>
<feColorMatrix in="SourceAlpha" type="matrix" values="0 0 0 0 0 0 0 0 0 0 0 0 0 0 0 0 0 0 127 0"/>
<feOffset dy="1"/>
<feGaussianBlur stdDeviation="4.5"/>
<feColorMatrix type="matrix" values="0 0 0 0 0.4 0 0 0 0 0.4 0 0 0 0 0.4 0 0 0 0.11 0"/>
<feBlend mode="normal" in2="BackgroundImageFix" result="effect1_dropShadow"/>
<feBlend mode="normal" in="SourceGraphic" in2="effect1_dropShadow" result="shape"/>
</filter>
<filter id="filter11_d" x="1245" y="420" width="118" height="118" filterUnits="userSpaceOnUse" color-interpolation-filters="sRGB">
<feFlood flood-opacity="0" result="BackgroundImageFix"/>
<feColorMatrix in="SourceAlpha" type="matrix" values="0 0 0 0 0 0 0 0 0 0 0 0 0 0 0 0 0 0 127 0"/>
<feOffset dy="1"/>
<feGaussianBlur stdDeviation="4.5"/>
<feColorMatrix type="matrix" values="0 0 0 0 0.4 0 0 0 0 0.4 0 0 0 0 0.4 0 0 0 0.11 0"/>
<feBlend mode="normal" in2="BackgroundImageFix" result="effect1_dropShadow"/>
<feBlend mode="normal" in="SourceGraphic" in2="effect1_dropShadow" result="shape"/>
</filter>
<filter id="filter12_d" x="1245" y="140" width="118" height="118" filterUnits="userSpaceOnUse" color-interpolation-filters="sRGB">
<feFlood flood-opacity="0" result="BackgroundImageFix"/>
<feColorMatrix in="SourceAlpha" type="matrix" values="0 0 0 0 0 0 0 0 0 0 0 0 0 0 0 0 0 0 127 0"/>
<feOffset dy="1"/>
<feGaussianBlur stdDeviation="4.5"/>
<feColorMatrix type="matrix" values="0 0 0 0 0.4 0 0 0 0 0.4 0 0 0 0 0.4 0 0 0 0.11 0"/>
<feBlend mode="normal" in2="BackgroundImageFix" result="effect1_dropShadow"/>
<feBlend mode="normal" in="SourceGraphic" in2="effect1_dropShadow" result="shape"/>
</filter>
<linearGradient id="paint0_linear" x1="974.75" y1="167.321" x2="974.75" y2="58" gradientUnits="userSpaceOnUse">
<stop stop-color="#0083FE"/>
<stop offset="1" stop-color="#091CD0"/>
</linearGradient>
<linearGradient id="paint1_linear" x1="1046.5" y1="291.323" x2="1046.5" y2="198" gradientUnits="userSpaceOnUse">
<stop stop-color="#0083FE"/>
<stop offset="1" stop-color="#091CD0"/>
</linearGradient>
<linearGradient id="paint2_linear" x1="1046.5" y1="384.677" x2="1046.5" y2="478" gradientUnits="userSpaceOnUse">
<stop stop-color="#0083FE"/>
<stop offset="1" stop-color="#091CD0"/>
</linearGradient>
<linearGradient id="paint3_linear" x1="970" y1="500.346" x2="970" y2="623" gradientUnits="userSpaceOnUse">
<stop stop-color="#0083FE"/>
<stop offset="1" stop-color="#091CD0"/>
</linearGradient>
<linearGradient id="paint4_linear" x1="1230" y1="656.879" x2="1230" y2="568" gradientUnits="userSpaceOnUse">
<stop stop-color="#0083FE"/>
<stop offset="1" stop-color="#091CD0"/>
</linearGradient>
<linearGradient id="paint5_linear" x1="1103" y1="340.889" x2="1103" y2="340" gradientUnits="userSpaceOnUse">
<stop stop-color="#0083FE"/>
<stop offset="1" stop-color="#091CD0"/>
</linearGradient>
<linearGradient id="paint6_linear" x1="460.75" y1="163.766" x2="460.75" y2="58" gradientUnits="userSpaceOnUse">
<stop stop-color="#0083FE"/>
<stop offset="1" stop-color="#091CD0"/>
</linearGradient>
<linearGradient id="paint7_linear" x1="390.5" y1="291.323" x2="390.5" y2="198" gradientUnits="userSpaceOnUse">
<stop stop-color="#0083FE"/>
<stop offset="1" stop-color="#091CD0"/>
</linearGradient>
<linearGradient id="paint8_linear" x1="390.5" y1="384.677" x2="390.5" y2="478" gradientUnits="userSpaceOnUse">
<stop stop-color="#0083FE"/>
<stop offset="1" stop-color="#091CD0"/>
</linearGradient>
<linearGradient id="paint9_linear" x1="464" y1="506.568" x2="464" y2="623" gradientUnits="userSpaceOnUse">
<stop stop-color="#0083FE"/>
<stop offset="1" stop-color="#091CD0"/>
</linearGradient>
<linearGradient id="paint10_linear" x1="207" y1="96.8792" x2="207" y2="8" gradientUnits="userSpaceOnUse">
<stop stop-color="#0083FE"/>
<stop offset="1" stop-color="#091CD0"/>
</linearGradient>
<linearGradient id="paint11_linear" x1="207" y1="656.879" x2="207" y2="568" gradientUnits="userSpaceOnUse">
<stop stop-color="#0083FE"/>
<stop offset="1" stop-color="#091CD0"/>
</linearGradient>
<linearGradient id="paint12_linear" x1="133" y1="236.879" x2="133" y2="148" gradientUnits="userSpaceOnUse">
<stop stop-color="#0083FE"/>
<stop offset="1" stop-color="#091CD0"/>
</linearGradient>
<linearGradient id="paint13_linear" x1="133" y1="516.879" x2="133" y2="428" gradientUnits="userSpaceOnUse">
<stop stop-color="#0083FE"/>
<stop offset="1" stop-color="#091CD0"/>
</linearGradient>
<linearGradient id="paint14_linear" x1="59" y1="376.879" x2="59" y2="288" gradientUnits="userSpaceOnUse">
<stop stop-color="#0083FE"/>
<stop offset="1" stop-color="#091CD0"/>
</linearGradient>
<linearGradient id="paint15_linear" x1="335" y1="340.889" x2="335" y2="340" gradientUnits="userSpaceOnUse">
<stop stop-color="#0083FE"/>
<stop offset="1" stop-color="#091CD0"/>
</linearGradient>
<linearGradient id="paint16_linear" x1="723.5" y1="472.744" x2="723.5" y2="159" gradientUnits="userSpaceOnUse">
<stop stop-color="#0083FE"/>
<stop offset="1" stop-color="#091CD0"/>
</linearGradient>
<linearGradient id="paint17_linear" x1="1378" y1="376.879" x2="1378" y2="288" gradientUnits="userSpaceOnUse">
<stop stop-color="#0083FE"/>
<stop offset="1" stop-color="#091CD0"/>
</linearGradient>
<linearGradient id="paint18_linear" x1="1230" y1="96.8792" x2="1230" y2="8" gradientUnits="userSpaceOnUse">
<stop stop-color="#0083FE"/>
<stop offset="1" stop-color="#091CD0"/>
</linearGradient>
<linearGradient id="paint19_linear" x1="1304" y1="516.879" x2="1304" y2="428" gradientUnits="userSpaceOnUse">
<stop stop-color="#0083FE"/>
<stop offset="1" stop-color="#091CD0"/>
</linearGradient>
<linearGradient id="paint20_linear" x1="1304" y1="236.879" x2="1304" y2="148" gradientUnits="userSpaceOnUse">
<stop stop-color="#0083FE"/>
<stop offset="1" stop-color="#091CD0"/>
</linearGradient>
</defs>
</svg>
