<svg width="559" height="296" viewBox="0 0 559 296" fill="none" xmlns="http://www.w3.org/2000/svg">
<g filter="url(#filter0_d)">
<rect x="36" y="35" width="487" height="224" rx="10" fill="white"/>
</g>
<path d="M69.658 79C69.562 79 69.496 78.958 69.46 78.874L66.94 73.492C66.928 73.456 66.904 73.438 66.868 73.438H64.276C64.228 73.438 64.204 73.462 64.204 73.51V78.82C64.204 78.94 64.144 79 64.024 79H62.656C62.536 79 62.476 78.94 62.476 78.82V66.58C62.476 66.46 62.536 66.4 62.656 66.4H67.498C68.218 66.4 68.848 66.55 69.388 66.85C69.94 67.15 70.366 67.57 70.666 68.11C70.966 68.65 71.116 69.274 71.116 69.982C71.116 70.822 70.894 71.536 70.45 72.124C70.018 72.7 69.412 73.09 68.632 73.294C68.584 73.318 68.572 73.348 68.596 73.384L71.206 78.784C71.218 78.808 71.224 78.838 71.224 78.874C71.224 78.958 71.176 79 71.08 79H69.658ZM64.276 67.894C64.228 67.894 64.204 67.918 64.204 67.966V71.998C64.204 72.046 64.228 72.07 64.276 72.07H67.282C67.918 72.07 68.428 71.884 68.812 71.512C69.196 71.128 69.388 70.624 69.388 70C69.388 69.364 69.196 68.854 68.812 68.47C68.428 68.086 67.918 67.894 67.282 67.894H64.276ZM80.6448 73.276C80.6928 73.768 80.7108 74.32 80.6988 74.932C80.6988 75.052 80.6388 75.112 80.5188 75.112H74.7768C74.7288 75.112 74.7048 75.136 74.7048 75.184C74.7048 75.592 74.7408 75.904 74.8128 76.12C74.9448 76.6 75.2088 76.978 75.6048 77.254C76.0128 77.518 76.5228 77.65 77.1348 77.65C78.0228 77.65 78.7068 77.284 79.1868 76.552C79.2468 76.432 79.3248 76.414 79.4208 76.498L80.4468 77.182C80.5308 77.254 80.5488 77.332 80.5008 77.416C80.1648 77.956 79.6848 78.382 79.0608 78.694C78.4488 79.006 77.7528 79.162 76.9728 79.162C76.0968 79.162 75.3588 78.97 74.7588 78.586C74.1588 78.202 73.7088 77.656 73.4088 76.948C73.1208 76.24 72.9768 75.382 72.9768 74.374C72.9768 73.498 73.0428 72.832 73.1748 72.376C73.3908 71.548 73.8228 70.894 74.4708 70.414C75.1188 69.934 75.9048 69.694 76.8288 69.694C78.0408 69.694 78.9468 70 79.5468 70.612C80.1468 71.212 80.5128 72.1 80.6448 73.276ZM76.8288 71.188C76.3128 71.188 75.8868 71.32 75.5508 71.584C75.2148 71.836 74.9868 72.178 74.8668 72.61C74.7828 72.874 74.7288 73.21 74.7048 73.618C74.7048 73.666 74.7288 73.69 74.7768 73.69H78.8988C78.9468 73.69 78.9708 73.666 78.9708 73.618C78.9468 73.222 78.9108 72.928 78.8628 72.736C78.7428 72.268 78.5028 71.896 78.1428 71.62C77.7948 71.332 77.3568 71.188 76.8288 71.188ZM86.1393 69.694C86.8713 69.694 87.5073 69.826 88.0473 70.09C88.5993 70.342 89.0193 70.702 89.3073 71.17C89.6073 71.626 89.7573 72.148 89.7573 72.736V78.82C89.7573 78.94 89.6973 79 89.5773 79H88.2093C88.0893 79 88.0293 78.94 88.0293 78.82V78.172C88.0293 78.112 87.9993 78.1 87.9393 78.136C87.6273 78.46 87.2433 78.712 86.7873 78.892C86.3433 79.06 85.8453 79.144 85.2933 79.144C84.4053 79.144 83.6673 78.922 83.0793 78.478C82.5033 78.022 82.2153 77.338 82.2153 76.426C82.2153 75.49 82.5393 74.758 83.1873 74.23C83.8473 73.69 84.7653 73.42 85.9413 73.42H87.9573C88.0053 73.42 88.0293 73.396 88.0293 73.348V72.862C88.0293 72.334 87.8733 71.926 87.5613 71.638C87.2613 71.338 86.7993 71.188 86.1753 71.188C85.6713 71.188 85.2573 71.29 84.9333 71.494C84.6213 71.686 84.4293 71.95 84.3573 72.286C84.3213 72.406 84.2493 72.46 84.1413 72.448L82.6833 72.25C82.5633 72.226 82.5093 72.178 82.5213 72.106C82.6173 71.398 82.9953 70.822 83.6553 70.378C84.3153 69.922 85.1433 69.694 86.1393 69.694ZM85.6713 77.686C86.3073 77.686 86.8593 77.518 87.3273 77.182C87.7953 76.846 88.0293 76.42 88.0293 75.904V74.842C88.0293 74.794 88.0053 74.77 87.9573 74.77H86.2653C85.5573 74.77 84.9933 74.908 84.5733 75.184C84.1533 75.46 83.9433 75.844 83.9433 76.336C83.9433 76.78 84.0993 77.116 84.4113 77.344C84.7353 77.572 85.1553 77.686 85.6713 77.686ZM92.2701 79C92.1501 79 92.0901 78.94 92.0901 78.82V66.58C92.0901 66.46 92.1501 66.4 92.2701 66.4H93.6381C93.7581 66.4 93.8181 66.46 93.8181 66.58V78.82C93.8181 78.94 93.7581 79 93.6381 79H92.2701ZM104.448 71.08C104.448 71.2 104.388 71.26 104.268 71.26H102.324C102.276 71.26 102.252 71.284 102.252 71.332V76.102C102.252 76.606 102.366 76.972 102.594 77.2C102.822 77.416 103.176 77.524 103.656 77.524H104.178C104.298 77.524 104.358 77.584 104.358 77.704V78.82C104.358 78.94 104.298 79 104.178 79C103.794 79.024 103.518 79.036 103.35 79.036C102.438 79.036 101.748 78.874 101.28 78.55C100.824 78.214 100.596 77.602 100.596 76.714V71.332C100.596 71.284 100.572 71.26 100.524 71.26H99.4259C99.3059 71.26 99.2459 71.2 99.2459 71.08V70.018C99.2459 69.898 99.3059 69.838 99.4259 69.838H100.524C100.572 69.838 100.596 69.814 100.596 69.766V67.642C100.596 67.522 100.656 67.462 100.776 67.462H102.072C102.192 67.462 102.252 67.522 102.252 67.642V69.766C102.252 69.814 102.276 69.838 102.324 69.838H104.268C104.388 69.838 104.448 69.898 104.448 70.018V71.08ZM107.618 68.398C107.282 68.398 107.006 68.29 106.79 68.074C106.574 67.858 106.466 67.582 106.466 67.246C106.466 66.91 106.574 66.634 106.79 66.418C107.006 66.202 107.282 66.094 107.618 66.094C107.954 66.094 108.23 66.202 108.446 66.418C108.662 66.634 108.77 66.91 108.77 67.246C108.77 67.582 108.662 67.858 108.446 68.074C108.23 68.29 107.954 68.398 107.618 68.398ZM106.898 78.982C106.778 78.982 106.718 78.922 106.718 78.802V70.018C106.718 69.898 106.778 69.838 106.898 69.838H108.266C108.386 69.838 108.446 69.898 108.446 70.018V78.802C108.446 78.922 108.386 78.982 108.266 78.982H106.898ZM120.684 69.712C121.596 69.712 122.316 69.988 122.844 70.54C123.372 71.08 123.636 71.836 123.636 72.808V78.82C123.636 78.94 123.576 79 123.456 79H122.106C121.986 79 121.926 78.94 121.926 78.82V73.168C121.926 72.568 121.758 72.094 121.422 71.746C121.098 71.386 120.66 71.206 120.108 71.206C119.556 71.206 119.106 71.38 118.758 71.728C118.41 72.076 118.236 72.544 118.236 73.132V78.82C118.236 78.94 118.176 79 118.056 79H116.706C116.586 79 116.526 78.94 116.526 78.82V73.168C116.526 72.568 116.358 72.094 116.022 71.746C115.698 71.386 115.26 71.206 114.708 71.206C114.156 71.206 113.712 71.38 113.376 71.728C113.052 72.076 112.89 72.544 112.89 73.132V78.82C112.89 78.94 112.83 79 112.71 79H111.342C111.222 79 111.162 78.94 111.162 78.82V70.018C111.162 69.898 111.222 69.838 111.342 69.838H112.71C112.83 69.838 112.89 69.898 112.89 70.018V70.63C112.89 70.654 112.896 70.672 112.908 70.684C112.932 70.696 112.956 70.69 112.98 70.666C113.508 70.03 114.276 69.712 115.284 69.712C115.896 69.712 116.418 69.832 116.85 70.072C117.282 70.3 117.618 70.642 117.858 71.098C117.894 71.146 117.93 71.146 117.966 71.098C118.254 70.63 118.632 70.282 119.1 70.054C119.58 69.826 120.108 69.712 120.684 69.712ZM133.344 73.276C133.392 73.768 133.41 74.32 133.398 74.932C133.398 75.052 133.338 75.112 133.218 75.112H127.476C127.428 75.112 127.404 75.136 127.404 75.184C127.404 75.592 127.44 75.904 127.512 76.12C127.644 76.6 127.908 76.978 128.304 77.254C128.712 77.518 129.222 77.65 129.834 77.65C130.722 77.65 131.406 77.284 131.886 76.552C131.946 76.432 132.024 76.414 132.12 76.498L133.146 77.182C133.23 77.254 133.248 77.332 133.2 77.416C132.864 77.956 132.384 78.382 131.76 78.694C131.148 79.006 130.452 79.162 129.672 79.162C128.796 79.162 128.058 78.97 127.458 78.586C126.858 78.202 126.408 77.656 126.108 76.948C125.82 76.24 125.676 75.382 125.676 74.374C125.676 73.498 125.742 72.832 125.874 72.376C126.09 71.548 126.522 70.894 127.17 70.414C127.818 69.934 128.604 69.694 129.528 69.694C130.74 69.694 131.646 70 132.246 70.612C132.846 71.212 133.212 72.1 133.344 73.276ZM129.528 71.188C129.012 71.188 128.586 71.32 128.25 71.584C127.914 71.836 127.686 72.178 127.566 72.61C127.482 72.874 127.428 73.21 127.404 73.618C127.404 73.666 127.428 73.69 127.476 73.69H131.598C131.646 73.69 131.67 73.666 131.67 73.618C131.646 73.222 131.61 72.928 131.562 72.736C131.442 72.268 131.202 71.896 130.842 71.62C130.494 71.332 130.056 71.188 129.528 71.188ZM140.226 68.398C139.89 68.398 139.614 68.29 139.398 68.074C139.182 67.858 139.074 67.582 139.074 67.246C139.074 66.91 139.182 66.634 139.398 66.418C139.614 66.202 139.89 66.094 140.226 66.094C140.562 66.094 140.838 66.202 141.054 66.418C141.27 66.634 141.378 66.91 141.378 67.246C141.378 67.582 141.27 67.858 141.054 68.074C140.838 68.29 140.562 68.398 140.226 68.398ZM139.506 78.982C139.386 78.982 139.326 78.922 139.326 78.802V70.018C139.326 69.898 139.386 69.838 139.506 69.838H140.874C140.994 69.838 141.054 69.898 141.054 70.018V78.802C141.054 78.922 140.994 78.982 140.874 78.982H139.506ZM147.856 69.712C148.84 69.712 149.62 70 150.196 70.576C150.772 71.14 151.06 71.908 151.06 72.88V78.82C151.06 78.94 151 79 150.88 79H149.512C149.392 79 149.332 78.94 149.332 78.82V73.222C149.332 72.622 149.158 72.136 148.81 71.764C148.462 71.392 148 71.206 147.424 71.206C146.86 71.206 146.398 71.392 146.038 71.764C145.678 72.136 145.498 72.616 145.498 73.204V78.82C145.498 78.94 145.438 79 145.318 79H143.95C143.83 79 143.77 78.94 143.77 78.82V70.018C143.77 69.898 143.83 69.838 143.95 69.838H145.318C145.438 69.838 145.498 69.898 145.498 70.018V70.666C145.498 70.69 145.504 70.708 145.516 70.72C145.54 70.732 145.558 70.726 145.57 70.702C146.086 70.042 146.848 69.712 147.856 69.712ZM158.044 71.08C158.044 71.2 157.984 71.26 157.864 71.26H155.92C155.872 71.26 155.848 71.284 155.848 71.332V76.102C155.848 76.606 155.962 76.972 156.19 77.2C156.418 77.416 156.772 77.524 157.252 77.524H157.774C157.894 77.524 157.954 77.584 157.954 77.704V78.82C157.954 78.94 157.894 79 157.774 79C157.39 79.024 157.114 79.036 156.946 79.036C156.034 79.036 155.344 78.874 154.876 78.55C154.42 78.214 154.192 77.602 154.192 76.714V71.332C154.192 71.284 154.168 71.26 154.12 71.26H153.022C152.902 71.26 152.842 71.2 152.842 71.08V70.018C152.842 69.898 152.902 69.838 153.022 69.838H154.12C154.168 69.838 154.192 69.814 154.192 69.766V67.642C154.192 67.522 154.252 67.462 154.372 67.462H155.668C155.788 67.462 155.848 67.522 155.848 67.642V69.766C155.848 69.814 155.872 69.838 155.92 69.838H157.864C157.984 69.838 158.044 69.898 158.044 70.018V71.08ZM167.375 73.276C167.423 73.768 167.441 74.32 167.429 74.932C167.429 75.052 167.369 75.112 167.249 75.112H161.507C161.459 75.112 161.435 75.136 161.435 75.184C161.435 75.592 161.471 75.904 161.543 76.12C161.675 76.6 161.939 76.978 162.335 77.254C162.743 77.518 163.253 77.65 163.865 77.65C164.753 77.65 165.437 77.284 165.917 76.552C165.977 76.432 166.055 76.414 166.151 76.498L167.177 77.182C167.261 77.254 167.279 77.332 167.231 77.416C166.895 77.956 166.415 78.382 165.791 78.694C165.179 79.006 164.483 79.162 163.703 79.162C162.827 79.162 162.089 78.97 161.489 78.586C160.889 78.202 160.439 77.656 160.139 76.948C159.851 76.24 159.707 75.382 159.707 74.374C159.707 73.498 159.773 72.832 159.905 72.376C160.121 71.548 160.553 70.894 161.201 70.414C161.849 69.934 162.635 69.694 163.559 69.694C164.771 69.694 165.677 70 166.277 70.612C166.877 71.212 167.243 72.1 167.375 73.276ZM163.559 71.188C163.043 71.188 162.617 71.32 162.281 71.584C161.945 71.836 161.717 72.178 161.597 72.61C161.513 72.874 161.459 73.21 161.435 73.618C161.435 73.666 161.459 73.69 161.507 73.69H165.629C165.677 73.69 165.701 73.666 165.701 73.618C165.677 73.222 165.641 72.928 165.593 72.736C165.473 72.268 165.233 71.896 164.873 71.62C164.525 71.332 164.087 71.188 163.559 71.188ZM173.624 69.748C174.008 69.748 174.356 69.826 174.668 69.982C174.752 70.018 174.782 70.09 174.758 70.198L174.47 71.548C174.458 71.656 174.386 71.692 174.254 71.656C174.05 71.572 173.81 71.53 173.534 71.53L173.282 71.548C172.718 71.572 172.25 71.77 171.878 72.142C171.518 72.502 171.338 72.976 171.338 73.564V78.82C171.338 78.94 171.278 79 171.158 79H169.79C169.67 79 169.61 78.94 169.61 78.82V70.018C169.61 69.898 169.67 69.838 169.79 69.838H171.158C171.278 69.838 171.338 69.898 171.338 70.018V70.972C171.338 71.008 171.344 71.032 171.356 71.044C171.38 71.044 171.398 71.032 171.41 71.008C171.95 70.168 172.688 69.748 173.624 69.748ZM179.567 69.694C180.299 69.694 180.935 69.826 181.475 70.09C182.027 70.342 182.447 70.702 182.735 71.17C183.035 71.626 183.185 72.148 183.185 72.736V78.82C183.185 78.94 183.125 79 183.005 79H181.637C181.517 79 181.457 78.94 181.457 78.82V78.172C181.457 78.112 181.427 78.1 181.367 78.136C181.055 78.46 180.671 78.712 180.215 78.892C179.771 79.06 179.273 79.144 178.721 79.144C177.833 79.144 177.095 78.922 176.507 78.478C175.931 78.022 175.643 77.338 175.643 76.426C175.643 75.49 175.967 74.758 176.615 74.23C177.275 73.69 178.193 73.42 179.369 73.42H181.385C181.433 73.42 181.457 73.396 181.457 73.348V72.862C181.457 72.334 181.301 71.926 180.989 71.638C180.689 71.338 180.227 71.188 179.603 71.188C179.099 71.188 178.685 71.29 178.361 71.494C178.049 71.686 177.857 71.95 177.785 72.286C177.749 72.406 177.677 72.46 177.569 72.448L176.111 72.25C175.991 72.226 175.937 72.178 175.949 72.106C176.045 71.398 176.423 70.822 177.083 70.378C177.743 69.922 178.571 69.694 179.567 69.694ZM179.099 77.686C179.735 77.686 180.287 77.518 180.755 77.182C181.223 76.846 181.457 76.42 181.457 75.904V74.842C181.457 74.794 181.433 74.77 181.385 74.77H179.693C178.985 74.77 178.421 74.908 178.001 75.184C177.581 75.46 177.371 75.844 177.371 76.336C177.371 76.78 177.527 77.116 177.839 77.344C178.163 77.572 178.583 77.686 179.099 77.686ZM189.19 79.144C188.278 79.144 187.498 78.916 186.85 78.46C186.202 77.992 185.758 77.362 185.518 76.57C185.338 76.018 185.248 75.292 185.248 74.392C185.248 73.564 185.338 72.838 185.518 72.214C185.758 71.446 186.202 70.834 186.85 70.378C187.51 69.922 188.29 69.694 189.19 69.694C190.09 69.694 190.876 69.922 191.548 70.378C192.22 70.834 192.658 71.41 192.862 72.106C192.934 72.298 192.982 72.496 193.006 72.7C193.006 72.796 192.952 72.856 192.844 72.88L191.494 73.078H191.458C191.374 73.078 191.314 73.024 191.278 72.916L191.224 72.628C191.128 72.22 190.894 71.878 190.522 71.602C190.15 71.326 189.7 71.188 189.172 71.188C188.656 71.188 188.218 71.326 187.858 71.602C187.498 71.878 187.264 72.244 187.156 72.7C187.048 73.132 186.994 73.702 186.994 74.41C186.994 75.106 187.048 75.67 187.156 76.102C187.276 76.582 187.51 76.96 187.858 77.236C188.218 77.512 188.656 77.65 189.172 77.65C189.7 77.65 190.15 77.512 190.522 77.236C190.906 76.96 191.146 76.6 191.242 76.156C191.254 76.144 191.254 76.132 191.242 76.12C191.242 76.096 191.248 76.078 191.26 76.066V75.994C191.296 75.898 191.362 75.862 191.458 75.886L192.808 76.102C192.904 76.126 192.952 76.174 192.952 76.246V76.318C192.952 76.426 192.922 76.558 192.862 76.714C192.658 77.446 192.22 78.034 191.548 78.478C190.876 78.922 190.09 79.144 189.19 79.144ZM199.51 71.08C199.51 71.2 199.45 71.26 199.33 71.26H197.386C197.338 71.26 197.314 71.284 197.314 71.332V76.102C197.314 76.606 197.428 76.972 197.656 77.2C197.884 77.416 198.238 77.524 198.718 77.524H199.24C199.36 77.524 199.42 77.584 199.42 77.704V78.82C199.42 78.94 199.36 79 199.24 79C198.856 79.024 198.58 79.036 198.412 79.036C197.5 79.036 196.81 78.874 196.342 78.55C195.886 78.214 195.658 77.602 195.658 76.714V71.332C195.658 71.284 195.634 71.26 195.586 71.26H194.488C194.368 71.26 194.308 71.2 194.308 71.08V70.018C194.308 69.898 194.368 69.838 194.488 69.838H195.586C195.634 69.838 195.658 69.814 195.658 69.766V67.642C195.658 67.522 195.718 67.462 195.838 67.462H197.134C197.254 67.462 197.314 67.522 197.314 67.642V69.766C197.314 69.814 197.338 69.838 197.386 69.838H199.33C199.45 69.838 199.51 69.898 199.51 70.018V71.08ZM202.681 68.398C202.345 68.398 202.069 68.29 201.853 68.074C201.637 67.858 201.529 67.582 201.529 67.246C201.529 66.91 201.637 66.634 201.853 66.418C202.069 66.202 202.345 66.094 202.681 66.094C203.017 66.094 203.293 66.202 203.509 66.418C203.725 66.634 203.833 66.91 203.833 67.246C203.833 67.582 203.725 67.858 203.509 68.074C203.293 68.29 203.017 68.398 202.681 68.398ZM201.961 78.982C201.841 78.982 201.781 78.922 201.781 78.802V70.018C201.781 69.898 201.841 69.838 201.961 69.838H203.329C203.449 69.838 203.509 69.898 203.509 70.018V78.802C203.509 78.922 203.449 78.982 203.329 78.982H201.961ZM208.637 79C208.529 79 208.457 78.952 208.421 78.856L205.487 70.036L205.469 69.964C205.469 69.88 205.523 69.838 205.631 69.838H207.143C207.251 69.838 207.323 69.886 207.359 69.982L209.339 76.498C209.351 76.522 209.369 76.534 209.393 76.534C209.417 76.534 209.435 76.522 209.447 76.498L211.409 69.982C211.445 69.886 211.517 69.838 211.625 69.838L213.137 69.856C213.269 69.856 213.317 69.922 213.281 70.054L210.365 78.856C210.329 78.952 210.257 79 210.149 79H208.637ZM222.078 73.276C222.126 73.768 222.144 74.32 222.132 74.932C222.132 75.052 222.072 75.112 221.952 75.112H216.21C216.162 75.112 216.138 75.136 216.138 75.184C216.138 75.592 216.174 75.904 216.246 76.12C216.378 76.6 216.642 76.978 217.038 77.254C217.446 77.518 217.956 77.65 218.568 77.65C219.456 77.65 220.14 77.284 220.62 76.552C220.68 76.432 220.758 76.414 220.854 76.498L221.88 77.182C221.964 77.254 221.982 77.332 221.934 77.416C221.598 77.956 221.118 78.382 220.494 78.694C219.882 79.006 219.186 79.162 218.406 79.162C217.53 79.162 216.792 78.97 216.192 78.586C215.592 78.202 215.142 77.656 214.842 76.948C214.554 76.24 214.41 75.382 214.41 74.374C214.41 73.498 214.476 72.832 214.608 72.376C214.824 71.548 215.256 70.894 215.904 70.414C216.552 69.934 217.338 69.694 218.262 69.694C219.474 69.694 220.38 70 220.98 70.612C221.58 71.212 221.946 72.1 222.078 73.276ZM218.262 71.188C217.746 71.188 217.32 71.32 216.984 71.584C216.648 71.836 216.42 72.178 216.3 72.61C216.216 72.874 216.162 73.21 216.138 73.618C216.138 73.666 216.162 73.69 216.21 73.69H220.332C220.38 73.69 220.404 73.666 220.404 73.618C220.38 73.222 220.344 72.928 220.296 72.736C220.176 72.268 219.936 71.896 219.576 71.62C219.228 71.332 218.79 71.188 218.262 71.188ZM231.93 69.748C232.314 69.748 232.662 69.826 232.974 69.982C233.058 70.018 233.088 70.09 233.064 70.198L232.776 71.548C232.764 71.656 232.692 71.692 232.56 71.656C232.356 71.572 232.116 71.53 231.84 71.53L231.588 71.548C231.024 71.572 230.556 71.77 230.184 72.142C229.824 72.502 229.644 72.976 229.644 73.564V78.82C229.644 78.94 229.584 79 229.464 79H228.096C227.976 79 227.916 78.94 227.916 78.82V70.018C227.916 69.898 227.976 69.838 228.096 69.838H229.464C229.584 69.838 229.644 69.898 229.644 70.018V70.972C229.644 71.008 229.65 71.032 229.662 71.044C229.686 71.044 229.704 71.032 229.716 71.008C230.256 70.168 230.994 69.748 231.93 69.748ZM241.871 73.276C241.919 73.768 241.937 74.32 241.925 74.932C241.925 75.052 241.865 75.112 241.745 75.112H236.003C235.955 75.112 235.931 75.136 235.931 75.184C235.931 75.592 235.967 75.904 236.039 76.12C236.171 76.6 236.435 76.978 236.831 77.254C237.239 77.518 237.749 77.65 238.361 77.65C239.249 77.65 239.933 77.284 240.413 76.552C240.473 76.432 240.551 76.414 240.647 76.498L241.673 77.182C241.757 77.254 241.775 77.332 241.727 77.416C241.391 77.956 240.911 78.382 240.287 78.694C239.675 79.006 238.979 79.162 238.199 79.162C237.323 79.162 236.585 78.97 235.985 78.586C235.385 78.202 234.935 77.656 234.635 76.948C234.347 76.24 234.203 75.382 234.203 74.374C234.203 73.498 234.269 72.832 234.401 72.376C234.617 71.548 235.049 70.894 235.697 70.414C236.345 69.934 237.131 69.694 238.055 69.694C239.267 69.694 240.173 70 240.773 70.612C241.373 71.212 241.739 72.1 241.871 73.276ZM238.055 71.188C237.539 71.188 237.113 71.32 236.777 71.584C236.441 71.836 236.213 72.178 236.093 72.61C236.009 72.874 235.955 73.21 235.931 73.618C235.931 73.666 235.955 73.69 236.003 73.69H240.125C240.173 73.69 240.197 73.666 240.197 73.618C240.173 73.222 240.137 72.928 240.089 72.736C239.969 72.268 239.729 71.896 239.369 71.62C239.021 71.332 238.583 71.188 238.055 71.188ZM251.54 72.142C251.768 72.79 251.882 73.558 251.882 74.446C251.882 75.286 251.786 76.012 251.594 76.624C251.342 77.428 250.928 78.052 250.352 78.496C249.776 78.928 249.038 79.144 248.138 79.144C247.73 79.144 247.34 79.066 246.968 78.91C246.608 78.742 246.296 78.508 246.032 78.208C246.008 78.184 245.984 78.178 245.96 78.19C245.948 78.202 245.942 78.22 245.942 78.244V82.258C245.942 82.378 245.882 82.438 245.762 82.438H244.394C244.274 82.438 244.214 82.378 244.214 82.258V70.018C244.214 69.898 244.274 69.838 244.394 69.838H245.762C245.882 69.838 245.942 69.898 245.942 70.018V70.612C245.942 70.636 245.948 70.654 245.96 70.666C245.984 70.678 246.008 70.672 246.032 70.648C246.296 70.348 246.608 70.114 246.968 69.946C247.328 69.778 247.718 69.694 248.138 69.694C249.002 69.694 249.716 69.91 250.28 70.342C250.856 70.762 251.276 71.362 251.54 72.142ZM249.56 76.786C249.944 76.21 250.136 75.418 250.136 74.41C250.136 73.486 249.986 72.742 249.686 72.178C249.338 71.518 248.768 71.188 247.976 71.188C247.28 71.188 246.752 71.512 246.392 72.16C246.104 72.676 245.96 73.432 245.96 74.428C245.96 75.436 246.116 76.204 246.428 76.732C246.776 77.344 247.286 77.65 247.958 77.65C248.678 77.65 249.212 77.362 249.56 76.786ZM257.781 79.144C256.893 79.144 256.119 78.922 255.459 78.478C254.799 78.022 254.337 77.392 254.073 76.588C253.857 75.94 253.749 75.208 253.749 74.392C253.749 73.54 253.851 72.82 254.055 72.232C254.319 71.44 254.781 70.822 255.441 70.378C256.101 69.922 256.887 69.694 257.799 69.694C258.663 69.694 259.413 69.922 260.049 70.378C260.697 70.822 261.159 71.434 261.435 72.214C261.651 72.826 261.759 73.546 261.759 74.374C261.759 75.214 261.651 75.952 261.435 76.588C261.171 77.392 260.715 78.022 260.067 78.478C259.419 78.922 258.657 79.144 257.781 79.144ZM257.781 77.65C258.261 77.65 258.681 77.518 259.041 77.254C259.401 76.978 259.659 76.594 259.815 76.102C259.947 75.646 260.013 75.082 260.013 74.41C260.013 73.738 259.953 73.18 259.833 72.736C259.677 72.244 259.419 71.866 259.059 71.602C258.699 71.326 258.261 71.188 257.745 71.188C257.253 71.188 256.827 71.326 256.467 71.602C256.107 71.866 255.849 72.244 255.693 72.736C255.561 73.156 255.495 73.714 255.495 74.41C255.495 75.106 255.561 75.67 255.693 76.102C255.837 76.594 256.089 76.978 256.449 77.254C256.821 77.518 257.265 77.65 257.781 77.65ZM268.036 69.748C268.42 69.748 268.768 69.826 269.08 69.982C269.164 70.018 269.194 70.09 269.17 70.198L268.882 71.548C268.87 71.656 268.798 71.692 268.666 71.656C268.462 71.572 268.222 71.53 267.946 71.53L267.694 71.548C267.13 71.572 266.662 71.77 266.29 72.142C265.93 72.502 265.75 72.976 265.75 73.564V78.82C265.75 78.94 265.69 79 265.57 79H264.202C264.082 79 264.022 78.94 264.022 78.82V70.018C264.022 69.898 264.082 69.838 264.202 69.838H265.57C265.69 69.838 265.75 69.898 265.75 70.018V70.972C265.75 71.008 265.756 71.032 265.768 71.044C265.792 71.044 265.81 71.032 265.822 71.008C266.362 70.168 267.1 69.748 268.036 69.748ZM275.413 71.08C275.413 71.2 275.353 71.26 275.233 71.26H273.289C273.241 71.26 273.217 71.284 273.217 71.332V76.102C273.217 76.606 273.331 76.972 273.559 77.2C273.787 77.416 274.141 77.524 274.621 77.524H275.143C275.263 77.524 275.323 77.584 275.323 77.704V78.82C275.323 78.94 275.263 79 275.143 79C274.759 79.024 274.483 79.036 274.315 79.036C273.403 79.036 272.713 78.874 272.245 78.55C271.789 78.214 271.561 77.602 271.561 76.714V71.332C271.561 71.284 271.537 71.26 271.489 71.26H270.391C270.271 71.26 270.211 71.2 270.211 71.08V70.018C270.211 69.898 270.271 69.838 270.391 69.838H271.489C271.537 69.838 271.561 69.814 271.561 69.766V67.642C271.561 67.522 271.621 67.462 271.741 67.462H273.037C273.157 67.462 273.217 67.522 273.217 67.642V69.766C273.217 69.814 273.241 69.838 273.289 69.838H275.233C275.353 69.838 275.413 69.898 275.413 70.018V71.08ZM278.583 68.398C278.247 68.398 277.971 68.29 277.755 68.074C277.539 67.858 277.431 67.582 277.431 67.246C277.431 66.91 277.539 66.634 277.755 66.418C277.971 66.202 278.247 66.094 278.583 66.094C278.919 66.094 279.195 66.202 279.411 66.418C279.627 66.634 279.735 66.91 279.735 67.246C279.735 67.582 279.627 67.858 279.411 68.074C279.195 68.29 278.919 68.398 278.583 68.398ZM277.863 78.982C277.743 78.982 277.683 78.922 277.683 78.802V70.018C277.683 69.898 277.743 69.838 277.863 69.838H279.231C279.351 69.838 279.411 69.898 279.411 70.018V78.802C279.411 78.922 279.351 78.982 279.231 78.982H277.863ZM286.213 69.712C287.197 69.712 287.977 70 288.553 70.576C289.129 71.14 289.417 71.908 289.417 72.88V78.82C289.417 78.94 289.357 79 289.237 79H287.869C287.749 79 287.689 78.94 287.689 78.82V73.222C287.689 72.622 287.515 72.136 287.167 71.764C286.819 71.392 286.357 71.206 285.781 71.206C285.217 71.206 284.755 71.392 284.395 71.764C284.035 72.136 283.855 72.616 283.855 73.204V78.82C283.855 78.94 283.795 79 283.675 79H282.307C282.187 79 282.127 78.94 282.127 78.82V70.018C282.127 69.898 282.187 69.838 282.307 69.838H283.675C283.795 69.838 283.855 69.898 283.855 70.018V70.666C283.855 70.69 283.861 70.708 283.873 70.72C283.897 70.732 283.915 70.726 283.927 70.702C284.443 70.042 285.205 69.712 286.213 69.712ZM297.517 70.018C297.517 69.898 297.577 69.838 297.697 69.838H299.065C299.185 69.838 299.245 69.898 299.245 70.018V78.532C299.245 79.984 298.831 81.022 298.003 81.646C297.187 82.27 296.089 82.582 294.709 82.582C294.517 82.582 294.217 82.57 293.809 82.546C293.689 82.534 293.629 82.468 293.629 82.348L293.683 81.106C293.683 81.058 293.701 81.016 293.737 80.98C293.773 80.944 293.821 80.932 293.881 80.944C294.049 80.956 294.295 80.962 294.619 80.962C295.639 80.962 296.377 80.77 296.833 80.386C297.289 80.014 297.517 79.378 297.517 78.478V78.154C297.517 78.13 297.505 78.112 297.481 78.1C297.469 78.088 297.451 78.094 297.427 78.118C296.923 78.706 296.185 79 295.213 79C294.433 79 293.725 78.796 293.089 78.388C292.465 77.98 292.033 77.38 291.793 76.588C291.637 76.06 291.559 75.328 291.559 74.392C291.559 73.396 291.649 72.628 291.829 72.088C292.057 71.368 292.459 70.792 293.035 70.36C293.623 69.916 294.313 69.694 295.105 69.694C296.089 69.694 296.863 69.994 297.427 70.594C297.451 70.618 297.469 70.63 297.481 70.63C297.505 70.618 297.517 70.6 297.517 70.576V70.018ZM297.409 76.066C297.445 75.874 297.469 75.67 297.481 75.454C297.505 75.238 297.517 74.878 297.517 74.374C297.517 73.87 297.505 73.516 297.481 73.312C297.469 73.096 297.439 72.892 297.391 72.7C297.295 72.256 297.079 71.896 296.743 71.62C296.407 71.332 295.987 71.188 295.483 71.188C294.979 71.188 294.559 71.332 294.223 71.62C293.887 71.896 293.647 72.256 293.503 72.7C293.371 73.06 293.305 73.618 293.305 74.374C293.305 75.202 293.365 75.766 293.485 76.066C293.605 76.51 293.839 76.876 294.187 77.164C294.547 77.44 294.979 77.578 295.483 77.578C296.011 77.578 296.437 77.44 296.761 77.164C297.097 76.876 297.313 76.51 297.409 76.066Z" fill="#2B2350"/>
<path d="M173 158.135C173 158.135 234.329 204.144 278.646 204C322.633 203.856 336.26 149.12 379.283 138.983C413.994 130.804 474 150.575 474 150.575" stroke="url(#paint0_linear)" stroke-dasharray="3 3"/>
<path d="M61 204.431V207.772C61 209.003 61.9925 210 63.2178 210H170.782C172.008 210 173 209.003 173 207.772V204.431H61Z" fill="#F9F9F9"/>
<path d="M171.337 206.659H62.6636C62.0537 206.659 61.5547 206.157 61.5547 205.545V118.671C61.5547 118.058 62.0537 117.557 62.6636 117.557H171.337C171.947 117.557 172.446 118.058 172.446 118.671V205.545C172.446 206.157 171.947 206.659 171.337 206.659Z" fill="white"/>
<path d="M171.337 207.216H62.6634C61.7485 207.216 61 206.464 61 205.545V118.671C61 117.752 61.7485 117 62.6634 117H171.337C172.251 117 173 117.752 173 118.671V205.545C173 206.464 172.251 207.216 171.337 207.216ZM62.6634 118.114C62.3584 118.114 62.1089 118.364 62.1089 118.671V205.545C62.1089 205.851 62.3584 206.102 62.6634 206.102H171.337C171.642 206.102 171.891 205.851 171.891 205.545V118.671C171.891 118.364 171.642 118.114 171.337 118.114H62.6634Z" fill="#CFD8DC"/>
<path d="M62.125 125.353V118.659C62.125 118.353 62.3745 118.103 62.6795 118.103H171.353C171.658 118.103 171.907 118.353 171.907 118.659V125.353H62.125Z" fill="#ECEFF1"/>
<path d="M68.4779 123.209C69.2435 123.209 69.8641 122.586 69.8641 121.817C69.8641 121.048 69.2435 120.425 68.4779 120.425C67.7124 120.425 67.0918 121.048 67.0918 121.817C67.0918 122.586 67.7124 123.209 68.4779 123.209Z" fill="#CFD8DC"/>
<path d="M74.5775 123.209C75.3431 123.209 75.9637 122.586 75.9637 121.817C75.9637 121.048 75.3431 120.425 74.5775 120.425C73.812 120.425 73.1914 121.048 73.1914 121.817C73.1914 122.586 73.812 123.209 74.5775 123.209Z" fill="#CFD8DC"/>
<path d="M80.6752 123.209C81.4407 123.209 82.0613 122.586 82.0613 121.817C82.0613 121.048 81.4407 120.425 80.6752 120.425C79.9097 120.425 79.2891 121.048 79.2891 121.817C79.2891 122.586 79.9097 123.209 80.6752 123.209Z" fill="#CFD8DC"/>
<path d="M88.7232 206.102H62.6638C62.3589 206.102 62.1094 205.851 62.1094 205.545V125.353H88.7232V206.102Z" fill="#546E7A"/>
<path d="M80.9603 133.846H65.4355V136.073H80.9603V133.846Z" fill="#ECEFF1"/>
<path d="M76.5247 139.415H65.4355V141.642H76.5247V139.415Z" fill="#ECEFF1"/>
<path d="M78.7425 144.983H65.4355V147.211H78.7425V144.983Z" fill="#ECEFF1"/>
<path d="M83.1781 150.552H65.4355V152.78H83.1781V150.552Z" fill="#ECEFF1"/>
<path d="M79.8514 156.121H65.4355V158.349H79.8514V156.121Z" fill="#ECEFF1"/>
<path d="M77.6336 161.69H65.4355V163.918H77.6336V161.69Z" fill="#ECEFF1"/>
<path d="M82.0692 167.259H65.4355V169.487H82.0692V167.259Z" fill="#ECEFF1"/>
<path d="M82.0692 172.828H65.4355V175.055H82.0692V172.828Z" fill="#ECEFF1"/>
<path d="M78.7425 178.397H65.4355V180.624H78.7425V178.397Z" fill="#ECEFF1"/>
<path d="M110.347 132.593H93.7129V135.934H110.347V132.593Z" fill="#546E7A"/>
<path d="M163.02 148.186H95.3765C94.7666 148.186 94.2676 147.684 94.2676 147.072V143.174C94.2676 142.561 94.7666 142.06 95.3765 142.06H163.02C163.63 142.06 164.129 142.561 164.129 143.174V147.072C164.129 147.684 163.63 148.186 163.02 148.186Z" fill="white"/>
<path d="M163.02 148.742H95.3763C94.4614 148.742 93.7129 147.991 93.7129 147.072V143.174C93.7129 142.255 94.4614 141.503 95.3763 141.503H163.02C163.935 141.503 164.683 142.255 164.683 143.174V147.072C164.683 147.991 163.935 148.742 163.02 148.742ZM95.3763 142.617C95.0713 142.617 94.8218 142.867 94.8218 143.174V147.072C94.8218 147.378 95.0713 147.629 95.3763 147.629H163.02C163.325 147.629 163.574 147.378 163.574 147.072V143.174C163.574 142.867 163.325 142.617 163.02 142.617H95.3763Z" fill="#CFD8DC"/>
<path d="M134.744 152.641H95.9316V153.754H134.744V152.641Z" fill="#CFD8DC"/>
<path d="M150.568 156.138H139.573C138.936 156.138 138.42 155.637 138.42 155.024V152.797H151.727V155.024C151.721 155.642 151.206 156.138 150.568 156.138Z" fill="#ECEFF1"/>
<path d="M150.058 154.868H140.078C139.468 154.868 138.969 154.367 138.969 153.754V152.641C138.969 152.028 139.468 151.527 140.078 151.527H150.058C150.668 151.527 151.167 152.028 151.167 152.641V153.754C151.167 154.367 150.673 154.868 150.058 154.868Z" fill="#9C93D1"/>
<path d="M150.058 155.425H140.077C139.163 155.425 138.414 154.673 138.414 153.754V152.641C138.414 151.722 139.163 150.97 140.077 150.97H150.058C150.972 150.97 151.721 151.722 151.721 152.641V153.754C151.721 154.673 150.978 155.425 150.058 155.425ZM140.077 152.084C139.772 152.084 139.523 152.334 139.523 152.641V153.754C139.523 154.061 139.772 154.311 140.077 154.311H150.058C150.363 154.311 150.612 154.061 150.612 153.754V152.641C150.612 152.334 150.363 152.084 150.058 152.084H140.077Z" fill="#7770A0"/>
<path d="M163.02 197.191H95.3765C94.7666 197.191 94.2676 196.69 94.2676 196.078V161.551C94.2676 160.938 94.7666 160.437 95.3765 160.437H163.02C163.63 160.437 164.129 160.938 164.129 161.551V196.078C164.129 196.69 163.63 197.191 163.02 197.191Z" fill="white"/>
<path d="M163.02 160.437H95.3765C94.7666 160.437 94.2676 160.938 94.2676 161.551V168.233H164.129V161.551C164.129 160.938 163.63 160.437 163.02 160.437Z" fill="#CFD8DC"/>
<path d="M163.02 197.748H95.3763C94.4614 197.748 93.7129 196.997 93.7129 196.078V161.551C93.7129 160.632 94.4614 159.88 95.3763 159.88H163.02C163.935 159.88 164.683 160.632 164.683 161.551V196.078C164.683 196.997 163.935 197.748 163.02 197.748ZM95.3763 160.994C95.0713 160.994 94.8218 161.244 94.8218 161.551V196.078C94.8218 196.384 95.0713 196.635 95.3763 196.635H163.02C163.325 196.635 163.574 196.384 163.574 196.078V161.551C163.574 161.244 163.325 160.994 163.02 160.994H95.3763Z" fill="#CFD8DC"/>
<path d="M117 162.108H112.564V166.563H117V162.108Z" fill="#ECEFF1"/>
<path d="M122.545 162.108H118.109V166.563H122.545V162.108Z" fill="#ECEFF1"/>
<path d="M128.09 162.108H123.654V166.563H128.09V162.108Z" fill="#ECEFF1"/>
<path d="M133.633 162.108H129.197V166.563H133.633V162.108Z" fill="#ECEFF1"/>
<path d="M139.178 162.108H134.742V166.563H139.178V162.108Z" fill="#ECEFF1"/>
<path d="M144.723 162.108H140.287V166.563H144.723V162.108Z" fill="#ECEFF1"/>
<path d="M150.268 162.108H145.832V166.563H150.268V162.108Z" fill="#ECEFF1"/>
<path d="M100.367 162.108H95.9316V166.563H100.367V162.108Z" fill="#ECEFF1"/>
<path d="M97.2559 165.482V163.049H98.1485C98.3149 163.049 98.459 163.066 98.5755 163.093C98.6919 163.127 98.7917 163.166 98.8638 163.227C98.9359 163.283 98.9913 163.355 99.0246 163.433C99.0578 163.517 99.0745 163.606 99.0745 163.706C99.0745 163.762 99.0689 163.812 99.0523 163.862C99.0357 163.912 99.0135 163.962 98.9802 164.007C98.9469 164.051 98.9026 164.09 98.8527 164.129C98.8028 164.163 98.7363 164.196 98.6642 164.224C98.825 164.263 98.9414 164.324 99.019 164.413C99.0967 164.502 99.1355 164.614 99.1355 164.747C99.1355 164.853 99.1133 164.948 99.0745 165.037C99.0357 165.126 98.9747 165.204 98.897 165.271C98.8194 165.338 98.7252 165.388 98.6143 165.427C98.5034 165.466 98.3703 165.482 98.2262 165.482H97.2559ZM97.8214 164.073H98.1153C98.1763 164.073 98.2317 164.068 98.2816 164.062C98.3315 164.051 98.3759 164.04 98.4091 164.018C98.4424 163.996 98.4701 163.968 98.4868 163.923C98.5034 163.884 98.5145 163.834 98.5145 163.778C98.5145 163.723 98.5089 163.673 98.4923 163.634C98.4757 163.595 98.4535 163.567 98.4258 163.539C98.398 163.517 98.3592 163.5 98.3093 163.489C98.265 163.478 98.2095 163.472 98.143 163.472H97.8159V164.073H97.8214ZM97.8214 164.447V165.054H98.2151C98.2871 165.054 98.3481 165.042 98.398 165.026C98.4424 165.009 98.4812 164.981 98.5089 164.953C98.5367 164.926 98.5533 164.887 98.5644 164.853C98.5755 164.814 98.581 164.775 98.581 164.736C98.581 164.692 98.5755 164.653 98.5644 164.614C98.5533 164.58 98.5311 164.547 98.5034 164.525C98.4757 164.502 98.4369 164.48 98.3925 164.469C98.3481 164.458 98.2871 164.447 98.2151 164.447H97.8214Z" fill="black"/>
<path d="M105.91 162.108H101.475V166.563H105.91V162.108Z" fill="#ECEFF1"/>
<path d="M103.864 165.555H103.32L103.614 163.121H104.158L103.864 165.555Z" fill="black"/>
<path d="M111.455 162.108H107.02V166.563H111.455V162.108Z" fill="#ECEFF1"/>
<path d="M108.754 164.847H108.543C108.521 164.847 108.499 164.842 108.488 164.831C108.471 164.82 108.466 164.803 108.46 164.786L108.421 164.569H108.017L107.928 164.786C107.922 164.803 107.911 164.814 107.895 164.825C107.878 164.836 107.856 164.842 107.834 164.842H107.623L108.2 163.622H108.477L108.754 164.847ZM108.089 164.385H108.394L108.333 164.04C108.327 164.012 108.322 163.984 108.316 163.951C108.311 163.923 108.305 163.895 108.299 163.867C108.294 163.878 108.288 163.895 108.283 163.912C108.277 163.929 108.266 163.945 108.261 163.962C108.255 163.979 108.25 163.995 108.238 164.007C108.233 164.018 108.227 164.029 108.227 164.04L108.089 164.385Z" fill="black"/>
<path d="M108.826 164.848L108.976 163.628H109.392C109.464 163.628 109.525 163.633 109.575 163.65C109.625 163.661 109.663 163.684 109.697 163.706C109.73 163.728 109.752 163.762 109.769 163.795C109.785 163.828 109.791 163.867 109.791 163.912C109.791 163.945 109.785 163.979 109.78 164.007C109.769 164.04 109.758 164.068 109.741 164.09C109.724 164.118 109.697 164.14 109.669 164.163C109.641 164.185 109.602 164.202 109.564 164.218C109.63 164.235 109.68 164.263 109.708 164.302C109.741 164.341 109.752 164.385 109.752 164.447C109.752 164.502 109.741 164.558 109.719 164.602C109.697 164.653 109.669 164.692 109.625 164.731C109.586 164.764 109.536 164.797 109.475 164.814C109.419 164.836 109.353 164.848 109.281 164.848H108.826ZM109.159 164.33L109.12 164.647H109.297C109.331 164.647 109.358 164.641 109.381 164.63C109.403 164.619 109.419 164.608 109.436 164.591C109.453 164.575 109.458 164.552 109.469 164.53C109.475 164.508 109.48 164.48 109.48 164.452C109.48 164.435 109.48 164.419 109.475 164.402C109.469 164.385 109.464 164.374 109.453 164.363C109.442 164.352 109.425 164.346 109.408 164.341C109.392 164.335 109.37 164.33 109.342 164.33H109.159ZM109.181 164.146H109.309C109.342 164.146 109.364 164.14 109.392 164.135C109.414 164.129 109.436 164.118 109.453 164.101C109.469 164.085 109.486 164.068 109.492 164.04C109.503 164.018 109.508 163.984 109.508 163.951C109.508 163.906 109.497 163.873 109.475 163.856C109.453 163.84 109.414 163.828 109.364 163.828H109.22L109.181 164.146Z" fill="black"/>
<path d="M110.356 164.636C110.384 164.636 110.412 164.636 110.434 164.63C110.456 164.625 110.478 164.619 110.489 164.614C110.506 164.608 110.517 164.597 110.528 164.591C110.539 164.58 110.55 164.575 110.556 164.569C110.567 164.564 110.572 164.558 110.584 164.552C110.589 164.547 110.6 164.547 110.606 164.547C110.617 164.547 110.622 164.547 110.628 164.552C110.633 164.558 110.639 164.558 110.639 164.564L110.733 164.68C110.683 164.742 110.617 164.792 110.545 164.825C110.473 164.859 110.389 164.875 110.301 164.875C110.223 164.875 110.157 164.864 110.096 164.836C110.035 164.809 109.985 164.77 109.946 164.725C109.907 164.68 109.874 164.619 109.852 164.558C109.829 164.491 109.818 164.424 109.818 164.346C109.818 164.28 109.824 164.213 109.841 164.146C109.857 164.085 109.879 164.023 109.907 163.973C109.935 163.923 109.968 163.873 110.007 163.828C110.046 163.784 110.09 163.75 110.14 163.723C110.19 163.695 110.24 163.673 110.295 163.656C110.351 163.639 110.406 163.634 110.467 163.634C110.511 163.634 110.556 163.639 110.589 163.645C110.628 163.656 110.661 163.667 110.689 163.678C110.717 163.695 110.744 163.712 110.772 163.734C110.794 163.756 110.816 163.778 110.833 163.806L110.739 163.918C110.733 163.923 110.722 163.934 110.717 163.94C110.705 163.945 110.694 163.951 110.683 163.951C110.672 163.951 110.667 163.951 110.656 163.945C110.65 163.94 110.639 163.934 110.633 163.929C110.628 163.923 110.617 163.918 110.606 163.906C110.595 163.901 110.584 163.89 110.572 163.884C110.561 163.879 110.545 163.873 110.523 163.867C110.506 163.862 110.478 163.862 110.456 163.862C110.406 163.862 110.356 163.873 110.312 163.895C110.267 163.918 110.229 163.945 110.195 163.99C110.162 164.029 110.14 164.079 110.118 164.135C110.101 164.19 110.09 164.257 110.09 164.33C110.09 164.38 110.096 164.43 110.107 164.469C110.118 164.508 110.134 164.541 110.157 164.575C110.179 164.608 110.206 164.625 110.234 164.642C110.29 164.63 110.323 164.636 110.356 164.636Z" fill="black"/>
<path d="M107.684 164.491V164.335H110.772V164.491H107.684Z" fill="black"/>
<path d="M209 235.754V239.222C209 240.5 210.035 241.534 211.312 241.534H323.454C324.732 241.534 325.766 240.5 325.766 239.222V235.754H209Z" fill="#F9F9F9"/>
<path d="M324.032 238.066H210.734C210.098 238.066 209.578 237.546 209.578 236.91V146.734C209.578 146.098 210.098 145.578 210.734 145.578H324.032C324.668 145.578 325.188 146.098 325.188 146.734V236.91C325.188 237.546 324.668 238.066 324.032 238.066Z" fill="white"/>
<path d="M324.032 238.644H210.734C209.78 238.644 209 237.864 209 236.91V146.734C209 145.78 209.78 145 210.734 145H324.032C324.986 145 325.766 145.78 325.766 146.734V236.91C325.766 237.864 324.986 238.644 324.032 238.644ZM210.734 146.156C210.416 146.156 210.156 146.416 210.156 146.734V236.91C210.156 237.228 210.416 237.488 210.734 237.488H324.032C324.35 237.488 324.61 237.228 324.61 236.91V146.734C324.61 146.416 324.35 146.156 324.032 146.156H210.734Z" fill="#CFD8DC"/>
<path d="M210.174 153.671V146.722C210.174 146.404 210.434 146.144 210.752 146.144H324.05C324.368 146.144 324.628 146.404 324.628 146.722V153.671H210.174Z" fill="#ECEFF1"/>
<path d="M216.801 151.445C217.599 151.445 218.246 150.798 218.246 150C218.246 149.202 217.599 148.555 216.801 148.555C216.002 148.555 215.355 149.202 215.355 150C215.355 150.798 216.002 151.445 216.801 151.445Z" fill="#CFD8DC"/>
<path d="M223.16 151.445C223.958 151.445 224.605 150.798 224.605 150C224.605 149.202 223.958 148.555 223.16 148.555C222.362 148.555 221.715 149.202 221.715 150C221.715 150.798 222.362 151.445 223.16 151.445Z" fill="#CFD8DC"/>
<path d="M229.517 151.445C230.316 151.445 230.963 150.798 230.963 150C230.963 149.202 230.316 148.555 229.517 148.555C228.719 148.555 228.072 149.202 228.072 150C228.072 150.798 228.719 151.445 229.517 151.445Z" fill="#CFD8DC"/>
<path d="M237.905 237.488H210.736C210.418 237.488 210.158 237.228 210.158 236.91V153.671H237.905V237.488Z" fill="#546E7A"/>
<path d="M229.808 162.486H213.623V164.798H229.808V162.486Z" fill="#ECEFF1"/>
<path d="M225.184 168.267H213.623V170.579H225.184V168.267Z" fill="#ECEFF1"/>
<path d="M227.496 174.047H213.623V176.36H227.496V174.047Z" fill="#ECEFF1"/>
<path d="M232.121 179.828H213.623V182.14H232.121V179.828Z" fill="#ECEFF1"/>
<path d="M228.652 185.608H213.623V187.92H228.652V185.608Z" fill="#ECEFF1"/>
<path d="M226.34 191.388H213.623V193.701H226.34V191.388Z" fill="#ECEFF1"/>
<path d="M230.965 197.169H213.623V199.481H230.965V197.169Z" fill="#ECEFF1"/>
<path d="M230.965 202.95H213.623V205.262H230.965V202.95Z" fill="#ECEFF1"/>
<path d="M227.496 208.73H213.623V211.042H227.496V208.73Z" fill="#ECEFF1"/>
<path d="M271.432 158.873H242.529V162.342H271.432V158.873Z" fill="#546E7A"/>
<path d="M264.495 180.261H242.529V182.573H264.495V180.261Z" fill="#546E7A"/>
<path d="M261.027 213.21H242.529V215.522H261.027V213.21Z" fill="#546E7A"/>
<path d="M318.832 217.545H271.431C270.796 217.545 270.275 217.025 270.275 216.389V212.343C270.275 211.707 270.796 211.187 271.431 211.187H318.832C319.468 211.187 319.988 211.707 319.988 212.343V216.389C319.988 217.025 319.468 217.545 318.832 217.545Z" fill="white"/>
<path d="M318.832 218.124H271.431C270.478 218.124 269.697 217.343 269.697 216.389V212.343C269.697 211.389 270.478 210.609 271.431 210.609H318.832C319.785 210.609 320.566 211.389 320.566 212.343V216.389C320.566 217.343 319.785 218.124 318.832 218.124ZM271.431 211.765C271.113 211.765 270.853 212.025 270.853 212.343V216.389C270.853 216.707 271.113 216.967 271.431 216.967H318.832C319.15 216.967 319.41 216.707 319.41 216.389V212.343C319.41 212.025 319.15 211.765 318.832 211.765H271.431Z" fill="#CFD8DC"/>
<path d="M295.71 179.105H270.275V183.729H295.71V179.105Z" fill="#CFD8DC"/>
<path d="M254.668 171.013H242.529V173.325H254.668V171.013Z" fill="#546E7A"/>
<path d="M296.865 171.013H279.523V173.325H296.865V171.013Z" fill="#CFD8DC"/>
<path d="M274.322 175.059H272.01C271.056 175.059 270.275 174.278 270.275 173.325V171.012C270.275 170.059 271.056 169.278 272.01 169.278H274.322C275.276 169.278 276.056 170.059 276.056 171.012V173.325C276.056 174.278 275.276 175.059 274.322 175.059ZM272.01 170.434C271.692 170.434 271.431 170.695 271.431 171.012V173.325C271.431 173.643 271.692 173.903 272.01 173.903H274.322C274.64 173.903 274.9 173.643 274.9 173.325V171.012C274.9 170.695 274.64 170.434 274.322 170.434H272.01Z" fill="#CFD8DC"/>
<path d="M260.449 193.556H242.529V195.869H260.449V193.556Z" fill="#546E7A"/>
<path d="M314.206 193.556H279.523V195.869H314.206V193.556Z" fill="#CFD8DC"/>
<path d="M274.322 197.603H272.01C271.056 197.603 270.275 196.822 270.275 195.868V193.556C270.275 192.602 271.056 191.822 272.01 191.822H274.322C275.276 191.822 276.056 192.602 276.056 193.556V195.868C276.056 196.822 275.276 197.603 274.322 197.603ZM272.01 192.978C271.692 192.978 271.431 193.238 271.431 193.556V195.868C271.431 196.186 271.692 196.446 272.01 196.446H274.322C274.64 196.446 274.9 196.186 274.9 195.868V193.556C274.9 193.238 274.64 192.978 274.322 192.978H272.01Z" fill="#CFD8DC"/>
<path d="M277.208 180.261H271.428V182.573H277.208V180.261Z" fill="#2A373D"/>
<path d="M282.989 180.261H277.209V182.573H282.989V180.261Z" fill="#546E7A"/>
<path d="M288.771 180.261H282.99V182.573H288.771V180.261Z" fill="#00897B"/>
<path d="M294.552 180.261H288.771V182.573H294.552V180.261Z" fill="#4DB6AC"/>
<path d="M302.644 180.261H296.863V182.573H302.644V180.261Z" fill="#2A373D"/>
<path d="M308.425 180.261H302.645V182.573H308.425V180.261Z" fill="#546E7A"/>
<path d="M314.204 180.261H308.424V182.573H314.204V180.261Z" fill="#C15953"/>
<path d="M319.986 180.261H314.205V182.573H319.986V180.261Z" fill="#E96F5F"/>
<path d="M277.208 184.886H271.428V187.198H277.208V184.886Z" fill="#676C6E"/>
<path d="M282.989 184.886H277.209V187.198H282.989V184.886Z" fill="#767778"/>
<path d="M288.771 184.886H282.99V187.198H288.771V184.886Z" fill="#7770A0"/>
<path d="M294.552 184.886H288.771V187.198H294.552V184.886Z" fill="#9C93D1"/>
<path d="M302.644 184.886H296.863V187.198H302.644V184.886Z" fill="#676C6E"/>
<path d="M308.425 184.886H302.645V187.198H308.425V184.886Z" fill="#767778"/>
<path d="M314.204 184.886H308.424V187.198H314.204V184.886Z" fill="#FBC02D"/>
<path d="M319.986 184.886H314.205V187.198H319.986V184.886Z" fill="#FDD835"/>
<path d="M257.559 202.805H242.529V205.117H257.559V202.805Z" fill="#546E7A"/>
<path d="M314.206 202.805H279.523V205.117H314.206V202.805Z" fill="#CFD8DC"/>
<path d="M274.32 206.949H272.008C271.054 206.949 270.273 206.168 270.273 205.215V202.902C270.273 201.949 271.054 201.168 272.008 201.168H274.32C275.274 201.168 276.054 201.949 276.054 202.902V205.215C276.054 206.168 275.274 206.949 274.32 206.949ZM272.008 202.324C271.69 202.324 271.43 202.584 271.43 202.902V205.215C271.43 205.532 271.69 205.793 272.008 205.793H274.32C274.638 205.793 274.898 205.532 274.898 205.215V202.902C274.898 202.584 274.638 202.324 274.32 202.324H272.008Z" fill="#CFD8DC"/>
<path d="M273.884 205.429L271.844 203.388L272.659 202.568L273.884 203.793L276.746 200.932L277.566 201.752L273.884 205.429Z" fill="#4DB6AC"/>
<path d="M260.979 232.673H243.73C243.065 232.673 242.527 232.153 242.527 231.517V228.627H262.181V231.517C262.181 232.153 261.643 232.673 260.979 232.673Z" fill="#ECEFF1"/>
<path d="M260.447 230.673H244.262C243.626 230.673 243.105 230.153 243.105 229.517V227.205C243.105 226.569 243.626 226.049 244.262 226.049H260.447C261.083 226.049 261.603 226.569 261.603 227.205V229.517C261.603 230.153 261.083 230.673 260.447 230.673Z" fill="#4DB6AC"/>
<path d="M260.447 231.251H244.261C243.308 231.251 242.527 230.471 242.527 229.517V227.205C242.527 226.251 243.308 225.471 244.261 225.471H260.447C261.401 225.471 262.181 226.251 262.181 227.205V229.517C262.181 230.471 261.401 231.251 260.447 231.251ZM244.261 226.627C243.944 226.627 243.683 226.887 243.683 227.205V229.517C243.683 229.835 243.944 230.095 244.261 230.095H260.447C260.765 230.095 261.025 229.835 261.025 229.517V227.205C261.025 226.887 260.765 226.627 260.447 226.627H244.261Z" fill="#00897B"/>
<path d="M362 204.115V207.461C362 208.694 362.998 209.692 364.231 209.692H472.423C473.655 209.692 474.653 208.694 474.653 207.461V204.115H362Z" fill="#F9F9F9"/>
<path d="M472.983 205.788H363.676C363.062 205.788 362.561 205.286 362.561 204.673V117.673C362.561 117.06 363.062 116.558 363.676 116.558H472.983C473.597 116.558 474.099 117.06 474.099 117.673V204.673C474.099 205.286 473.597 205.788 472.983 205.788Z" fill="white"/>
<path d="M472.98 206.346H363.673C362.753 206.346 362 205.593 362 204.673V117.673C362 116.753 362.753 116 363.673 116H472.98C473.9 116 474.653 116.753 474.653 117.673V204.673C474.653 205.593 473.9 206.346 472.98 206.346ZM363.673 117.115C363.366 117.115 363.115 117.366 363.115 117.673V204.673C363.115 204.979 363.366 205.23 363.673 205.23H472.98C473.287 205.23 473.538 204.979 473.538 204.673V117.673C473.538 117.366 473.287 117.115 472.98 117.115H363.673Z" fill="#CFD8DC"/>
<path d="M363.133 124.365V117.662C363.133 117.355 363.384 117.104 363.691 117.104H472.998C473.304 117.104 473.555 117.355 473.555 117.662V124.365H363.133Z" fill="#ECEFF1"/>
<path d="M369.523 122.219C370.293 122.219 370.917 121.595 370.917 120.825C370.917 120.055 370.293 119.43 369.523 119.43C368.753 119.43 368.129 120.055 368.129 120.825C368.129 121.595 368.753 122.219 369.523 122.219Z" fill="#CFD8DC"/>
<path d="M375.658 122.218C376.428 122.218 377.052 121.594 377.052 120.824C377.052 120.054 376.428 119.43 375.658 119.43C374.888 119.43 374.264 120.054 374.264 120.824C374.264 121.594 374.888 122.218 375.658 122.218Z" fill="#CFD8DC"/>
<path d="M381.793 122.218C382.563 122.218 383.187 121.594 383.187 120.824C383.187 120.054 382.563 119.43 381.793 119.43C381.023 119.43 380.398 120.054 380.398 120.824C380.398 121.594 381.023 122.218 381.793 122.218Z" fill="#CFD8DC"/>
<path d="M465.733 199.654H463.502V198.538H464.617V197.423H465.733V199.654Z" fill="#ECEFF1"/>
<path d="M460.066 199.654H456.631V198.538H460.066V199.654ZM453.201 199.654H449.766V198.538H453.201V199.654ZM446.331 199.654H442.895V198.538H446.331V199.654ZM439.465 199.654H436.03V198.538H439.465V199.654ZM432.595 199.654H429.159V198.538H432.595V199.654ZM425.724 199.654H422.289V198.538H425.724V199.654ZM418.859 199.654H415.423V198.538H418.859V199.654ZM411.988 199.654H408.553V198.538H411.988V199.654ZM405.123 199.654H401.688V198.538H405.123V199.654Z" fill="#ECEFF1"/>
<path d="M398.25 199.654H396.02V197.423H397.135V198.538H398.25V199.654Z" fill="#ECEFF1"/>
<path d="M397.135 192.22H396.02V194.824H397.135V192.22Z" fill="#ECEFF1"/>
<path d="M397.135 189.615H396.02V187.385H398.25V188.5H397.135V189.615Z" fill="#ECEFF1"/>
<path d="M460.066 188.5H456.631V187.385H460.066V188.5ZM453.201 188.5H449.766V187.385H453.201V188.5ZM446.331 188.5H442.895V187.385H446.331V188.5ZM439.46 188.5H436.024V187.385H439.46V188.5ZM432.595 188.5H429.159V187.385H432.595V188.5ZM425.724 188.5H422.289V187.385H425.724V188.5ZM418.859 188.5H415.423V187.385H418.859V188.5ZM411.988 188.5H408.553V187.385H411.988V188.5ZM405.123 188.5H401.688V187.385H405.123V188.5Z" fill="#ECEFF1"/>
<path d="M465.733 189.615H464.617V188.5H463.502V187.385H465.733V189.615Z" fill="#ECEFF1"/>
<path d="M465.731 192.22H464.615V194.824H465.731V192.22Z" fill="#ECEFF1"/>
<path d="M433.667 192.962H428.09V194.077H433.667V192.962Z" fill="#CFD8DC"/>
<path d="M431.436 190.731H430.32V196.308H431.436V190.731Z" fill="#CFD8DC"/>
<path d="M389.884 205.23H363.673C363.366 205.23 363.115 204.979 363.115 204.673V124.365H389.884V205.23Z" fill="#546E7A"/>
<path d="M387.097 127.154H365.904V136.077H387.097V127.154Z" fill="#ECEFF1"/>
<path d="M385.7 131.058H381.238V132.173H385.7V131.058Z" fill="#546E7A"/>
<path d="M384.026 129.385H382.91V133.846H384.026V129.385Z" fill="#546E7A"/>
<path d="M378.73 129.663H368.691V130.221H378.73V129.663Z" fill="#CFD8DC"/>
<path d="M376.07 133.01H368.691V133.567H376.07V133.01Z" fill="#CFD8DC"/>
<path d="M387.097 138.308H365.904V147.231H387.097V138.308Z" fill="#ECEFF1"/>
<path d="M385.7 142.211H381.238V143.327H385.7V142.211Z" fill="#546E7A"/>
<path d="M384.026 140.538H382.91V145H384.026V140.538Z" fill="#546E7A"/>
<path d="M378.73 140.817H368.691V141.375H378.73V140.817Z" fill="#CFD8DC"/>
<path d="M376.07 144.163H368.691V144.721H376.07V144.163Z" fill="#CFD8DC"/>
<path d="M387.097 149.461H365.904V158.384H387.097V149.461Z" fill="#ECEFF1"/>
<path d="M385.7 153.365H381.238V154.481H385.7V153.365Z" fill="#546E7A"/>
<path d="M384.026 151.692H382.91V156.154H384.026V151.692Z" fill="#546E7A"/>
<path d="M378.73 151.971H368.691V152.529H378.73V151.971Z" fill="#CFD8DC"/>
<path d="M376.07 155.317H368.691V155.875H376.07V155.317Z" fill="#CFD8DC"/>
<path d="M387.097 160.615H365.904V169.538H387.097V160.615Z" fill="#ECEFF1"/>
<path d="M385.7 164.519H381.238V165.634H385.7V164.519Z" fill="#546E7A"/>
<path d="M384.026 162.846H382.91V167.307H384.026V162.846Z" fill="#546E7A"/>
<path d="M378.73 163.125H368.691V163.682H378.73V163.125Z" fill="#CFD8DC"/>
<path d="M376.07 166.471H368.691V167.028H376.07V166.471Z" fill="#CFD8DC"/>
<path d="M387.097 171.769H365.904V180.692H387.097V171.769Z" fill="#ECEFF1"/>
<path d="M385.7 175.673H381.238V176.788H385.7V175.673Z" fill="#546E7A"/>
<path d="M384.026 174H382.91V178.461H384.026V174Z" fill="#546E7A"/>
<path d="M378.73 174.279H368.691V174.836H378.73V174.279Z" fill="#CFD8DC"/>
<path d="M376.07 177.625H368.691V178.182H376.07V177.625Z" fill="#CFD8DC"/>
<path d="M387.097 182.923H365.904V191.846H387.097V182.923Z" fill="#ECEFF1"/>
<path d="M385.7 186.827H381.238V187.942H385.7V186.827Z" fill="#546E7A"/>
<path d="M384.026 185.154H382.91V189.615H384.026V185.154Z" fill="#546E7A"/>
<path d="M378.73 185.432H368.691V185.99H378.73V185.432Z" fill="#CFD8DC"/>
<path d="M376.07 188.778H368.691V189.336H376.07V188.778Z" fill="#CFD8DC"/>
<path d="M464.336 147.509H397.971C397.357 147.509 396.855 147.007 396.855 146.394V142.49C396.855 141.877 397.357 141.375 397.971 141.375H464.336C464.949 141.375 465.451 141.877 465.451 142.49V146.394C465.451 147.007 464.949 147.509 464.336 147.509Z" fill="white"/>
<path d="M464.335 148.067H397.97C397.05 148.067 396.297 147.314 396.297 146.394V142.49C396.297 141.57 397.05 140.817 397.97 140.817H464.335C465.255 140.817 466.008 141.57 466.008 142.49V146.394C466.008 147.314 465.255 148.067 464.335 148.067ZM397.97 141.933C397.663 141.933 397.412 142.184 397.412 142.49V146.394C397.412 146.701 397.663 146.952 397.97 146.952H464.335C464.642 146.952 464.893 146.701 464.893 146.394V142.49C464.893 142.184 464.642 141.933 464.335 141.933H397.97Z" fill="#CFD8DC"/>
<path d="M464.336 136.913H397.971C397.357 136.913 396.855 136.411 396.855 135.798V131.894C396.855 131.281 397.357 130.779 397.971 130.779H464.336C464.949 130.779 465.451 131.281 465.451 131.894V135.798C465.451 136.411 464.949 136.913 464.336 136.913Z" fill="white"/>
<path d="M464.335 137.471H397.97C397.05 137.471 396.297 136.718 396.297 135.798V131.894C396.297 130.974 397.05 130.221 397.97 130.221H464.335C465.255 130.221 466.008 130.974 466.008 131.894V135.798C466.008 136.718 465.255 137.471 464.335 137.471ZM397.97 131.336C397.663 131.336 397.412 131.587 397.412 131.894V135.798C397.412 136.105 397.663 136.356 397.97 136.356H464.335C464.642 136.356 464.893 136.105 464.893 135.798V131.894C464.893 131.587 464.642 131.336 464.335 131.336H397.97Z" fill="#CFD8DC"/>
<path d="M438.959 160.571H404.939V162.802H438.959V160.571Z" fill="#CFD8DC"/>
<path d="M399.921 164.474H397.691C396.77 164.474 396.018 163.721 396.018 162.801V160.571C396.018 159.65 396.77 158.897 397.691 158.897H399.921C400.842 158.897 401.594 159.65 401.594 160.571V162.801C401.594 163.721 400.842 164.474 399.921 164.474ZM397.691 160.013C397.384 160.013 397.133 160.264 397.133 160.571V162.801C397.133 163.108 397.384 163.359 397.691 163.359H399.921C400.228 163.359 400.479 163.108 400.479 162.801V160.571C400.479 160.264 400.228 160.013 399.921 160.013H397.691Z" fill="#CFD8DC"/>
<path d="M450.112 153.321H404.939V155.551H450.112V153.321Z" fill="#CFD8DC"/>
<path d="M399.921 157.224H397.691C396.77 157.224 396.018 156.471 396.018 155.551V153.321C396.018 152.4 396.77 151.647 397.691 151.647H399.921C400.842 151.647 401.594 152.4 401.594 153.321V155.551C401.594 156.471 400.842 157.224 399.921 157.224ZM397.691 152.763C397.384 152.763 397.133 153.014 397.133 153.321V155.551C397.133 155.858 397.384 156.109 397.691 156.109H399.921C400.228 156.109 400.479 155.858 400.479 155.551V153.321C400.479 153.014 400.228 152.763 399.921 152.763H397.691Z" fill="#CFD8DC"/>
<path d="M444.535 167.82H404.939V170.051H444.535V167.82Z" fill="#CFD8DC"/>
<path d="M399.921 171.813H397.691C396.77 171.813 396.018 171.061 396.018 170.14V167.91C396.018 166.989 396.77 166.237 397.691 166.237H399.921C400.842 166.237 401.594 166.989 401.594 167.91V170.14C401.594 171.066 400.842 171.813 399.921 171.813ZM397.691 167.352C397.384 167.352 397.133 167.603 397.133 167.91V170.14C397.133 170.447 397.384 170.698 397.691 170.698H399.921C400.228 170.698 400.479 170.447 400.479 170.14V167.91C400.479 167.603 400.228 167.352 399.921 167.352H397.691Z" fill="#CFD8DC"/>
<path d="M399.504 170.352L397.535 168.378L398.321 167.592L399.504 168.774L402.264 166.014L403.056 166.806L399.504 170.352Z" fill="#4DB6AC"/>
<path d="M462.94 181.266H455.132C453.593 181.266 452.344 180.017 452.344 178.478C452.344 176.938 453.593 175.689 455.132 175.689H462.94C464.479 175.689 465.728 176.938 465.728 178.478C465.728 180.017 464.479 181.266 462.94 181.266Z" fill="#4DB6AC"/>
<path d="M462.943 181.824H455.135C453.289 181.824 451.789 180.324 451.789 178.478C451.789 176.632 453.289 175.132 455.135 175.132H462.943C464.789 175.132 466.289 176.632 466.289 178.478C466.289 180.324 464.789 181.824 462.943 181.824ZM455.135 176.247C453.903 176.247 452.904 177.245 452.904 178.478C452.904 179.71 453.903 180.708 455.135 180.708H462.943C464.175 180.708 465.174 179.71 465.174 178.478C465.174 177.245 464.175 176.247 462.943 176.247H455.135Z" fill="#546E7A"/>
<path d="M462.385 181.824C464.233 181.824 465.731 180.326 465.731 178.478C465.731 176.63 464.233 175.132 462.385 175.132C460.537 175.132 459.039 176.63 459.039 178.478C459.039 180.326 460.537 181.824 462.385 181.824Z" fill="white"/>
<path d="M462.384 182.382C460.232 182.382 458.48 180.63 458.48 178.478C458.48 176.325 460.232 174.574 462.384 174.574C464.537 174.574 466.288 176.325 466.288 178.478C466.288 180.63 464.537 182.382 462.384 182.382ZM462.384 175.689C460.845 175.689 459.596 176.939 459.596 178.478C459.596 180.017 460.845 181.266 462.384 181.266C463.924 181.266 465.173 180.017 465.173 178.478C465.173 176.944 463.924 175.689 462.384 175.689Z" fill="#546E7A"/>
<path d="M443.145 177.363H396.299V179.594H443.145V177.363Z" fill="#CFD8DC"/>
<defs>
<filter id="filter0_d" x="0" y="0" width="559" height="296" filterUnits="userSpaceOnUse" color-interpolation-filters="sRGB">
<feFlood flood-opacity="0" result="BackgroundImageFix"/>
<feColorMatrix in="SourceAlpha" type="matrix" values="0 0 0 0 0 0 0 0 0 0 0 0 0 0 0 0 0 0 127 0"/>
<feOffset dy="1"/>
<feGaussianBlur stdDeviation="18"/>
<feColorMatrix type="matrix" values="0 0 0 0 0.4 0 0 0 0 0.4 0 0 0 0 0.4 0 0 0 0.16 0"/>
<feBlend mode="normal" in2="BackgroundImageFix" result="effect1_dropShadow"/>
<feBlend mode="normal" in="SourceGraphic" in2="effect1_dropShadow" result="shape"/>
</filter>
<linearGradient id="paint0_linear" x1="323.5" y1="196.549" x2="323.5" y2="137" gradientUnits="userSpaceOnUse">
<stop stop-color="#0083FE"/>
<stop offset="1" stop-color="#091CD0"/>
</linearGradient>
</defs>
</svg>
