<svg width="69" height="62" viewBox="0 0 69 62" fill="none" xmlns="http://www.w3.org/2000/svg">
<path d="M34.5 52C31.4673 52 29 54.4976 29 57.5675V58.7024C29 60.5208 30.4613 62 32.2575 62H36.7425C38.5387 62 40 60.5208 40 58.7024V57.5675C40 54.4976 37.5327 52 34.5 52ZM37.9696 58.7025C37.9696 59.3875 37.4191 59.9449 36.7425 59.9449H32.2575C31.5809 59.9449 31.0304 59.3876 31.0304 58.7025V57.5676C31.0304 55.631 32.5869 54.0554 34.5 54.0554C36.4131 54.0554 37.9696 55.631 37.9696 57.5676V58.7025Z" fill="url(#paint0_linear)"/>
<path d="M31 47.5001C31 49.4301 32.5701 51 34.5001 51C36.4301 51 38 49.4299 38 47.5001C38 45.5702 36.4301 44 34.5001 44C32.5701 44 31 45.5701 31 47.5001ZM35.8185 47.5001C35.8185 48.2271 35.2271 48.8185 34.5001 48.8185C33.7729 48.8185 33.1815 48.2271 33.1815 47.5001C33.1815 46.7729 33.7729 46.1815 34.5001 46.1815C35.2271 46.1815 35.8185 46.7729 35.8185 47.5001Z" fill="url(#paint1_linear)"/>
<path d="M49 52C45.6916 52 43 54.4976 43 57.5675V58.7024C43 60.5208 44.5942 62 46.5538 62H51.4463C53.4058 62 55 60.5208 55 58.7024V57.5675C55 54.4976 52.3084 52 49 52ZM52.7851 58.7025C52.7851 59.3875 52.1845 59.9449 51.4463 59.9449H46.5538C45.8155 59.9449 45.2149 59.3876 45.2149 58.7025V57.5676C45.2149 55.631 46.9129 54.0554 49 54.0554C51.0871 54.0554 52.7851 55.631 52.7851 57.5676V58.7025Z" fill="url(#paint2_linear)"/>
<path d="M46 47.5001C46 49.4301 47.3458 51 48.9999 51C50.6542 51 52 49.4299 52 47.5001C52 45.5702 50.6542 44 48.9999 44C47.3458 44 46 45.5701 46 47.5001ZM50.1302 47.5001C50.1302 48.2271 49.6232 48.8185 48.9999 48.8185C48.3768 48.8185 47.8698 48.2271 47.8698 47.5001C47.8698 46.7729 48.3768 46.1815 48.9999 46.1815C49.6232 46.1815 50.1302 46.7729 50.1302 47.5001Z" fill="url(#paint3_linear)"/>
<path d="M63.5 52C60.4673 52 58 54.4976 58 57.5675V58.7024C58 60.5208 59.4613 62 61.2575 62H65.7423C67.5387 62 69 60.5208 69 58.7024V57.5675C69 54.4976 66.5327 52 63.5 52ZM66.9696 58.7025C66.9696 59.3875 66.4191 59.9449 65.7423 59.9449H61.2575C60.5809 59.9449 60.0304 59.3876 60.0304 58.7025V57.5676C60.0304 55.631 61.5869 54.0554 63.5 54.0554C65.4131 54.0554 66.9696 55.6308 66.9696 57.5676V58.7025Z" fill="url(#paint4_linear)"/>
<path d="M60 47.5001C60 49.4301 61.5701 51 63.5001 51C65.4299 51 67 49.4299 67 47.5001C67 45.5702 65.4299 44 63.5001 44C61.5701 44 60 45.5701 60 47.5001ZM64.8185 47.5001C64.8185 48.2271 64.2271 48.8185 63.5001 48.8185C62.7729 48.8185 62.1815 48.2271 62.1815 47.5001C62.1815 46.7729 62.7729 46.1815 63.5001 46.1815C64.2271 46.1815 64.8185 46.7729 64.8185 47.5001Z" fill="url(#paint5_linear)"/>
<path d="M5.5 52C2.4673 52 0 54.4975 0 57.5675V58.7024C0 60.5208 1.46132 62 3.25766 62H7.74248C9.53868 62 11 60.5208 11 58.7024V57.5675C11.0001 54.4975 8.53283 52 5.5 52ZM8.96977 58.7024C8.96977 59.3874 8.41926 59.9448 7.74261 59.9448H3.25766C2.58087 59.9448 2.03037 59.3875 2.03037 58.7024V57.5675C2.03037 55.6309 3.58685 54.0554 5.5 54.0554C7.41315 54.0554 8.96963 55.6309 8.96963 57.5675V58.7024H8.96977Z" fill="url(#paint6_linear)"/>
<path d="M5.49993 51C7.42993 51 9 49.4299 9 47.5001C9 45.5702 7.42993 44 5.49993 44C3.57007 44 2 45.5701 2 47.5001C2 49.4301 3.57007 51 5.49993 51ZM5.49993 46.1815C6.22708 46.1815 6.81855 46.7729 6.81855 47.5001C6.81855 48.2271 6.22708 48.8185 5.49993 48.8185C4.77292 48.8185 4.18146 48.2271 4.18146 47.5001C4.18146 46.7729 4.77292 46.1815 5.49993 46.1815Z" fill="url(#paint7_linear)"/>
<path d="M20 52C16.6916 52 14 54.4976 14 57.5675V58.7024C14 60.5208 15.5942 62 17.5537 62H22.4462C24.4058 62 26 60.5208 26 58.7024V57.5675C26 54.4976 23.3084 52 20 52ZM23.7851 58.7025C23.7851 59.3875 23.1845 59.9449 22.4462 59.9449H17.5537C16.8155 59.9449 16.2149 59.3876 16.2149 58.7025V57.5676C16.2149 55.631 17.9129 54.0554 20 54.0554C22.0871 54.0554 23.7851 55.631 23.7851 57.5676V58.7025Z" fill="url(#paint8_linear)"/>
<path d="M17 47.5001C17 49.4301 18.3458 51 20.0001 51C21.6542 51 23 49.4299 23 47.5001C23 45.5702 21.6542 44 20.0001 44C18.3458 44 17 45.5701 17 47.5001ZM21.1302 47.5001C21.1302 48.2271 20.6232 48.8185 20.0001 48.8185C19.3768 48.8185 18.8698 48.2271 18.8698 47.5001C18.8698 46.7729 19.3768 46.1815 20.0001 46.1815C20.6232 46.1815 21.1302 46.7729 21.1302 47.5001Z" fill="url(#paint9_linear)"/>
<path d="M5.0264 42C5.59324 42 6.05279 41.5538 6.05279 41.0034V37.7014C6.05279 37.037 6.60937 36.4966 7.29364 36.4966H18.7367V41.0034C18.7367 41.5538 19.1963 42 19.7631 42C20.33 42 20.7895 41.5538 20.7895 41.0034V36.4966H33.4736V41.0034C33.4736 41.5538 33.9332 42 34.5 42C35.0668 42 35.5264 41.5538 35.5264 41.0034V36.4966H48.2103V41.0034C48.2103 41.5538 48.6699 42 49.2367 42C49.8036 42 50.2631 41.5538 50.2631 41.0034V36.4966H61.7064C62.3906 36.4966 62.9472 37.037 62.9472 37.7014V41.0034C62.9472 41.5538 63.4068 42 63.9736 42C64.5404 42 65 41.5538 65 41.0034V37.7014C65 35.938 63.5225 34.5034 61.7064 34.5034H35.5264V29.9966C35.5264 29.4461 35.0668 29 34.5 29C33.9332 29 33.4736 29.4461 33.4736 29.9966V34.5034H7.29364C5.47746 34.5034 4 35.938 4 37.7014V41.0034C4 41.5538 4.45955 42 5.0264 42Z" fill="url(#paint10_linear)"/>
<path d="M34.5 28C41.944 28 48 21.7197 48 14.0002C48 11.2469 47.225 8.57817 45.7589 6.28244C45.4173 5.74714 44.7217 5.60068 44.2055 5.95512C43.6893 6.30956 43.5481 7.03084 43.8899 7.56614C45.1122 9.48015 45.7581 11.7049 45.7581 14.0003C45.7581 20.438 40.7077 25.6754 34.4998 25.6754C28.292 25.6754 23.2416 20.438 23.2416 14.0003C23.2416 7.56258 28.2921 2.32486 34.5 2.32486C36.7133 2.32486 38.8586 2.99484 40.7043 4.26227C41.2202 4.61656 41.9159 4.4701 42.2576 3.93495C42.5994 3.39965 42.4582 2.67853 41.942 2.32393C39.7283 0.803573 37.1548 0 34.5 0C27.056 0 21 6.28027 21 13.9998C21 21.7196 27.056 28 34.5 28Z" fill="url(#paint11_linear)"/>
<defs>
<linearGradient id="paint0_linear" x1="34.5" y1="60.8879" x2="34.5" y2="52" gradientUnits="userSpaceOnUse">
<stop stop-color="#0083FE"/>
<stop offset="1" stop-color="#091CD0"/>
</linearGradient>
<linearGradient id="paint1_linear" x1="34.5" y1="50.2215" x2="34.5" y2="44" gradientUnits="userSpaceOnUse">
<stop stop-color="#0083FE"/>
<stop offset="1" stop-color="#091CD0"/>
</linearGradient>
<linearGradient id="paint2_linear" x1="49" y1="60.8879" x2="49" y2="52" gradientUnits="userSpaceOnUse">
<stop stop-color="#0083FE"/>
<stop offset="1" stop-color="#091CD0"/>
</linearGradient>
<linearGradient id="paint3_linear" x1="49" y1="50.2215" x2="49" y2="44" gradientUnits="userSpaceOnUse">
<stop stop-color="#0083FE"/>
<stop offset="1" stop-color="#091CD0"/>
</linearGradient>
<linearGradient id="paint4_linear" x1="63.5" y1="60.8879" x2="63.5" y2="52" gradientUnits="userSpaceOnUse">
<stop stop-color="#0083FE"/>
<stop offset="1" stop-color="#091CD0"/>
</linearGradient>
<linearGradient id="paint5_linear" x1="63.5" y1="50.2215" x2="63.5" y2="44" gradientUnits="userSpaceOnUse">
<stop stop-color="#0083FE"/>
<stop offset="1" stop-color="#091CD0"/>
</linearGradient>
<linearGradient id="paint6_linear" x1="5.5" y1="60.8879" x2="5.5" y2="52" gradientUnits="userSpaceOnUse">
<stop stop-color="#0083FE"/>
<stop offset="1" stop-color="#091CD0"/>
</linearGradient>
<linearGradient id="paint7_linear" x1="5.5" y1="50.2215" x2="5.5" y2="44" gradientUnits="userSpaceOnUse">
<stop stop-color="#0083FE"/>
<stop offset="1" stop-color="#091CD0"/>
</linearGradient>
<linearGradient id="paint8_linear" x1="20" y1="60.8879" x2="20" y2="52" gradientUnits="userSpaceOnUse">
<stop stop-color="#0083FE"/>
<stop offset="1" stop-color="#091CD0"/>
</linearGradient>
<linearGradient id="paint9_linear" x1="20" y1="50.2215" x2="20" y2="44" gradientUnits="userSpaceOnUse">
<stop stop-color="#0083FE"/>
<stop offset="1" stop-color="#091CD0"/>
</linearGradient>
<linearGradient id="paint10_linear" x1="34.5" y1="40.5543" x2="34.5" y2="29" gradientUnits="userSpaceOnUse">
<stop stop-color="#0083FE"/>
<stop offset="1" stop-color="#091CD0"/>
</linearGradient>
<linearGradient id="paint11_linear" x1="34.5" y1="24.8862" x2="34.5" y2="-1.16771e-06" gradientUnits="userSpaceOnUse">
<stop stop-color="#0083FE"/>
<stop offset="1" stop-color="#091CD0"/>
</linearGradient>
</defs>
</svg>
