<svg width="58" height="58" viewBox="0 0 58 58" fill="none" xmlns="http://www.w3.org/2000/svg">
<path d="M54.1323 11.6001C51.9997 11.6001 50.2656 13.3343 50.2656 15.4667C50.2656 17.5991 51.9998 19.3334 54.1323 19.3334C56.2647 19.3334 57.9989 17.5993 57.9989 15.4667C57.9989 13.3343 56.2647 11.6001 54.1323 11.6001ZM54.1323 17.4001C53.0661 17.4001 52.1989 16.533 52.1989 15.4667C52.1989 14.4005 53.0659 13.5334 54.1323 13.5334C55.1986 13.5334 56.0656 14.4004 56.0656 15.4667C56.0655 16.533 55.1985 17.4001 54.1323 17.4001Z" fill="url(#paint0_linear)"/>
<path d="M3.86663 43.5C1.73422 43.5 0 45.2342 0 47.3666C0 49.499 1.73422 51.2333 3.86663 51.2333C5.99915 51.2333 7.73326 49.499 7.73326 47.3666C7.73326 45.2342 5.99915 43.5 3.86663 43.5ZM3.86663 49.3C2.80043 49.3 1.93326 48.4329 1.93326 47.3666C1.93326 46.3003 2.80031 45.4333 3.86663 45.4333C4.93283 45.4333 5.8 46.3003 5.8 47.3666C5.8 48.4329 4.93295 49.3 3.86663 49.3Z" fill="url(#paint1_linear)"/>
<path d="M52.2593 12.822L43.9199 8.79589C43.4385 8.56287 42.8614 8.76587 42.6294 9.24641C42.3974 9.72683 42.5994 10.3049 43.0799 10.5369L51.4194 14.563C51.5547 14.6287 51.6978 14.6597 51.8388 14.6597C52.1984 14.6597 52.5436 14.4586 52.7097 14.1125C52.9417 13.6321 52.7398 13.054 52.2593 12.822Z" fill="url(#paint2_linear)"/>
<path d="M43.4994 50.2666C41.3669 50.2666 39.6328 52.0008 39.6328 54.1332C39.6328 56.2656 41.3669 58 43.4994 58C45.632 58 47.3661 56.2658 47.3661 54.1333C47.3661 52.0009 45.632 50.2666 43.4994 50.2666ZM43.4994 56.0666C42.4332 56.0666 41.5661 55.1995 41.5661 54.1332C41.5661 53.0669 42.4332 52.2 43.4994 52.2C44.5656 52.2 45.4328 53.067 45.4328 54.1333C45.4328 55.1997 44.5656 56.0666 43.4994 56.0666Z" fill="url(#paint3_linear)"/>
<path d="M41.6265 51.4887L33.2871 47.4625C32.8057 47.2295 32.2286 47.4316 31.9966 47.9131C31.7646 48.3935 31.9666 48.9716 32.4471 49.2036L40.7866 53.2297C40.9219 53.2954 41.065 53.3263 41.206 53.3263C41.5656 53.3263 41.9108 53.1252 42.0771 52.7792C42.309 52.2986 42.107 51.7207 41.6265 51.4887Z" fill="url(#paint4_linear)"/>
<path d="M28.9994 26.1001C26.8669 26.1001 25.1328 27.8343 25.1328 29.9667C25.1328 32.0992 26.867 33.8334 28.9994 33.8334C31.132 33.8334 32.8661 32.0991 32.8661 29.9667C32.8661 27.8343 31.132 26.1001 28.9994 26.1001ZM28.9994 31.9001C27.9332 31.9001 27.0661 31.033 27.0661 29.9667C27.0661 28.9005 27.9331 28.0334 28.9994 28.0334C30.0656 28.0334 30.9328 28.9004 30.9328 29.9667C30.9328 31.033 30.0656 31.9001 28.9994 31.9001Z" fill="url(#paint5_linear)"/>
<path d="M27.3015 27.4301L20.8954 22.4373C20.4739 22.1115 19.8669 22.184 19.5382 22.6055C19.2105 23.027 19.2849 23.634 19.7064 23.9627L26.1125 28.9556C26.2894 29.0929 26.4982 29.1596 26.7061 29.1596C26.9941 29.1596 27.2783 29.032 27.4697 28.7875C27.7974 28.3658 27.723 27.7588 27.3015 27.4301Z" fill="url(#paint6_linear)"/>
<path d="M46.401 25.1333C40.5381 25.1333 35.7676 29.9038 35.7676 35.7667C35.7676 41.6295 40.5381 46.4 46.401 46.4C52.2638 46.4 57.0343 41.6295 57.0343 35.7667C57.0343 29.9038 52.2638 25.1333 46.401 25.1333ZM46.401 44.4666C41.6034 44.4666 37.7009 40.5641 37.7009 35.7666C37.7009 30.969 41.6034 27.0666 46.401 27.0666C51.1985 27.0666 55.101 30.969 55.101 35.7666C55.101 40.5641 51.1985 44.4666 46.401 44.4666Z" fill="url(#paint7_linear)"/>
<path d="M46.3998 29C44.2673 29 42.5332 30.7342 42.5332 32.8666C42.5332 34.9991 44.2674 36.7333 46.3998 36.7333C48.5324 36.7333 50.2665 34.999 50.2665 32.8666C50.2665 30.7342 48.5324 29 46.3998 29ZM46.3998 34.8C45.3336 34.8 44.4665 33.9329 44.4665 32.8666C44.4665 31.8004 45.3335 30.9333 46.3998 30.9333C47.466 30.9333 48.3332 31.8003 48.3332 32.8666C48.3332 33.9329 47.466 34.8 46.3998 34.8Z" fill="url(#paint8_linear)"/>
<path d="M49.2039 38.6665H43.5953C41.9434 38.6665 40.5996 39.9744 40.5996 41.581V44.1292C40.5996 44.4742 40.7832 44.7932 41.082 44.9663C42.7021 45.9039 44.5407 46.3999 46.3996 46.3999C48.2586 46.3999 50.0971 45.9039 51.7173 44.9663C52.016 44.7942 52.1996 44.4742 52.1996 44.1302V41.582C52.1996 39.9744 50.856 38.6665 49.2039 38.6665ZM50.2662 43.553C47.8603 44.7516 44.939 44.7516 42.5329 43.553V41.582C42.5329 41.0407 43.0094 40.5999 43.5952 40.5999H49.2038C49.7896 40.5999 50.2661 41.0407 50.2661 41.582V43.553H50.2662Z" fill="url(#paint9_linear)"/>
<path d="M23.1998 36.7334C17.3369 36.7334 12.5664 41.5039 12.5664 47.3668C12.5664 53.2296 17.3369 58 23.1998 58C29.0626 58 33.8331 53.2295 33.8331 47.3667C33.8331 41.5038 29.0626 36.7334 23.1998 36.7334ZM23.1998 56.0667C18.4022 56.0667 14.4998 52.1642 14.4998 47.3667C14.4998 42.5691 18.4022 38.6667 23.1998 38.6667C27.9973 38.6667 31.8998 42.5691 31.8998 47.3667C31.8998 52.1642 27.9973 56.0667 23.1998 56.0667Z" fill="url(#paint10_linear)"/>
<path d="M23.1987 40.6001C21.0661 40.6001 19.332 42.3343 19.332 44.4667C19.332 46.5992 21.0663 48.3334 23.1987 48.3334C25.3311 48.3334 27.0653 46.5991 27.0653 44.4667C27.0653 42.3343 25.3312 40.6001 23.1987 40.6001ZM23.1987 46.4001C22.1325 46.4001 21.2653 45.533 21.2653 44.4667C21.2653 43.4005 22.1323 42.5334 23.1987 42.5334C24.2649 42.5334 25.132 43.4004 25.132 44.4667C25.132 45.533 24.2649 46.4001 23.1987 46.4001Z" fill="url(#paint11_linear)"/>
<path d="M26.0047 50.2666H20.3961C18.7441 50.2666 17.4004 51.5745 17.4004 53.1811V55.7292C17.4004 56.0743 17.584 56.3933 17.8827 56.5664C19.5029 57.504 21.3414 58 23.2004 58C25.0593 58 26.8979 57.504 28.518 56.5664C28.8168 56.3943 29.0004 56.0744 29.0004 55.7303V53.1821C29.0004 51.5745 27.6568 50.2666 26.0047 50.2666ZM27.067 55.1531C24.6609 56.3517 21.7397 56.3517 19.3336 55.1531V53.1821C19.3336 52.6408 19.8102 52.2 20.396 52.2H26.0046C26.5903 52.2 27.0669 52.6408 27.0669 53.1821V55.1531H27.067Z" fill="url(#paint12_linear)"/>
<path d="M10.6334 12.5664C4.7705 12.5664 0 17.3369 0 23.1998C0 29.0626 4.7705 33.8331 10.6334 33.8331C16.4962 33.8331 21.2667 29.0626 21.2667 23.1998C21.2666 17.3369 16.4961 12.5664 10.6334 12.5664ZM10.6334 31.8998C5.8358 31.8998 1.93337 27.9974 1.93337 23.1998C1.93337 18.4022 5.8358 14.4998 10.6334 14.4998C15.4309 14.4998 19.3334 18.4022 19.3334 23.1998C19.3334 27.9974 15.4309 31.8998 10.6334 31.8998Z" fill="url(#paint13_linear)"/>
<path d="M10.6323 16.4336C8.49974 16.4336 6.76562 18.1678 6.76562 20.3002C6.76562 22.4326 8.49985 24.1669 10.6323 24.1669C12.7648 24.1669 14.4989 22.4326 14.4989 20.3002C14.4989 18.1678 12.7647 16.4336 10.6323 16.4336ZM10.6323 22.2336C9.56605 22.2336 8.69888 21.3665 8.69888 20.3002C8.69888 19.2339 9.56594 18.3669 10.6323 18.3669C11.6985 18.3669 12.5656 19.2339 12.5656 20.3002C12.5656 21.3665 11.6985 22.2336 10.6323 22.2336Z" fill="url(#paint14_linear)"/>
<path d="M13.4363 26.1001H7.82776C6.17577 26.1001 4.83203 27.408 4.83203 29.0146V31.5627C4.83203 31.9078 5.01566 32.2268 5.31438 32.3999C6.93453 33.3375 8.77309 33.8335 10.632 33.8335C12.491 33.8335 14.3295 33.3375 15.9497 32.3999C16.2484 32.2278 16.432 31.9078 16.432 31.5638V29.0156C16.432 27.408 15.0883 26.1001 13.4363 26.1001ZM14.4987 30.9866C12.0927 32.1852 9.17138 32.1852 6.76529 30.9866V29.0156C6.76529 28.4742 7.24186 28.0335 7.82764 28.0335H13.4362C14.022 28.0335 14.4986 28.4742 14.4986 29.0156V30.9866H14.4987Z" fill="url(#paint15_linear)"/>
<path d="M33.8326 0C27.9697 0 23.1992 4.7705 23.1992 10.6334C23.1992 16.4962 27.9697 21.2667 33.8326 21.2667C39.6955 21.2667 44.466 16.4962 44.466 10.6334C44.4658 4.7705 39.6953 0 33.8326 0ZM33.8326 19.3334C29.035 19.3334 25.1326 15.4309 25.1326 10.6334C25.1326 5.8358 29.035 1.93337 33.8326 1.93337C38.6302 1.93337 42.5326 5.8358 42.5326 10.6334C42.5326 15.4309 38.6302 19.3334 33.8326 19.3334Z" fill="url(#paint16_linear)"/>
<path d="M33.8334 3.8667C31.7009 3.8667 29.9668 5.60092 29.9668 7.73333C29.9668 9.86573 31.701 11.6 33.8334 11.6C35.9658 11.6 37.7001 9.86585 37.7001 7.73344C37.7001 5.60103 35.9658 3.8667 33.8334 3.8667ZM33.8334 9.6667C32.7672 9.6667 31.9001 8.79964 31.9001 7.73333C31.9001 6.66712 32.7671 5.79996 33.8334 5.79996C34.8997 5.79996 35.7668 6.66701 35.7668 7.73333C35.7667 8.79964 34.8996 9.6667 33.8334 9.6667Z" fill="url(#paint17_linear)"/>
<path d="M36.6375 13.5332H31.0289C29.3769 13.5332 28.0332 14.8411 28.0332 16.4477V18.9958C28.0332 19.3409 28.2168 19.6599 28.5156 19.833C30.1357 20.7706 31.9743 21.2666 33.8332 21.2666C35.6921 21.2666 37.5307 20.7706 39.1508 19.833C39.4496 19.6609 39.6332 19.3409 39.6332 18.9969V16.4487C39.6332 14.841 38.2895 13.5332 36.6375 13.5332ZM37.6998 18.4197C35.2938 19.6183 32.3725 19.6183 29.9665 18.4197V16.4487C29.9665 15.9073 30.443 15.4666 31.0288 15.4666H36.6374C37.2231 15.4666 37.6997 15.9073 37.6997 16.4487V18.4197H37.6998Z" fill="url(#paint18_linear)"/>
<path d="M24.9024 10.0038C24.5555 9.59974 23.9454 9.55137 23.5394 9.89846L16.8404 15.6308C16.4344 15.9778 16.3871 16.5878 16.7341 16.9938C16.9255 17.2171 17.1961 17.3322 17.4687 17.3322C17.6911 17.3322 17.9144 17.2559 18.0971 17.0992L24.7961 11.3668C25.2022 11.0198 25.2495 10.4098 24.9024 10.0038Z" fill="url(#paint19_linear)"/>
<path d="M46.206 25.5212L40.406 17.7879C40.086 17.3597 39.4799 17.2755 39.0526 17.5945C38.6253 17.9145 38.5394 18.5206 38.8593 18.9469L44.6593 26.6802C44.8497 26.9335 45.1397 27.0668 45.4335 27.0668C45.6346 27.0668 45.8386 27.004 46.0126 26.8735C46.4399 26.5536 46.526 25.9475 46.206 25.5212Z" fill="url(#paint20_linear)"/>
<path d="M38.2726 38.9633C37.9526 38.536 37.3465 38.45 36.9192 38.7699L31.5194 42.8193C31.0921 43.1393 31.0062 43.7453 31.3261 44.1716C31.5165 44.4249 31.8065 44.5583 32.1003 44.5583C32.3023 44.5583 32.5053 44.4945 32.6794 44.3649L38.0792 40.3155C38.5065 39.9957 38.5926 39.3896 38.2726 38.9633Z" fill="url(#paint21_linear)"/>
<path d="M13.5342 46.3999H6.76741C6.23386 46.3999 5.80078 46.832 5.80078 47.3665C5.80078 47.9011 6.23386 48.3332 6.76741 48.3332H13.534C14.0676 48.3332 14.5007 47.9011 14.5007 47.3665C14.5007 46.832 14.0677 46.3999 13.5342 46.3999Z" fill="url(#paint22_linear)"/>
<path d="M10.6343 0C8.5018 0 6.76758 1.73422 6.76758 3.86663C6.76758 5.99915 8.5018 7.73326 10.6342 7.73326C12.7667 7.73326 14.5008 5.99903 14.5008 3.86663C14.5009 1.73422 12.7667 0 10.6343 0ZM10.6343 5.8C9.56812 5.8 8.70095 4.93295 8.70095 3.86663C8.70095 2.80043 9.568 1.93326 10.6343 1.93326C11.7005 1.93326 12.5677 2.80031 12.5677 3.86663C12.5676 4.93295 11.7005 5.8 10.6343 5.8Z" fill="url(#paint23_linear)"/>
<path d="M10.6326 5.7998C10.0991 5.7998 9.66602 6.23186 9.66602 6.76643V13.5331C9.66602 14.0676 10.0991 14.4997 10.6326 14.4997C11.1662 14.4997 11.5993 14.0676 11.5993 13.5331V6.76643C11.5993 6.23186 11.1662 5.7998 10.6326 5.7998Z" fill="url(#paint24_linear)"/>
<defs>
<linearGradient id="paint0_linear" x1="54.1323" y1="18.4734" x2="54.1323" y2="11.6001" gradientUnits="userSpaceOnUse">
<stop stop-color="#0083FE"/>
<stop offset="1" stop-color="#091CD0"/>
</linearGradient>
<linearGradient id="paint1_linear" x1="3.86663" y1="50.3733" x2="3.86663" y2="43.5" gradientUnits="userSpaceOnUse">
<stop stop-color="#0083FE"/>
<stop offset="1" stop-color="#091CD0"/>
</linearGradient>
<linearGradient id="paint2_linear" x1="47.6696" y1="13.9968" x2="47.6696" y2="8.69922" gradientUnits="userSpaceOnUse">
<stop stop-color="#0083FE"/>
<stop offset="1" stop-color="#091CD0"/>
</linearGradient>
<linearGradient id="paint3_linear" x1="43.4994" y1="57.14" x2="43.4994" y2="50.2666" gradientUnits="userSpaceOnUse">
<stop stop-color="#0083FE"/>
<stop offset="1" stop-color="#091CD0"/>
</linearGradient>
<linearGradient id="paint4_linear" x1="37.0368" y1="52.6635" x2="37.0368" y2="47.3657" gradientUnits="userSpaceOnUse">
<stop stop-color="#0083FE"/>
<stop offset="1" stop-color="#091CD0"/>
</linearGradient>
<linearGradient id="paint5_linear" x1="28.9994" y1="32.9734" x2="28.9994" y2="26.1001" gradientUnits="userSpaceOnUse">
<stop stop-color="#0083FE"/>
<stop offset="1" stop-color="#091CD0"/>
</linearGradient>
<linearGradient id="paint6_linear" x1="23.5039" y1="28.3894" x2="23.5039" y2="22.2339" gradientUnits="userSpaceOnUse">
<stop stop-color="#0083FE"/>
<stop offset="1" stop-color="#091CD0"/>
</linearGradient>
<linearGradient id="paint7_linear" x1="46.401" y1="44.035" x2="46.401" y2="25.1333" gradientUnits="userSpaceOnUse">
<stop stop-color="#0083FE"/>
<stop offset="1" stop-color="#091CD0"/>
</linearGradient>
<linearGradient id="paint8_linear" x1="46.3998" y1="35.8733" x2="46.3998" y2="29" gradientUnits="userSpaceOnUse">
<stop stop-color="#0083FE"/>
<stop offset="1" stop-color="#091CD0"/>
</linearGradient>
<linearGradient id="paint9_linear" x1="46.3996" y1="45.5399" x2="46.3996" y2="38.6665" gradientUnits="userSpaceOnUse">
<stop stop-color="#0083FE"/>
<stop offset="1" stop-color="#091CD0"/>
</linearGradient>
<linearGradient id="paint10_linear" x1="23.1998" y1="55.635" x2="23.1998" y2="36.7334" gradientUnits="userSpaceOnUse">
<stop stop-color="#0083FE"/>
<stop offset="1" stop-color="#091CD0"/>
</linearGradient>
<linearGradient id="paint11_linear" x1="23.1987" y1="47.4734" x2="23.1987" y2="40.6001" gradientUnits="userSpaceOnUse">
<stop stop-color="#0083FE"/>
<stop offset="1" stop-color="#091CD0"/>
</linearGradient>
<linearGradient id="paint12_linear" x1="23.2004" y1="57.14" x2="23.2004" y2="50.2666" gradientUnits="userSpaceOnUse">
<stop stop-color="#0083FE"/>
<stop offset="1" stop-color="#091CD0"/>
</linearGradient>
<linearGradient id="paint13_linear" x1="10.6334" y1="31.4681" x2="10.6334" y2="12.5664" gradientUnits="userSpaceOnUse">
<stop stop-color="#0083FE"/>
<stop offset="1" stop-color="#091CD0"/>
</linearGradient>
<linearGradient id="paint14_linear" x1="10.6323" y1="23.3069" x2="10.6323" y2="16.4336" gradientUnits="userSpaceOnUse">
<stop stop-color="#0083FE"/>
<stop offset="1" stop-color="#091CD0"/>
</linearGradient>
<linearGradient id="paint15_linear" x1="10.632" y1="32.9735" x2="10.632" y2="26.1001" gradientUnits="userSpaceOnUse">
<stop stop-color="#0083FE"/>
<stop offset="1" stop-color="#091CD0"/>
</linearGradient>
<linearGradient id="paint16_linear" x1="33.8326" y1="18.9017" x2="33.8326" y2="-8.86906e-07" gradientUnits="userSpaceOnUse">
<stop stop-color="#0083FE"/>
<stop offset="1" stop-color="#091CD0"/>
</linearGradient>
<linearGradient id="paint17_linear" x1="33.8334" y1="10.74" x2="33.8334" y2="3.8667" gradientUnits="userSpaceOnUse">
<stop stop-color="#0083FE"/>
<stop offset="1" stop-color="#091CD0"/>
</linearGradient>
<linearGradient id="paint18_linear" x1="33.8332" y1="20.4066" x2="33.8332" y2="13.5332" gradientUnits="userSpaceOnUse">
<stop stop-color="#0083FE"/>
<stop offset="1" stop-color="#091CD0"/>
</linearGradient>
<linearGradient id="paint19_linear" x1="20.8183" y1="16.4797" x2="20.8183" y2="9.6665" gradientUnits="userSpaceOnUse">
<stop stop-color="#0083FE"/>
<stop offset="1" stop-color="#091CD0"/>
</linearGradient>
<linearGradient id="paint20_linear" x1="42.5327" y1="25.992" x2="42.5327" y2="17.4014" gradientUnits="userSpaceOnUse">
<stop stop-color="#0083FE"/>
<stop offset="1" stop-color="#091CD0"/>
</linearGradient>
<linearGradient id="paint21_linear" x1="34.7994" y1="43.8931" x2="34.7994" y2="38.5767" gradientUnits="userSpaceOnUse">
<stop stop-color="#0083FE"/>
<stop offset="1" stop-color="#091CD0"/>
</linearGradient>
<linearGradient id="paint22_linear" x1="10.1507" y1="48.1182" x2="10.1507" y2="46.3999" gradientUnits="userSpaceOnUse">
<stop stop-color="#0083FE"/>
<stop offset="1" stop-color="#091CD0"/>
</linearGradient>
<linearGradient id="paint23_linear" x1="10.6342" y1="6.87326" x2="10.6342" y2="-3.22507e-07" gradientUnits="userSpaceOnUse">
<stop stop-color="#0083FE"/>
<stop offset="1" stop-color="#091CD0"/>
</linearGradient>
<linearGradient id="paint24_linear" x1="10.6326" y1="13.5322" x2="10.6326" y2="5.7998" gradientUnits="userSpaceOnUse">
<stop stop-color="#0083FE"/>
<stop offset="1" stop-color="#091CD0"/>
</linearGradient>
</defs>
</svg>
