<svg width="68" height="50" viewBox="0 0 68 50" fill="none" xmlns="http://www.w3.org/2000/svg">
<path d="M63.0839 35.2318C63.9861 34.1812 64.5329 32.8187 64.5329 31.3302C64.5329 28.0166 61.8284 25.3207 58.5039 25.3207C58.4847 25.3207 58.4655 25.3223 58.4463 25.3223C57.5623 24.0604 56.3312 23.106 54.9237 22.5622C55.8212 21.5126 56.3649 20.1537 56.3649 18.6698C56.3649 15.3562 53.6604 12.6604 50.3354 12.6604C50.3167 12.6604 50.2981 12.6619 50.2789 12.6619C49.3943 11.4001 48.1632 10.4456 46.7557 9.90183C47.6532 8.85228 48.1969 7.49332 48.1969 6.00946C48.1969 2.69583 45.4924 0 42.168 0C38.8435 0 36.139 2.69583 36.139 6.00946C36.139 7.49332 36.6822 8.85228 37.5797 9.90183C36.1722 10.4456 34.9416 11.4001 34.0571 12.6619C34.0379 12.6619 34.0192 12.6609 34 12.6609C33.9808 12.6609 33.9621 12.6619 33.9429 12.6619C33.0584 11.4001 31.8273 10.4456 30.4198 9.90183C31.3173 8.85228 31.861 7.49332 31.861 6.00946C31.861 2.69583 29.1565 0 25.832 0C22.5076 0 19.8031 2.69583 19.8031 6.00946C19.8031 7.49332 20.3463 8.85228 21.2438 9.90183C19.8363 10.4456 18.6052 11.4001 17.7211 12.6619C17.7019 12.6619 17.6833 12.6609 17.6641 12.6609C17.3414 12.6609 17.0156 12.6871 16.697 12.7385C15.9728 12.8562 15.482 13.5326 15.6008 14.2496C15.7191 14.9666 16.4008 15.4528 17.1255 15.3356C17.3035 15.3068 17.4846 15.2925 17.6641 15.2925C19.524 15.2925 21.0368 16.8077 21.0368 18.6703C21.0368 20.5325 19.524 22.0482 17.6641 22.0482C16.2991 22.0482 15.0768 21.2325 14.5513 19.9712C14.2716 19.2994 13.4945 18.9797 12.8169 19.2568C12.1389 19.5343 11.8162 20.3038 12.0958 20.975C12.3412 21.5635 12.6722 22.097 13.0701 22.5648C11.6652 23.1091 10.4362 24.0625 9.55316 25.3223C9.53397 25.3223 9.51529 25.3212 9.49557 25.3212C6.17163 25.3212 3.46661 28.0171 3.46661 31.3307C3.46661 32.8187 4.01343 34.1812 4.91562 35.2323C2.04199 36.3456 0 39.117 0 42.354V46.0526C0 48.2293 1.78726 50 3.98438 50H53.3906C54.1242 50 54.7188 49.411 54.7188 48.6842C54.7188 47.9574 54.1242 47.3684 53.3906 47.3684H51.6641V42.354C51.6641 39.5893 53.9348 37.3396 56.7255 37.3396H60.2823C63.073 37.3396 65.3438 39.5893 65.3438 42.354V46.0526C65.3438 46.7784 64.7477 47.3684 64.0156 47.3684H62.55C61.8164 47.3684 61.2219 47.9574 61.2219 48.6842C61.2219 49.411 61.8164 50 62.55 50H64.0156C66.2127 50 68 48.2293 68 46.0526V42.354C68 39.117 65.958 36.3456 63.0839 35.2318ZM61.8766 31.3302C61.8766 33.1928 60.3638 34.7081 58.5039 34.7081C56.644 34.7081 55.1312 33.1928 55.1312 31.3302C55.1312 29.4675 56.644 27.9523 58.5039 27.9523C60.3638 27.9523 61.8766 29.4675 61.8766 31.3302ZM53.7086 18.6703C53.7086 20.5325 52.1958 22.0477 50.3359 22.0477C48.476 22.0477 46.9632 20.5325 46.9632 18.6703C46.9632 16.8077 48.476 15.2925 50.3359 15.2925C52.1958 15.2925 53.7086 16.8077 53.7086 18.6703ZM42.168 2.63158C44.0279 2.63158 45.5407 4.14679 45.5407 6.00946C45.5407 7.87161 44.0279 9.38734 42.168 9.38734C40.3081 9.38734 38.7953 7.87161 38.7953 6.00946C38.7953 4.14679 40.3081 2.63158 42.168 2.63158ZM40.3402 12.0189H43.9957C45.2953 12.0189 46.5202 12.5278 47.439 13.4015C45.5739 14.4243 44.307 16.4021 44.307 18.6703C44.307 20.1542 44.8502 21.5132 45.7477 22.5627C44.3402 23.1065 43.1096 24.0604 42.225 25.3223C42.2058 25.3223 42.1872 25.3207 42.168 25.3207C42.1488 25.3207 42.1296 25.3223 42.1104 25.3223C41.2263 24.0604 39.9952 23.1065 38.5877 22.5627C39.4853 21.5132 40.029 20.1542 40.029 18.6703C40.029 16.4021 38.7615 14.4243 36.8965 13.4015C37.8158 12.5278 39.0401 12.0189 40.3402 12.0189ZM42.168 34.7081C40.3081 34.7081 38.7953 33.1928 38.7953 31.3302C38.7953 29.4675 40.3081 27.9523 42.168 27.9523C44.0279 27.9523 45.5407 29.4675 45.5407 31.3302C45.5407 33.1928 44.0279 34.7081 42.168 34.7081ZM34 38.0705C33.1279 36.7979 31.8781 35.7998 30.412 35.2318C31.3142 34.1812 31.861 32.8187 31.861 31.3302C31.861 29.063 30.5941 27.0847 28.729 26.0619C29.6478 25.1881 30.8727 24.6798 32.1723 24.6798H35.8277C37.1273 24.6798 38.3522 25.1881 39.271 26.0619C37.4059 27.0847 36.139 29.0625 36.139 31.3302C36.139 32.8187 36.6858 34.1812 37.588 35.2318C36.1219 35.7998 34.8721 36.7979 34 38.0705ZM22.4593 31.3302C22.4593 29.4675 23.9721 27.9523 25.832 27.9523C27.6919 27.9523 29.2047 29.4675 29.2047 31.3302C29.2047 33.1928 27.6919 34.7081 25.832 34.7081C23.9721 34.7081 22.4593 33.1928 22.4593 31.3302ZM34 15.2925C35.8599 15.2925 37.3727 16.8077 37.3727 18.6703C37.3727 20.5325 35.8599 22.0477 34 22.0477C32.1401 22.0477 30.6273 20.5325 30.6273 18.6698C30.6273 16.8077 32.1401 15.2925 34 15.2925ZM25.832 2.63158C27.6919 2.63158 29.2047 4.14679 29.2047 6.00946C29.2047 7.87161 27.6919 9.38734 25.832 9.38734C23.9721 9.38734 22.4593 7.87161 22.4593 6.00946C22.4593 4.14679 23.9721 2.63158 25.832 2.63158ZM20.5605 13.4015C21.4798 12.5278 22.7042 12.0189 24.0043 12.0189H27.6598C28.9599 12.0189 30.1842 12.5278 31.1035 13.4015C29.2379 14.4243 27.971 16.4021 27.971 18.6703C27.971 20.1542 28.5142 21.5132 29.4117 22.5627C28.0048 23.1065 26.7737 24.0604 25.8891 25.3223C25.8699 25.3223 25.8512 25.3207 25.832 25.3207C25.8128 25.3207 25.7936 25.3223 25.7744 25.3223C24.8904 24.0604 23.6593 23.1065 22.2518 22.5627C23.1493 21.5132 23.693 20.1542 23.693 18.6703C23.693 16.4021 22.4261 14.4243 20.5605 13.4015ZM15.8363 24.6793H19.4918C20.7914 24.6793 22.0163 25.1881 22.9351 26.0619C21.07 27.0847 19.8026 29.0625 19.8026 31.3302C19.8026 32.8187 20.3494 34.1812 21.2516 35.2318C19.7859 35.7998 18.5362 36.7979 17.6635 38.0705C16.7914 36.7974 15.5417 35.7998 14.076 35.2318C14.9782 34.1812 15.5251 32.8187 15.5251 31.3302C15.5251 29.0625 14.2576 27.0847 12.3925 26.0619C13.3119 25.1881 14.5367 24.6793 15.8363 24.6793ZM9.49609 27.9523C11.356 27.9523 12.8688 29.4675 12.8688 31.3302C12.8688 33.1928 11.356 34.7081 9.49609 34.7081C7.6362 34.7081 6.12338 33.1928 6.12338 31.3302C6.12338 29.4675 7.6362 27.9523 9.49609 27.9523ZM2.65625 46.0526V42.354C2.65625 39.5893 4.92703 37.3396 7.71765 37.3396H11.2745C14.0652 37.3396 16.3359 39.5893 16.3359 42.354V47.3684H3.98438C3.25183 47.3684 2.65625 46.7784 2.65625 46.0526ZM18.9922 42.354C18.9922 39.5893 21.263 37.3396 24.0536 37.3396H27.6105C30.4011 37.3396 32.6719 39.5893 32.6719 42.354V47.3684H18.9922V42.354ZM35.3281 42.354C35.3281 39.5893 37.5989 37.3396 40.3895 37.3396H43.9464C46.737 37.3396 49.0078 39.5893 49.0078 42.354V47.3684H35.3281V42.354ZM50.3359 38.0705C49.4638 36.7979 48.2141 35.7998 46.7479 35.2318C47.6501 34.1812 48.1969 32.8187 48.1969 31.3302C48.1969 29.063 46.93 27.0847 45.0649 26.0619C45.9837 25.1881 47.2086 24.6798 48.5082 24.6798H52.1637C53.4633 24.6798 54.6881 25.1881 55.6069 26.0619C53.7419 27.0847 52.4749 29.0625 52.4749 31.3302C52.4749 32.8187 53.0218 34.1812 53.924 35.2318C52.4578 35.7998 51.208 36.7979 50.3359 38.0705Z" fill="url(#paint0_linear)"/>
<defs>
<linearGradient id="paint0_linear" x1="34" y1="44.4396" x2="34" y2="-2.08519e-06" gradientUnits="userSpaceOnUse">
<stop stop-color="#0083FE"/>
<stop offset="1" stop-color="#091CD0"/>
</linearGradient>
</defs>
</svg>
