<svg width="61" height="61" viewBox="0 0 61 61" fill="none" xmlns="http://www.w3.org/2000/svg">
<path d="M59.5589 28.0659C58.6458 27.2235 57.4037 26.7032 56.1509 26.6381C54.7281 26.5645 53.3952 27.0718 52.4025 28.065L45.6199 34.7765C45.4858 34.5442 45.3327 34.325 45.161 34.1217C44.3265 33.1308 43.1063 32.5854 41.7254 32.5854H32.2304C30.44 32.5854 28.6934 32.3531 27.0394 31.8957C22.727 30.7029 18.6073 31.5741 15.1247 34.4167C13.7085 35.5728 12.6754 36.8303 12.0219 37.7471L10.3195 36.0949C10.0957 35.8776 9.79223 35.7543 9.47995 35.7543C9.47716 35.7543 9.47483 35.7543 9.47204 35.7543C9.14859 35.7566 8.83584 35.8911 8.61152 36.1238L0.335373 44.7155C0.113844 44.9454 -0.00669378 45.2544 0.000287173 45.5737C0.00726812 45.8934 0.140837 46.1968 0.372139 46.417L14.3699 59.7455C14.6021 59.9665 14.9 60.0768 15.1973 60.0768C15.5096 60.0768 15.8219 59.9554 16.0569 59.7143L24.2558 51.3027C24.4797 51.0728 24.6039 50.7587 24.5979 50.4375C24.5918 50.1211 24.4592 49.8158 24.2321 49.5952L23.5182 48.9027L25.1522 48.7188C26.1407 48.6039 27.1459 48.5457 28.141 48.5457H42.5873C44.9348 48.5457 46.9286 48.0324 48.5137 47.0197C48.5267 47.0113 48.5398 47.0024 48.5528 46.9936C49.1206 46.5989 49.6358 46.1312 50.0835 45.6039L59.8186 34.151C61.4848 32.1912 61.3805 29.7455 59.5589 28.0659ZM15.1662 57.19L2.9011 45.5113L9.50834 38.6518L21.7017 50.4845L15.1662 57.19ZM57.9901 32.5966L48.2549 44.05C47.9459 44.4134 47.5917 44.7364 47.2013 45.0101C46.0113 45.7636 44.4592 46.1461 42.5873 46.1461H28.1405C27.0538 46.1461 25.955 46.2099 24.8795 46.3351L21.2875 46.7381L13.7667 39.4397C14.2894 38.6649 15.2504 37.4125 16.6424 36.276C19.5362 33.9136 22.8191 33.2179 26.3994 34.2087C28.262 34.7239 30.2236 34.9854 32.2304 34.9854H41.7254C43.4306 34.9854 43.8858 36.4626 43.8858 37.3352C43.8858 37.9728 43.681 38.5797 43.3241 39.0004C42.9368 39.456 42.3863 39.6869 41.6877 39.6869H33.4223C32.7596 39.6869 32.2225 40.2244 32.2225 40.8871C32.2225 41.5499 32.7596 42.0869 33.4223 42.0869H41.6877C43.083 42.0869 44.3135 41.5424 45.1531 40.5539C45.8516 39.732 46.25 38.6514 46.2835 37.4962L54.0952 29.7665C55.2117 28.65 56.956 28.9302 57.9319 29.8302C58.4364 30.2956 59.115 31.2734 57.9901 32.5966Z" fill="url(#paint0_linear)"/>
<path d="M29.6809 40.5673C29.5296 39.9218 28.8841 39.522 28.2386 39.6728C27.5936 39.824 27.1929 40.4695 27.3446 41.115L27.3558 41.1639C27.4856 41.7168 27.9785 42.09 28.523 42.09C28.6137 42.09 28.7059 42.0798 28.798 42.0584C29.4435 41.9071 29.8438 41.2612 29.6925 40.6161L29.6809 40.5673Z" fill="url(#paint1_linear)"/>
<path d="M8.11055 25.3176H19.8032C20.4398 25.3176 21.029 25.1109 21.5084 24.7619C21.9877 25.1109 22.5769 25.3176 23.2136 25.3176H34.9067C35.5434 25.3176 36.1325 25.1109 36.6119 24.7619C37.0913 25.1109 37.6805 25.3176 38.3171 25.3176H50.0097C51.6116 25.3176 52.9147 24.014 52.9147 22.4121V16.9595C52.9147 14.5106 51.5442 12.3833 49.4927 11.3338C50.4868 10.1349 51.0853 8.59727 51.0853 6.92184C51.0853 3.10513 47.9801 0 44.1634 0C40.3467 0 37.2416 3.10513 37.2416 6.92184C37.2416 8.59727 37.8401 10.1354 38.8342 11.3338C37.9476 11.788 37.1885 12.4438 36.6119 13.2391C36.0353 12.4433 35.2762 11.7876 34.3892 11.3338C35.3833 10.1354 35.9818 8.59727 35.9818 6.92184C35.9818 3.10513 32.8766 0 29.0599 0C25.2432 0 22.1381 3.10513 22.1381 6.92184C22.1381 8.59727 22.737 10.1354 23.7311 11.3343C22.8441 11.788 22.085 12.4438 21.5084 13.2396C20.9318 12.4438 20.1727 11.788 19.2857 11.3338C20.2797 10.1354 20.8782 8.59727 20.8782 6.92231C20.8782 3.10513 17.7731 0 13.9564 0C10.1401 0 7.03502 3.10513 7.03502 6.92231C7.03502 8.59727 7.63352 10.1354 8.6276 11.3343C6.57614 12.3837 5.20508 14.5115 5.20508 16.96V22.4121C5.20508 24.014 6.50865 25.3176 8.11055 25.3176ZM44.1639 2.40005C46.657 2.40005 48.6857 4.42825 48.6857 6.92184C48.6857 9.41497 46.657 11.4436 44.1639 11.4436C41.6703 11.4436 39.6421 9.41544 39.6421 6.92184C39.6416 4.42825 41.6703 2.40005 44.1639 2.40005ZM41.0462 13.0991C41.984 13.5742 43.0428 13.8437 44.1634 13.8437C45.2846 13.8437 46.3433 13.5742 47.2807 13.0991C49.1455 13.4239 50.5152 15.0309 50.5152 16.9595V22.4121C50.5152 22.6909 50.2885 22.9175 50.0097 22.9175H38.3171C38.0388 22.9175 37.8122 22.6909 37.8122 22.4121V16.9595C37.8117 15.0314 39.1818 13.4239 41.0462 13.0991ZM29.0604 2.40005C31.5535 2.40005 33.5822 4.42825 33.5822 6.92184C33.5822 9.41497 31.5535 11.4436 29.0604 11.4436C26.5668 11.4436 24.5386 9.41544 24.5386 6.92184C24.5386 4.42825 26.5668 2.40005 29.0604 2.40005ZM25.9431 13.0991C26.8805 13.5742 27.9392 13.8437 29.0604 13.8437C30.1815 13.8437 31.2398 13.5742 32.1776 13.0991C34.042 13.4239 35.4121 15.0309 35.4121 16.9595V22.4121C35.4121 22.6909 35.1855 22.9175 34.9067 22.9175H23.2141C22.9353 22.9175 22.7086 22.6909 22.7086 22.4121V16.9595C22.7086 15.0314 24.0788 13.4239 25.9431 13.0991ZM13.9569 2.40005C16.45 2.40005 18.4787 4.42825 18.4787 6.92184C18.4787 9.41497 16.45 11.4436 13.9569 11.4436C11.4637 11.4436 9.43507 9.41497 9.43507 6.92184C9.43507 4.42825 11.4637 2.40005 13.9569 2.40005ZM7.60513 16.9595C7.60513 15.0314 8.97526 13.4239 10.8396 13.0991C11.7774 13.5742 12.8357 13.8437 13.9569 13.8437C15.078 13.8437 16.1363 13.5742 17.0741 13.0991C18.9389 13.4239 20.3086 15.0309 20.3086 16.9595V22.4121C20.3086 22.6909 20.0819 22.9175 19.8032 22.9175H8.11055C7.83178 22.9175 7.60513 22.6909 7.60513 22.4121V16.9595Z" fill="url(#paint2_linear)"/>
<defs>
<linearGradient id="paint0_linear" x1="30.5001" y1="56.3574" x2="30.5001" y2="26.6311" gradientUnits="userSpaceOnUse">
<stop stop-color="#0083FE"/>
<stop offset="1" stop-color="#091CD0"/>
</linearGradient>
<linearGradient id="paint1_linear" x1="28.5185" y1="41.8177" x2="28.5185" y2="39.641" gradientUnits="userSpaceOnUse">
<stop stop-color="#0083FE"/>
<stop offset="1" stop-color="#091CD0"/>
</linearGradient>
<linearGradient id="paint2_linear" x1="29.0599" y1="22.5021" x2="29.0599" y2="-1.05584e-06" gradientUnits="userSpaceOnUse">
<stop stop-color="#0083FE"/>
<stop offset="1" stop-color="#091CD0"/>
</linearGradient>
</defs>
</svg>
