<svg width="40" height="40" viewBox="0 0 40 40" fill="none" xmlns="http://www.w3.org/2000/svg">
<circle cx="20" cy="20" r="20" fill="#CCCCCC"/>
<path d="M20 8.66699C16.7045 8.66699 14.0234 11.3481 14.0234 14.6436C14.0234 17.939 16.7045 20.6201 20 20.6201C23.2955 20.6201 25.9766 17.939 25.9766 14.6436C25.9766 11.3481 23.2955 8.66699 20 8.66699Z" fill="white"/>
<path d="M27.436 24.5246C25.7997 22.8632 23.6306 21.9482 21.3281 21.9482H18.6719C16.3694 21.9482 14.2003 22.8632 12.564 24.5246C10.9358 26.1778 10.0391 28.3601 10.0391 30.6696C10.0391 31.0363 10.3364 31.3337 10.7031 31.3337H29.2969C29.6636 31.3337 29.9609 31.0363 29.9609 30.6696C29.9609 28.3601 29.0642 26.1778 27.436 24.5246Z" fill="white"/>
</svg>
