<svg width="1635" height="732" viewBox="0 0 1635 732" fill="none" xmlns="http://www.w3.org/2000/svg">
<path opacity="0.26" d="M93.2044 123.526C95.5264 123.526 97.4087 121.617 97.4087 119.263C97.4087 116.909 95.5264 115 93.2044 115C90.8824 115 89 116.909 89 119.263C89 121.617 90.8824 123.526 93.2044 123.526Z" fill="#3484FB"/>
<path opacity="0.45" d="M1613.02 32.4482C1621.31 32.4482 1628.03 25.6322 1628.03 17.2241C1628.03 8.81607 1621.31 2 1613.02 2C1604.72 2 1598 8.81607 1598 17.2241C1598 25.6322 1604.72 32.4482 1613.02 32.4482Z" stroke="#D96BCE" stroke-width="4"/>
<path opacity="0.35" d="M17.2092 16.5716L19.1138 39.9536L37.8568 27.1229L17.2092 16.5716ZM13.7902 11.4272C14.1308 11.1941 14.5859 11.1332 15.0051 11.3474L43.1393 25.7244C43.9565 26.1421 44.025 27.2979 43.2635 27.8192L17.7245 45.3022C16.963 45.8235 15.9327 45.3261 15.8574 44.4006L13.2622 12.5406C13.2235 12.0658 13.4496 11.6604 13.7902 11.4272Z" fill="#8E7BDA"/>
<path opacity="0.35" d="M50.2092 667.571L52.1138 690.953L70.8568 678.123L50.2092 667.571ZM46.7902 662.427C47.1308 662.194 47.5859 662.133 48.0051 662.347L76.1393 676.724C76.9565 677.142 77.025 678.298 76.2635 678.819L50.7245 696.302C49.963 696.823 48.9327 696.326 48.8574 695.4L46.2622 663.54C46.2235 663.066 46.4496 662.66 46.7902 662.427Z" fill="#8E7BDA"/>
<path opacity="0.35" d="M1608.79 719.252C1608.38 719.13 1608.01 718.9 1607.72 718.586C1607.43 718.272 1607.22 717.885 1607.13 717.465C1607.03 717.045 1607.05 716.607 1607.17 716.195C1607.3 715.783 1607.53 715.413 1607.85 715.122L1625.07 699.126C1625.38 698.838 1625.76 698.638 1626.17 698.545C1626.58 698.452 1627.01 698.469 1627.41 698.595C1627.81 698.721 1628.17 698.952 1628.46 699.264C1628.74 699.576 1628.94 699.958 1629.04 700.373L1634.21 723.083C1634.3 723.498 1634.29 723.93 1634.17 724.337C1634.05 724.744 1633.82 725.112 1633.52 725.404C1633.21 725.696 1632.84 725.901 1632.43 726C1632.02 726.098 1631.59 726.087 1631.19 725.966L1608.79 719.252Z" fill="#FAC678"/>
<path opacity="0.35" d="M1074.79 260.252C1074.38 260.13 1074.01 259.9 1073.72 259.586C1073.43 259.272 1073.22 258.885 1073.13 258.465C1073.03 258.045 1073.05 257.607 1073.17 257.195C1073.3 256.783 1073.53 256.413 1073.85 256.122L1091.07 240.126C1091.38 239.838 1091.76 239.638 1092.17 239.545C1092.58 239.452 1093.01 239.469 1093.41 239.595C1093.81 239.721 1094.17 239.952 1094.46 240.264C1094.74 240.576 1094.94 240.958 1095.04 241.373L1100.21 264.083C1100.3 264.498 1100.29 264.93 1100.17 265.337C1100.05 265.744 1099.82 266.112 1099.52 266.404C1099.21 266.696 1098.84 266.901 1098.43 267C1098.02 267.098 1097.59 267.087 1097.19 266.966L1074.79 260.252Z" fill="#FAC678"/>
</svg>
