<svg width="118" height="118" viewBox="0 0 118 118" fill="none" xmlns="http://www.w3.org/2000/svg">
<g filter="url(#filter0_d)">
<rect x="9" y="8" width="100" height="100" rx="50" fill="url(#paint0_linear)"/>
</g>
<path d="M55.75 51.5H36.25C34.4582 51.5 33 50.0418 33 48.25V35.25C33 33.4582 34.4582 32 36.25 32H55.75C57.5418 32 59 33.4582 59 35.25V48.25C59 50.0418 57.5418 51.5 55.75 51.5ZM36.25 34.1667C35.652 34.1667 35.1667 34.652 35.1667 35.25V48.25C35.1667 48.848 35.652 49.3333 36.25 49.3333H55.75C56.348 49.3333 56.8333 48.848 56.8333 48.25V35.25C56.8333 34.652 56.348 34.1667 55.75 34.1667H36.25Z" fill="white"/>
<path d="M49.2513 55.8332H42.7513C42.1533 55.8332 41.668 55.3478 41.668 54.7498C41.668 54.1518 42.1533 53.6665 42.7513 53.6665H49.2513C49.8493 53.6665 50.3346 54.1518 50.3346 54.7498C50.3346 55.3478 49.8493 55.8332 49.2513 55.8332Z" fill="white"/>
<path d="M46.0013 55.8335C45.4033 55.8335 44.918 55.3482 44.918 54.7502V50.4168C44.918 49.8188 45.4033 49.3335 46.0013 49.3335C46.5993 49.3335 47.0846 49.8188 47.0846 50.4168V54.7502C47.0846 55.3482 46.5993 55.8335 46.0013 55.8335Z" fill="white"/>
<path d="M81.75 79.6665H62.25C60.4582 79.6665 59 78.2083 59 76.4165V63.4165C59 61.6247 60.4582 60.1665 62.25 60.1665H81.75C83.5418 60.1665 85 61.6247 85 63.4165V76.4165C85 78.2083 83.5418 79.6665 81.75 79.6665ZM62.25 62.3332C61.652 62.3332 61.1667 62.8185 61.1667 63.4165V76.4165C61.1667 77.0145 61.652 77.4998 62.25 77.4998H81.75C82.348 77.4998 82.8333 77.0145 82.8333 76.4165V63.4165C82.8333 62.8185 82.348 62.3332 81.75 62.3332H62.25Z" fill="white"/>
<path d="M75.2513 84.0002H68.7513C68.1533 84.0002 67.668 83.5148 67.668 82.9168C67.668 82.3188 68.1533 81.8335 68.7513 81.8335H75.2513C75.8493 81.8335 76.3346 82.3188 76.3346 82.9168C76.3346 83.5148 75.8493 84.0002 75.2513 84.0002Z" fill="white"/>
<path d="M72.0013 84C71.4033 84 70.918 83.5147 70.918 82.9167V78.5833C70.918 77.9853 71.4033 77.5 72.0013 77.5C72.5993 77.5 73.0846 77.9853 73.0846 78.5833V82.9167C73.0846 83.5147 72.5993 84 72.0013 84Z" fill="white"/>
<path d="M67.6654 42.8337H64.4154C63.8152 42.8337 63.332 42.3483 63.332 41.7503C63.332 41.1523 63.8152 40.667 64.4154 40.667H67.6654C68.2634 40.667 68.7487 41.1523 68.7487 41.7503C68.7487 42.3483 68.2634 42.8337 67.6654 42.8337Z" fill="white"/>
<path d="M75.2479 48.1594C74.6499 48.1594 74.1645 47.6741 74.1645 47.0761V46.0837C74.1645 44.6277 73.1852 43.3386 71.7834 42.9507C71.207 42.7904 70.869 42.1946 71.0272 41.6182C71.1875 41.0397 71.7899 40.7061 72.3597 40.8621C74.6997 41.5099 76.3312 43.6571 76.3312 46.0837V47.0761C76.3312 47.6741 75.8459 48.1594 75.2479 48.1594Z" fill="white"/>
<path d="M75.2513 55.8337C74.6533 55.8337 74.168 55.3483 74.168 54.7503V51.5003C74.168 50.9023 74.6533 50.417 75.2513 50.417C75.8493 50.417 76.3346 50.9023 76.3346 51.5003V54.7503C76.3346 55.3483 75.8493 55.8337 75.2513 55.8337Z" fill="white"/>
<path d="M53.5833 75.3332H50.3333C49.7353 75.3332 49.25 74.8478 49.25 74.2498C49.25 73.6518 49.7353 73.1665 50.3333 73.1665H53.5833C54.1813 73.1665 54.6667 73.6518 54.6667 74.2498C54.6667 74.8478 54.1835 75.3332 53.5833 75.3332Z" fill="white"/>
<path d="M45.9276 75.1776C45.8323 75.1776 45.7348 75.1646 45.6373 75.1386C43.2995 74.4908 41.668 72.3436 41.668 69.917V68.9246C41.668 68.3266 42.1533 67.8413 42.7513 67.8413C43.3493 67.8413 43.8346 68.3266 43.8346 68.9246V69.917C43.8346 71.373 44.814 72.6621 46.2158 73.05C46.7921 73.2103 47.1301 73.8061 46.972 74.3825C46.8376 74.8635 46.4021 75.1776 45.9276 75.1776Z" fill="white"/>
<path d="M42.7513 65.5832C42.1533 65.5832 41.668 65.0978 41.668 64.4998V61.2498C41.668 60.6518 42.1533 60.1665 42.7513 60.1665C43.3493 60.1665 43.8346 60.6518 43.8346 61.2498V64.4998C43.8346 65.0978 43.3493 65.5832 42.7513 65.5832Z" fill="white"/>
<defs>
<filter id="filter0_d" x="0" y="0" width="118" height="118" filterUnits="userSpaceOnUse" color-interpolation-filters="sRGB">
<feFlood flood-opacity="0" result="BackgroundImageFix"/>
<feColorMatrix in="SourceAlpha" type="matrix" values="0 0 0 0 0 0 0 0 0 0 0 0 0 0 0 0 0 0 127 0"/>
<feOffset dy="1"/>
<feGaussianBlur stdDeviation="4.5"/>
<feColorMatrix type="matrix" values="0 0 0 0 0.4 0 0 0 0 0.4 0 0 0 0 0.4 0 0 0 0.11 0"/>
<feBlend mode="normal" in2="BackgroundImageFix" result="effect1_dropShadow"/>
<feBlend mode="normal" in="SourceGraphic" in2="effect1_dropShadow" result="shape"/>
</filter>
<linearGradient id="paint0_linear" x1="59" y1="96.8792" x2="59" y2="8" gradientUnits="userSpaceOnUse">
<stop stop-color="#0083FE"/>
<stop offset="1" stop-color="#091CD0"/>
</linearGradient>
</defs>
</svg>
