<svg width="118" height="118" viewBox="0 0 118 118" fill="none" xmlns="http://www.w3.org/2000/svg">
<g filter="url(#filter0_d)">
<rect x="9" y="8" width="100" height="100" rx="50" fill="url(#paint0_linear)"/>
</g>
<path d="M82.043 53.9779H75.918C75.3894 53.9779 74.9609 54.4065 74.9609 54.935V59.768C74.9609 60.2964 75.3894 60.725 75.918 60.725C76.4465 60.725 76.875 60.2964 76.875 59.768V55.892H81.0859V81.0859H78.9805H76.875V66.9457C76.875 66.4172 76.4465 65.9887 75.918 65.9887C75.3894 65.9887 74.9609 66.4172 74.9609 66.9457V81.0859H73.0469V61.2754C73.0469 60.7469 72.6184 60.3184 72.0898 60.3184H65.9648C65.4363 60.3184 65.0078 60.7469 65.0078 61.2754V81.0859H63.0938V67.9746C63.0938 67.4461 62.6653 67.0176 62.1367 67.0176H56.0117C55.4832 67.0176 55.0547 67.4461 55.0547 67.9746V81.0859H53.1406V73.4656C53.1406 72.9371 52.7122 72.5085 52.1836 72.5085H46.0586C45.53 72.5085 45.1016 72.9371 45.1016 73.4656V81.0859H36.8711C36.3434 81.0859 35.9141 80.6566 35.9141 80.1289V36.8711C35.9141 36.3434 36.3434 35.9141 36.8711 35.9141H61.5601V42.2308C61.5601 43.8139 62.8481 45.1018 64.4312 45.1018H70.7476V56.873C70.7476 57.4015 71.1761 57.8301 71.7046 57.8301C72.2332 57.8301 72.6617 57.4015 72.6617 56.873V44.1448C72.6617 43.891 72.5608 43.6476 72.3814 43.4681L63.1939 34.2803C63.0143 34.1009 62.7709 34 62.5171 34H36.8711C35.288 34 34 35.288 34 36.8711V80.1289C34 81.712 35.288 83 36.8711 83H82.043C82.5715 83 83 82.5714 83 82.043V54.935C83 54.4065 82.5715 53.9779 82.043 53.9779ZM63.4742 37.2676L69.3943 43.1878H64.4312C63.9034 43.1878 63.4742 42.7585 63.4742 42.2308V37.2676ZM51.2266 81.0859H47.0156V74.4226H51.2266V81.0859ZM61.1797 81.0859H56.9688V68.9316H61.1797V81.0859ZM71.1328 81.0859H66.9219V62.2324H71.1328V81.0859Z" fill="white"/>
<path d="M47.9292 39.2373C47.4007 39.2373 46.9722 39.6659 46.9722 40.1943V41.9159C42.5669 42.3942 39.127 46.1362 39.127 50.6666C39.127 55.5201 43.0757 59.4688 47.9292 59.4688C52.4596 59.4688 56.2016 56.029 56.6799 51.6236H58.4014C58.9299 51.6236 59.3584 51.195 59.3584 50.6666C59.3584 44.3644 54.2313 39.2373 47.9292 39.2373ZM47.9292 57.5547C44.1311 57.5547 41.041 54.4646 41.041 50.6665C41.041 47.1931 43.6255 44.3119 46.9722 43.8445V50.6665C46.9722 51.1949 47.4007 51.6235 47.9292 51.6235H54.7512C54.2838 54.9702 51.4026 57.5547 47.9292 57.5547ZM48.8863 49.7095V49.7094V41.1991C53.3702 41.6491 56.9466 45.2256 57.3966 49.7095H48.8863Z" fill="white"/>
<path d="M58.4043 62.1606H40.125C39.5964 62.1606 39.168 62.5892 39.168 63.1177C39.168 63.6461 39.5964 64.0747 40.125 64.0747H58.4043C58.9329 64.0747 59.3613 63.6461 59.3613 63.1177C59.3613 62.5892 58.9329 62.1606 58.4043 62.1606Z" fill="white"/>
<path d="M46.25 66.7783H40.125C39.5964 66.7783 39.168 67.2069 39.168 67.7354C39.168 68.2638 39.5964 68.6924 40.125 68.6924H46.25C46.7786 68.6924 47.207 68.2638 47.207 67.7354C47.207 67.2069 46.7786 66.7783 46.25 66.7783Z" fill="white"/>
<defs>
<filter id="filter0_d" x="0" y="0" width="118" height="118" filterUnits="userSpaceOnUse" color-interpolation-filters="sRGB">
<feFlood flood-opacity="0" result="BackgroundImageFix"/>
<feColorMatrix in="SourceAlpha" type="matrix" values="0 0 0 0 0 0 0 0 0 0 0 0 0 0 0 0 0 0 127 0"/>
<feOffset dy="1"/>
<feGaussianBlur stdDeviation="4.5"/>
<feColorMatrix type="matrix" values="0 0 0 0 0.4 0 0 0 0 0.4 0 0 0 0 0.4 0 0 0 0.11 0"/>
<feBlend mode="normal" in2="BackgroundImageFix" result="effect1_dropShadow"/>
<feBlend mode="normal" in="SourceGraphic" in2="effect1_dropShadow" result="shape"/>
</filter>
<linearGradient id="paint0_linear" x1="59" y1="96.8792" x2="59" y2="8" gradientUnits="userSpaceOnUse">
<stop stop-color="#0083FE"/>
<stop offset="1" stop-color="#091CD0"/>
</linearGradient>
</defs>
</svg>
