<svg width="30" height="45" viewBox="0 0 30 45" fill="none" xmlns="http://www.w3.org/2000/svg">
<path d="M14.556 0C11.0777 0.00274791 7.71522 1.27565 5.07654 3.58852C2.43786 5.90139 0.697201 9.10155 0.169332 12.6103C0.169332 12.6103 0.169332 12.6103 0.169332 12.6198C0.0568612 13.3705 0.000256375 14.1288 0 14.8882C0.00606243 17.8252 0.864947 20.6946 2.46815 23.1336C4.07135 25.5727 6.34694 27.472 9.00739 28.5918C11.6679 29.7115 14.5938 30.0014 17.4156 29.4247C20.2374 28.848 22.8284 27.4307 24.8612 25.3518C26.8941 23.2729 28.2776 20.6257 28.837 17.7447C29.3964 14.8637 29.1065 11.8781 28.004 9.16517C26.9015 6.45222 25.0358 4.13361 22.6427 2.50233C20.2496 0.87104 17.4365 0.000275525 14.5587 0H14.556ZM14.556 23.9741C12.7944 23.9779 11.0714 23.4482 9.60487 22.4521C8.13838 21.456 6.99439 20.0384 6.31771 18.3785C5.64102 16.7186 5.46206 14.8911 5.80346 13.1274C6.14486 11.3636 6.99128 9.74288 8.23559 8.47029C9.47991 7.1977 11.0662 6.33047 12.7936 5.97835C14.5211 5.62622 16.3121 5.805 17.9399 6.49213C19.5677 7.17925 20.9593 8.3438 21.9383 9.83837C22.9174 11.333 23.44 13.0904 23.44 14.8882C23.4414 16.0802 23.2127 17.2608 22.767 18.3625C22.3212 19.4643 21.6672 20.4656 20.8422 21.3094C20.0172 22.1531 19.0374 22.8227 17.9588 23.2799C16.8802 23.7371 15.7239 23.973 14.556 23.9741Z" fill="url(#paint0_linear)"/>
<path d="M5.66996 26.6834V41.5155C5.67457 42.2886 5.37813 43.032 4.84582 43.5821C4.3135 44.1323 3.58889 44.4442 2.8313 44.4492C2.45888 44.4481 2.09036 44.3717 1.74707 44.2243C1.40378 44.0769 1.09252 43.8615 0.83131 43.5906C0.298651 43.0368 0.000766121 42.2915 0.00197641 41.5155V14.8857C-0.00201398 17.1639 0.507019 19.4126 1.48978 21.4582C2.47253 23.5037 3.90273 25.2915 5.66996 26.6834Z" fill="url(#paint1_linear)"/>
<path d="M25.0191 44.4526C27.2798 44.4526 29.1125 42.5786 29.1125 40.2668C29.1125 37.9551 27.2798 36.0811 25.0191 36.0811C22.7584 36.0811 20.9258 37.9551 20.9258 40.2668C20.9258 42.5786 22.7584 44.4526 25.0191 44.4526Z" fill="url(#paint2_linear)"/>
<defs>
<linearGradient id="paint0_linear" x1="18.5169" y1="29.1493" x2="10.2937" y2="0.652291" gradientUnits="userSpaceOnUse">
<stop stop-color="#3D5AFE"/>
<stop offset="0.406" stop-color="#3385FA"/>
<stop offset="0.793" stop-color="#2BA8F7"/>
<stop offset="1" stop-color="#29B6F6"/>
</linearGradient>
<linearGradient id="paint1_linear" x1="4.54207" y1="40.4877" x2="-3.47878" y2="39.4187" gradientUnits="userSpaceOnUse">
<stop stop-color="#3D5AFE"/>
<stop offset="0.626" stop-color="#2F96F8"/>
<stop offset="1" stop-color="#29B6F6"/>
</linearGradient>
<linearGradient id="paint2_linear" x1="26.1325" y1="44.2936" x2="23.8119" y2="36.2673" gradientUnits="userSpaceOnUse">
<stop stop-color="#1DE9B6"/>
<stop offset="1" stop-color="#009688"/>
</linearGradient>
</defs>
</svg>
