<svg width="38" height="42" viewBox="0 0 38 42" fill="none" xmlns="http://www.w3.org/2000/svg">
<path d="M13.6953 23.5268V31.5643C13.6972 31.9821 13.5491 32.3837 13.2834 32.6811C13.0178 32.9784 12.6563 33.1472 12.2783 33.1504C12.0922 33.1502 11.9079 33.1092 11.7363 33.0297C11.5646 32.9502 11.4089 32.8338 11.2783 32.6873C11.0118 32.3878 10.8627 31.9843 10.8633 31.5643V17.1372C10.8608 18.3709 11.1149 19.5887 11.6059 20.6966C12.097 21.8045 12.8118 22.7728 13.6953 23.5268Z" fill="white"/>
<g filter="url(#filter0_d)">
<path d="M18.1473 9.0718C16.4051 9.07203 14.7204 9.76091 13.3976 11.014C12.0748 12.2671 11.2011 14.0017 10.9343 15.9046C10.7079 17.5322 10.938 19.1973 11.5935 20.6761C12.2489 22.1549 13.2984 23.3763 14.6007 24.1762C15.903 24.976 17.3957 25.3159 18.878 25.1501C20.3603 24.9843 21.7611 24.3208 22.892 23.2488C24.0229 22.1768 24.8297 20.7477 25.2039 19.1538C25.578 17.5599 25.5016 15.8775 24.9848 14.333C24.4681 12.7886 23.5358 11.456 22.3134 10.5147C21.091 9.57327 19.6371 9.06821 18.1473 9.06738V9.0718ZM18.1473 22.0609C17.2671 22.0609 16.4068 21.7725 15.675 21.232C14.9432 20.6916 14.3728 19.9234 14.036 19.0247C13.6992 18.126 13.6111 17.137 13.7828 16.1829C13.9545 15.2289 14.3783 14.3525 15.0006 13.6646C15.623 12.9768 16.4159 12.5083 17.2791 12.3185C18.1423 12.1288 19.0371 12.2262 19.8502 12.5984C20.6633 12.9707 21.3583 13.6011 21.8473 14.4099C22.3363 15.2188 22.5973 16.1697 22.5973 17.1425C22.5973 18.4469 22.1284 19.698 21.2939 20.6204C20.4593 21.5427 19.3275 22.0609 18.1473 22.0609Z" fill="white"/>
</g>
<path d="M23.3928 33.1525C24.5255 33.1525 25.4438 32.1375 25.4438 30.8856C25.4438 29.6336 24.5255 28.6187 23.3928 28.6187C22.2601 28.6187 21.3418 29.6336 21.3418 30.8856C21.3418 32.1375 22.2601 33.1525 23.3928 33.1525Z" fill="#2BE7F4"/>
<defs>
<filter id="filter0_d" x="8.84961" y="9.06738" width="16.588" height="18.1237" filterUnits="userSpaceOnUse" color-interpolation-filters="sRGB">
<feFlood flood-opacity="0" result="BackgroundImageFix"/>
<feColorMatrix in="SourceAlpha" type="matrix" values="0 0 0 0 0 0 0 0 0 0 0 0 0 0 0 0 0 0 127 0"/>
<feOffset dx="-1" dy="1"/>
<feGaussianBlur stdDeviation="0.5"/>
<feColorMatrix type="matrix" values="0 0 0 0 0 0 0 0 0 0 0 0 0 0 0 0 0 0 0.15 0"/>
<feBlend mode="normal" in2="BackgroundImageFix" result="effect1_dropShadow"/>
<feBlend mode="normal" in="SourceGraphic" in2="effect1_dropShadow" result="shape"/>
</filter>
</defs>
</svg>
