<svg width="270" height="106" viewBox="0 0 270 106" fill="none" xmlns="http://www.w3.org/2000/svg">
<path d="M244.933 68.3359H241.94C241.667 68.3359 241.445 68.1147 241.445 67.8426C241.445 67.5704 241.667 67.3492 241.94 67.3492H244.933C245.206 67.3492 245.428 67.5704 245.428 67.8426C245.429 68.1157 245.207 68.3359 244.933 68.3359ZM237.948 68.3359H234.954C234.681 68.3359 234.46 68.1147 234.46 67.8426C234.46 67.5704 234.681 67.3492 234.954 67.3492H237.948C238.22 67.3492 238.442 67.5704 238.442 67.8426C238.442 68.1157 238.22 68.3359 237.948 68.3359ZM230.962 68.3359H227.968C227.696 68.3359 227.474 68.1147 227.474 67.8426C227.474 67.5704 227.696 67.3492 227.968 67.3492H230.962C231.235 67.3492 231.456 67.5704 231.456 67.8426C231.456 68.1157 231.235 68.3359 230.962 68.3359ZM223.976 68.3359H220.982C220.709 68.3359 220.488 68.1147 220.488 67.8426C220.488 67.5704 220.709 67.3492 220.982 67.3492H223.976C224.248 67.3492 224.47 67.5704 224.47 67.8426C224.47 68.1157 224.249 68.3359 223.976 68.3359ZM216.99 68.3359H213.996C213.723 68.3359 213.502 68.1147 213.502 67.8426C213.502 67.5704 213.723 67.3492 213.996 67.3492H216.99C217.263 67.3492 217.484 67.5704 217.484 67.8426C217.484 68.1157 217.263 68.3359 216.99 68.3359ZM248.923 68.2735C248.667 68.2735 248.45 68.076 248.431 67.817C248.41 67.5448 248.615 67.3086 248.887 67.2878C249.859 67.215 250.832 67.0751 251.781 66.8729C252.045 66.8152 252.31 66.9853 252.368 67.2519C252.425 67.5184 252.255 67.7811 251.988 67.8378C250.996 68.0495 249.978 68.196 248.962 68.2716C248.948 68.2735 248.936 68.2735 248.923 68.2735ZM255.69 66.6659C255.496 66.6659 255.313 66.5515 255.233 66.3616C255.129 66.1102 255.248 65.821 255.501 65.717C256.398 65.3456 257.279 64.9089 258.121 64.4175C258.357 64.2804 258.66 64.3589 258.797 64.5942C258.935 64.8296 258.856 65.132 258.62 65.269C257.74 65.7822 256.819 66.2397 255.88 66.6281C255.818 66.6536 255.754 66.6659 255.69 66.6659ZM261.617 63.0272C261.477 63.0272 261.339 62.9686 261.241 62.8552C261.063 62.6482 261.087 62.3364 261.294 62.1596C262.031 61.5273 262.734 60.8384 263.38 60.1135C263.562 59.9093 263.873 59.8914 264.078 60.0728C264.282 60.2543 264.3 60.5662 264.118 60.7694C263.443 61.5283 262.709 62.2485 261.938 62.9091C261.845 62.9875 261.73 63.0272 261.617 63.0272ZM266.119 57.7346C266.031 57.7346 265.943 57.711 265.863 57.6628C265.63 57.521 265.555 57.2177 265.697 56.9842C266.203 56.1544 266.656 55.283 267.043 54.3946C267.152 54.1451 267.443 54.0308 267.694 54.1394C267.943 54.2481 268.059 54.5392 267.949 54.7887C267.544 55.7178 267.071 56.6289 266.542 57.4974C266.449 57.6505 266.286 57.7346 266.119 57.7346ZM268.749 51.3079C268.712 51.3079 268.674 51.3041 268.636 51.2947C268.37 51.2332 268.205 50.9677 268.267 50.7021C268.487 49.7589 268.644 48.7892 268.735 47.8205C268.759 47.5492 269.001 47.3498 269.272 47.3744C269.544 47.3999 269.744 47.6399 269.719 47.9112C269.625 48.9243 269.461 49.9384 269.23 50.9251C269.177 51.1538 268.974 51.3079 268.749 51.3079Z" fill="white"/>
<path d="M43.6555 44.54C44.0616 44.54 44.3872 44.282 44.3872 43.9654V41.6669C44.3872 41.3503 44.0616 41.0923 43.6555 41.0923C43.2494 41.0923 42.9238 41.3503 42.9238 41.6669V43.9654C42.9238 44.282 43.2494 44.54 43.6555 44.54Z" fill="white"/>
<path d="M43.6555 39.0225C44.0616 39.0225 44.3872 38.7644 44.3872 38.4478V36.1493C44.3872 35.8327 44.0616 35.5747 43.6555 35.5747C43.2494 35.5747 42.9238 35.8327 42.9238 36.1493V38.4478C42.9238 38.7644 43.2494 39.0225 43.6555 39.0225Z" fill="white"/>
<path d="M43.6555 33.5068C44.0616 33.5068 44.3872 33.2488 44.3872 32.9322V30.6337C44.3872 30.3171 44.0616 30.0591 43.6555 30.0591C43.2494 30.0591 42.9238 30.3171 42.9238 30.6337V32.9322C42.9238 33.2488 43.2494 33.5068 43.6555 33.5068Z" fill="white"/>
<path d="M43.6555 27.9893C44.0616 27.9893 44.3872 27.7312 44.3872 27.4146V25.1161C44.3872 24.7995 44.0616 24.5415 43.6555 24.5415C43.2494 24.5415 42.9238 24.7995 42.9238 25.1161V27.4146C42.9238 27.7312 43.2494 27.9893 43.6555 27.9893Z" fill="white"/>
<path d="M43.7462 22.4737C44.1239 22.4737 44.4495 22.245 44.4779 21.9416C44.546 21.2072 44.6663 20.4597 44.8376 19.7215C44.9124 19.4096 44.6435 19.111 44.2488 19.0552C43.8087 18.9881 43.4717 19.2102 43.3969 19.5202C43.2199 20.2971 43.0883 21.0825 43.0136 21.8575C42.9852 22.1741 43.2881 22.4501 43.6885 22.4727C43.7121 22.4737 43.7292 22.4737 43.7462 22.4737Z" fill="white"/>
<path d="M45.1129 17.0798C45.4214 17.0798 45.7073 16.9248 45.8105 16.6829C46.1077 15.9599 46.4504 15.2577 46.8337 14.5952C46.9994 14.306 46.8337 13.9667 46.4674 13.8362C46.084 13.6992 45.6732 13.8315 45.4953 14.1235C45.0949 14.8239 44.7352 15.5648 44.4152 16.3275C44.2894 16.6281 44.5014 16.9541 44.8838 17.0505C44.9643 17.0704 45.0381 17.0798 45.1129 17.0798Z" fill="white"/>
<path d="M48.0791 12.0917C48.3252 12.0917 48.5647 11.9953 48.7019 11.8204C49.2112 11.1721 49.7592 10.554 50.3253 9.98219C50.5714 9.73269 50.5136 9.37165 50.1994 9.17602C49.8794 8.98322 49.4166 9.02575 49.1705 9.27714C48.5703 9.88107 47.9986 10.5322 47.4553 11.2146C47.2442 11.484 47.3464 11.8384 47.69 12.0066C47.8159 12.0652 47.9475 12.0917 48.0791 12.0917Z" fill="white"/>
<path d="M52.4578 7.79505C52.6405 7.79505 52.8298 7.74118 52.9727 7.63155C53.6647 7.09756 54.385 6.59666 55.1053 6.14111C55.4196 5.9417 55.4717 5.57972 55.2199 5.33305C54.9738 5.08165 54.5109 5.04385 54.191 5.24326C53.4309 5.72338 52.6765 6.24886 51.9438 6.81025C51.658 7.03235 51.6523 7.39622 51.9381 7.62304C52.0811 7.73646 52.2694 7.79505 52.4578 7.79505Z" fill="white"/>
<path d="M57.9992 4.42782C58.1308 4.42782 58.2567 4.40136 58.3769 4.34749C59.189 3.96566 60.0343 3.61125 60.8976 3.29275C61.2573 3.15571 61.4182 2.81452 61.2459 2.52721C61.0689 2.2399 60.6401 2.12743 60.2681 2.25124C59.3651 2.5877 58.4734 2.96101 57.6215 3.35985C57.2789 3.52335 57.1643 3.87588 57.3698 4.14996C57.507 4.32953 57.7531 4.42782 57.9992 4.42782Z" fill="white"/>
<path d="M64.3356 2.19819C64.4037 2.20291 64.4785 2.20008 64.5542 2.18968C65.4885 2.03374 66.4256 1.9156 67.3485 1.83999C67.7527 1.80691 68.0253 1.52338 67.9685 1.20866C67.9174 0.892051 67.5387 0.661445 67.1469 0.695469C66.1719 0.776748 65.1827 0.899612 64.2021 1.06122C63.8131 1.12738 63.5726 1.43076 63.6701 1.74265C63.7487 1.99499 64.0223 2.17551 64.3356 2.19819Z" fill="white"/>
<path d="M71.2836 1.74647C71.3007 1.74647 71.3121 1.74647 71.3291 1.74647C71.9178 1.71528 72.5407 1.68598 73.1181 1.70394H74.2104C74.6165 1.70394 74.9421 1.44592 74.9421 1.12931C74.9421 0.812702 74.6165 0.554688 74.2104 0.554688H73.1247C72.4669 0.556578 71.8611 0.570754 71.2382 0.597217C70.8378 0.617065 70.5292 0.891146 70.552 1.20776C70.5747 1.51114 70.9012 1.74647 71.2836 1.74647Z" fill="white"/>
<path d="M78.3098 1.70394H81.2366C81.6427 1.70394 81.9683 1.44592 81.9683 1.12931C81.9683 0.812702 81.6427 0.554688 81.2366 0.554688H78.3098C77.9037 0.554688 77.5781 0.812702 77.5781 1.12931C77.5781 1.44592 77.9037 1.70394 78.3098 1.70394Z" fill="white"/>
<path d="M85.3352 1.70394H88.262C88.668 1.70394 88.9936 1.44592 88.9936 1.12931C88.9936 0.812702 88.668 0.554688 88.262 0.554688H85.3352C84.9291 0.554688 84.6035 0.812702 84.6035 1.12931C84.6035 1.44592 84.9291 1.70394 85.3352 1.70394Z" fill="white"/>
<path d="M92.3567 1.70394H95.2835C95.6895 1.70394 96.0152 1.44592 96.0152 1.12931C96.0152 0.812702 95.6895 0.554688 95.2835 0.554688H92.3567C91.9506 0.554688 91.625 0.812702 91.625 1.12931C91.625 1.44592 91.9506 1.70394 92.3567 1.70394Z" fill="white"/>
<path d="M78.8958 68.4475H207.688C208.094 68.4475 208.42 68.1914 208.42 67.8729C208.42 67.5544 208.094 67.2983 207.688 67.2983H78.8958C72.71 67.2983 67.6743 63.343 67.6743 58.4852V47.6249C67.6743 47.3064 67.3487 47.0503 66.9426 47.0503C66.5366 47.0503 66.2109 47.3064 66.2109 47.6249V58.4852C66.2109 63.981 71.8988 68.4475 78.8958 68.4475Z" fill="white"/>
<path d="M269.268 44.0203C269.674 44.0203 270 43.7641 270 43.4456V12.3147C270 5.52699 262.968 0 254.325 0H217.206C216.8 0 216.475 0.256124 216.475 0.574625C216.475 0.893126 216.8 1.14925 217.206 1.14925H254.325C262.162 1.14925 268.536 6.15926 268.536 12.3147V43.4456C268.536 43.7641 268.863 44.0203 269.268 44.0203Z" fill="white"/>
<path d="M10.0024 103.581C8.87315 104.562 7.4287 105.089 5.93407 105.062C4.22648 105.034 2.60218 104.275 1.4805 102.987C0.498915 101.86 -0.0264265 100.419 0.00102382 98.9249C0.0303672 97.2218 0.78951 95.6 2.07967 94.48C3.20798 93.5009 4.65148 92.9745 6.14516 93.001C7.08225 93.0161 7.9777 93.242 8.80689 93.6673C8.97348 93.7542 9.04069 93.9593 8.95361 94.1247C8.87031 94.2986 8.66301 94.361 8.49263 94.2731C7.7581 93.895 6.96583 93.6975 6.13475 93.6843C4.80861 93.6616 3.52791 94.1237 2.52645 94.9932C1.38206 95.9875 0.711892 97.4269 0.686335 98.9391C0.660778 100.261 1.12554 101.539 1.99638 102.538C2.99121 103.681 4.43093 104.353 5.94449 104.378C7.27062 104.401 8.55321 103.938 9.55467 103.067C10.6972 102.076 11.3683 100.639 11.3957 99.1252C11.4043 98.561 11.3257 98.0034 11.1638 97.4694C11.1118 97.2908 11.2178 97.1056 11.392 97.0441C11.5737 96.9912 11.764 97.0904 11.8198 97.2738C12.0006 97.872 12.0877 98.4996 12.0792 99.1366C12.0498 100.845 11.2897 102.462 10.0024 103.581Z" fill="white"/>
<path d="M8.90609 102.324C8.16682 102.966 7.25528 103.335 6.27275 103.389C4.91822 103.464 3.629 102.918 2.73829 101.895C2.09557 101.157 1.72642 100.247 1.67246 99.266C1.59958 97.9117 2.14764 96.6282 3.17276 95.7379C3.91297 95.0953 4.82357 94.7276 5.80326 94.6728C6.36268 94.6426 6.91168 94.7172 7.43324 94.8949C7.61214 94.9554 7.70679 95.1482 7.64716 95.3268C7.59415 95.5111 7.39537 95.6028 7.21363 95.5414C6.77727 95.393 6.31251 95.3287 5.84112 95.3561C5.01288 95.4005 4.24522 95.7096 3.62143 96.2521C2.75627 97.0034 2.29625 98.0894 2.35777 99.2301C2.40321 100.06 2.71463 100.825 3.25606 101.448C4.00763 102.311 5.09239 102.77 6.23584 102.707C7.06692 102.664 7.83553 102.354 8.45931 101.812C9.32352 101.062 9.78355 99.9758 9.72108 98.835C9.71634 98.7576 9.70783 98.6801 9.70025 98.6054C9.67943 98.4201 9.81289 98.2519 9.99937 98.2273C10.1877 98.2056 10.3572 98.3389 10.3799 98.5269C10.3912 98.6148 10.3969 98.7027 10.4026 98.7954C10.4755 100.149 9.93121 101.434 8.90609 102.324Z" fill="white"/>
<path d="M245.608 10.3933H72.4255C62.5415 10.3933 54.5042 16.7057 54.5042 24.4688V65.2974L5.6644 98.1432L4.93555 98.7689L5.76284 99.6384L55.9667 65.2502V24.4678C55.9667 17.3427 63.3527 11.5426 72.4246 11.5426H245.608C251.792 11.5426 256.83 15.4978 256.83 20.3557V27.3599C256.83 27.6784 257.156 27.9345 257.562 27.9345C257.967 27.9345 258.293 27.6784 258.293 27.3599V20.3557C258.293 14.8599 252.605 10.3933 245.608 10.3933Z" fill="white"/>
</svg>
