<svg width="270" height="106" viewBox="0 0 270 106" fill="none" xmlns="http://www.w3.org/2000/svg">
<path d="M244.933 36.7273H241.94C241.667 36.7273 241.445 36.9485 241.445 37.2207C241.445 37.4929 241.667 37.714 241.94 37.714H244.933C245.206 37.714 245.428 37.4929 245.428 37.2207C245.429 36.9475 245.207 36.7273 244.933 36.7273ZM237.948 36.7273H234.954C234.681 36.7273 234.46 36.9485 234.46 37.2207C234.46 37.4929 234.681 37.714 234.954 37.714H237.948C238.22 37.714 238.442 37.4929 238.442 37.2207C238.442 36.9475 238.22 36.7273 237.948 36.7273ZM230.962 36.7273H227.968C227.696 36.7273 227.474 36.9485 227.474 37.2207C227.474 37.4929 227.696 37.714 227.968 37.714H230.962C231.235 37.714 231.456 37.4929 231.456 37.2207C231.456 36.9475 231.235 36.7273 230.962 36.7273ZM223.976 36.7273H220.982C220.709 36.7273 220.488 36.9485 220.488 37.2207C220.488 37.4929 220.709 37.714 220.982 37.714H223.976C224.248 37.714 224.47 37.4929 224.47 37.2207C224.47 36.9475 224.249 36.7273 223.976 36.7273ZM216.99 36.7273H213.996C213.723 36.7273 213.502 36.9485 213.502 37.2207C213.502 37.4929 213.723 37.714 213.996 37.714H216.99C217.263 37.714 217.484 37.4929 217.484 37.2207C217.484 36.9475 217.263 36.7273 216.99 36.7273ZM248.923 36.7897C248.667 36.7897 248.45 36.9872 248.431 37.2462C248.41 37.5184 248.615 37.7547 248.887 37.7755C249.859 37.8482 250.832 37.9881 251.781 38.1904C252.045 38.248 252.31 38.0779 252.368 37.8114C252.425 37.5448 252.255 37.2821 251.988 37.2254C250.996 37.0137 249.978 36.8672 248.962 36.7916C248.948 36.7897 248.936 36.7897 248.923 36.7897ZM255.69 38.3973C255.496 38.3973 255.313 38.5117 255.233 38.7017C255.129 38.9531 255.248 39.2423 255.501 39.3462C256.398 39.7176 257.279 40.1543 258.121 40.6457C258.357 40.7828 258.66 40.7043 258.797 40.469C258.935 40.2337 258.856 39.9312 258.62 39.7942C257.74 39.281 256.819 38.8236 255.88 38.4351C255.818 38.4096 255.754 38.3973 255.69 38.3973ZM261.617 42.036C261.477 42.036 261.339 42.0946 261.241 42.208C261.063 42.415 261.087 42.7269 261.294 42.9036C262.031 43.5359 262.734 44.2249 263.38 44.9498C263.562 45.1539 263.873 45.1719 264.078 44.9904C264.282 44.8089 264.3 44.4971 264.118 44.2939C263.443 43.5349 262.709 42.8148 261.938 42.1541C261.845 42.0757 261.73 42.036 261.617 42.036ZM266.119 47.3286C266.031 47.3286 265.943 47.3522 265.863 47.4004C265.63 47.5422 265.555 47.8456 265.697 48.079C266.203 48.9088 266.656 49.7802 267.043 50.6686C267.152 50.9181 267.443 51.0325 267.694 50.9238C267.943 50.8151 268.059 50.524 267.949 50.2745C267.544 49.3455 267.071 48.4344 266.542 47.5658C266.449 47.4127 266.286 47.3286 266.119 47.3286ZM268.749 53.7553C268.712 53.7553 268.674 53.7591 268.636 53.7686C268.37 53.83 268.205 54.0956 268.267 54.3612C268.487 55.3044 268.644 56.274 268.735 57.2428C268.759 57.514 269.001 57.7134 269.272 57.6889C269.544 57.6634 269.744 57.4233 269.719 57.152C269.625 56.1389 269.461 55.1248 269.23 54.1381C269.177 53.9094 268.974 53.7553 268.749 53.7553Z" fill="white"/>
<path d="M43.6555 60.5232C44.0616 60.5232 44.3872 60.7812 44.3872 61.0978V63.3963C44.3872 63.7129 44.0616 63.9709 43.6555 63.9709C43.2494 63.9709 42.9238 63.7129 42.9238 63.3963V61.0978C42.9238 60.7812 43.2494 60.5232 43.6555 60.5232Z" fill="white"/>
<path d="M43.6555 66.0408C44.0616 66.0408 44.3872 66.2988 44.3872 66.6154V68.9139C44.3872 69.2305 44.0616 69.4885 43.6555 69.4885C43.2494 69.4885 42.9238 69.2305 42.9238 68.9139V66.6154C42.9238 66.2988 43.2494 66.0408 43.6555 66.0408Z" fill="white"/>
<path d="M43.6555 71.5564C44.0616 71.5564 44.3872 71.8144 44.3872 72.131V74.4295C44.3872 74.7461 44.0616 75.0042 43.6555 75.0042C43.2494 75.0042 42.9238 74.7461 42.9238 74.4295V72.131C42.9238 71.8144 43.2494 71.5564 43.6555 71.5564Z" fill="white"/>
<path d="M43.6555 77.074C44.0616 77.074 44.3872 77.332 44.3872 77.6486V79.9471C44.3872 80.2637 44.0616 80.5217 43.6555 80.5217C43.2494 80.5217 42.9238 80.2637 42.9238 79.9471V77.6486C42.9238 77.332 43.2494 77.074 43.6555 77.074Z" fill="white"/>
<path d="M43.7462 82.5896C44.1239 82.5896 44.4495 82.8183 44.4779 83.1216C44.546 83.856 44.6663 84.6036 44.8376 85.3417C44.9124 85.6536 44.6435 85.9522 44.2488 86.008C43.8087 86.0751 43.4717 85.853 43.3969 85.543C43.2199 84.7661 43.0883 83.9808 43.0136 83.2058C42.9852 82.8892 43.2881 82.6132 43.6885 82.5905C43.7121 82.5896 43.7292 82.5896 43.7462 82.5896Z" fill="white"/>
<path d="M45.1129 87.9834C45.4214 87.9834 45.7073 88.1384 45.8105 88.3803C46.1077 89.1033 46.4504 89.8056 46.8337 90.4681C46.9994 90.7573 46.8337 91.0966 46.4674 91.227C46.084 91.364 45.6732 91.2317 45.4953 90.9397C45.0949 90.2394 44.7352 89.4984 44.4152 88.7357C44.2894 88.4351 44.5014 88.1091 44.8838 88.0127C44.9643 87.9928 45.0381 87.9834 45.1129 87.9834Z" fill="white"/>
<path d="M48.0791 92.9716C48.3252 92.9716 48.5647 93.068 48.7019 93.2428C49.2112 93.8911 49.7592 94.5092 50.3253 95.081C50.5714 95.3305 50.5136 95.6916 50.1994 95.8872C49.8794 96.08 49.4166 96.0375 49.1705 95.7861C48.5703 95.1822 47.9986 94.531 47.4553 93.8486C47.2442 93.5793 47.3464 93.2248 47.69 93.0566C47.8159 92.998 47.9475 92.9716 48.0791 92.9716Z" fill="white"/>
<path d="M52.4578 97.2682C52.6405 97.2682 52.8298 97.3221 52.9727 97.4317C53.6647 97.9657 54.385 98.4666 55.1053 98.9221C55.4196 99.1215 55.4717 99.4835 55.2199 99.7302C54.9738 99.9816 54.5109 100.019 54.191 99.82C53.4309 99.3399 52.6765 98.8144 51.9438 98.253C51.658 98.0309 51.6523 97.667 51.9381 97.4402C52.0811 97.3268 52.2694 97.2682 52.4578 97.2682Z" fill="white"/>
<path d="M57.9992 100.635C58.1308 100.635 58.2567 100.662 58.3769 100.716C59.189 101.098 60.0343 101.452 60.8976 101.77C61.2573 101.908 61.4182 102.249 61.2459 102.536C61.0689 102.823 60.6401 102.936 60.2681 102.812C59.3651 102.476 58.4734 102.102 57.6215 101.703C57.2789 101.54 57.1643 101.187 57.3698 100.913C57.507 100.734 57.7531 100.635 57.9992 100.635Z" fill="white"/>
<path d="M64.3356 102.865C64.4037 102.86 64.4785 102.863 64.5542 102.874C65.4885 103.029 66.4256 103.148 67.3485 103.223C67.7527 103.256 68.0253 103.54 67.9685 103.855C67.9174 104.171 67.5387 104.402 67.1469 104.368C66.1719 104.286 65.1827 104.164 64.2021 104.002C63.8131 103.936 63.5726 103.632 63.6701 103.321C63.7487 103.068 64.0223 102.888 64.3356 102.865Z" fill="white"/>
<path d="M71.2836 103.317C71.3007 103.317 71.3121 103.317 71.3291 103.317C71.9178 103.348 72.5407 103.377 73.1181 103.359H74.2104C74.6165 103.359 74.9421 103.617 74.9421 103.934C74.9421 104.251 74.6165 104.509 74.2104 104.509H73.1247C72.4669 104.507 71.8611 104.492 71.2382 104.466C70.8378 104.446 70.5292 104.172 70.552 103.855C70.5747 103.552 70.9012 103.317 71.2836 103.317Z" fill="white"/>
<path d="M78.3098 103.359H81.2366C81.6427 103.359 81.9683 103.617 81.9683 103.934C81.9683 104.251 81.6427 104.509 81.2366 104.509H78.3098C77.9037 104.509 77.5781 104.251 77.5781 103.934C77.5781 103.617 77.9037 103.359 78.3098 103.359Z" fill="white"/>
<path d="M85.3352 103.359H88.262C88.668 103.359 88.9936 103.617 88.9936 103.934C88.9936 104.251 88.668 104.509 88.262 104.509H85.3352C84.9291 104.509 84.6035 104.251 84.6035 103.934C84.6035 103.617 84.9291 103.359 85.3352 103.359Z" fill="white"/>
<path d="M92.3567 103.359H95.2835C95.6895 103.359 96.0152 103.617 96.0152 103.934C96.0152 104.251 95.6895 104.509 95.2835 104.509H92.3567C91.9506 104.509 91.625 104.251 91.625 103.934C91.625 103.617 91.9506 103.359 92.3567 103.359Z" fill="white"/>
<path d="M78.8958 36.6157H207.688C208.094 36.6157 208.42 36.8718 208.42 37.1903C208.42 37.5088 208.094 37.765 207.688 37.765H78.8958C72.71 37.765 67.6743 41.7202 67.6743 46.5781V57.4383C67.6743 57.7568 67.3487 58.0129 66.9426 58.0129C66.5366 58.0129 66.2109 57.7568 66.2109 57.4383V46.5781C66.2109 41.0823 71.8988 36.6157 78.8958 36.6157Z" fill="white"/>
<path d="M269.268 61.043C269.674 61.043 270 61.2991 270 61.6176V92.7485C270 99.5362 262.968 105.063 254.325 105.063H217.206C216.8 105.063 216.475 104.807 216.475 104.489C216.475 104.17 216.8 103.914 217.206 103.914H254.325C262.162 103.914 268.536 98.904 268.536 92.7485V61.6176C268.536 61.2991 268.863 61.043 269.268 61.043Z" fill="white"/>
<path d="M10.0024 1.48181C8.87315 0.501732 7.4287 -0.025631 5.93407 0.000832558C4.22648 0.0291853 2.60218 0.788102 1.4805 2.07628C0.498915 3.20285 -0.0264265 4.64413 0.00102382 6.13835C0.0303672 7.84143 0.78951 9.46324 2.07967 10.5832C3.20798 11.5623 4.65148 12.0887 6.14516 12.0623C7.08225 12.0472 7.9777 11.8213 8.80689 11.396C8.97348 11.309 9.04069 11.1039 8.95361 10.9385C8.87031 10.7646 8.66301 10.7023 8.49263 10.7902C7.7581 11.1682 6.96583 11.3657 6.13475 11.379C4.80861 11.4016 3.52791 10.9395 2.52645 10.07C1.38206 9.07574 0.711892 7.63635 0.686335 6.12418C0.660778 4.80197 1.12554 3.52419 1.99638 2.52521C2.99121 1.38257 4.43093 0.710607 5.94449 0.685088C7.27062 0.662406 8.55321 1.12551 9.55467 1.99595C10.6972 2.98737 11.3683 4.42393 11.3957 5.93799C11.4043 6.50221 11.3257 7.05983 11.1638 7.59381C11.1118 7.77244 11.2178 7.95768 11.392 8.01911C11.5737 8.07204 11.764 7.9728 11.8198 7.78945C12.0006 7.1912 12.0877 6.56365 12.0792 5.92665C12.0498 4.21789 11.2897 2.60081 10.0024 1.48181Z" fill="white"/>
<path d="M8.90609 2.73886C8.16682 2.09713 7.25528 1.72854 6.27275 1.67467C4.91822 1.59906 3.629 2.14533 2.73829 3.16793C2.09557 3.90606 1.72642 4.8162 1.67246 5.79721C1.59958 7.15155 2.14764 8.435 3.17276 9.32529C3.91297 9.96796 4.82357 10.3356 5.80326 10.3904C6.36268 10.4207 6.91168 10.346 7.43324 10.1683C7.61214 10.1078 7.70679 9.91504 7.64716 9.73641C7.59415 9.55212 7.39537 9.46044 7.21363 9.52188C6.77727 9.67026 6.31251 9.73452 5.84112 9.70711C5.01288 9.66269 4.24522 9.35365 3.62143 8.81116C2.75627 8.0598 2.29625 6.97387 2.35777 5.83313C2.40321 5.00333 2.71463 4.2378 3.25606 3.61497C4.00763 2.75209 5.09239 2.29277 6.23584 2.35609C7.06692 2.39957 7.83553 2.70956 8.45931 3.2511C9.32352 4.00152 9.78355 5.08744 9.72108 6.22818C9.71634 6.30568 9.70783 6.38318 9.70025 6.45784C9.67943 6.64308 9.81289 6.81131 9.99937 6.83588C10.1877 6.85762 10.3572 6.72436 10.3799 6.53629C10.3912 6.44839 10.3969 6.3605 10.4026 6.26788C10.4755 4.91449 9.93121 3.62915 8.90609 2.73886Z" fill="white"/>
<path d="M245.608 94.6699H72.4255C62.5415 94.6699 54.5042 88.3576 54.5042 80.5944V39.7658L5.6644 6.91998L4.93555 6.29433L5.76284 5.42484L55.9667 39.8131V80.5954C55.9667 87.7205 63.3527 93.5207 72.4246 93.5207H245.608C251.792 93.5207 256.83 89.5654 256.83 84.7076V77.7034C256.83 77.3849 257.156 77.1287 257.562 77.1287C257.967 77.1287 258.293 77.3849 258.293 77.7034V84.7076C258.293 90.2033 252.605 94.6699 245.608 94.6699Z" fill="white"/>
</svg>
