<svg width="83" height="76" viewBox="0 0 83 76" fill="none" xmlns="http://www.w3.org/2000/svg">
<path d="M35.8733 3.32147V16.8407C35.8733 18.675 34.3864 20.1608 32.5532 20.1608C26.0117 20.1608 22.453 26.8696 21.9591 40.1131H32.5532C34.3862 40.1131 35.8733 41.6009 35.8733 43.4332V71.9796C35.8733 73.8132 34.3864 75.299 32.5532 75.299H4.30786C2.47513 75.299 0.987541 73.8116 0.987541 71.9796V43.4329C0.987541 37.085 1.6284 31.2598 2.88643 26.1151C4.17881 20.8411 6.16265 16.2302 8.78154 12.4092C11.4749 8.48266 14.847 5.4014 18.7982 3.25555C22.7793 1.09601 27.4071 -7.62939e-06 32.5546 -7.62939e-06C34.3862 0.00138503 35.8733 1.48851 35.8733 3.32147ZM78.6923 20.1619C80.5253 20.1619 82.0117 18.675 82.0117 16.8432V3.32124C82.0117 1.48851 80.5253 0.00254822 78.6923 0.00254822C73.5474 0.00254822 68.9173 1.0988 64.9387 3.25811C60.9854 5.40373 57.6138 8.48242 54.9206 12.4118C52.3001 16.2328 50.3165 20.8439 49.0241 26.1204C47.7654 31.2651 47.126 37.0906 47.126 43.4357V71.9824C47.126 73.816 48.6138 75.3018 50.446 75.3018H78.6923C80.5253 75.3018 82.0117 73.8146 82.0117 71.9824V43.4357C82.0117 41.6023 80.5253 40.1156 78.6923 40.1156H68.247C68.7348 26.871 72.2422 20.1619 78.6923 20.1619Z" fill="#F1F5FB"/>
</svg>
