<svg width="44" height="58" viewBox="0 0 44 58" fill="none" xmlns="http://www.w3.org/2000/svg">
<path d="M32.625 48.3333C31.958 48.3333 31.4167 47.792 31.4167 47.125C31.4167 42.485 33.1011 38.0432 36.163 34.6188C39.3361 31.0711 41.0833 26.5012 41.0833 21.75C41.0833 11.0901 32.4099 2.41667 21.75 2.41667C11.0901 2.41667 2.41667 11.0901 2.41667 21.75C2.41667 26.5012 4.16392 31.0711 7.337 34.6188C10.3989 38.0432 12.0833 42.485 12.0833 47.125C12.0833 47.792 11.542 48.3333 10.875 48.3333C10.208 48.3333 9.66667 47.792 9.66667 47.125C9.66667 43.0795 8.19975 39.2104 5.53417 36.2307C1.96475 32.2383 0 27.0957 0 21.75C0 9.7585 9.75608 0 21.75 0C33.7439 0 43.5 9.7585 43.5 21.75C43.5 27.0957 41.5352 32.2383 37.9658 36.2307C35.3002 39.2104 33.8333 43.0795 33.8333 47.125C33.8333 47.792 33.292 48.3333 32.625 48.3333Z" fill="url(#paint0_linear)"/>
<path d="M27.791 58.0001H15.7077C12.3751 58.0001 9.66602 55.2886 9.66602 51.9584V47.1251C9.66602 46.4581 10.2073 45.9167 10.8743 45.9167H32.6244C33.2914 45.9167 33.8327 46.4581 33.8327 47.1251V51.9584C33.8327 55.2886 31.1236 58.0001 27.791 58.0001ZM12.0827 48.3334V51.9584C12.0827 53.957 13.7091 55.5834 15.7077 55.5834H27.791C29.7896 55.5834 31.416 53.957 31.416 51.9584V48.3334H12.0827Z" fill="url(#paint1_linear)"/>
<path d="M21.7493 46.6175C21.0823 46.6175 20.541 46.0762 20.541 45.4092V15.7083C20.541 15.0413 21.0823 14.5 21.7493 14.5C22.4163 14.5 22.9577 15.0413 22.9577 15.7083V45.4092C22.9577 46.0762 22.4163 46.6175 21.7493 46.6175Z" fill="url(#paint2_linear)"/>
<path d="M21.7493 16.9167C19.0838 16.9167 16.916 14.7489 16.916 12.0833C16.916 9.41775 19.0838 7.25 21.7493 7.25C24.4149 7.25 26.5827 9.41775 26.5827 12.0833C26.5827 14.7489 24.4149 16.9167 21.7493 16.9167ZM21.7493 9.66667C20.4153 9.66667 19.3327 10.7517 19.3327 12.0833C19.3327 13.4149 20.4153 14.5 21.7493 14.5C23.0833 14.5 24.166 13.4149 24.166 12.0833C24.166 10.7517 23.0833 9.66667 21.7493 9.66667Z" fill="url(#paint3_linear)"/>
<path d="M12.0833 28.9999C9.41775 28.9999 7.25 26.8322 7.25 24.1666C7.25 21.501 9.41775 19.3333 12.0833 19.3333C14.7489 19.3333 16.9167 21.501 16.9167 24.1666C16.9167 26.8322 14.7489 28.9999 12.0833 28.9999ZM12.0833 21.7499C10.7493 21.7499 9.66667 22.835 9.66667 24.1666C9.66667 25.4982 10.7493 26.5832 12.0833 26.5832C13.4173 26.5832 14.5 25.4982 14.5 24.1666C14.5 22.835 13.4173 21.7499 12.0833 21.7499Z" fill="url(#paint4_linear)"/>
<path d="M31.4173 28.9999C28.7517 28.9999 26.584 26.8322 26.584 24.1666C26.584 21.501 28.7517 19.3333 31.4173 19.3333C34.0829 19.3333 36.2506 21.501 36.2506 24.1666C36.2506 26.8322 34.0829 28.9999 31.4173 28.9999ZM31.4173 21.7499C30.0833 21.7499 29.0007 22.835 29.0007 24.1666C29.0007 25.4982 30.0833 26.5832 31.4173 26.5832C32.7513 26.5832 33.834 25.4982 33.834 24.1666C33.834 22.835 32.7513 21.7499 31.4173 21.7499Z" fill="url(#paint5_linear)"/>
<path d="M21.7504 41.0833C21.3299 41.0833 20.9408 40.8658 20.7209 40.5081L12.9392 27.8689C12.5888 27.301 12.7676 26.5567 13.3356 26.2063C13.8962 25.8583 14.6454 26.0299 14.9982 26.6026L21.7504 37.5694L28.5026 26.6002C28.8554 26.0299 29.6046 25.8559 30.1652 26.2039C30.7331 26.5543 30.912 27.2986 30.5616 27.8665L22.7799 40.5057C22.56 40.8658 22.1709 41.0833 21.7504 41.0833Z" fill="url(#paint6_linear)"/>
<defs>
<linearGradient id="paint0_linear" x1="21.75" y1="42.9583" x2="21.75" y2="-2.01569e-06" gradientUnits="userSpaceOnUse">
<stop stop-color="#0083FE"/>
<stop offset="1" stop-color="#091CD0"/>
</linearGradient>
<linearGradient id="paint1_linear" x1="21.7494" y1="56.6563" x2="21.7494" y2="45.9167" gradientUnits="userSpaceOnUse">
<stop stop-color="#0083FE"/>
<stop offset="1" stop-color="#091CD0"/>
</linearGradient>
<linearGradient id="paint2_linear" x1="21.7493" y1="43.0458" x2="21.7493" y2="14.5" gradientUnits="userSpaceOnUse">
<stop stop-color="#0083FE"/>
<stop offset="1" stop-color="#091CD0"/>
</linearGradient>
<linearGradient id="paint3_linear" x1="21.7493" y1="15.8417" x2="21.7493" y2="7.25" gradientUnits="userSpaceOnUse">
<stop stop-color="#0083FE"/>
<stop offset="1" stop-color="#091CD0"/>
</linearGradient>
<linearGradient id="paint4_linear" x1="12.0833" y1="27.9249" x2="12.0833" y2="19.3333" gradientUnits="userSpaceOnUse">
<stop stop-color="#0083FE"/>
<stop offset="1" stop-color="#091CD0"/>
</linearGradient>
<linearGradient id="paint5_linear" x1="31.4173" y1="27.9249" x2="31.4173" y2="19.3333" gradientUnits="userSpaceOnUse">
<stop stop-color="#0083FE"/>
<stop offset="1" stop-color="#091CD0"/>
</linearGradient>
<linearGradient id="paint6_linear" x1="21.7504" y1="39.4087" x2="21.7504" y2="26.0249" gradientUnits="userSpaceOnUse">
<stop stop-color="#0083FE"/>
<stop offset="1" stop-color="#091CD0"/>
</linearGradient>
</defs>
</svg>
