<svg width="53" height="56" viewBox="0 0 53 56" fill="none" xmlns="http://www.w3.org/2000/svg">
<path d="M50.1664 35.9144C49.0644 35.9144 48.1711 36.8077 48.1711 37.9097V49.8811C48.1711 50.9831 47.2778 51.8764 46.1758 51.8764H6.27101C5.16903 51.8764 4.27573 50.9831 4.27573 49.8811V37.9097C4.27573 36.8077 3.38243 35.9144 2.28044 35.9144C1.17846 35.9144 0.285156 36.8077 0.285156 37.9097V49.8811C0.285156 53.187 2.96506 55.8669 6.2709 55.8669H46.1759C49.4817 55.8669 52.1616 53.187 52.1616 49.8811V37.9097C52.1616 36.8077 51.2683 35.9144 50.1664 35.9144Z" fill="#0738DD"/>
<path d="M37.5662 34.5038C36.793 33.7571 35.5672 33.7571 34.7941 34.5038L28.2197 41.0741V1.99529C28.2197 0.893302 27.3264 0 26.2244 0C25.1224 0 24.2291 0.893302 24.2291 1.99529V41.0742L17.6587 34.5038C16.8661 33.7383 15.603 33.7603 14.8375 34.5528C14.0906 35.326 14.0906 36.5518 14.8375 37.3251L24.8136 47.3013C25.5919 48.0814 26.8552 48.083 27.6354 47.3049C27.6365 47.3037 27.6377 47.3025 27.639 47.3013L37.6152 37.3251C38.3808 36.5324 38.3588 35.2693 37.5662 34.5038Z" fill="#0738DD"/>
</svg>
