<svg width="54" height="55" viewBox="0 0 54 55" fill="none" xmlns="http://www.w3.org/2000/svg">
<path d="M26.6667 54.4307C41.3943 54.4307 53.3334 42.2459 53.3334 27.2153C53.3334 12.1847 41.3943 0 26.6667 0C11.9391 0 0 12.1847 0 27.2153C0 42.2459 11.9391 54.4307 26.6667 54.4307Z" fill="white"/>
<path d="M26.666 53.75C41.0254 53.75 52.666 41.8701 52.666 27.2156C52.666 12.561 41.0254 0.681152 26.666 0.681152C12.3066 0.681152 0.666016 12.561 0.666016 27.2156C0.666016 41.8701 12.3066 53.75 26.666 53.75Z" stroke="#F5F5F5"/>
<path d="M37.2435 38.02V30.5602C37.2435 26.9133 36.4742 24.1047 32.2969 24.1047C31.5124 24.0747 30.7346 24.2627 30.0466 24.6485C29.3586 25.0344 28.7861 25.6036 28.3903 26.2955H28.3383V24.4449H24.377V38.02H28.5009V31.2964C28.5009 29.5274 28.8289 27.8169 30.9769 27.8169C33.0916 27.8169 33.1236 29.8363 33.1236 31.4107V38.02H37.2435Z" fill="#0077B5"/>
<path d="M17.668 24.4463H21.8013V38.0161H17.668V24.4463Z" fill="#0077B5"/>
<path d="M19.7258 17.69C19.2503 17.6881 18.7851 17.8304 18.389 18.0987C17.9929 18.3671 17.6839 18.7495 17.501 19.1975C17.3182 19.6454 17.2698 20.1387 17.362 20.6147C17.4542 21.0908 17.6828 21.5281 18.0189 21.8714C18.355 22.2146 18.7833 22.4482 19.2497 22.5426C19.716 22.637 20.1993 22.5878 20.6383 22.4015C21.0772 22.2151 21.452 21.8998 21.7152 21.4957C21.9784 21.0916 22.118 20.6168 22.1164 20.1315C22.1164 19.4842 21.8646 18.8634 21.4163 18.4056C20.968 17.9477 20.3599 17.6903 19.7258 17.69Z" fill="#0077B5"/>
</svg>
